<svg class="svg-icon" viewBox="0 0 24 24" fill="none" xmlns="http://www.w3.org/2000/svg">
    <path class="svg-icon-path" fill-rule="evenodd" clip-rule="evenodd"
        d="M12 2.00001C9.62362 1.99759 7.32405 2.84152 5.51339 4.38057C3.70273 5.91961 2.49933 8.05316 2.11884 10.3989C1.73835 12.7446 2.20566 15.1491 3.437 17.1816C4.66835 19.2141 6.58325 20.7416 8.83854 21.4905C9.34192 21.5826 9.51994 21.2695 9.51994 21.0055C9.51994 20.7416 9.51994 20.14 9.51994 19.3051C6.72682 19.9128 6.1375 17.9607 6.1375 17.9607C5.9522 17.3557 5.55854 16.8359 5.02639 16.4936C4.124 15.8797 5.10005 15.8797 5.10005 15.8797C5.41638 15.9244 5.71839 16.0404 5.98322 16.2191C6.24805 16.3978 6.46875 16.6344 6.6286 16.911C6.76443 17.1573 6.94755 17.3743 7.16746 17.5497C7.38737 17.725 7.63974 17.8552 7.91009 17.9328C8.18043 18.0103 8.46344 18.0337 8.74286 18.0017C9.02228 17.9696 9.29262 17.8827 9.53836 17.7459C9.57689 17.2409 9.7946 16.7662 10.1522 16.4076C7.93001 16.1559 5.59729 15.2965 5.59729 11.4966C5.58203 10.504 5.94909 9.54349 6.62246 8.814C6.32256 7.95091 6.35761 7.00668 6.72068 6.16821C6.72068 6.16821 7.56169 5.8981 9.47083 7.19338C11.1102 6.74326 12.8406 6.74326 14.48 7.19338C16.3892 5.8981 17.2241 6.16821 17.2241 6.16821C17.5922 6.99781 17.636 7.93527 17.3468 8.79559C18.0202 9.52507 18.3873 10.4856 18.372 11.4782C18.372 15.3211 16.0331 16.1621 13.8048 16.3892C14.0437 16.6294 14.2282 16.9181 14.3458 17.2359C14.4634 17.5536 14.5112 17.893 14.4862 18.2308C14.4862 19.5691 14.4862 20.6495 14.4862 20.9748C14.4862 21.3002 14.6642 21.5519 15.1737 21.4537C17.4033 20.685 19.2896 19.1531 20.4992 17.1286C21.7088 15.104 22.1639 12.7171 21.7842 10.3895C21.4044 8.06189 20.2143 5.94339 18.4239 4.40825C16.6336 2.87311 14.3583 2.02013 12 2.00001Z" />
</svg>