<svg width="116" height="40" viewBox="0 0 116 40" fill="none" xmlns="http://www.w3.org/2000/svg">
    <path fill-rule="evenodd" clip-rule="evenodd"
        d="M8.37377 7.97918L8.30606 7.93541C6.47609 7.89761 4.24587 8.48054 1.71098 10.3627C2.50749 11.0749 7.42393 15.0381 13.4216 11.8051C13.2629 11.6149 13.1407 11.397 13.0612 11.1624C12.9975 10.8799 13.33 10.4621 13.6486 10.1378C12.2265 8.79001 10.3606 8.00752 8.40164 7.9374L8.37377 7.97918ZM11.285 36.0755C17.335 37.9288 20.7739 32.3359 20.8168 32.2662L20.8172 32.2656C20.8422 32.2262 20.8817 32.1983 20.9272 32.1878C20.9727 32.1774 21.0205 32.1853 21.0601 32.2099C21.0928 32.2303 21.1179 32.2607 21.1319 32.2965C21.1459 32.3323 21.148 32.3717 21.1378 32.4088C20.8626 33.5593 20.3256 34.6309 19.5687 35.5404C21.9881 34.3785 23.9495 32.4526 24.4473 30.1507C24.284 30.1009 23.8499 29.5996 23.824 29.5538C24.7221 30.0751 25.1263 30.0791 26.1956 30.2263L26.3031 30.2422V30.3496C26.3023 30.619 26.4052 30.8783 26.5906 31.0739C26.7759 31.2695 27.0295 31.3863 27.2988 31.4001C28.096 31.0784 30.5813 30.7238 31.3856 30.609C31.397 30.6074 31.408 30.6058 31.4187 30.6043C31.1353 30.4209 30.8392 30.258 30.5326 30.1169L30.2897 30.0015L30.5286 29.8801C30.9013 29.7172 31.2821 29.5738 31.6696 29.4504C30.9707 29.128 30.0388 29.3011 30.0368 29.3011L29.7779 29.3469C30.0766 28.75 30.7178 28.3979 31.2634 28.0358C30.3653 27.9602 29.0212 28.6446 28.7365 28.7958C28.6947 29.0146 28.6449 29.3171 28.4995 29.4663C28.5174 28.9967 28.5553 28.3103 28.5991 27.8925C28.1371 28.4337 27.1773 29.4543 27.1733 29.4563C27.187 29.1864 27.3005 28.9311 27.4919 28.7401C27.7289 27.0231 26.56 25.4235 26.2354 25.0176C26.12 25.2544 25.9925 25.4971 25.871 25.7299C25.8676 25.7365 25.8643 25.743 25.8609 25.7495C25.5822 26.2868 25.3333 26.7667 25.3215 26.9475L26.0343 28.3402C26.0506 28.3708 26.054 28.4066 26.044 28.4398C26.0339 28.473 26.0111 28.5008 25.9806 28.5173C25.9624 28.5265 25.9422 28.5313 25.9218 28.5313C25.9014 28.5313 25.8813 28.5265 25.8631 28.5173L24.9849 28.1193C24.9351 28.573 24.8834 29.0266 24.8336 29.4802C24.8336 29.5996 24.6345 29.5936 24.5847 29.526L23.9873 28.3203L23.1908 29.4961C23.133 29.5797 22.9459 29.51 22.9499 29.4205C22.9499 28.9609 22.9499 28.5033 22.9638 28.0437L22.0379 28.1472C22.0201 28.148 22.0023 28.1453 21.9856 28.1392C21.9688 28.1332 21.9534 28.1238 21.9403 28.1118C21.9272 28.0998 21.9166 28.0853 21.909 28.0692C21.9015 28.0531 21.8972 28.0357 21.8965 28.0179C21.8955 27.9996 21.8983 27.9813 21.9049 27.9641C21.9114 27.947 21.9214 27.9314 21.9343 27.9184C21.9343 27.9184 23.1012 26.858 23.4317 25.8572C23.7623 24.8565 23.6309 22.4292 23.6309 22.4213C23.9813 23.0182 23.8459 25.4394 23.6806 25.9408C23.4337 26.6849 22.7647 27.4489 22.3843 27.8428L23.2286 27.7493C23.2286 28.1611 23.2286 28.575 23.2147 28.9868L24.0271 27.7931C24.2263 28.191 24.4254 28.5889 24.6245 29.0007L24.7679 27.7294L25.6401 28.1094L25.0785 27.0132C25.0805 26.9948 25.0756 26.9763 25.0646 26.9614C25.0486 26.7287 25.3314 26.1855 25.646 25.5827C25.9607 24.9798 26.337 24.2576 26.4107 23.8418C26.5361 23.1435 25.9268 21.2335 25.7635 20.7401C24.2022 21.1322 22.581 21.2274 20.9845 21.0207C19.3709 20.829 17.7993 20.3768 16.3309 19.6817C16.0621 20.1393 15.0087 22.1089 15.3352 24.3691V24.4347L15.2894 24.4805C15.2894 24.4805 12.5734 27.226 13.6666 29.3409C13.6527 28.8751 13.6813 28.4089 13.7522 27.9482C13.7705 27.8291 13.8074 27.7136 13.8617 27.606C13.9394 27.4708 14.0429 27.421 14.1743 27.4926C14.2642 27.5545 14.3336 27.6418 14.3735 27.7433C14.8295 28.6426 14.933 30.5585 14.935 30.5645C14.9489 30.6958 14.7359 30.8928 14.6702 30.5804C14.6702 30.5804 14.5686 28.7122 14.1365 27.8627C14.1185 27.8265 14.0986 27.7913 14.0768 27.7572C14.0445 27.8346 14.0212 27.9154 14.0071 27.998C13.9274 28.5299 13.9054 29.0689 13.9414 29.6055C13.9553 29.7368 13.9115 29.8045 13.8099 29.8045C13.7084 29.8045 13.5849 29.6712 13.4117 29.4563C13.4113 29.4559 13.411 29.4555 13.4106 29.455C12.9722 28.9114 12.0848 27.8112 11.2014 28.1174C11.5777 28.4715 12.5395 29.4245 12.5096 29.9079V30.1487L12.3105 30.0293C12.3105 30.0293 11.275 29.3648 10.2436 29.5478C10.6637 29.8304 11.524 30.3775 11.8804 30.3834C12.0676 30.465 12.0317 30.6242 11.8963 30.6481C11.4931 30.6799 11.0974 30.7745 10.7235 30.9286C11.2034 30.9923 12.9139 31.3046 13.1966 31.6428C13.1966 31.6428 14.1684 32.8266 14.8733 32.178C14.9171 32.1243 15.2576 31.6866 15.2277 31.4518L15.2397 31.3782C15.7116 30.3954 17.4938 29.0584 17.9856 29.7866C17.6975 29.7581 17.4067 29.7927 17.1334 29.8881C17.0792 30.6814 16.8292 31.4489 16.4056 32.1221C15.982 32.7953 15.3981 33.3532 14.706 33.7458C14.0081 34.1396 13.2251 34.3587 12.424 34.3844C11.5999 34.4122 10.782 34.2315 10.0464 33.8592C8.85167 33.2524 7.79829 32.1084 7.2029 30.3456C7.54739 32.9181 8.71626 34.6152 10.2933 35.604C10.4049 35.6737 11.289 36.0656 11.289 36.0656L11.285 36.0755ZM19.1226 36.0218C18.4905 36.6586 17.7588 37.1881 16.9561 37.5896C16.0289 38.0505 15.0282 38.3461 13.9991 38.463C12.9715 38.5898 11.9295 38.5311 10.9226 38.2899C9.83393 38.0343 8.81551 37.5408 7.94061 36.8448C7.06571 36.1489 6.35608 35.2678 5.86278 34.2651C4.45097 31.3742 4.6939 28.37 5.4247 26.6749C5.60415 26.2051 5.9219 25.8308 6.30078 25.4998C6.65125 25.2312 6.9543 25.279 7.30078 25.4998C7.71696 25.7664 8.00365 26.3725 8.20078 27.6021C8.29039 28.1731 8.90344 29.7608 9.88116 31.0998C10.4307 31.8519 11.1217 32.6218 11.8963 32.9998C12.284 33.1996 12.7903 33.2946 13.2265 33.2998C13.6627 33.305 14.2719 33.2883 14.5766 32.9998C15.2536 32.6894 16.0401 32.0329 16.8008 31.0998C16.9143 30.7675 16.8245 30.3563 16.8645 30.0074C16.0541 30.4272 15.5881 31.2847 15.5025 31.4538C15.5025 31.8159 15.0843 32.3412 15.0824 32.3432C14.2201 33.2166 13.111 32.0467 12.9895 31.7662C12.4559 31.4797 8.38401 31.2046 11.4008 30.5998C10.8889 30.3432 10.3489 29.9217 9.88116 29.5916C9.8669 29.5823 9.8546 29.5704 9.84498 29.5563C9.83536 29.5423 9.8485 29.5363 9.84498 29.5196C9.84186 29.5363 9.84147 29.503 9.84498 29.5196C9.84811 29.5029 9.87186 29.4941 9.88116 29.4799C9.89733 29.4535 10.1709 29.4079 10.2008 29.3998C11.1008 29.2998 11.8488 29.575 12.3008 29.7998C12.02 29.2368 10.9345 28.2038 10.9325 28.1998C10.9408 28.214 10.9194 28.1899 10.9325 28.1998C10.9243 28.1856 10.9028 28.1567 10.9008 28.1404C10.8987 28.1241 10.8963 28.1156 10.9008 28.0998C10.8905 28.1127 10.9052 28.084 10.9008 28.0998C10.9126 28.0836 10.9826 28.0084 11.0008 27.9998C12.0008 27.7572 12.7293 28.3711 13.3008 28.9998C12.8906 27.0282 14.7782 24.742 15.1008 24.3998C14.7901 22.1138 15.9061 20.1032 16.2008 19.5998C15.7074 19.3534 15.1394 19.0207 14.6861 18.7068C13.6743 18.0391 12.8295 17.1481 12.2169 16.1025C11.5332 16.7061 10.7487 17.1849 9.89908 17.5171C8.39368 18.1278 6.34267 18.5516 3.5549 18.5178H3.35577C3.37967 18.4581 3.40356 18.3984 3.42546 18.3387C3.42546 18.3268 4.91095 14.5765 6.92612 13.1659C4.87814 12.7703 2.97436 11.8316 1.41428 10.4482L1.30078 10.3408L1.42424 10.2473C3.8974 8.3751 6.09576 7.71457 7.9337 7.66085C5.23752 5.56387 4.73373 1.51315 4.73174 1.49326C4.72725 1.43788 4.71994 1.38276 4.70983 1.32812L4.87511 1.34603C11.8665 2.05431 14.1086 5.51214 14.5069 6.23236C16.5523 4.94424 18.9461 4.31887 21.3608 4.44176C24.8953 4.61286 27.6692 6.2801 28.4497 6.91278C30.3653 4.44176 34.4474 3.5027 38.0198 3.64595C37.729 6.09906 36.2276 7.78221 34.1746 8.80285C37.1775 8.68547 38.5813 9.66233 38.5853 9.66631L38.7008 9.7439L38.6172 9.85532C36.9465 12.0438 35.1509 12.9014 33.8008 13.1998C35.9394 14.2642 36.9008 15.8498 36.9008 15.8498C36.8008 15.9215 36.9227 15.8896 36.9008 15.8498L36.835 16.0169C33.8008 17.3281 31.6297 16.444 31.0363 16.1575C30.8591 16.7108 30.5438 17.2934 30.214 17.7717C29.531 18.7421 28.6167 19.5272 27.5537 20.0557C27.0599 20.306 26.544 20.5098 26.0124 20.6645C26.1857 21.1858 26.8089 23.1335 26.6676 23.8836C26.5996 24.1749 26.498 24.4573 26.3649 24.7252C26.4744 24.8505 27.8995 26.6472 27.8298 28.5313C28.1603 28.1653 28.5672 27.7266 28.7365 27.4998C28.84 27.3924 28.8888 27.3804 28.9008 27.4998C28.9008 27.4998 28.8745 28.0965 28.8008 28.5998C29.3643 28.3193 30.8273 27.6315 31.6776 27.932C31.6776 27.932 31.8508 27.9522 31.6776 28.0597C31.6776 28.0597 30.7238 28.7437 30.2897 29.0998C30.7297 29.072 31.5751 29.0763 32.1008 29.4504C32.2541 29.5578 32.0008 29.5998 32.0008 29.5998C32.0008 29.5998 31.3329 29.9287 30.9008 30.0998C31.2154 30.261 31.7112 30.5068 31.8008 30.6998C31.8008 30.6998 31.9325 30.7674 31.7134 30.8032C31.7134 30.8032 28.3601 31.227 27.4541 31.609C27.2931 31.6323 27.1292 31.6234 26.9717 31.5828C26.8142 31.5422 26.6663 31.4709 26.5366 31.3728C26.407 31.2747 26.2981 31.1518 26.2163 31.0114C26.1345 30.8709 26.122 30.7609 26.1008 30.5998C26.1008 30.5998 26.2008 30.4998 26.1008 30.4998C25.8559 30.464 25.1821 30.3238 24.7081 30.2084C24.1347 32.7649 21.8666 34.8639 19.1326 36.0178L19.1226 36.0218ZM16.0441 32.184C15.6596 32.7313 15.1584 33.1865 14.5766 33.517C13.9066 33.8961 13.1532 34.1041 12.3835 34.1225C11.6137 34.1409 10.8513 33.9691 10.1639 33.6224C8.73219 32.8923 7.50956 31.3424 7.09736 28.8057C7.06749 28.6227 6.84447 28.5352 6.83651 28.8276C6.86638 32.371 8.21048 34.6112 10.154 35.8288C10.4719 36.0613 10.8169 36.2544 11.1815 36.4038C15.9605 37.8661 19.1864 34.8818 20.4807 33.3081C20.0971 34.2766 19.5113 35.1522 18.7622 35.8766C18.1822 36.4375 17.5201 36.9071 16.7988 37.2693C15.9081 37.7152 14.9466 38.0033 13.9573 38.1208C12.9727 38.2399 11.9747 38.1827 11.0102 37.9517C9.97069 37.709 8.99803 37.2388 8.16232 36.5752C7.32661 35.9115 6.64868 35.0709 6.1774 34.1138C4.81736 31.3285 5.04437 28.4417 5.74529 26.8182C5.90089 26.4011 6.15501 26.0278 6.48604 25.7299C6.57274 25.6455 6.68471 25.5919 6.80483 25.5772C6.92495 25.5624 7.04659 25.5874 7.15113 25.6483C7.48765 25.8632 7.78634 26.476 7.96357 27.6021C8.05915 28.1989 8.67644 29.8443 9.688 31.229C10.2675 32.0248 10.9764 32.7391 11.7987 33.143C12.2326 33.3673 12.7129 33.4874 13.2013 33.4936C13.6898 33.4998 14.173 33.392 14.6124 33.1788C15.14 32.9261 15.6234 32.5902 16.0441 32.184ZM19.6842 24.001C19.8952 24.9003 20.1076 25.7982 20.3214 26.6948L21.5161 27.4429C21.6038 27.5026 21.5161 27.6797 21.4683 27.6856L20.4727 27.8508C20.5344 28.1492 20.6221 28.8455 20.2238 29.2793C20.0645 29.4523 20.0048 29.2415 19.9888 29.2116L19.6404 28.5909C19.5476 28.7836 19.4169 28.9557 19.2561 29.0969C19.0953 29.2381 18.9077 29.3454 18.7045 29.4126C18.5053 29.4822 18.5292 29.2872 18.5292 29.2872C18.5292 29.0505 18.5292 28.8157 18.5153 28.5789C18.1951 28.7917 17.8103 28.8854 17.4281 28.8435C17.1334 28.8097 17.3564 28.6128 17.3564 28.6128C17.3564 28.6128 18.3341 27.7493 18.3122 27.4091C18.1845 27.1325 18.0255 26.8715 17.8383 26.6312C17.1413 25.6006 15.9824 23.8836 16.0859 22.469C16.3229 23.9035 17.4798 25.6523 18.0573 26.4839C18.0636 26.4933 18.0698 26.5026 18.076 26.5118C18.3611 26.9351 18.5673 27.2412 18.577 27.3912C18.5989 27.7175 18.0912 28.2706 17.7805 28.5849C18.0685 28.5454 18.3378 28.4199 18.5531 28.2248L18.7722 28.0099C18.7722 28.372 18.7861 28.7341 18.7941 29.0962C19.3257 28.8376 19.5707 28.0477 19.6185 28.0398C19.7559 28.2845 20.0167 28.7023 20.1442 28.947C20.3951 28.4775 20.188 27.7871 20.188 27.7851L20.1461 27.6419L21.0781 27.4867L20.1222 26.8898C20.1043 26.862 20.0844 26.8341 20.0645 26.8082L19.4074 24.0229V23.9652L19.7897 22.2104C19.9371 22.7018 19.712 23.4041 19.6722 24.001H19.6842ZM31.0344 15.9612C31.035 15.9616 31.0357 15.9619 31.0363 15.9622C31.5104 16.2046 33.7583 17.1949 36.5661 15.8498C36.3152 15.4519 35.3714 14.1726 33.4458 13.3092C32.7399 13.416 32.0194 13.3733 31.3311 13.1838C31.383 14.1198 31.2835 15.058 31.0363 15.9622C31.0357 15.9645 31.035 15.9669 31.0344 15.9692V15.9612ZM31.3132 12.9013C31.8448 13.0824 35.0787 13.9617 38.3045 9.81553C37.9063 9.58872 36.4646 8.91824 33.8361 9.08934V8.98987C32.8408 9.50701 31.7845 9.89736 30.6919 10.1518C30.9465 10.8028 31.1282 11.4801 31.2335 12.1711C31.2714 12.4139 31.2992 12.6586 31.3192 12.9013H31.3132ZM30.5864 9.90506C36.9445 8.37709 37.5897 4.77601 37.737 3.93642C31.5641 3.73746 29.0949 6.46911 28.627 7.07791C29.4731 7.86874 30.141 8.83044 30.5864 9.89909V9.90506ZM7.33831 13.2296C9.16231 13.4843 11.3029 13.2634 13.5969 12.016C13.7502 12.203 13.9015 12.3681 13.9951 12.4696C13.7263 12.7123 13.0612 13.3768 13.2564 13.8623C13.2603 13.8866 13.2603 13.9115 13.2564 13.9359C13.2564 14.1925 13.0572 14.7317 12.5455 15.3723C12.0337 16.013 11.1516 16.7272 9.7796 17.2863C8.35983 17.8652 6.41038 18.281 3.76 18.2631C4.09453 17.4673 5.52426 14.284 7.33034 13.2375L7.33831 13.2296ZM13.8378 9.9548C13.8371 9.95417 13.8365 9.95354 13.8358 9.95291C12.3583 8.55113 10.4181 7.73856 8.38173 7.66881C5.8568 5.94387 5.14791 2.44028 5.01848 1.63849C12.5276 2.45222 14.3197 6.46513 14.3257 6.47508L14.3894 6.61236L14.5069 6.53079C16.5327 5.21996 18.9205 4.58021 21.3309 4.70239C24.9829 4.87946 27.7926 6.67204 28.3641 7.19728C29.8396 8.50243 30.68 10.3507 30.9687 12.201C31.2813 14.2224 30.9309 16.2537 29.985 17.6126C29.3253 18.5421 28.4456 19.294 27.4242 19.8011C25.5684 20.7461 23.2625 20.9948 20.9964 20.7342C18.7304 20.4735 16.5101 19.6737 14.8235 18.4959C13.8244 17.8356 12.9948 16.9496 12.4021 15.9095C12.527 15.7831 12.6453 15.6502 12.7565 15.5116C13.3121 14.8491 13.5112 14.2283 13.5112 13.9299C13.513 13.871 13.5035 13.8122 13.4834 13.7568C13.3141 13.343 14.248 12.583 14.25 12.581L14.3635 12.4895L14.2619 12.386C14.2619 12.386 13.4097 11.5086 13.3121 11.1048C13.2305 10.7446 14.3396 9.8593 14.3436 9.85731L14.4193 9.79563L14.3834 9.70411C14.3834 9.70411 14.0708 8.93814 14.1425 8.66756C14.2142 8.39698 15.2815 8.05876 15.2835 8.05876C14.5985 7.74441 13.9075 8.52033 13.8896 8.6019C13.8159 8.8884 14.021 9.48526 14.1066 9.71207C14.0433 9.76547 13.9465 9.84835 13.8358 9.95291C13.8352 9.95354 13.8345 9.95417 13.8338 9.9548H13.8378Z"
        fill="url(#paint0_linear_9239_14212)" />
    <path
        d="M8.38173 7.66881C10.4181 7.73856 12.3583 8.55113 13.8358 9.95291C13.9465 9.84835 14.0433 9.76547 14.1066 9.71207C14.021 9.48526 13.8159 8.8884 13.8896 8.6019C13.9075 8.52033 14.5985 7.74441 15.2835 8.05876C15.2815 8.05876 14.2142 8.39698 14.1425 8.66756C14.0708 8.93814 14.3834 9.70411 14.3834 9.70411L14.4193 9.79563L14.3436 9.85731C14.3396 9.8593 13.2305 10.7446 13.3121 11.1048C13.4097 11.5086 14.2619 12.386 14.2619 12.386L14.3635 12.4895L14.25 12.581C14.248 12.583 13.3141 13.343 13.4834 13.7568C13.5035 13.8122 13.513 13.871 13.5112 13.9299C13.5112 14.2283 13.3121 14.8491 12.7565 15.5116C12.6453 15.6502 12.527 15.7831 12.4021 15.9095C12.9948 16.9496 13.8244 17.8356 14.8235 18.4959C16.5101 19.6737 18.7304 20.4735 20.9964 20.7342C23.2625 20.9948 25.5684 20.7461 27.4242 19.8011C28.4456 19.294 29.3253 18.5421 29.985 17.6126C30.9309 16.2537 31.2813 14.2224 30.9687 12.201C30.68 10.3507 29.8396 8.50243 28.3641 7.19728C27.7926 6.67204 24.9829 4.87946 21.3309 4.70239C18.9205 4.58021 16.5327 5.21996 14.5069 6.53079L14.3894 6.61236L14.3257 6.47508C14.3197 6.46513 12.5276 2.45222 5.01848 1.63849C5.14791 2.44028 5.8568 5.94387 8.38173 7.66881Z"
        fill="url(#paint1_linear_9239_14212)" />
    <path
        d="M8.37377 7.97918L8.30606 7.93541C6.47609 7.89761 4.24587 8.48054 1.71098 10.3627C2.50749 11.0749 7.42393 15.0381 13.4216 11.8051C13.2629 11.6149 13.1407 11.397 13.0612 11.1624C12.9975 10.8799 13.33 10.4621 13.6486 10.1378C12.2265 8.79001 10.3606 8.00752 8.40164 7.9374L8.37377 7.97918Z"
        fill="url(#paint2_linear_9239_14212)" />
    <path
        d="M7.33831 13.2296C9.16231 13.4843 11.3029 13.2634 13.5969 12.016C13.7502 12.203 13.9015 12.3681 13.9951 12.4696C13.7263 12.7123 13.0612 13.3768 13.2564 13.8623C13.2603 13.8866 13.2603 13.9115 13.2564 13.9359C13.2564 14.1925 13.0572 14.7317 12.5455 15.3723C12.0337 16.013 11.1516 16.7272 9.7796 17.2863C8.35983 17.8652 6.41038 18.281 3.76 18.2631C4.09453 17.4673 5.52426 14.284 7.33034 13.2375L7.33831 13.2296Z"
        fill="url(#paint3_linear_9239_14212)" />
    <path
        d="M30.5864 9.90506C36.9445 8.37709 37.5897 4.77601 37.737 3.93642C31.5641 3.73746 29.0949 6.46911 28.627 7.07791C29.4731 7.86874 30.141 8.83044 30.5864 9.89909V9.90506Z"
        fill="url(#paint4_linear_9239_14212)" />
    <path
        d="M31.3132 12.9013C31.8448 13.0824 35.0787 13.9617 38.3045 9.81553C37.9063 9.58872 36.4646 8.91824 33.8361 9.08934V8.98987C32.8408 9.50701 31.7845 9.89736 30.6919 10.1518C30.9465 10.8028 31.1282 11.4801 31.2335 12.1711C31.2714 12.4139 31.2992 12.6586 31.3192 12.9013H31.3132Z"
        fill="url(#paint5_linear_9239_14212)" />
    <path
        d="M31.0363 15.9622C31.5104 16.2046 33.7583 17.1949 36.5661 15.8498C36.3152 15.4519 35.3714 14.1726 33.4458 13.3092C32.7399 13.416 32.0194 13.3733 31.3311 13.1838C31.383 14.1198 31.2835 15.058 31.0363 15.9622Z"
        fill="url(#paint6_linear_9239_14212)" />
    <path fill-rule="evenodd" clip-rule="evenodd"
        d="M11.285 36.0755C17.335 37.9288 20.7739 32.3359 20.8168 32.2662L20.8172 32.2656C20.8422 32.2262 20.8817 32.1983 20.9272 32.1878C20.9727 32.1774 21.0205 32.1853 21.0601 32.2099C21.0928 32.2303 21.1179 32.2607 21.1319 32.2965C21.1459 32.3323 21.148 32.3717 21.1378 32.4088C20.8626 33.5593 20.3256 34.6309 19.5687 35.5404C21.9881 34.3785 23.9495 32.4526 24.4473 30.1507C24.284 30.1009 23.8499 29.5996 23.824 29.5538C24.7221 30.0751 25.1263 30.0791 26.1956 30.2263L26.3031 30.2422V30.3496C26.3023 30.619 26.4052 30.8783 26.5906 31.0739C26.7759 31.2695 27.0295 31.3863 27.2988 31.4001C28.096 31.0784 30.5813 30.7238 31.3856 30.609L31.4187 30.6043C31.1353 30.4209 30.8392 30.258 30.5326 30.1169L30.2897 30.0015L30.5286 29.8801C30.9013 29.7172 31.2821 29.5738 31.6696 29.4504C30.9707 29.128 30.0388 29.3011 30.0368 29.3011L29.7779 29.3469C30.0766 28.75 30.7178 28.3979 31.2634 28.0358C30.3653 27.9602 29.0212 28.6446 28.7365 28.7958C28.6947 29.0146 28.6449 29.3171 28.4995 29.4663C28.5174 28.9967 28.5553 28.3103 28.5991 27.8925C28.1371 28.4337 27.1773 29.4543 27.1733 29.4563C27.187 29.1864 27.3005 28.9311 27.4919 28.7401C27.7289 27.0231 26.56 25.4235 26.2354 25.0176C26.12 25.2544 25.9925 25.4971 25.871 25.7299L25.8609 25.7495C25.5822 26.2868 25.3333 26.7667 25.3215 26.9475L26.0343 28.3402C26.0506 28.3708 26.054 28.4066 26.044 28.4398C26.0339 28.473 26.0111 28.5008 25.9806 28.5173C25.9624 28.5265 25.9422 28.5313 25.9218 28.5313C25.9014 28.5313 25.8813 28.5265 25.8631 28.5173L24.9849 28.1193C24.9351 28.573 24.8834 29.0266 24.8336 29.4802C24.8336 29.5996 24.6345 29.5936 24.5847 29.526L23.9873 28.3203L23.1908 29.4961C23.133 29.5797 22.9459 29.51 22.9499 29.4205C22.9499 28.9609 22.9499 28.5033 22.9638 28.0437L22.0379 28.1472C22.0201 28.148 22.0023 28.1453 21.9856 28.1392C21.9688 28.1332 21.9534 28.1238 21.9403 28.1118C21.9272 28.0998 21.9166 28.0853 21.909 28.0692C21.9015 28.0531 21.8972 28.0357 21.8965 28.0179C21.8955 27.9996 21.8983 27.9813 21.9049 27.9641C21.9114 27.947 21.9214 27.9314 21.9343 27.9184C21.9343 27.9184 23.1012 26.858 23.4317 25.8572C23.7623 24.8565 23.6309 22.4292 23.6309 22.4213C23.9813 23.0182 23.8459 25.4394 23.6806 25.9408C23.4337 26.6849 22.7647 27.4489 22.3843 27.8428L23.2286 27.7493C23.2286 28.1611 23.2286 28.575 23.2147 28.9868L24.0271 27.7931C24.2263 28.191 24.4254 28.5889 24.6245 29.0007L24.7679 27.7294L25.6401 28.1094L25.0785 27.0132C25.0805 26.9948 25.0756 26.9763 25.0646 26.9614C25.0486 26.7287 25.3314 26.1855 25.646 25.5827C25.9607 24.9798 26.337 24.2576 26.4107 23.8418C26.5361 23.1435 25.9268 21.2335 25.7635 20.7401C24.2022 21.1322 22.581 21.2274 20.9845 21.0207C19.3709 20.829 17.7993 20.3768 16.3309 19.6817C16.0621 20.1393 15.0087 22.1089 15.3352 24.3691V24.4347L15.2894 24.4805C15.2894 24.4805 12.5734 27.226 13.6666 29.3409C13.6527 28.8751 13.6813 28.4089 13.7522 27.9482C13.7705 27.8291 13.8074 27.7136 13.8617 27.606C13.9394 27.4708 14.0429 27.421 14.1743 27.4926C14.2642 27.5545 14.3336 27.6418 14.3735 27.7433C14.8295 28.6426 14.933 30.5585 14.935 30.5645C14.9489 30.6958 14.7359 30.8928 14.6702 30.5804C14.6702 30.5804 14.5686 28.7122 14.1365 27.8627C14.1185 27.8265 14.0986 27.7913 14.0768 27.7572C14.0445 27.8346 14.0212 27.9154 14.0071 27.998C13.9274 28.5299 13.9054 29.0689 13.9414 29.6055C13.9553 29.7368 13.9115 29.8045 13.8099 29.8045C13.7084 29.8045 13.5849 29.6712 13.4117 29.4563L13.4106 29.455C12.9722 28.9114 12.0848 27.8112 11.2014 28.1174C11.5777 28.4715 12.5395 29.4245 12.5096 29.9079V30.1487L12.3105 30.0293C12.3105 30.0293 11.275 29.3648 10.2436 29.5478C10.6637 29.8304 11.524 30.3775 11.8804 30.3834C12.0676 30.465 12.0317 30.6242 11.8963 30.6481C11.4931 30.6799 11.0974 30.7745 10.7235 30.9286C11.2034 30.9923 12.9139 31.3046 13.1966 31.6428C13.1966 31.6428 14.1684 32.8266 14.8733 32.178C14.9171 32.1243 15.2576 31.6866 15.2277 31.4518L15.2397 31.3782C15.7116 30.3954 17.4938 29.0584 17.9856 29.7866C17.6975 29.7581 17.4067 29.7927 17.1334 29.8881C17.0792 30.6814 16.8292 31.4489 16.4056 32.1221C15.982 32.7953 15.3981 33.3532 14.706 33.7458C14.0081 34.1396 13.2251 34.3587 12.424 34.3844C11.5999 34.4122 10.782 34.2315 10.0464 33.8592C8.85167 33.2524 7.79829 32.1084 7.2029 30.3456C7.54739 32.9181 8.71626 34.6152 10.2933 35.604C10.4049 35.6737 11.289 36.0656 11.289 36.0656L11.285 36.0755ZM20.3214 26.6948C20.1076 25.7982 19.8952 24.9003 19.6842 24.001H19.6722C19.712 23.4041 19.9371 22.7018 19.7897 22.2104L19.4074 23.9652V24.0229L20.0645 26.8082C20.0844 26.8341 20.1043 26.862 20.1222 26.8898L21.0781 27.4867L20.1461 27.6419L20.188 27.7851C20.188 27.7871 20.3951 28.4775 20.1442 28.947C20.0167 28.7023 19.7559 28.2845 19.6185 28.0398C19.5707 28.0477 19.3257 28.8376 18.7941 29.0962C18.7861 28.7341 18.7722 28.372 18.7722 28.0099L18.5531 28.2248C18.3378 28.4199 18.0685 28.5454 17.7805 28.5849C18.0912 28.2706 18.5989 27.7175 18.577 27.3912C18.5673 27.2412 18.3611 26.9351 18.076 26.5118L18.0573 26.4839C17.4798 25.6523 16.3229 23.9035 16.0859 22.469C15.9824 23.8836 17.1413 25.6006 17.8383 26.6312C18.0255 26.8715 18.1845 27.1325 18.3122 27.4091C18.3341 27.7493 17.3564 28.6128 17.3564 28.6128C17.3564 28.6128 17.1334 28.8097 17.4281 28.8435C17.8103 28.8854 18.1951 28.7917 18.5153 28.5789C18.5292 28.8157 18.5292 29.0505 18.5292 29.2872C18.5292 29.2872 18.5053 29.4822 18.7045 29.4126C18.9077 29.3454 19.0953 29.2381 19.2561 29.0969C19.4169 28.9557 19.5476 28.7836 19.6404 28.5909L19.9888 29.2116C20.0048 29.2415 20.0645 29.4523 20.2238 29.2793C20.6221 28.8455 20.5344 28.1492 20.4727 27.8508L21.4683 27.6856C21.5161 27.6797 21.6038 27.5026 21.5161 27.4429L20.3214 26.6948Z"
        fill="url(#paint7_linear_9239_14212)" />
    <path
        d="M16.0441 32.184C15.6596 32.7313 15.1584 33.1865 14.5766 33.517C13.9066 33.8961 13.1532 34.1041 12.3835 34.1225C11.6137 34.1409 10.8513 33.9691 10.1639 33.6224C8.73219 32.8923 7.50956 31.3424 7.09736 28.8057C7.06749 28.6227 6.84447 28.5352 6.83651 28.8276C6.86638 32.371 8.21048 34.6112 10.154 35.8288C10.4719 36.0613 10.8169 36.2544 11.1815 36.4038C15.9605 37.8661 19.1864 34.8818 20.4807 33.3081C20.0971 34.2766 19.5113 35.1522 18.7622 35.8766C18.1822 36.4375 17.5201 36.9071 16.7988 37.2693C15.9081 37.7152 14.9466 38.0033 13.9573 38.1208C12.9727 38.2399 11.9747 38.1827 11.0102 37.9517C9.97069 37.709 8.99803 37.2388 8.16232 36.5752C7.32661 35.9115 6.64868 35.0709 6.1774 34.1138C4.81736 31.3285 5.04437 28.4417 5.74529 26.8182C5.90089 26.4011 6.15501 26.0278 6.48604 25.7299C6.57274 25.6455 6.68471 25.5919 6.80483 25.5772C6.92495 25.5624 7.04659 25.5874 7.15113 25.6483C7.48765 25.8632 7.78634 26.476 7.96357 27.6021C8.05915 28.1989 8.67644 29.8443 9.688 31.229C10.2675 32.0248 10.9764 32.7391 11.7987 33.143C12.2326 33.3673 12.7129 33.4874 13.2013 33.4936C13.6898 33.4998 14.173 33.392 14.6124 33.1788C15.14 32.9261 15.6234 32.5902 16.0441 32.184Z"
        fill="url(#paint8_linear_9239_14212)" />
    <path fill-rule="evenodd" clip-rule="evenodd"
        d="M7.93257 27.6898C7.75257 26.5578 7.45257 25.9419 7.11457 25.7259C7.00988 25.6648 6.88804 25.6397 6.76774 25.6545C6.64745 25.6694 6.53533 25.7232 6.44857 25.8078C6.11473 26.1037 5.85799 26.4765 5.70057 26.8938C4.99657 28.5258 4.76657 31.4258 6.13457 34.2278C7.67657 37.2898 10.8106 38.6278 13.9486 38.2558C15.7619 38.0522 17.4586 37.2598 18.7786 35.9998C19.529 35.2724 20.116 34.3936 20.5006 33.4218C19.2026 34.9998 15.9746 37.9999 11.1646 36.5319C10.7985 36.3824 10.452 36.189 10.1326 35.9558C8.17857 34.7318 6.82857 32.4798 6.79857 28.9178L7.06257 28.8958C7.47657 31.4458 8.70057 32.9999 10.1426 33.7379C10.8417 34.0925 11.619 34.2651 12.4026 34.2398C13.1637 34.218 13.9083 34.0121 14.5726 33.6398C15.1579 33.3082 15.6621 32.8505 16.0486 32.2998C15.6267 32.71 15.1402 33.0478 14.6086 33.2998C14.1675 33.515 13.6822 33.624 13.1915 33.6181C12.7008 33.6121 12.2183 33.4915 11.7826 33.2659C10.9586 32.8659 10.2466 32.1399 9.66457 31.3419C8.64857 29.9419 8.02857 28.3018 7.93257 27.6958V27.6898Z"
        fill="#777ABA" />
    <path fill-rule="evenodd" clip-rule="evenodd"
        d="M13.9307 9.15003C13.9307 9.15003 7.8427 2.66203 5.2307 1.71203C5.2307 1.71203 7.4907 2.02403 8.7187 2.36003C7.50004 1.97024 6.24382 1.70948 4.9707 1.58203C5.1027 2.38203 5.8107 5.91003 8.3487 7.64403C10.3949 7.71418 12.3445 8.53172 13.8287 9.94203C13.9147 9.85567 14.0055 9.77421 14.1007 9.69803C14.0332 9.51889 13.9765 9.3359 13.9307 9.15003V9.15003Z"
        fill="#777ABA" />
    <path fill-rule="evenodd" clip-rule="evenodd"
        d="M13.2463 10.6004C13.2463 10.6004 3.79434 9.92039 1.84634 10.3264C2.24294 9.99504 2.65757 9.6859 3.08834 9.40039C2.59213 9.69042 2.1127 10.0083 1.65234 10.3524C2.45234 11.0684 7.38834 15.0524 13.4143 11.8024C13.2543 11.6109 13.1315 11.3911 13.0523 11.1544C13.0426 10.9481 13.1144 10.7462 13.2523 10.5924L13.2463 10.6004Z"
        fill="#777ABA" />
    <path fill-rule="evenodd" clip-rule="evenodd"
        d="M10.5348 13.1418C10.5348 13.1418 6.3468 17.6878 3.9168 17.8158C3.8268 18.0158 3.7568 18.1758 3.7168 18.2898C6.3788 18.3018 8.3368 17.8898 9.7608 17.3058C11.1328 16.7458 12.0068 16.0278 12.5408 15.3818C13.0748 14.7358 13.2428 14.1998 13.2448 13.9398C13.2488 13.9153 13.2488 13.8903 13.2448 13.8658C13.0448 13.3858 13.7168 12.7178 13.9848 12.4658C13.8908 12.3638 13.7408 12.1978 13.5848 12.0098C12.6318 12.5355 11.6049 12.9144 10.5388 13.1338L10.5348 13.1418Z"
        fill="#777ABA" />
    <path fill-rule="evenodd" clip-rule="evenodd"
        d="M37.9609 3.90048C37.9609 3.90048 33.9609 3.80248 29.9609 8.57649C30.2305 8.99563 30.4634 9.43727 30.6569 9.89648C37.0449 8.36048 37.8049 4.73648 37.9529 3.89648L37.9609 3.90048Z"
        fill="#777ABA" />
    <path fill-rule="evenodd" clip-rule="evenodd"
        d="M37.802 9.5333C37.802 9.5333 34.018 11.2793 30.916 10.5993C31.1625 11.3458 31.3176 12.1195 31.378 12.9033C31.914 13.0853 35.162 13.9693 38.402 9.8013C38.2091 9.69568 38.0086 9.60476 37.802 9.5293V9.5333Z"
        fill="#777ABA" />
    <path fill-rule="evenodd" clip-rule="evenodd"
        d="M36.6556 15.8973C36.6556 15.8973 34.1716 14.2273 31.4076 13.6973C31.4113 14.4817 31.3077 15.2629 31.0996 16.0193C31.5696 16.2593 33.8296 17.2613 36.6556 15.9073V15.8973Z"
        fill="#777ABA" />
    <path fill-rule="evenodd" clip-rule="evenodd"
        d="M24.2643 20.8267C14.4263 20.0507 13.4803 14.1647 13.4523 13.9727C13.4523 14.3547 13.1443 15.0107 12.6763 15.5727C12.5703 15.7007 12.4523 15.8307 12.3203 15.9727C12.915 17.0187 13.7483 17.9095 14.7523 18.5727C16.6137 19.8157 18.7473 20.5916 20.9723 20.8347C22.0656 20.9687 23.1711 20.9687 24.2643 20.8347V20.8267Z"
        fill="#777ABA" />
    <path fill-rule="evenodd" clip-rule="evenodd"
        d="M15.2995 22.8204C15.2395 23.3572 15.2475 23.8995 15.3235 24.4344V24.5004L15.2775 24.5464C15.2775 24.5464 12.8275 27.0244 13.4995 29.0924C13.2775 27.6364 14.6995 25.6724 15.6635 24.6004C15.5015 24.0364 15.4635 22.1184 15.4895 21.8184C15.398 22.1456 15.3351 22.4802 15.3015 22.8184L15.2995 22.8204Z"
        fill="#777ABA" />
    <path fill-rule="evenodd" clip-rule="evenodd"
        d="M16.3008 23.2657C16.7228 24.5237 17.6148 25.8657 18.1008 26.5617C18.3968 27.0017 18.6108 27.3197 18.6208 27.4737C18.6428 27.8017 18.1348 28.3577 17.8208 28.6737C17.8208 28.6737 18.9148 28.1377 18.8208 27.2537C18.8208 27.2537 16.5788 23.6237 16.6968 22.9957C16.6968 22.9957 17.0388 21.9337 17.2528 21.7617C17.2528 21.7617 16.1828 22.3457 16.3148 23.2697L16.3008 23.2657Z"
        fill="#777ABA" />
    <path fill-rule="evenodd" clip-rule="evenodd"
        d="M23.6622 22.4688C24.0142 23.0688 23.8782 25.5008 23.7102 26.0048C23.4622 26.7548 22.7902 27.5228 22.4082 27.9188C23.1682 27.5988 23.9782 25.9828 23.9782 25.9828C24.1402 24.9328 24.3002 23.3828 23.6622 22.4688Z"
        fill="#777ABA" />
    <path fill-rule="evenodd" clip-rule="evenodd"
        d="M20.5231 11.2813C20.0807 9.80477 18.9193 9.56643 17.9106 10.7645C17.3642 11.4627 16.9968 12.2732 16.8378 13.1311C16.6411 13.985 16.654 14.8707 16.8754 15.7191C17.3178 17.1956 18.4791 17.434 19.4878 16.2338C20.034 15.5338 20.4013 14.7221 20.5607 13.863C20.7573 13.0098 20.7445 12.1247 20.5231 11.277V11.2813ZM19.0366 11.644C19.3064 11.7052 19.51 11.971 19.6206 12.3528C19.8418 13.1353 19.6493 14.346 19.114 14.9978C18.5787 15.6495 18.008 15.4196 17.7867 14.6455C17.5655 13.8714 17.7447 12.6544 18.2845 12.0026C18.5057 11.7242 18.7689 11.5808 19.0366 11.644Z"
        fill="#552F82" />
    <path fill-rule="evenodd" clip-rule="evenodd"
        d="M20.3419 11.4073C19.9437 10.0151 18.8985 9.79042 17.9907 10.92C17.4989 11.5783 17.1682 12.3425 17.0251 13.1514C16.8481 13.9565 16.8597 14.7916 17.0589 15.5915C17.4571 16.9837 18.5023 17.2084 19.4101 16.0768C19.9017 15.4168 20.2323 14.6515 20.3757 13.8415C20.5527 13.037 20.5411 12.2025 20.3419 11.4033V11.4073ZM19.004 11.7493C19.2469 11.807 19.4301 12.0576 19.5296 12.4175C19.7287 13.1554 19.5555 14.2969 19.0737 14.9114C18.5919 15.5259 18.0783 15.3091 17.8792 14.5793C17.6801 13.8494 17.8413 12.7019 18.3271 12.0874C18.5262 11.8249 18.7631 11.6897 19.004 11.7493Z"
        fill="white" />
    <path fill-rule="evenodd" clip-rule="evenodd"
        d="M19.1004 14.9489C19.6684 14.2229 19.8764 12.8629 19.6384 11.9929C19.4204 11.1929 18.8884 10.9749 18.3744 11.6289C17.8044 12.3549 17.5964 13.7149 17.8364 14.5849C18.0544 15.3849 18.5844 15.6009 19.1004 14.9489Z"
        fill="#552F82" />
    <path fill-rule="evenodd" clip-rule="evenodd"
        d="M27.4413 11.605C27.8993 10.376 28.8619 10.2579 29.6133 11.3382C30.0179 11.9632 30.269 12.6722 30.347 13.4091C30.4575 14.1427 30.3921 14.8916 30.1558 15.5959C29.7112 16.8227 28.7352 16.9407 27.9837 15.8627C27.5811 15.2368 27.3301 14.5282 27.2501 13.7918C27.1417 13.0581 27.2071 12.3097 27.4413 11.605ZM28.6374 12.0095C28.415 12.0423 28.2283 12.2545 28.1149 12.5694C27.8815 13.2254 27.9659 14.2532 28.3661 14.8371C28.7663 15.4209 29.2554 15.2744 29.4777 14.6184C29.7 13.9623 29.6267 12.9367 29.2265 12.3507C29.1723 12.2424 29.0874 12.1518 28.9821 12.0897C28.8768 12.0276 28.7556 11.9968 28.6329 12.0008L28.6374 12.0095Z"
        fill="#552F82" />
    <path fill-rule="evenodd" clip-rule="evenodd"
        d="M27.5928 11.8004C28.0048 10.6764 28.8708 10.5684 29.5468 11.5564C29.9107 12.1279 30.1366 12.7764 30.2068 13.4504C30.3062 14.1213 30.2473 14.8062 30.0348 15.4504C29.6348 16.5724 28.7568 16.6804 28.0808 15.6944C27.7185 15.1219 27.4927 14.4739 27.4208 13.8004C27.3232 13.1293 27.3821 12.4449 27.5928 11.8004ZM28.6688 12.1704C28.4688 12.2004 28.3008 12.3944 28.1988 12.6824C27.9888 13.2824 28.0648 14.2224 28.4248 14.7564C28.7848 15.2904 29.2248 15.1564 29.4248 14.5564C29.6248 13.9564 29.5588 13.0184 29.1988 12.4824C29.15 12.3833 29.0736 12.3004 28.9789 12.2437C28.8842 12.1869 28.7751 12.1587 28.6648 12.1624L28.6688 12.1704Z"
        fill="white" />
    <path fill-rule="evenodd" clip-rule="evenodd"
        d="M28.4632 14.8457C28.0372 14.2097 27.9472 13.0737 28.1952 12.3717C28.4212 11.7297 28.8732 11.5837 29.2572 12.1577C29.6852 12.7937 29.7752 13.9297 29.5272 14.6317C29.2992 15.2737 28.8492 15.4197 28.4632 14.8457Z"
        fill="#552F82" />
    <path fill-rule="evenodd" clip-rule="evenodd"
        d="M20.7461 18C21.4461 18.698 26.6901 18.634 26.9701 18.014C25.7201 21.522 21.0861 20.054 20.7461 18Z"
        fill="#552F82" />
    <path fill-rule="evenodd" clip-rule="evenodd"
        d="M25.8991 19.2004C25.8511 19.4584 23.7971 20.5844 22.1211 19.2704C22.1211 19.2704 23.2431 18.5704 25.8991 19.2004Z"
        fill="#C3A3CD" />
    <path fill-rule="evenodd" clip-rule="evenodd"
        d="M25.5464 16.6632C25.4 16.8497 25.2802 17.0557 25.1904 17.2752C25.1704 17.4272 25.4824 16.9392 25.9024 16.9092C25.9836 16.8995 26.0616 16.8714 26.1304 16.8272C26.1642 16.7998 26.1881 16.7621 26.1986 16.7199C26.2091 16.6777 26.2055 16.6332 26.1884 16.5932C26.1611 16.5508 26.1239 16.5157 26.0799 16.491C26.036 16.4662 25.9867 16.4526 25.9364 16.4512C25.8587 16.4571 25.7831 16.479 25.7142 16.5154C25.6454 16.5519 25.5849 16.6022 25.5364 16.6632H25.5464Z"
        fill="#552F82" />
    <path fill-rule="evenodd" clip-rule="evenodd"
        d="M23.9009 17.2899C23.8158 17.0403 23.6945 16.8044 23.5409 16.5899C23.4944 16.5238 23.435 16.4677 23.3662 16.4251C23.2975 16.3825 23.2209 16.3542 23.1409 16.3419C23.081 16.3402 23.0216 16.3538 22.9684 16.3815C22.9152 16.4091 22.8699 16.4499 22.8369 16.4999C22.8129 16.542 22.8049 16.5913 22.8145 16.6387C22.8241 16.6861 22.8505 16.7285 22.8889 16.7579C22.9631 16.8108 23.0488 16.8451 23.1389 16.8579C23.6069 16.9059 23.9229 17.4579 23.9109 17.2899H23.9009Z"
        fill="#552F82" />
    <path fill-rule="evenodd" clip-rule="evenodd"
        d="M19.2358 10.6128C19.5858 10.6748 19.7818 11.2568 19.6718 11.9128C19.5618 12.5688 19.1878 13.0508 18.8378 12.9888C18.4878 12.9268 18.2998 12.3428 18.3998 11.6868C18.4998 11.0308 18.8838 10.5508 19.2358 10.6128Z"
        fill="white" />
    <path fill-rule="evenodd" clip-rule="evenodd"
        d="M28.5908 11.2982C28.3008 11.3242 28.1068 11.7862 28.1588 12.3302C28.2108 12.8742 28.4868 13.2882 28.7768 13.2622C29.0668 13.2362 29.2588 12.7722 29.2088 12.2302C29.1588 11.6882 28.8808 11.2702 28.5908 11.2982Z"
        fill="white" />
    <path fill-rule="evenodd" clip-rule="evenodd"
        d="M8.34033 7.95553L8.27233 7.91153C6.43433 7.87353 4.19433 8.45953 1.64833 10.3515C2.44833 11.0675 7.38633 15.0515 13.4103 11.8015C13.2509 11.6103 13.1282 11.3913 13.0483 11.1555C12.9843 10.8715 13.3183 10.4515 13.6383 10.1255C12.2099 8.77063 10.3359 7.98402 8.36833 7.91353L8.34033 7.95553ZM11.2643 36.1995C17.3703 38.0715 20.8283 32.3855 20.8383 32.3695C20.8634 32.33 20.9031 32.3019 20.9488 32.2914C20.9945 32.2809 21.0425 32.2889 21.0823 32.3135C21.1151 32.3341 21.1404 32.3646 21.1544 32.4006C21.1685 32.4367 21.1705 32.4762 21.1603 32.5135C20.8839 33.67 20.3446 34.7473 19.5843 35.6615C22.0143 34.4935 23.9843 32.5575 24.4843 30.2435C24.3203 30.1935 23.8843 29.6895 23.8583 29.6435C24.7603 30.1675 25.1663 30.1715 26.2403 30.3195L26.3483 30.3355V30.4435C26.3475 30.7143 26.4508 30.975 26.637 31.1716C26.8232 31.3682 27.0779 31.4857 27.3483 31.4995C28.1603 31.1715 30.7163 30.8095 31.4863 30.6995C31.2017 30.5152 30.9043 30.3515 30.5963 30.2095L30.3523 30.0935L30.5923 29.9715C30.9666 29.8078 31.3491 29.6636 31.7383 29.5395C31.0363 29.2155 30.1003 29.3895 30.0983 29.3895L29.8383 29.4355C30.1383 28.8355 30.7823 28.4815 31.3303 28.1175C30.4283 28.0415 29.0783 28.7295 28.7923 28.8815C28.7503 29.1015 28.7003 29.4055 28.5543 29.5555C28.5723 29.0835 28.6103 28.3935 28.6543 27.9735C28.1903 28.5175 27.2263 29.5435 27.2223 29.5455C27.2361 29.2742 27.3501 29.0176 27.5423 28.8255C27.7803 27.0995 26.6063 25.4915 26.2803 25.0835C26.1643 25.3215 26.0363 25.5655 25.9143 25.7995C25.6303 26.3475 25.3743 26.8395 25.3623 27.0235L26.0783 28.4235C26.0946 28.4543 26.0981 28.4903 26.088 28.5237C26.0779 28.557 26.055 28.585 26.0243 28.6015C26.0061 28.6108 25.9858 28.6157 25.9653 28.6157C25.9448 28.6157 25.9246 28.6108 25.9063 28.6015L25.0243 28.2015C24.9743 28.6575 24.9223 29.1135 24.8723 29.5695C24.8723 29.6895 24.6723 29.6835 24.6223 29.6155L24.0223 28.4035L23.2223 29.5855C23.1643 29.6695 22.9763 29.5995 22.9803 29.5095C22.9803 29.0475 22.9803 28.5875 22.9943 28.1255L22.0643 28.2295C22.0465 28.2303 22.0286 28.2276 22.0118 28.2215C21.995 28.2154 21.9796 28.2061 21.9664 28.194C21.9532 28.1819 21.9425 28.1674 21.9349 28.1511C21.9274 28.1349 21.9231 28.1174 21.9223 28.0995C21.9213 28.0811 21.9242 28.0627 21.9307 28.0455C21.9373 28.0283 21.9474 28.0126 21.9603 27.9995C21.9603 27.9995 23.1323 26.9335 23.4643 25.9275C23.7963 24.9215 23.6643 22.4815 23.6643 22.4735C24.0163 23.0735 23.8803 25.5075 23.7143 26.0115C23.4663 26.7595 22.7943 27.5275 22.4123 27.9235L23.2603 27.8295C23.2603 28.2435 23.2603 28.6595 23.2463 29.0735L24.0623 27.8735C24.2623 28.2735 24.4623 28.6735 24.6623 29.0875L24.8063 27.8095L25.6823 28.1915L25.1183 27.0895C25.1204 27.0711 25.1154 27.0525 25.1043 27.0375C25.0883 26.8035 25.3723 26.2575 25.6883 25.6515C26.0043 25.0455 26.3823 24.3195 26.4563 23.9015C26.5823 23.1995 25.9703 21.2795 25.8063 20.7835C24.2382 21.1777 22.6099 21.2734 21.0063 21.0655C19.3857 20.8729 17.8072 20.4183 16.3323 19.7195C16.0623 20.1795 15.0043 22.1595 15.3323 24.4315V24.4975L15.2863 24.5435C15.2863 24.5435 12.5583 27.3035 13.6563 29.4295C13.6424 28.9612 13.6712 28.4926 13.7423 28.0295C13.7607 27.9098 13.7978 27.7937 13.8523 27.6855C13.9303 27.5495 14.0343 27.4995 14.1663 27.5715C14.2566 27.6337 14.3263 27.7215 14.3663 27.8235C14.8243 28.7275 14.9283 30.6535 14.9303 30.6595C14.9443 30.7915 14.7303 30.9895 14.6643 30.6755C14.6643 30.6755 14.5623 28.7975 14.1283 27.9435C14.1103 27.9071 14.0903 27.8717 14.0683 27.8375C14.036 27.9153 14.0125 27.9965 13.9983 28.0795C13.9184 28.6143 13.8962 29.1561 13.9323 29.6955C13.9463 29.8275 13.9023 29.8955 13.8003 29.8955C13.6983 29.8955 13.5743 29.7615 13.4003 29.5455C12.9603 28.9995 12.0683 27.8915 11.1803 28.1995C11.5583 28.5555 12.5243 29.5135 12.4943 29.9995V30.2415L12.2943 30.1215C12.2943 30.1215 11.2543 29.4535 10.2183 29.6375C10.6403 29.9215 11.5043 30.4715 11.8623 30.4775C12.0503 30.5595 12.0143 30.7195 11.8783 30.7435C11.4734 30.7755 11.0759 30.8707 10.7003 31.0255C11.1823 31.0895 12.9003 31.4035 13.1843 31.7435C13.1843 31.7435 14.1603 32.9335 14.8683 32.2815C14.9123 32.2275 15.2543 31.7875 15.2243 31.5515L15.2363 31.4775C15.7103 30.4895 17.5003 29.1455 17.9943 29.8775C17.705 29.8489 17.4129 29.8837 17.1383 29.9795C17.084 30.777 16.8328 31.5486 16.4074 32.2254C15.9819 32.9021 15.3954 33.4628 14.7003 33.8575C13.9994 34.2534 13.213 34.4737 12.4083 34.4995C11.5806 34.5274 10.7592 34.3458 10.0203 33.9715C8.82033 33.3615 7.76233 32.2115 7.16433 30.4395C7.51033 33.0255 8.68433 34.7315 10.2683 35.7255C10.3803 35.7955 11.2683 36.1895 11.2683 36.1895L11.2643 36.1995ZM19.1363 36.1455C18.5015 36.7856 17.7665 37.318 16.9603 37.7215C16.029 38.1849 15.0239 38.482 13.9903 38.5995C12.9582 38.727 11.9116 38.668 10.9003 38.4255C9.8069 38.1686 8.78401 37.6724 7.90528 36.9728C7.02654 36.2732 6.3138 35.3876 5.81833 34.3795C4.40033 31.4735 4.64433 28.4535 5.37833 26.7495C5.55856 26.2772 5.85178 25.8563 6.23233 25.5235C6.58433 25.2535 6.95633 25.2015 7.30433 25.4235C7.72233 25.6915 8.08233 26.3875 8.28033 27.6235C8.37033 28.1975 8.96633 29.7695 9.94833 31.1155C10.5003 31.8715 11.1703 32.5515 11.9483 32.9315C12.3377 33.1324 12.7686 33.2397 13.2068 33.2449C13.6449 33.2501 14.0783 33.1531 14.4723 32.9615C15.1523 32.6495 15.8723 32.0675 16.6363 31.1295C16.7504 30.7955 16.8282 30.4502 16.8683 30.0995C16.0543 30.5215 15.5863 31.3835 15.5003 31.5535C15.5003 31.9175 15.0803 32.4455 15.0783 32.4475C14.2123 33.3255 13.0983 32.1495 12.9763 31.8675C12.4403 31.5795 8.30233 31.1755 11.3323 30.5675C10.8182 30.3095 10.3242 30.0134 9.85433 29.6815C9.84001 29.6722 9.82766 29.6602 9.818 29.6461C9.80834 29.632 9.80155 29.6161 9.79802 29.5994C9.79449 29.5827 9.79429 29.5654 9.79743 29.5486C9.80057 29.5319 9.80699 29.5158 9.81633 29.5015C9.83257 29.475 9.85832 29.4557 9.88833 29.4475C10.7883 29.1455 11.7363 29.5115 12.1903 29.7375C11.9083 29.1715 10.8883 28.2635 10.8863 28.2595C10.8732 28.2495 10.8621 28.237 10.8539 28.2227C10.8456 28.2084 10.8403 28.1926 10.8383 28.1762C10.8362 28.1598 10.8375 28.1431 10.842 28.1272C10.8464 28.1113 10.854 28.0965 10.8643 28.0835C10.8762 28.0672 10.892 28.0541 10.9103 28.0455C11.7943 27.5475 12.6403 28.2455 13.2143 28.8775C12.8023 26.8955 14.7543 24.7295 15.0783 24.3855C14.7663 22.0875 15.8123 20.0915 16.1083 19.5855C15.6128 19.3378 15.1356 19.0551 14.6803 18.7395C13.6641 18.0683 12.8156 17.1726 12.2003 16.1215C11.5136 16.7283 10.7257 17.2096 9.87233 17.5435C8.36033 18.1575 6.30033 18.5835 3.50033 18.5495H3.30033C3.32433 18.4895 3.34833 18.4295 3.37033 18.3695C3.37033 18.3575 4.86233 14.5875 6.88633 13.1695C4.82937 12.7718 2.91725 11.8282 1.35033 10.4375L1.23633 10.3295L1.36033 10.2355C3.84433 8.35353 6.05233 7.68953 7.89833 7.63553C5.19033 5.52753 4.68433 1.45553 4.68233 1.43553C4.67782 1.37986 4.67048 1.32445 4.66033 1.26953L4.82633 1.28753C11.8483 1.99953 14.1003 5.47553 14.5003 6.19953C16.5548 4.90465 18.959 4.27599 21.3843 4.39953C24.9343 4.57153 27.7203 6.24753 28.5043 6.88353C30.4283 4.39953 34.5283 3.45553 38.1163 3.59953C37.8243 6.06553 36.3163 7.75753 34.2543 8.78353C37.2703 8.66553 38.6803 9.64753 38.6843 9.65153L38.8003 9.72953L38.7163 9.84153C37.0383 12.0415 35.3383 12.9275 33.9823 13.2275C36.1303 14.2975 36.9703 15.8495 36.9823 15.8535C37.0043 15.8935 37.0263 15.9335 37.0503 15.9735L36.9263 16.0355C34.0163 17.4955 31.6403 16.5235 31.0443 16.2355C30.8664 16.7917 30.6076 17.3187 30.2763 17.7995C29.5904 18.7751 28.672 19.5642 27.6043 20.0955C27.1084 20.3471 26.5902 20.552 26.0563 20.7075C26.2303 21.2315 26.8563 23.1895 26.7143 23.9435C26.6461 24.2363 26.5441 24.5202 26.4103 24.7895C26.5203 24.9155 27.9103 26.5755 27.8403 28.4695C28.1723 28.1015 28.5563 27.6695 28.7263 27.4415C28.8303 27.3335 28.9523 27.4115 28.9643 27.5315C28.9643 27.5315 28.9263 28.0255 28.8523 28.5315C29.4183 28.2495 30.8663 27.6035 31.7203 27.9055C31.7203 27.9055 31.9203 28.0335 31.7463 28.1415C31.7463 28.1415 30.8643 28.7055 30.4283 29.0635C30.8703 29.0355 31.6143 29.0635 32.1423 29.4395C32.2963 29.5475 32.1043 29.6735 32.1043 29.6735C32.1043 29.6735 31.4063 29.9015 30.9723 30.0735C31.2883 30.2355 31.7943 30.5195 31.8843 30.7135C31.8843 30.7135 32.0023 30.8635 31.7823 30.8995C31.7823 30.8995 28.4143 31.3255 27.5043 31.7095C27.3427 31.7329 27.178 31.724 27.0198 31.6832C26.8616 31.6424 26.7131 31.5707 26.5829 31.472C26.4526 31.3734 26.3433 31.25 26.2611 31.1088C26.179 30.9676 26.1257 30.8115 26.1043 30.6495C26.1023 30.6169 26.1023 30.5842 26.1043 30.5515C25.8583 30.5155 25.2223 30.4175 24.7463 30.3015C24.1703 32.8715 21.8923 34.9815 19.1463 36.1415L19.1363 36.1455ZM16.0443 32.2875C15.6581 32.8377 15.1547 33.2953 14.5703 33.6275C13.8974 34.0086 13.1408 34.2177 12.3676 34.2362C11.5945 34.2547 10.8287 34.082 10.1383 33.7335C8.70033 32.9995 7.47233 31.4415 7.05833 28.8915C7.02833 28.7075 6.80433 28.6195 6.79633 28.9135C6.82633 32.4755 8.17633 34.7275 10.1283 35.9515C10.4477 36.1853 10.7942 36.3794 11.1603 36.5295C15.9603 37.9995 19.2003 34.9995 20.5003 33.4175C20.1151 34.3911 19.5267 35.2714 18.7743 35.9995C18.1917 36.5634 17.5268 37.0355 16.8023 37.3995C15.9077 37.8478 14.942 38.1375 13.9483 38.2555C12.9594 38.3753 11.957 38.3177 10.9883 38.0855C9.94426 37.8415 8.96733 37.3689 8.12796 36.7018C7.28859 36.0346 6.60768 35.1896 6.13433 34.2275C4.76833 31.4275 4.99633 28.5255 5.70033 26.8935C5.85661 26.4743 6.11184 26.099 6.44433 25.7995C6.5314 25.7147 6.64387 25.6608 6.76451 25.646C6.88516 25.6312 7.00733 25.6563 7.11233 25.7175C7.45033 25.9335 7.75033 26.5495 7.92833 27.6815C8.02433 28.2815 8.64433 29.9355 9.66033 31.3275C10.2423 32.1275 10.9543 32.8455 11.7803 33.2515C12.2161 33.4771 12.6985 33.5978 13.1891 33.604C13.6797 33.6103 14.165 33.5019 14.6063 33.2875C15.1362 33.0336 15.6218 32.6959 16.0443 32.2875ZM19.7003 24.0615C19.9123 24.9655 20.1257 25.8682 20.3403 26.7695L21.5403 27.5215C21.6283 27.5815 21.5403 27.7595 21.4923 27.7655L20.4923 27.9315C20.5543 28.2315 20.6423 28.9315 20.2423 29.3675C20.0823 29.5415 20.0223 29.3295 20.0063 29.2995L19.6563 28.6755C19.5632 28.8693 19.4319 29.0423 19.2704 29.1842C19.1089 29.3262 18.9205 29.4341 18.7163 29.5015C18.5163 29.5715 18.5403 29.3755 18.5403 29.3755C18.5403 29.1375 18.5403 28.9015 18.5263 28.6635C18.2047 28.8774 17.8183 28.9716 17.4343 28.9295C17.1383 28.8955 17.3623 28.6975 17.3623 28.6975C17.3623 28.6975 18.3443 27.8295 18.3223 27.4875C18.1941 27.2095 18.0344 26.9471 17.8463 26.7055C17.1463 25.6695 15.9823 23.9435 16.0863 22.5215C16.3243 23.9635 17.4863 25.7215 18.0663 26.5575C18.3623 26.9975 18.5783 27.3155 18.5883 27.4695C18.6103 27.7975 18.1003 28.3535 17.7883 28.6695C18.0776 28.6299 18.3481 28.5037 18.5643 28.3075L18.7843 28.0915C18.7843 28.4555 18.7983 28.8195 18.8063 29.1835C19.3403 28.9235 19.5863 28.1295 19.6343 28.1215C19.7723 28.3675 20.0343 28.7875 20.1623 29.0335C20.4143 28.5615 20.2063 27.8675 20.2063 27.8655L20.1643 27.7215L21.1003 27.5655L20.1403 26.9655C20.1223 26.9375 20.1023 26.9095 20.0823 26.8835L19.4223 24.0835V24.0255L19.8063 22.2615C19.9543 22.7555 19.7283 23.4615 19.6883 24.0615H19.7003ZM31.1003 15.9795C31.5723 16.2215 33.8323 17.2215 36.6563 15.8675C36.4043 15.4675 35.4563 14.1815 33.5223 13.3135C32.8133 13.421 32.0897 13.378 31.3983 13.1875C31.4506 14.1308 31.35 15.0764 31.1003 15.9875V15.9795ZM31.3803 12.9035C31.9143 13.0855 35.1623 13.9695 38.4023 9.80153C38.0023 9.57353 36.4108 8.87311 33.7708 9.04511L33.9143 8.97153C32.9147 9.4914 31.8537 9.8838 30.7563 10.1395C31.0121 10.794 31.1945 11.4748 31.3003 12.1695C31.3383 12.4135 31.3663 12.6595 31.3863 12.9035H31.3803ZM30.6503 9.89153C37.0363 8.35553 37.6843 4.73553 37.8323 3.89153C31.6323 3.69153 29.1523 6.43753 28.6823 7.04953C29.5321 7.84451 30.203 8.81127 30.6503 9.88553V9.89153ZM7.30033 13.2335C9.13233 13.4895 11.2823 13.2675 13.5863 12.0135C13.7403 12.2015 13.8923 12.3675 13.9863 12.4695C13.7163 12.7135 13.0483 13.3815 13.2443 13.8695C13.2483 13.894 13.2483 13.919 13.2443 13.9435C13.2443 14.2015 13.0443 14.7435 12.5303 15.3875C12.0163 16.0315 11.1303 16.7495 9.75233 17.3115C8.32633 17.8935 6.36833 18.3115 3.70633 18.2935C4.04233 17.4935 5.47833 14.2935 7.29233 13.2415L7.30033 13.2335ZM13.8283 9.94153C12.3441 8.53122 10.3945 7.71368 8.34833 7.64353C5.81233 5.90953 5.10033 2.38753 4.97033 1.58153C12.5123 2.39953 14.3123 6.43353 14.3183 6.44353L14.3823 6.58153L14.5003 6.49953C16.5351 5.18182 18.9333 4.5387 21.3543 4.66153C25.0223 4.83953 27.8443 6.64153 28.4183 7.16953C29.9003 8.48153 30.7443 10.3395 31.0343 12.1995C31.3483 14.2315 30.9963 16.2735 30.0463 17.6395C29.3838 18.5739 28.5001 19.3298 27.4743 19.8395C25.6103 20.7895 23.2943 21.0395 21.0183 20.7775C18.7423 20.5155 16.5123 19.7115 14.8183 18.5275C13.8148 17.8638 12.9817 16.9731 12.3863 15.9275C12.5118 15.8004 12.6306 15.6669 12.7423 15.5275C13.3003 14.8615 13.5003 14.2375 13.5003 13.9375C13.5021 13.8783 13.4926 13.8192 13.4723 13.7635C13.3023 13.3475 14.2403 12.5835 14.2423 12.5815L14.3563 12.4895L14.2543 12.3855C14.2543 12.3855 13.3983 11.5035 13.3003 11.0975C13.2183 10.7355 14.3323 9.84553 14.3363 9.84353L14.4123 9.78153L14.3763 9.68953C14.3763 9.68953 14.0623 8.91953 14.1343 8.64753C14.2063 8.37553 15.2783 8.03553 15.2803 8.03553C14.5923 7.71953 13.8983 8.49953 13.8803 8.58153C13.8063 8.86953 14.0123 9.46953 14.0983 9.69753C14.0343 9.75153 13.9363 9.83553 13.8243 9.94153H13.8283Z"
        fill="#552F82" />
    <path fill-rule="evenodd" clip-rule="evenodd"
        d="M34.0153 22.9063C34.3094 22.9059 34.5971 22.9926 34.8419 23.1556C35.0867 23.3186 35.2778 23.5505 35.3909 23.8221C35.504 24.0936 35.5341 24.3925 35.4774 24.6811C35.4207 24.9697 35.2797 25.2351 35.0723 25.4436C34.8649 25.6521 34.6003 25.7945 34.312 25.8528C34.0237 25.911 33.7246 25.8825 33.4525 25.7709C33.1804 25.6592 32.9474 25.4695 32.7831 25.2255C32.6188 24.9816 32.5305 24.6944 32.5293 24.4002C32.5285 24.2045 32.5664 24.0105 32.6407 23.8294C32.715 23.6483 32.8243 23.4837 32.9623 23.3449C33.1003 23.2061 33.2644 23.0959 33.4451 23.0207C33.6258 22.9454 33.8196 22.9065 34.0153 22.9063V22.9063Z"
        fill="#8BD4F3" />
    <path fill-rule="evenodd" clip-rule="evenodd"
        d="M33.6671 23.4004C33.7256 23.4004 33.7829 23.4178 33.8315 23.4503C33.8802 23.4828 33.9182 23.529 33.9406 23.5831C33.963 23.6372 33.9688 23.6967 33.9574 23.7541C33.946 23.8116 33.9178 23.8643 33.8764 23.9057C33.835 23.9471 33.7823 23.9753 33.7248 23.9867C33.6674 23.9981 33.6079 23.9923 33.5538 23.9699C33.4997 23.9475 33.4535 23.9095 33.421 23.8608C33.3885 23.8122 33.3711 23.7549 33.3711 23.6964V23.6964C33.3708 23.6576 33.3782 23.6192 33.3929 23.5833C33.4076 23.5474 33.4292 23.5147 33.4565 23.4872C33.4838 23.4597 33.5163 23.4379 33.5521 23.423C33.5879 23.4081 33.6263 23.4004 33.6651 23.4004H33.6671Z"
        fill="white" />
    <path fill-rule="evenodd" clip-rule="evenodd"
        d="M33.3814 24.3086C33.4106 24.3086 33.4386 24.3202 33.4592 24.3408C33.4798 24.3614 33.4914 24.3894 33.4914 24.4186V24.4186C33.4895 24.4329 33.4847 24.4467 33.4774 24.4592C33.4701 24.4716 33.4604 24.4826 33.4489 24.4913C33.4374 24.5 33.4243 24.5064 33.4103 24.5101C33.3963 24.5137 33.3817 24.5146 33.3674 24.5126C33.3435 24.5097 33.3213 24.4988 33.3043 24.4818C33.2872 24.4647 33.2764 24.4425 33.2734 24.4186C33.2734 24.3898 33.2847 24.3621 33.3049 24.3415C33.3251 24.3209 33.3526 24.3091 33.3814 24.3086Z"
        fill="white" />
    <path fill-rule="evenodd" clip-rule="evenodd"
        d="M34.6254 27.6582C34.7935 27.6582 34.9578 27.7081 35.0976 27.8015C35.2374 27.8949 35.3464 28.0276 35.4107 28.1829C35.475 28.3382 35.4919 28.5091 35.4591 28.674C35.4263 28.8389 35.3453 28.9904 35.2264 29.1092C35.1076 29.2281 34.9561 29.3091 34.7912 29.3419C34.6263 29.3747 34.4554 29.3578 34.3001 29.2935C34.1448 29.2292 34.012 29.1202 33.9186 28.9804C33.8252 28.8407 33.7754 28.6763 33.7754 28.5082C33.7754 28.2828 33.8649 28.0666 34.0244 27.9072C34.1838 27.7478 34.4 27.6582 34.6254 27.6582Z"
        fill="#8BD4F3" />
    <path fill-rule="evenodd" clip-rule="evenodd"
        d="M34.4993 27.8574C34.5428 27.8578 34.5851 27.8711 34.621 27.8955C34.6569 27.9199 34.6848 27.9544 34.7012 27.9946C34.7175 28.0348 34.7216 28.079 34.7129 28.1216C34.7042 28.1641 34.6831 28.2031 34.6522 28.2337C34.6214 28.2643 34.5822 28.285 34.5395 28.2933C34.4969 28.3017 34.4528 28.2972 34.4127 28.2805C34.3726 28.2638 34.3384 28.2356 34.3143 28.1994C34.2902 28.1633 34.2773 28.1209 34.2773 28.0774C34.2773 28.0484 34.2831 28.0196 34.2943 27.9928C34.3055 27.966 34.3218 27.9416 34.3425 27.9212C34.3631 27.9007 34.3876 27.8845 34.4145 27.8736C34.4415 27.8627 34.4703 27.8572 34.4993 27.8574Z"
        fill="white" />
    <path fill-rule="evenodd" clip-rule="evenodd"
        d="M34.2871 28.5293C34.3088 28.5293 34.3297 28.5379 34.3451 28.5533C34.3604 28.5687 34.3691 28.5895 34.3691 28.6113V28.6113C34.3691 28.633 34.3604 28.6539 34.3451 28.6693C34.3297 28.6847 34.3088 28.6933 34.2871 28.6933V28.6933C34.2653 28.6933 34.2445 28.6847 34.2291 28.6693C34.2137 28.6539 34.2051 28.633 34.2051 28.6113V28.6113C34.2061 28.5899 34.215 28.5696 34.2302 28.5544C34.2454 28.5392 34.2656 28.5303 34.2871 28.5293V28.5293Z"
        fill="white" />
    <path fill-rule="evenodd" clip-rule="evenodd"
        d="M9.988 18.5996C10.2823 18.5996 10.57 18.6869 10.8147 18.8504C11.0594 19.0139 11.2501 19.2463 11.3627 19.5182C11.4754 19.7901 11.5048 20.0893 11.4474 20.3779C11.39 20.6665 11.2483 20.9317 11.0402 21.1398C10.8321 21.3479 10.5669 21.4896 10.2783 21.547C9.98965 21.6044 9.69046 21.575 9.41857 21.4623C9.14667 21.3497 8.91428 21.159 8.75077 20.9143C8.58727 20.6696 8.5 20.3819 8.5 20.0876C8.5 19.693 8.65677 19.3145 8.93583 19.0354C9.21488 18.7564 9.59336 18.5996 9.988 18.5996V18.5996Z"
        fill="#8BD4F3" />
    <path fill-rule="evenodd" clip-rule="evenodd"
        d="M9.63782 19.0996C9.6962 19.0996 9.75326 19.1169 9.80185 19.1492C9.85044 19.1816 9.88837 19.2276 9.91089 19.2814C9.9334 19.3353 9.9395 19.3946 9.92839 19.4519C9.91729 19.5092 9.8895 19.562 9.8485 19.6035C9.8075 19.6451 9.75514 19.6736 9.69798 19.6854C9.64083 19.6973 9.58145 19.692 9.52729 19.6702C9.47314 19.6484 9.42664 19.6111 9.39364 19.563C9.36064 19.5148 9.34261 19.458 9.34182 19.3996C9.34129 19.3604 9.34856 19.3215 9.3632 19.2851C9.37783 19.2487 9.39955 19.2156 9.42709 19.1877C9.45463 19.1598 9.48744 19.1376 9.52362 19.1225C9.55979 19.1074 9.59861 19.0996 9.63782 19.0996Z"
        fill="white" />
    <path fill-rule="evenodd" clip-rule="evenodd"
        d="M9.35416 20C9.37591 20 9.39718 20.0065 9.41527 20.0185C9.43336 20.0306 9.44746 20.0478 9.45578 20.0679C9.46411 20.088 9.46629 20.1101 9.46204 20.1315C9.4578 20.1528 9.44732 20.1724 9.43194 20.1878C9.41656 20.2032 9.39696 20.2136 9.37562 20.2179C9.35428 20.2221 9.33216 20.2199 9.31206 20.2116C9.29196 20.2033 9.27478 20.1892 9.2627 20.1711C9.25061 20.153 9.24416 20.1318 9.24416 20.11C9.24389 20.0958 9.24643 20.0817 9.25161 20.0685C9.25679 20.0553 9.26453 20.0433 9.27437 20.033C9.28422 20.0228 9.29597 20.0147 9.30898 20.009C9.32198 20.0033 9.33598 20.0003 9.35016 20H9.35416Z"
        fill="white" />
    <path fill-rule="evenodd" clip-rule="evenodd"
        d="M11.9565 23.9551C12.0677 23.9551 12.1763 23.988 12.2688 24.0498C12.3612 24.1115 12.4332 24.1993 12.4757 24.302C12.5183 24.4047 12.5294 24.5177 12.5077 24.6267C12.486 24.7357 12.4325 24.8359 12.3539 24.9145C12.2753 24.9931 12.1752 25.0466 12.0662 25.0683C11.9572 25.09 11.8442 25.0788 11.7415 25.0363C11.6388 24.9938 11.551 24.9217 11.4892 24.8293C11.4275 24.7369 11.3945 24.6282 11.3945 24.5171C11.3945 24.3686 11.4535 24.2261 11.5586 24.1211C11.6636 24.0161 11.806 23.9571 11.9545 23.9571L11.9565 23.9551Z"
        fill="#8BD4F3" />
    <path fill-rule="evenodd" clip-rule="evenodd"
        d="M11.8587 24.1797C11.8856 24.1797 11.9119 24.1877 11.9342 24.2026C11.9566 24.2176 11.974 24.2388 11.9843 24.2637C11.9946 24.2885 11.9973 24.3159 11.9921 24.3422C11.9868 24.3686 11.9739 24.3929 11.9548 24.4119C11.9358 24.4309 11.9116 24.4438 11.8852 24.4491C11.8588 24.4543 11.8315 24.4516 11.8066 24.4414C11.7818 24.4311 11.7605 24.4136 11.7456 24.3913C11.7306 24.3689 11.7227 24.3426 11.7227 24.3157C11.7224 24.2978 11.7257 24.28 11.7325 24.2633C11.7392 24.2467 11.7492 24.2316 11.7619 24.2189C11.7746 24.2063 11.7897 24.1962 11.8063 24.1895C11.8229 24.1828 11.8407 24.1794 11.8587 24.1797V24.1797Z"
        fill="white" />
    <path fill-rule="evenodd" clip-rule="evenodd"
        d="M11.7277 24.5996C11.7376 24.5996 11.7473 24.6025 11.7555 24.608C11.7637 24.6135 11.7701 24.6213 11.7739 24.6305C11.7777 24.6396 11.7787 24.6497 11.7768 24.6594C11.7748 24.6691 11.7701 24.678 11.7631 24.685C11.7561 24.692 11.7472 24.6967 11.7375 24.6986C11.7278 24.7006 11.7177 24.6996 11.7086 24.6958C11.6995 24.692 11.6917 24.6856 11.6862 24.6774C11.6807 24.6692 11.6777 24.6595 11.6777 24.6496C11.6777 24.6363 11.683 24.6236 11.6924 24.6143C11.7018 24.6049 11.7145 24.5996 11.7277 24.5996Z"
        fill="white" />
    <path fill-rule="evenodd" clip-rule="evenodd"
        d="M10.3383 22.4004C10.5068 22.4 10.6716 22.4496 10.812 22.5429C10.9523 22.6362 11.0618 22.769 11.1267 22.9245C11.1915 23.08 11.2088 23.2513 11.1763 23.4166C11.1438 23.582 11.063 23.734 10.9441 23.8534C10.8253 23.9729 10.6737 24.0544 10.5085 24.0876C10.3433 24.1209 10.1719 24.1044 10.0161 24.0403C9.86025 23.9762 9.72693 23.8673 9.63298 23.7274C9.53904 23.5875 9.48868 23.4229 9.48828 23.2544V23.2544C9.48802 23.1425 9.5098 23.0317 9.55237 22.9282C9.59495 22.8247 9.65748 22.7307 9.73641 22.6514C9.81534 22.572 9.90912 22.5091 10.0124 22.466C10.1157 22.423 10.2264 22.4007 10.3383 22.4004V22.4004Z"
        fill="#8BD4F3" />
    <path fill-rule="evenodd" clip-rule="evenodd"
        d="M10.2142 22.5996C10.2581 22.5996 10.301 22.6126 10.3375 22.637C10.374 22.6614 10.4025 22.6961 10.4193 22.7367C10.4361 22.7772 10.4405 22.8219 10.4319 22.8649C10.4234 22.908 10.4022 22.9475 10.3712 22.9786C10.3401 23.0096 10.3006 23.0308 10.2575 23.0393C10.2144 23.0479 10.1698 23.0435 10.1292 23.0267C10.0887 23.0099 10.054 22.9815 10.0296 22.9449C10.0052 22.9084 9.99219 22.8655 9.99219 22.8216C9.99219 22.7627 10.0156 22.7063 10.0572 22.6646C10.0988 22.623 10.1553 22.5996 10.2142 22.5996Z"
        fill="white" />
    <path fill-rule="evenodd" clip-rule="evenodd"
        d="M9.99944 23.2734C10.0212 23.2734 10.042 23.2821 10.0574 23.2975C10.0728 23.3128 10.0814 23.3337 10.0814 23.3554C10.0832 23.3661 10.0828 23.3769 10.0803 23.3874C10.0778 23.3979 10.0732 23.4078 10.0669 23.4165C10.0606 23.4253 10.0526 23.4327 10.0435 23.4383C10.0343 23.4439 10.0241 23.4477 10.0134 23.4494C9.99204 23.4524 9.97033 23.4469 9.95282 23.4343C9.93531 23.4216 9.92336 23.4027 9.91944 23.3814C9.91748 23.3729 9.91748 23.364 9.91944 23.3554C9.91918 23.3449 9.92099 23.3345 9.92476 23.3247C9.92854 23.3149 9.93421 23.3059 9.94145 23.2983C9.9487 23.2907 9.95737 23.2845 9.96698 23.2803C9.97659 23.276 9.98694 23.2737 9.99744 23.2734H9.99944Z"
        fill="white" />
    <path fill-rule="evenodd" clip-rule="evenodd"
        d="M28.9957 33.5059C28.8339 33.5059 28.6758 33.5538 28.5413 33.6437C28.4068 33.7336 28.3019 33.8614 28.24 34.0108C28.1781 34.1603 28.1619 34.3248 28.1935 34.4834C28.225 34.6421 28.3029 34.7879 28.4173 34.9023C28.5317 35.0167 28.6775 35.0946 28.8361 35.1261C28.9948 35.1577 29.1593 35.1415 29.3088 35.0796C29.4582 35.0177 29.586 34.9128 29.6759 34.7783C29.7658 34.6438 29.8137 34.4856 29.8137 34.3239C29.8137 34.1069 29.7275 33.8989 29.5741 33.7454C29.4207 33.592 29.2127 33.5059 28.9957 33.5059V33.5059Z"
        fill="#8BD4F3" />
    <path fill-rule="evenodd" clip-rule="evenodd"
        d="M29.1874 33.7812C29.1554 33.7812 29.124 33.7908 29.0974 33.8086C29.0707 33.8264 29.05 33.8517 29.0377 33.8813C29.0255 33.9109 29.0223 33.9434 29.0285 33.9749C29.0348 34.0063 29.0502 34.0351 29.0728 34.0578C29.0955 34.0805 29.1244 34.0959 29.1558 34.1021C29.1872 34.1084 29.2198 34.1052 29.2494 34.0929C29.279 34.0807 29.3043 34.0599 29.3221 34.0333C29.3399 34.0066 29.3494 33.9753 29.3494 33.9432V33.9432C29.3494 33.9003 29.3323 33.8591 29.3019 33.8287C29.2716 33.7983 29.2304 33.7812 29.1874 33.7812V33.7812Z"
        fill="white" />
    <path fill-rule="evenodd" clip-rule="evenodd"
        d="M29.3432 34.2754C29.3276 34.2763 29.3129 34.283 29.3019 34.294C29.2908 34.3051 29.2842 34.3198 29.2832 34.3354C29.283 34.3433 29.2843 34.3513 29.2872 34.3587C29.2902 34.3661 29.2946 34.3728 29.3002 34.3784C29.3058 34.3841 29.3125 34.3885 29.32 34.3914C29.3274 34.3943 29.3353 34.3957 29.3432 34.3954V34.3954C29.3509 34.3957 29.3585 34.3944 29.3656 34.3917C29.3727 34.3891 29.3793 34.385 29.3848 34.3798C29.3904 34.3746 29.3949 34.3684 29.3981 34.3614C29.4012 34.3545 29.403 34.347 29.4032 34.3394V34.3394C29.4035 34.3314 29.4022 34.3235 29.3992 34.3161C29.3963 34.3087 29.3919 34.302 29.3863 34.2963C29.3807 34.2907 29.3739 34.2863 29.3665 34.2834C29.3591 34.2805 29.3512 34.2791 29.3432 34.2794V34.2754Z"
        fill="white" />
    <path fill-rule="evenodd" clip-rule="evenodd"
        d="M28.0678 35.0352C28.0068 35.0352 27.9473 35.0532 27.8966 35.0871C27.846 35.1209 27.8065 35.169 27.7832 35.2253C27.7599 35.2816 27.7538 35.3435 27.7657 35.4032C27.7776 35.463 27.8069 35.5179 27.85 35.5609C27.8931 35.604 27.9479 35.6334 28.0077 35.6452C28.0674 35.6571 28.1294 35.651 28.1856 35.6277C28.2419 35.6044 28.29 35.5649 28.3239 35.5143C28.3577 35.4636 28.3758 35.4041 28.3758 35.3432C28.3758 35.2615 28.3433 35.1831 28.2856 35.1254C28.2278 35.0676 28.1495 35.0352 28.0678 35.0352V35.0352Z"
        fill="#8BD4F3" />
    <path fill-rule="evenodd" clip-rule="evenodd"
        d="M28.122 35.1571C28.1022 35.1541 28.082 35.1589 28.0656 35.1705C28.0492 35.182 28.0379 35.1994 28.034 35.2191C28.0311 35.2392 28.0362 35.2597 28.0481 35.2761C28.0601 35.2925 28.078 35.3037 28.098 35.3071H28.122C28.1398 35.3042 28.156 35.295 28.1676 35.2813C28.1793 35.2676 28.1857 35.2501 28.1857 35.2321C28.1857 35.2141 28.1793 35.1966 28.1676 35.1829C28.156 35.1692 28.1398 35.16 28.122 35.1571V35.1571Z"
        fill="white" />
    <path fill-rule="evenodd" clip-rule="evenodd"
        d="M28.194 35.3848C28.1885 35.3848 28.1831 35.3864 28.1785 35.3895C28.1739 35.3926 28.1703 35.3969 28.1681 35.4021C28.166 35.4072 28.1655 35.4128 28.1666 35.4182C28.1676 35.4237 28.1703 35.4286 28.1742 35.4326C28.1781 35.4365 28.1831 35.4391 28.1886 35.4402C28.194 35.4413 28.1996 35.4408 28.2047 35.4386C28.2098 35.4365 28.2142 35.4329 28.2173 35.4283C28.2204 35.4237 28.222 35.4183 28.222 35.4128C28.222 35.4053 28.2191 35.3982 28.2138 35.393C28.2086 35.3877 28.2014 35.3848 28.194 35.3848Z"
        fill="white" />
    <path fill-rule="evenodd" clip-rule="evenodd"
        d="M28.6614 36.1152C28.5688 36.1152 28.4783 36.1427 28.4014 36.1941C28.3244 36.2455 28.2644 36.3186 28.229 36.4041C28.1936 36.4897 28.1843 36.5838 28.2024 36.6745C28.2204 36.7653 28.265 36.8487 28.3304 36.9142C28.3959 36.9796 28.4793 37.0242 28.5701 37.0422C28.6608 37.0603 28.7549 37.051 28.8405 37.0156C28.926 36.9802 28.9991 36.9202 29.0505 36.8432C29.1019 36.7663 29.1294 36.6758 29.1294 36.5832V36.5832C29.1294 36.4591 29.08 36.3401 28.9923 36.2523C28.9045 36.1645 28.7855 36.1152 28.6614 36.1152Z"
        fill="#8BD4F3" />
    <path fill-rule="evenodd" clip-rule="evenodd"
        d="M28.7294 36.2247C28.6976 36.2247 28.667 36.2373 28.6445 36.2598C28.622 36.2823 28.6094 36.3128 28.6094 36.3447V36.3447C28.6094 36.3688 28.6165 36.3924 28.6299 36.4124C28.6433 36.4325 28.6624 36.4481 28.6847 36.4574C28.707 36.4666 28.7315 36.469 28.7552 36.4643C28.7788 36.4596 28.8006 36.448 28.8176 36.4309C28.8347 36.4139 28.8463 36.3921 28.851 36.3685C28.8557 36.3448 28.8533 36.3203 28.8441 36.298C28.8349 36.2757 28.8192 36.2566 28.7992 36.2432C28.7791 36.2298 28.7555 36.2227 28.7314 36.2227L28.7294 36.2247Z"
        fill="white" />
    <path fill-rule="evenodd" clip-rule="evenodd"
        d="M28.8479 36.5989C28.842 36.5975 28.8358 36.5973 28.8298 36.5983C28.8238 36.5994 28.8181 36.6017 28.813 36.605C28.8079 36.6084 28.8036 36.6128 28.8003 36.618C28.797 36.6231 28.7949 36.6289 28.7939 36.6349C28.7915 36.6466 28.7937 36.6587 28.8 36.6688C28.8064 36.6789 28.8164 36.6861 28.8279 36.6889H28.8479C28.8596 36.6889 28.8708 36.6843 28.879 36.676C28.8873 36.6678 28.8919 36.6566 28.8919 36.6449C28.8922 36.6392 28.8913 36.6334 28.8894 36.6279C28.8874 36.6225 28.8844 36.6175 28.8805 36.6132C28.8766 36.6089 28.8719 36.6055 28.8666 36.603C28.8614 36.6006 28.8557 36.5992 28.8499 36.5989H28.8479Z"
        fill="white" />
    <path
        d="M51.5221 28.96L62.8821 10.88L62.9141 10.848V10.816C62.9141 10.7947 62.9035 10.784 62.8821 10.784H52.0341C51.7568 10.784 51.5115 10.6773 51.2981 10.464C51.0848 10.2507 50.9781 9.99467 50.9781 9.696C50.9781 9.41867 51.0741 9.17333 51.2661 8.96C51.4795 8.74667 51.7355 8.64 52.0341 8.64H64.8341C65.1328 8.64 65.3781 8.74667 65.5701 8.96C65.7835 9.17333 65.8901 9.41867 65.8901 9.696C65.8901 10.4853 65.7088 11.1467 65.3461 11.68L53.9861 29.76L53.9541 29.792V29.824C53.9541 29.8453 53.9648 29.856 53.9861 29.856H64.8341C65.1115 29.856 65.3568 29.9627 65.5701 30.176C65.7835 30.3893 65.8901 30.6453 65.8901 30.944C65.8901 31.2213 65.7835 31.4667 65.5701 31.68C65.3781 31.8933 65.1328 32 64.8341 32H52.0341C51.7355 32 51.4795 31.8933 51.2661 31.68C51.0741 31.4667 50.9781 31.2213 50.9781 30.944C50.9781 30.1547 51.1595 29.4933 51.5221 28.96ZM78.1359 23.2C76.0239 23.2 74.4239 23.5413 73.3359 24.224C72.2692 24.9067 71.7359 25.8667 71.7359 27.104C71.7359 28.064 72.0025 28.8427 72.5359 29.44C73.0905 30.016 73.8159 30.304 74.7119 30.304C76.2479 30.304 77.5172 29.792 78.5199 28.768C79.5439 27.744 80.0559 26.3893 80.0559 24.704V23.488C80.0559 23.296 79.9599 23.2 79.7679 23.2H78.1359ZM74.1999 32.32C72.7492 32.32 71.5652 31.8613 70.6479 30.944C69.7305 30.0267 69.2719 28.8107 69.2719 27.296C69.2719 25.5253 69.9759 24.1067 71.3839 23.04C72.7919 21.9733 75.0425 21.44 78.1359 21.44H79.7679C79.9599 21.44 80.0559 21.3547 80.0559 21.184V20.576C80.0559 19.2747 79.7572 18.368 79.1599 17.856C78.5625 17.3227 77.5065 17.056 75.9919 17.056C74.5199 17.056 72.9305 17.3333 71.2239 17.888C70.9679 17.9733 70.7332 17.9413 70.5199 17.792C70.3065 17.6427 70.1999 17.4293 70.1999 17.152C70.1999 16.4053 70.5519 15.9253 71.2559 15.712C72.8345 15.264 74.4132 15.04 75.9919 15.04C78.4452 15.04 80.1412 15.488 81.0799 16.384C82.0399 17.28 82.5199 18.8907 82.5199 21.216V30.848C82.5199 31.168 82.4025 31.4453 82.1679 31.68C81.9545 31.8933 81.6879 32 81.3679 32C81.0479 32 80.7705 31.8933 80.5359 31.68C80.3012 31.4453 80.1839 31.168 80.1839 30.848L80.1519 29.184C80.1519 29.1627 80.1412 29.152 80.1199 29.152C80.0772 29.152 80.0559 29.1733 80.0559 29.216C78.7972 31.2853 76.8452 32.32 74.1999 32.32ZM89.3416 31.616C89.107 31.872 88.8083 32 88.4456 32C88.083 32 87.7736 31.872 87.5176 31.616C87.283 31.36 87.1656 31.0613 87.1656 30.72V16.576C87.1656 16.2347 87.283 15.9467 87.5176 15.712C87.7523 15.4773 88.0403 15.36 88.3816 15.36C88.723 15.36 89.011 15.4773 89.2456 15.712C89.4803 15.9467 89.5976 16.2347 89.5976 16.576V19.04C89.5976 19.0613 89.6083 19.072 89.6296 19.072C89.6723 19.072 89.6936 19.0507 89.6936 19.008C90.3336 17.9413 91.2296 17.088 92.3816 16.448C93.555 15.7867 94.867 15.424 96.3176 15.36C96.6163 15.3387 96.8723 15.4347 97.0856 15.648C97.299 15.8613 97.4056 16.1173 97.4056 16.416C97.4056 16.6933 97.299 16.9387 97.0856 17.152C96.8936 17.3653 96.6483 17.4827 96.3496 17.504C94.2376 17.5893 92.6056 18.208 91.4536 19.36C90.3016 20.4907 89.7256 22.08 89.7256 24.128V30.72C89.7256 31.0613 89.5976 31.36 89.3416 31.616ZM101.892 17.92C101.615 17.92 101.38 17.8347 101.188 17.664C101.017 17.472 100.932 17.2373 100.932 16.96C100.932 16.6827 101.017 16.4587 101.188 16.288C101.38 16.096 101.615 16 101.892 16H104.58C104.772 16 104.868 15.904 104.868 15.712V14.176C104.868 12.128 105.295 10.6453 106.148 9.728C107.023 8.78933 108.409 8.32 110.308 8.32C111.012 8.32 111.663 8.39467 112.26 8.544C112.537 8.608 112.761 8.75733 112.932 8.992C113.103 9.20533 113.188 9.46133 113.188 9.76C113.188 9.99467 113.092 10.1867 112.9 10.336C112.708 10.464 112.505 10.496 112.292 10.432C111.78 10.304 111.257 10.24 110.724 10.24C109.487 10.24 108.623 10.5173 108.132 11.072C107.663 11.6053 107.428 12.608 107.428 14.08V15.712C107.428 15.904 107.524 16 107.716 16H111.908C112.185 16 112.409 16.096 112.58 16.288C112.772 16.4587 112.868 16.6827 112.868 16.96C112.868 17.2373 112.772 17.472 112.58 17.664C112.409 17.8347 112.185 17.92 111.908 17.92H107.716C107.524 17.92 107.428 18.016 107.428 18.208V30.72C107.428 31.0613 107.3 31.36 107.044 31.616C106.788 31.872 106.489 32 106.148 32C105.807 32 105.508 31.872 105.252 31.616C104.996 31.36 104.868 31.0613 104.868 30.72V18.208C104.868 18.016 104.772 17.92 104.58 17.92H101.892Z"
        fill="white" />
    <defs>
        <linearGradient id="paint0_linear_9239_14212" x1="19.9988" y1="38.3603" x2="19.9988" y2="1.12813"
            gradientUnits="userSpaceOnUse">
            <stop stop-color="#7BD5F5" />
            <stop offset="1" stop-color="#DCCFE5" />
        </linearGradient>
        <linearGradient id="paint1_linear_9239_14212" x1="19.9988" y1="38.3603" x2="19.9988" y2="1.12813"
            gradientUnits="userSpaceOnUse">
            <stop stop-color="#7BD5F5" />
            <stop offset="1" stop-color="#DCCFE5" />
        </linearGradient>
        <linearGradient id="paint2_linear_9239_14212" x1="19.9988" y1="38.3603" x2="19.9988" y2="1.12813"
            gradientUnits="userSpaceOnUse">
            <stop stop-color="#7BD5F5" />
            <stop offset="1" stop-color="#DCCFE5" />
        </linearGradient>
        <linearGradient id="paint3_linear_9239_14212" x1="19.9988" y1="38.3603" x2="19.9988" y2="1.12813"
            gradientUnits="userSpaceOnUse">
            <stop stop-color="#7BD5F5" />
            <stop offset="1" stop-color="#DCCFE5" />
        </linearGradient>
        <linearGradient id="paint4_linear_9239_14212" x1="19.9988" y1="38.3603" x2="19.9988" y2="1.12813"
            gradientUnits="userSpaceOnUse">
            <stop stop-color="#7BD5F5" />
            <stop offset="1" stop-color="#DCCFE5" />
        </linearGradient>
        <linearGradient id="paint5_linear_9239_14212" x1="19.9988" y1="38.3603" x2="19.9988" y2="1.12813"
            gradientUnits="userSpaceOnUse">
            <stop stop-color="#7BD5F5" />
            <stop offset="1" stop-color="#DCCFE5" />
        </linearGradient>
        <linearGradient id="paint6_linear_9239_14212" x1="19.9988" y1="38.3603" x2="19.9988" y2="1.12813"
            gradientUnits="userSpaceOnUse">
            <stop stop-color="#7BD5F5" />
            <stop offset="1" stop-color="#DCCFE5" />
        </linearGradient>
        <linearGradient id="paint7_linear_9239_14212" x1="19.9988" y1="38.3603" x2="19.9988" y2="1.12813"
            gradientUnits="userSpaceOnUse">
            <stop stop-color="#7BD5F5" />
            <stop offset="1" stop-color="#DCCFE5" />
        </linearGradient>
        <linearGradient id="paint8_linear_9239_14212" x1="19.9988" y1="38.3603" x2="19.9988" y2="1.12813"
            gradientUnits="userSpaceOnUse">
            <stop stop-color="#7BD5F5" />
            <stop offset="1" stop-color="#DCCFE5" />
        </linearGradient>
    </defs>
</svg>