<svg width="117" height="48" viewBox="0 0 117 48" fill="none" xmlns="http://www.w3.org/2000/svg">
<path d="M55.0633 9H62.1331V34.5896C62.1331 38.1965 60.0402 40 55.8543 40H49.2294C45.0765 40 43 38.1965 43 34.5896V9H50.0699V33.6635C50.0699 34.4759 50.4983 34.8821 51.3553 34.8821H53.7284C54.6183 34.8821 55.0633 34.4759 55.0633 33.6635V9Z" fill="white"/>
<path d="M67.1072 9H80.2087C84.3946 9 86.4876 10.7872 86.4876 14.3616V34.5896C86.4876 38.1965 84.3946 40 80.2087 40H67.1072V9ZM79.4177 34.0047V14.9953C79.4177 14.1829 78.9728 13.7767 78.0828 13.7767H74.1771V35.2233H78.0828C78.9728 35.2233 79.4177 34.8171 79.4177 34.0047Z" fill="white"/>
<path d="M101.93 33.6635V28.0582C101.93 27.6357 101.831 27.3433 101.633 27.1808C101.436 26.9858 101.09 26.8884 100.595 26.8884H96.2446C92.3553 26.8884 90.4107 25.0687 90.4107 21.4292V14.3616C90.4107 10.7872 92.4872 9 96.6401 9H102.672C106.825 9 108.901 10.7872 108.901 14.3616V18.4072H101.831V15.3365C101.831 14.5241 101.386 14.1179 100.496 14.1179H98.8154C97.9255 14.1179 97.4806 14.5241 97.4806 15.3365V20.7956C97.4806 21.218 97.5794 21.5267 97.7772 21.7217C97.975 21.8842 98.321 21.9654 98.8154 21.9654H103.067C105.177 21.9654 106.693 22.4203 107.616 23.3302C108.539 24.2075 109 25.5236 109 27.2783V34.5896C109 38.1965 106.924 40 102.771 40H96.7884C92.6025 40 90.5096 38.1965 90.5096 34.5896V30.5928H97.5794V33.6635C97.5794 34.4759 98.0244 34.8821 98.9143 34.8821H100.595C101.485 34.8821 101.93 34.4759 101.93 33.6635Z" fill="white"/>
<path d="M18.2532 36.071L16.5062 40.185L16.2103 44.2368H20.2637L21.0528 43.7925L23.3376 43.8721L23.3727 44.9526H27.6194L27.9247 43.8721H31.1324C31.1324 43.8721 30.2338 35.9724 28.7003 34.9162C22.8782 38.8708 18.2519 36.075 18.2519 36.075" fill="white"/>
<path d="M28.7783 40.6833L29.0148 43.6939H27.8893L28.7783 40.6833Z" fill="#2494D1"/>
<path d="M17.6507 37.2054C17.6507 37.2054 21.1745 39.3097 25.3995 37.2054C28.7774 35.5266 18.2533 36.0709 18.2533 36.0709L17.6507 37.2054Z" fill="#2494D1"/>
<path d="M31.158 45.5374H27.7139L27.9234 43.8667H31.1323C31.1323 43.8667 31.1661 44.9931 31.1607 45.5374" fill="#EB2126"/>
<path d="M31.1577 46.0763H27.7137C27.6369 46.0769 27.5609 46.061 27.4907 46.0299C27.4205 45.9988 27.3578 45.9531 27.3066 45.8959C27.2555 45.8386 27.2171 45.7711 27.1941 45.6979C27.1711 45.6247 27.164 45.5474 27.1732 45.4712L27.3867 43.8059C27.4032 43.6746 27.4674 43.554 27.567 43.4669C27.6666 43.3797 27.7948 43.3322 27.9272 43.3332H31.1321C31.2724 43.3331 31.4073 43.3876 31.5082 43.4852C31.609 43.5827 31.668 43.7157 31.6725 43.8559C31.6725 43.8559 31.7063 44.9972 31.7009 45.5482C31.6977 45.6898 31.639 45.8246 31.5374 45.9233C31.4358 46.0221 31.2995 46.077 31.1577 46.0763V46.0763ZM28.3203 44.9958H30.6173C30.6173 44.7946 30.6092 44.5906 30.6051 44.4042H28.4001L28.3203 44.9958Z" fill="#144A8F"/>
<path d="M29.9841 35.3254C29.9841 35.3254 32.3688 32.1744 36.1102 33.0523C39.8515 33.9302 40.8284 31.7125 40.8284 31.7125C40.8284 31.7125 38.9692 38.5142 34.2078 36.6382C34.2078 36.6382 34.9387 37.2513 35.6129 37.8415C34.1848 38.8667 32.889 39.4758 30.3259 37.9334" fill="#2494D1"/>
<path d="M29.8905 35.5388C29.8905 35.5388 32.078 32.3257 35.1411 33.0415C38.2041 33.7574 40.0498 33.001 40.0498 33.001C40.0498 33.001 37.9177 37.3662 34.5101 35.3484C33.9169 34.9243 33.1224 35.0188 32.7347 35.5591C32.3469 36.0993 32.5131 36.8827 33.1062 37.3068C32.2091 37.6701 31.0147 37.2068 30.3742 36.78" fill="white"/>
<path d="M19.2418 36.5274C19.2418 36.5274 19.6161 35.5644 18.2541 36.0709C16.8922 36.5773 16.0126 44.2542 16.0126 44.2542H16.6233C16.9584 44.2542 17.6313 44.1908 17.6083 43.8572C17.6083 43.8572 17.6502 41.5881 17.8083 40.3226C18.1244 39.1597 19.2418 36.5274 19.2418 36.5274Z" fill="#2494D1"/>
<path d="M35.6244 18.3846C35.6244 25.7171 29.778 37.2068 22.5669 37.2068C15.3558 37.2068 9.51349 25.7171 9.51349 18.3846C9.51349 11.0521 15.3599 8.11993 22.571 8.11993C29.782 8.11993 35.6285 11.0575 35.6285 18.3846" fill="white"/>
<path d="M22.5676 37.7457C15.062 37.7457 8.97369 26.0305 8.97369 18.3846C8.97369 11.5154 13.9297 7.57971 22.5716 7.57971C31.2136 7.57971 36.1682 11.5208 36.1682 18.3846C36.1642 26.0305 30.0732 37.7457 22.5676 37.7457ZM22.5676 8.65345C18.8033 8.65345 10.0492 9.59888 10.0492 18.3846C10.0492 25.4376 15.7781 36.6679 22.5676 36.6679C29.3571 36.6679 35.086 25.4376 35.086 18.3846C35.086 9.60159 26.3305 8.65345 22.5676 8.65345V8.65345Z" fill="#144A8F"/>
<path d="M11.3814 17.1623C11.3814 17.1623 10.0978 17.3676 9.46682 17.1056C8.6183 16.753 9.99647 15.6942 9.99647 15.6942L11.3814 17.1623Z" fill="#2494D1"/>
<path d="M25.7072 15.7941C25.7072 17.4284 24.6263 17.974 22.5995 18.7439C20.3026 18.7439 15.6695 17.4284 15.6695 15.7941C15.6695 14.1599 20.7282 12.8336 23.0251 12.8336C25.3221 12.8336 25.7031 14.1585 25.7031 15.7941" fill="#2494D1"/>
<path d="M24.5387 30.5104C24.5387 30.5104 23.8253 27.5391 26.0601 26.541C25.6372 27.6836 24.7657 30.1633 25.3115 31.0385C25.8574 31.9137 24.5387 30.5104 24.5387 30.5104" fill="#2494D1"/>
<path d="M22.5676 37.7457C15.062 37.7457 8.97369 26.0305 8.97369 18.3846C8.97369 11.5154 13.9297 7.57971 22.5716 7.57971C31.2136 7.57971 36.1682 11.5208 36.1682 18.3846C36.1642 26.0305 30.0732 37.7457 22.5676 37.7457ZM22.5676 8.65345C18.8033 8.65345 10.0492 9.59888 10.0492 18.3846C10.0492 25.4376 15.7781 36.6679 22.5676 36.6679C29.3571 36.6679 35.086 25.4376 35.086 18.3846C35.086 9.60159 26.3305 8.65345 22.5676 8.65345V8.65345Z" fill="#144A8F"/>
<path d="M18.3884 20.9508C18.3884 20.9508 19.118 24.0572 23.9956 24.5232C24.3226 24.5542 24.5158 24.1531 24.3402 23.8762C24.1105 23.5129 23.3782 22.924 23.3673 22.4419C24.4483 22.5675 26.2048 23.0915 27.1289 22.5918C27.1923 22.557 27.2448 22.5053 27.2804 22.4424C27.3161 22.3795 27.3334 22.3079 27.3306 22.2356C27.3278 22.1634 27.3049 22.0934 27.2645 22.0334C27.2241 21.9735 27.1678 21.926 27.1019 21.8962C26.5034 21.6261 26.5331 20.6185 26.2561 20.1026" fill="#2494D1"/>
<path d="M18.5326 19.9635C18.5326 19.9635 18.9528 23.3873 25.0276 22.9457C24.6668 22.4783 24.2831 21.9773 24.2669 21.2965C25.4721 21.4316 26.9948 21.4681 27.7623 20.5699C27.0462 20.4443 26.2436 19.8946 25.9112 19.272" fill="white"/>
<path d="M23.9714 23.5251C18.4898 23.5251 18.0142 20.1796 17.9952 20.0297C17.987 19.8928 18.0311 19.7578 18.1188 19.6523C18.2064 19.5467 18.3309 19.4784 18.467 19.4612C18.6032 19.444 18.7407 19.4793 18.8519 19.5597C18.963 19.6402 19.0393 19.76 19.0654 19.8946C19.0829 20.0148 19.5018 22.4473 23.9727 22.4473H24.0349C23.8429 22.0981 23.7368 21.7083 23.7255 21.3101C23.7245 21.234 23.7397 21.1585 23.77 21.0887C23.8002 21.0189 23.8449 20.9562 23.9011 20.9049C23.9583 20.8534 24.0259 20.8147 24.0993 20.7914C24.1727 20.7681 24.2502 20.7607 24.3267 20.7698C25.2995 20.8833 26.0481 20.8576 26.5885 20.6915C26.1096 20.4135 25.7114 20.0155 25.4333 19.5367C25.3826 19.4133 25.3794 19.2755 25.4243 19.1498C25.4692 19.0242 25.559 18.9196 25.6765 18.8562C25.7939 18.7928 25.9307 18.7751 26.0604 18.8065C26.1901 18.8379 26.3037 18.9161 26.3791 19.0262C26.6277 19.4908 27.2871 19.95 27.8478 20.0486C27.9411 20.0655 28.0284 20.1067 28.1007 20.1679C28.1731 20.2292 28.2281 20.3085 28.2601 20.3977C28.2922 20.4869 28.3001 20.583 28.2833 20.6763C28.2664 20.7696 28.2252 20.8568 28.164 20.9292C27.3925 21.8341 26.0927 21.9678 24.9604 21.9084C25.0995 22.1623 25.2623 22.4024 25.4468 22.6256C25.506 22.7028 25.5432 22.7946 25.5545 22.8912C25.5658 22.9878 25.5508 23.0857 25.5111 23.1745C25.4714 23.2633 25.4084 23.3397 25.3289 23.3957C25.2493 23.4517 25.1561 23.4852 25.059 23.4927C24.6798 23.5152 24.3173 23.526 23.9714 23.5251Z" fill="#144A8F"/>
<path d="M26.6003 15.1931C26.6003 16.2601 24.7952 18.2226 22.5671 18.2226C20.3391 18.2226 18.5326 16.2601 18.5326 15.1931C18.5326 14.1261 20.1472 0.540283 22.3766 0.540283C24.606 0.540283 26.6003 14.1275 26.6003 15.1931" fill="white"/>
<path d="M22.5676 18.7628C20.0869 18.7628 17.994 16.5707 17.994 15.1931C17.994 15.0378 19.3573 0 22.3771 0C25.4334 0 27.1413 15.0418 27.1413 15.1931C27.1413 16.5707 25.0524 18.7628 22.5676 18.7628ZM22.3771 1.07914C20.9922 1.07914 19.0736 13.0699 19.0736 15.1931C19.0736 15.9157 20.5855 17.6836 22.5676 17.6836C24.5498 17.6836 26.0617 15.9157 26.0617 15.1931C26.0617 14.7123 25.5645 11.0683 24.797 7.58371C23.4027 1.26148 22.3866 1.07914 22.3771 1.07914Z" fill="#144A8F"/>
<path d="M24.9911 34.3057C25.0478 34.592 24.5776 34.2908 24.0912 34.3867C23.6048 34.4826 23.2805 34.9405 23.2292 34.6568C23.1778 34.3732 23.4643 33.7749 23.9507 33.6776C24.4371 33.5804 24.9343 34.0207 24.9911 34.3084" fill="#144A8F"/>
<path d="M20.1878 34.3057C20.131 34.592 20.6012 34.2908 21.0876 34.3867C21.574 34.4826 21.8983 34.9405 21.9497 34.6568C22.001 34.3732 21.7146 33.7749 21.2282 33.6776C20.7417 33.5804 20.2445 34.0207 20.1878 34.3084" fill="#144A8F"/>
<path d="M15.0533 10.786C15.0533 10.786 11.8646 9.20848 8.91635 9.39757C7.86921 12.427 9.06903 15.4564 11.3484 16.6369" fill="white"/>
<path d="M11.342 17.1771C11.2555 17.1768 11.1703 17.1559 11.0933 17.1164C8.47618 15.7563 7.32095 12.3622 8.40592 9.22066C8.44078 9.12025 8.5045 9.03236 8.5891 8.96797C8.6737 8.90359 8.77542 8.86558 8.88152 8.8587C11.9459 8.6561 15.1576 10.235 15.2927 10.3025C15.4128 10.3705 15.5024 10.482 15.5429 10.6139C15.5835 10.7458 15.572 10.8883 15.5108 11.012C15.4496 11.1357 15.3433 11.2313 15.2138 11.2792C15.0843 11.3271 14.9414 11.3237 14.8144 11.2695C14.786 11.256 11.977 9.89192 9.31659 9.91893C8.59778 12.4581 9.53953 15.0931 11.5906 16.1588C11.6972 16.2149 11.7821 16.305 11.8316 16.4149C11.8812 16.5247 11.8926 16.6479 11.864 16.765C11.8354 16.882 11.7685 16.9862 11.6739 17.0609C11.5793 17.1356 11.4625 17.1765 11.342 17.1771V17.1771Z" fill="#144A8F"/>
<path d="M9.95296 11.4195C9.88135 11.8706 9.97323 13.7588 11.6541 15.081C11.6674 15.0953 11.6854 15.1043 11.7048 15.1065C11.7242 15.1087 11.7438 15.1039 11.76 15.0931C11.7762 15.0822 11.7881 15.0659 11.7934 15.0471C11.7988 15.0284 11.7973 15.0083 11.7892 14.9905C11.6832 14.6981 11.6138 14.3937 11.5824 14.0843C11.5811 14.0661 11.5849 14.0479 11.5934 14.0317C11.602 14.0156 11.6149 14.0022 11.6306 13.9931C11.6464 13.9839 11.6645 13.9794 11.6827 13.98C11.7009 13.9806 11.7186 13.9863 11.7338 13.9965C11.8878 14.1005 12.077 14.1734 12.4431 14.0964C12.4705 14.0905 12.496 14.0783 12.5177 14.0607C12.5395 14.0431 12.5567 14.0206 12.5682 13.9951C12.5796 13.9696 12.5849 13.9418 12.5836 13.9139C12.5823 13.8859 12.5744 13.8587 12.5607 13.8344C12.4782 13.7118 12.4208 13.5741 12.3918 13.4292C12.3882 13.4046 12.3901 13.3796 12.3973 13.3558C12.4045 13.332 12.4168 13.3101 12.4335 13.2917C12.4501 13.2732 12.4707 13.2587 12.4936 13.2491C12.5165 13.2395 12.5413 13.235 12.5661 13.2361C13.2065 13.259 13.7065 13.3387 14.1064 13.0524" fill="#2494D1"/>
<path d="M13.8756 12.6472C12.7699 12.13 11.6018 11.7582 10.4005 11.541Z" fill="white"/>
<path d="M13.8757 13.1861C13.7929 13.1856 13.7112 13.1667 13.6366 13.1307C12.5776 12.6372 11.4596 12.2818 10.31 12.0732C10.1736 12.0442 10.0538 11.9635 9.97545 11.8482C9.89714 11.7328 9.86647 11.5917 9.88985 11.4543C9.91323 11.3168 9.98885 11.1937 10.1009 11.1108C10.213 11.0278 10.3528 10.9913 10.4911 11.0089C11.7444 11.2337 12.9627 11.622 14.1149 12.1637C14.223 12.2183 14.3097 12.3077 14.3609 12.4174C14.4121 12.5272 14.425 12.651 14.3974 12.7689C14.3698 12.8868 14.3034 12.9921 14.2088 13.0677C14.1142 13.1434 13.9969 13.1851 13.8757 13.1861V13.1861Z" fill="#144A8F"/>
<path d="M30.0798 10.786C30.0798 10.786 33.2699 9.20848 36.2181 9.39757C37.2652 12.427 36.0654 15.4564 33.786 16.6369" fill="white"/>
<path d="M33.793 17.1772C33.6723 17.1768 33.5553 17.1361 33.4604 17.0615C33.3656 16.9869 33.2985 16.8828 33.2697 16.7657C33.241 16.6485 33.2523 16.5252 33.3018 16.4152C33.3513 16.3052 33.4362 16.215 33.543 16.1588C35.5913 15.0932 36.5371 12.4581 35.8183 9.92165C33.1417 9.87844 30.3489 11.2561 30.3219 11.2696C30.1948 11.3237 30.0519 11.3271 29.9224 11.2792C29.7929 11.2314 29.6867 11.1357 29.6255 11.012C29.5643 10.8883 29.5528 10.7458 29.5934 10.6139C29.6339 10.482 29.7234 10.3706 29.8436 10.3025C29.9787 10.2363 33.1985 8.66288 36.2561 8.85872C36.3622 8.8656 36.4639 8.90361 36.5485 8.96799C36.6331 9.03238 36.6968 9.12027 36.7317 9.22068C37.8126 12.3622 36.6614 15.7563 34.0429 17.1164C33.9657 17.1565 33.88 17.1773 33.793 17.1772Z" fill="#144A8F"/>
<path d="M35.1857 11.4195C35.2573 11.8706 35.1654 13.7588 33.4846 15.081C33.4712 15.0953 33.4532 15.1043 33.4338 15.1065C33.4144 15.1087 33.3948 15.1039 33.3786 15.0931C33.3624 15.0822 33.3505 15.0659 33.3452 15.0471C33.3399 15.0284 33.3414 15.0083 33.3494 14.9905C33.4547 14.6979 33.5242 14.3936 33.5562 14.0843C33.5575 14.0661 33.5537 14.0479 33.5452 14.0317C33.5367 14.0156 33.5238 14.0022 33.508 13.993C33.4922 13.9839 33.4742 13.9794 33.4559 13.98C33.4377 13.9806 33.42 13.9863 33.4048 13.9965C33.2508 14.1005 33.0617 14.1734 32.6955 14.0964C32.6682 14.0905 32.6426 14.0783 32.6209 14.0607C32.5992 14.0431 32.5819 14.0206 32.5704 13.9951C32.559 13.9696 32.5537 13.9418 32.555 13.9139C32.5563 13.8859 32.5642 13.8587 32.5779 13.8344C32.6599 13.7115 32.7173 13.5739 32.7468 13.4292C32.7504 13.4046 32.7486 13.3796 32.7414 13.3558C32.7341 13.332 32.7218 13.3101 32.7051 13.2917C32.6885 13.2732 32.668 13.2587 32.645 13.2491C32.6221 13.2395 32.5974 13.235 32.5725 13.2361C31.9321 13.259 31.4322 13.3387 31.0322 13.0524" fill="#2494D1"/>
<path d="M31.2579 12.6472C32.3641 12.1299 33.5327 11.758 34.7344 11.541Z" fill="white"/>
<path d="M31.2592 13.1861C31.1379 13.1854 31.0204 13.1439 30.9256 13.0684C30.8308 12.9928 30.7641 12.8876 30.7363 12.7695C30.7086 12.6515 30.7213 12.5276 30.7725 12.4177C30.8238 12.3079 30.9105 12.2184 31.0187 12.1637C32.1717 11.6217 33.391 11.2335 34.6452 11.0089C34.7835 10.9913 34.9233 11.0278 35.0354 11.1108C35.1474 11.1937 35.223 11.3168 35.2464 11.4543C35.2698 11.5917 35.2391 11.7328 35.1608 11.8482C35.0825 11.9635 34.9626 12.0442 34.8262 12.0732C33.6762 12.2819 32.5578 12.6373 31.4983 13.1307C31.4237 13.1668 31.342 13.1857 31.2592 13.1861V13.1861Z" fill="#144A8F"/>
<path d="M33.2496 29.5245C31.8755 32.4959 29.1705 34.1679 27.2072 33.2617C25.244 32.3554 24.7671 29.2098 26.1398 26.2385C27.5126 23.2671 30.219 21.5937 32.1822 22.5013C34.1454 23.4089 34.6237 26.5532 33.2496 29.5245Z" fill="white"/>
<path d="M28.3582 34.0491C27.883 34.0512 27.413 33.9494 26.9814 33.7506C25.8613 33.2333 25.1182 32.1163 24.8885 30.605C24.6709 29.176 24.9425 27.5445 25.6505 26.0129C27.1476 22.7714 30.1809 20.9832 32.4062 22.0124C34.6316 23.0415 35.2328 26.514 33.7371 29.7501C33.0278 31.2817 31.9604 32.5445 30.7308 33.3049C29.935 33.7992 29.1243 34.0491 28.3582 34.0491ZM31.047 22.7984C29.4972 22.7984 27.6461 24.2679 26.6301 26.4654C26.0099 27.8079 25.7694 29.2206 25.9545 30.4429C26.1275 31.5842 26.6531 32.4121 27.4327 32.7714C28.2123 33.1307 29.1892 32.9956 30.1647 32.3878C31.2159 31.7368 32.1374 30.6401 32.7575 29.2976C33.983 26.6477 33.6155 23.7601 31.955 22.9916C31.67 22.8619 31.3601 22.796 31.047 22.7984Z" fill="#144A8F"/>
<path d="M30.4891 27.8754C30.4894 28.3357 30.3531 28.7857 30.0975 29.1685C29.8419 29.5514 29.4785 29.8499 29.0532 30.0262C28.628 30.2026 28.1599 30.249 27.7082 30.1595C27.2566 30.0699 26.8417 29.8485 26.5159 29.5233C26.1901 29.198 25.9682 28.7835 25.8781 28.3321C25.788 27.8808 25.8338 27.4128 26.0098 26.9875C26.1857 26.5622 26.4839 26.1986 26.8666 25.9426C27.2493 25.6867 27.6993 25.5499 28.1597 25.5497C28.7768 25.55 29.3686 25.7951 29.805 26.2312C30.2415 26.6672 30.4871 27.2586 30.4878 27.8754" fill="#144A8F"/>
<path d="M11.885 29.5245C13.2578 32.4959 15.9628 34.1679 17.926 33.2617C19.8892 32.3554 20.3675 29.2098 18.9934 26.2384C17.6193 23.2671 14.9184 21.595 12.9511 22.5026C10.9838 23.4103 10.5109 26.5545 11.885 29.5259" fill="white"/>
<path d="M16.775 34.049C16.0089 34.049 15.1982 33.7992 14.401 33.3049C13.1715 32.5445 12.1041 31.2789 11.3947 29.75C9.89901 26.5085 10.4949 23.0429 12.7256 22.0123C14.9564 20.9818 17.987 22.7768 19.4813 26.0129C20.1893 27.5445 20.4596 29.176 20.242 30.605C20.0123 32.1163 19.2692 33.2333 18.1505 33.7506C17.7192 33.9491 17.2498 34.051 16.775 34.049V34.049ZM14.0876 22.7984C13.774 22.7956 13.4636 22.8615 13.1782 22.9915C11.5177 23.76 11.1515 26.6477 12.3743 29.2976C12.9945 30.6401 13.916 31.7368 14.9685 32.3878C15.9508 33.001 16.9209 33.136 17.7005 32.7714C18.4801 32.4067 19.0044 31.5842 19.1787 30.4429C19.3638 29.2206 19.1246 27.8078 18.5031 26.4653C17.4857 24.2679 15.6373 22.7984 14.0876 22.7984V22.7984Z" fill="#144A8F"/>
<path d="M11.885 29.5245C13.2578 32.4959 15.9628 34.1679 17.926 33.2617C19.8892 32.3554 20.3675 29.2098 18.9934 26.2384C17.6193 23.2671 14.9184 21.595 12.9511 22.5026C10.9838 23.4103 10.5109 26.5545 11.885 29.5259" fill="white"/>
<path d="M16.775 34.049C16.0089 34.049 15.1982 33.7992 14.401 33.3049C13.1715 32.5445 12.1041 31.2789 11.3947 29.75C9.89901 26.5085 10.4949 23.0429 12.7256 22.0123C14.9564 20.9818 17.987 22.7768 19.4813 26.0129C20.1893 27.5445 20.4596 29.176 20.242 30.605C20.0123 32.1163 19.2692 33.2333 18.1505 33.7506C17.7192 33.9491 17.2498 34.051 16.775 34.049V34.049ZM14.0876 22.7984C13.774 22.7956 13.4636 22.8615 13.1782 22.9915C11.5177 23.76 11.1515 26.6477 12.3743 29.2976C12.9945 30.6401 13.916 31.7368 14.9685 32.3878C15.9508 33.001 16.9209 33.136 17.7005 32.7714C18.4801 32.4067 19.0044 31.5842 19.1787 30.4429C19.3638 29.2206 19.1246 27.8078 18.5031 26.4653C17.4857 24.2679 15.6373 22.7984 14.0876 22.7984V22.7984Z" fill="#144A8F"/>
<path d="M14.6484 27.8754C14.6481 28.3357 14.7844 28.7858 15.0401 29.1686C15.2957 29.5515 15.6592 29.85 16.0846 30.0263C16.5099 30.2027 16.9781 30.2489 17.4298 30.1593C17.8814 30.0697 18.2964 29.8481 18.6221 29.5227C18.9478 29.1973 19.1697 28.7827 19.2596 28.3312C19.3495 27.8798 19.3035 27.4118 19.1274 26.9865C18.9512 26.5612 18.6528 26.1977 18.2699 25.9419C17.8871 25.6861 17.4369 25.5496 16.9764 25.5496C16.3592 25.5496 15.7673 25.7946 15.3307 26.2307C14.8942 26.6669 14.6487 27.2584 14.6484 27.8754Z" fill="#144A8F"/>
<path d="M19.3111 27.8754C19.3114 28.3358 19.1751 28.7859 18.9194 29.1688C18.6637 29.5517 18.3001 29.8502 17.8746 30.0265C17.4492 30.2028 16.981 30.249 16.5293 30.1593C16.0776 30.0695 15.6626 29.8478 15.337 29.5223C15.0113 29.1968 14.7895 28.782 14.6998 28.3305C14.61 27.8789 14.6562 27.4109 14.8326 26.9856C15.0089 26.5603 15.3075 26.1969 15.6906 25.9413C16.0736 25.6857 16.5239 25.5494 16.9845 25.5497C17.6014 25.55 18.193 25.7952 18.6293 26.2313C19.0655 26.6674 19.3108 27.2587 19.3111 27.8754" fill="#144A8F"/>
<path d="M19.2978 26.6531C19.2978 26.9202 19.2186 27.1814 19.0701 27.4035C18.9216 27.6256 18.7106 27.7987 18.4637 27.9009C18.2168 28.0031 17.9452 28.0299 17.6831 27.9778C17.421 27.9257 17.1802 27.797 16.9913 27.6081C16.8023 27.4193 16.6736 27.1786 16.6215 26.9166C16.5693 26.6546 16.5961 26.383 16.6984 26.1363C16.8006 25.8895 16.9738 25.6785 17.196 25.5301C17.4182 25.3817 17.6794 25.3025 17.9467 25.3025C18.305 25.3025 18.6487 25.4448 18.9021 25.6981C19.1555 25.9514 19.2978 26.2949 19.2978 26.6531Z" fill="white"/>
<path d="M19.7472 33.0563C19.4099 33.4747 19.2417 34.0043 19.2757 34.5405C19.3098 35.0768 19.5435 35.5809 19.931 35.9534C20.4985 36.4936 21.7402 36.8137 22.3766 36.8691C22.3766 36.8691 17.7367 36.5639 16.1748 34.2759C16.8504 33.579 18.6069 32.6309 19.1311 31.9623C19.6554 31.2938 20.7674 29.9945 21.5078 30.6455" fill="#2494D1"/>
<path d="M20.7702 30.4726C20.7702 30.4726 21.6565 25.4267 17.8071 23.9829C18.6367 25.8508 20.354 29.9135 19.5312 31.437C18.7083 32.9605 20.7702 30.4726 20.7702 30.4726" fill="#2494D1"/>
<path d="M22.5646 37.7457C19.9771 37.7457 17.3748 36.3613 15.0373 33.7438C14.9967 33.6971 14.9639 33.6442 14.94 33.5871C13.551 32.9199 12.2377 31.5612 11.3946 29.7514C9.8989 26.5099 10.4961 23.0429 12.7255 22.0124C13.8442 21.4951 15.1778 21.6531 16.4776 22.4581C17.7085 23.2185 18.7746 24.484 19.4839 26.0129C20.1784 27.5161 20.4216 29.0707 20.2595 30.4078C20.9015 29.811 21.7499 29.4862 22.6264 29.5016C23.503 29.517 24.3395 29.8713 24.9601 30.4902L26.8815 32.3999C26.9723 32.5028 27.0206 32.6364 27.0166 32.7736C27.0125 32.9108 26.9564 33.0412 26.8595 33.1385C26.7627 33.2358 26.6325 33.2927 26.4953 33.2975C26.3581 33.3023 26.2242 33.2547 26.1208 33.1644L24.1981 31.2533C23.7653 30.822 23.1791 30.5798 22.5679 30.5798C21.9568 30.5798 21.3706 30.822 20.9378 31.2533L19.0583 33.1239C19.0413 33.1403 19.0232 33.1556 19.0043 33.1698C18.7547 33.4095 18.467 33.6062 18.1531 33.7519C17.7394 33.9408 17.2904 34.0397 16.8357 34.0423C18.2936 35.3929 20.269 36.6679 22.5646 36.6679C22.7079 36.6679 22.8454 36.7248 22.9467 36.8261C23.0481 36.9274 23.105 37.0649 23.105 37.2081C23.105 37.3514 23.0481 37.4888 22.9467 37.5902C22.8454 37.6915 22.7079 37.7484 22.5646 37.7484V37.7457ZM12.3742 29.2976C13.6213 31.9988 16.0074 33.5534 17.7004 32.7714C19.361 32.0042 19.7271 29.1166 18.5111 26.4653C17.8909 25.1242 16.9695 24.0261 15.9169 23.3751C14.9346 22.7673 13.9645 22.6323 13.1849 22.9916C11.5243 23.7587 11.1582 26.6477 12.381 29.2976H12.3742Z" fill="#144A8F"/>
<path d="M33.0765 39.2705C32.2658 39.2705 31.4145 39.0517 30.5093 38.6168C30.3862 38.5515 30.2931 38.4411 30.2495 38.3087C30.2059 38.1763 30.2152 38.0323 30.2753 37.9066C30.3355 37.7809 30.4419 37.6833 30.5724 37.6342C30.7029 37.5851 30.8473 37.5882 30.9754 37.643C32.6873 38.4615 33.8399 38.2481 34.7235 37.7781C34.2574 37.3729 33.8736 37.0555 33.8723 37.0555C33.7764 36.9728 33.7127 36.8591 33.6921 36.7342C33.6716 36.6092 33.6956 36.4811 33.76 36.3721C33.8243 36.263 33.9249 36.1801 34.0442 36.1376C34.1635 36.0952 34.2939 36.0959 34.4127 36.1398C35.4247 36.545 36.3273 36.5288 37.1704 36.1074C38.2365 35.5753 39.0093 34.4786 39.5228 33.4967C38.7121 33.814 37.565 33.9505 35.9868 33.5817C32.6481 32.7984 30.5039 35.5401 30.4147 35.6576C30.326 35.7656 30.199 35.8351 30.0602 35.8515C29.9214 35.8678 29.7817 35.8298 29.6703 35.7454C29.559 35.661 29.4847 35.5368 29.463 35.3988C29.4413 35.2608 29.4739 35.1198 29.554 35.0053C29.6608 34.8702 32.1969 31.5855 36.2341 32.531C39.4512 33.2846 40.3024 31.5653 40.3375 31.4923C40.3946 31.3696 40.4957 31.2728 40.6208 31.221C40.7459 31.1692 40.8859 31.1663 41.0131 31.2128C41.1393 31.2594 41.2436 31.3514 41.3056 31.4708C41.3676 31.5901 41.3828 31.7284 41.3482 31.8584C41.3049 32.0177 40.2537 35.7751 37.6541 37.0704C37.1499 37.3264 36.5976 37.4741 36.0328 37.5039C36.0793 37.561 36.1136 37.627 36.1337 37.6978C36.1538 37.7686 36.1592 37.8428 36.1496 37.9157C36.14 37.9887 36.1156 38.0589 36.0778 38.1221C36.0401 38.1853 35.9898 38.2402 35.9301 38.2832C35.0113 38.9437 34.0736 39.2705 33.0765 39.2705Z" fill="#144A8F"/>
<path d="M20.6299 44.6229H16.2103V46.4517H20.6299V44.6229Z" fill="#EB2126"/>
<path d="M27.476 45.4429H23.0577V47.2716H27.476V45.4429Z" fill="#EB2126"/>
<path d="M25.1941 47.5093C25.0507 47.5093 24.9133 47.4524 24.8119 47.3511C24.7106 47.2498 24.6536 47.1124 24.6536 46.9691V46.2235C24.6536 46.0803 24.7106 45.9428 24.8119 45.8415C24.9133 45.7402 25.0507 45.6833 25.1941 45.6833C25.3374 45.6833 25.4749 45.7402 25.5763 45.8415C25.6776 45.9428 25.7346 46.0803 25.7346 46.2235V46.9691C25.7346 47.1124 25.6776 47.2498 25.5763 47.3511C25.4749 47.4524 25.3374 47.5093 25.1941 47.5093V47.5093Z" fill="#144A8F"/>
<path d="M16.2872 44.4245C16.2872 44.4245 16.8979 44.4245 17.3681 44.3975C17.5167 44.3908 17.6234 44.5906 17.5667 44.7743C17.3492 45.4848 17.537 46.0588 17.3721 46.2803C17.1749 46.5409 16.0737 46.1371 16.0737 46.1371L16.2872 44.4245Z" fill="#A62126"/>
<path d="M22.9942 45.3199C22.9942 45.3199 23.5995 45.2402 24.063 45.1578C24.2089 45.1322 24.3332 45.3172 24.3062 45.5063C24.1805 46.2383 24.4413 46.784 24.3062 47.0244C24.1427 47.3094 22.9996 47.046 22.9996 47.046L22.9942 45.3199Z" fill="#A62126"/>
<path d="M20.5502 14.511C20.5502 14.511 22.812 16.4127 24.3591 15.9967C25.2941 15.7441 24.3064 17.7525 20.6812 17.2487C16.9088 16.722 18.864 12.8768 18.864 12.8768L20.5502 14.511Z" fill="#EB2126"/>
<path d="M21.0456 10.5712C21.305 11.1844 23.2763 12.1109 24.6477 12.0326C24.7384 12.0262 24.8285 12.0504 24.9038 12.1013C24.979 12.1523 25.0349 12.227 25.0625 12.3135C25.3909 13.3751 25.4017 14.5974 25.126 15.0891C24.8558 15.5591 18.8378 14.4516 18.8121 11.9151C18.7865 9.37865 19.8025 9.32867 19.8025 9.32867L21.0456 10.5712Z" fill="#EB2126"/>
<path d="M21.0852 6.33171C21.2892 6.91653 22.8308 7.84575 23.8685 7.93894C23.9906 7.95046 24.1066 7.9972 24.2026 8.07345C24.2985 8.1497 24.3702 8.25219 24.409 8.36844C24.6792 9.1626 24.7589 10.0202 24.8873 10.7874C24.9683 11.2682 19.2719 10.212 19.2503 7.68097C19.2287 5.14992 20.061 5.09454 20.061 5.09454L21.0852 6.33171Z" fill="#EB2126"/>
<path d="M24.4712 15.5983C22.7485 15.5983 21.2028 14.8757 20.6367 14.5772C19.5868 14.0208 18.4316 13.1334 18.3141 12.3095C18.3016 12.171 18.3431 12.033 18.4299 11.9243C18.5167 11.8156 18.6421 11.7445 18.78 11.7259C18.9179 11.7073 19.0576 11.7425 19.1702 11.8243C19.2827 11.9061 19.3594 12.0282 19.3842 12.165C19.4206 12.3771 20.0341 13.0659 21.2852 13.6966C21.9689 14.041 24.351 15.0891 26.3061 14.1113C26.3699 14.0746 26.4404 14.0514 26.5135 14.043C26.5866 14.0346 26.6606 14.0412 26.731 14.0624C26.8014 14.0836 26.8668 14.119 26.9231 14.1663C26.9793 14.2136 27.0254 14.2719 27.0583 14.3376C27.0913 14.4033 27.1105 14.4751 27.1148 14.5485C27.119 14.6219 27.1083 14.6953 27.0831 14.7644C27.058 14.8335 27.019 14.8967 26.9686 14.9502C26.9181 15.0038 26.8573 15.0464 26.7898 15.0756C26.0685 15.4287 25.2743 15.6077 24.4712 15.5983V15.5983ZM24.1564 11.5464C23.0128 11.5229 21.8919 11.2231 20.8893 10.6726C19.9787 10.1904 18.9721 9.41651 18.8734 8.68988C18.8594 8.55071 18.9 8.41155 18.9865 8.30165C19.0731 8.19176 19.1989 8.1197 19.3375 8.10063C19.4761 8.08156 19.6167 8.11697 19.7297 8.19941C19.8428 8.28185 19.9194 8.40489 19.9435 8.54266C19.9935 8.72364 20.5826 9.36654 21.7649 9.90543C22.458 10.2215 24.2294 10.8765 25.7035 10.1364C25.8302 10.0816 25.9731 10.0774 26.1028 10.1245C26.2325 10.1717 26.3393 10.2667 26.4012 10.3901C26.4631 10.5134 26.4754 10.6558 26.4356 10.7879C26.3958 10.9201 26.3069 11.032 26.1872 11.1007C25.5542 11.4053 24.8588 11.5579 24.1564 11.5464V11.5464Z" fill="#144A8F"/>
<path d="M23.8723 5.56728C23.8991 5.67785 23.8821 5.79447 23.825 5.89285C23.7678 5.99123 23.6749 6.06377 23.5656 6.09537C23.1459 6.24207 22.7062 6.3236 22.2617 6.33713C20.7282 6.3736 20.1026 4.51245 20.1026 4.51245C20.1026 4.51245 20.7012 0.940068 22.0469 0.976535C22.5036 0.98869 23.5264 4.12887 23.8723 5.56863" fill="#EB2126"/>
<path d="M22.5673 18.7628C20.0866 18.7628 17.9937 16.5707 17.9937 15.1931C17.9937 15.1012 18.5044 9.43541 19.5908 5.05131C19.5961 5.00211 19.6084 4.95391 19.6272 4.90814C20.3136 2.18935 21.2243 0 22.3768 0C25.4331 0 27.141 15.0418 27.141 15.1931C27.141 16.5707 25.0521 18.7628 22.5673 18.7628ZM20.4231 6.29793C19.6624 9.80953 19.0719 14.0181 19.0719 15.1931C19.0719 15.9157 20.5839 17.6836 22.566 17.6836C24.5481 17.6836 26.0601 15.9157 26.0601 15.1931C26.0601 14.7123 25.5628 11.0683 24.7954 7.58371C24.7792 7.50673 24.7616 7.43109 24.7454 7.35681C23.6915 7.62693 22.4147 7.43785 21.2 6.79495C20.9281 6.65033 20.6683 6.48412 20.4231 6.29793V6.29793ZM20.7001 5.08237C20.8554 5.29307 21.3905 5.75768 22.2485 6.09128C22.7511 6.28847 23.6564 6.54779 24.5008 6.31008C23.2618 1.23311 22.3849 1.08049 22.3768 1.08049C21.8499 1.07914 21.2459 2.81469 20.7001 5.08102V5.08237Z" fill="#144A8F"/>
<path d="M30.474 26.653C30.474 26.9202 30.3947 27.1813 30.2463 27.4034C30.0978 27.6255 29.8868 27.7986 29.6399 27.9009C29.393 28.0031 29.1213 28.0298 28.8592 27.9777C28.5971 27.9256 28.3564 27.797 28.1674 27.6081C27.9784 27.4192 27.8498 27.1785 27.7976 26.9165C27.7455 26.6545 27.7723 26.383 27.8745 26.1362C27.9768 25.8894 28.15 25.6785 28.3722 25.53C28.5944 25.3816 28.8556 25.3024 29.1228 25.3024C29.4812 25.3024 29.8248 25.4447 30.0782 25.698C30.3316 25.9513 30.474 26.2948 30.474 26.653Z" fill="white"/>
<path d="M22.5885 39.0787L22.6358 38.9626C23.11 38.8721 23.8045 39.1868 23.9951 39.6298L24.6017 41.3964C24.6835 41.6354 24.6943 41.8929 24.6328 42.1379L23.9315 44.9512L23.6681 41.7449L22.5885 39.0787Z" fill="#2494D1"/>
<path d="M18.3165 46.9123C18.1731 46.9123 18.0357 46.8554 17.9343 46.7541C17.8329 46.6527 17.776 46.5153 17.776 46.372V45.7089C17.776 45.5656 17.8329 45.4282 17.9343 45.3269C18.0357 45.2256 18.1731 45.1686 18.3165 45.1686C18.4598 45.1686 18.5973 45.2256 18.6986 45.3269C18.8 45.4282 18.8569 45.5656 18.8569 45.7089V46.372C18.8569 46.5153 18.8 46.6527 18.6986 46.7541C18.5973 46.8554 18.4598 46.9123 18.3165 46.9123ZM20.2621 44.777H16.2087C16.0653 44.777 15.9279 44.72 15.8265 44.6187C15.7252 44.5174 15.6682 44.38 15.6682 44.2367C15.6682 44.0934 15.7252 43.956 15.8265 43.8547C15.9279 43.7534 16.0653 43.6965 16.2087 43.6965H20.2621C20.4055 43.6965 20.5429 43.7534 20.6443 43.8547C20.7456 43.956 20.8026 44.0934 20.8026 44.2367C20.8026 44.38 20.7456 44.5174 20.6443 44.6187C20.5429 44.72 20.4055 44.777 20.2621 44.777Z" fill="#144A8F"/>
<path d="M27.2142 45.4875H23.3715C23.2282 45.4875 23.0907 45.4306 22.9894 45.3292C22.888 45.2279 22.8311 45.0905 22.8311 44.9472C22.8311 44.8039 22.888 44.6665 22.9894 44.5652C23.0907 44.4639 23.2282 44.407 23.3715 44.407H27.2142C27.3575 44.407 27.495 44.4639 27.5964 44.5652C27.6977 44.6665 27.7546 44.8039 27.7546 44.9472C27.7546 45.0905 27.6977 45.2279 27.5964 45.3292C27.495 45.4306 27.3575 45.4875 27.2142 45.4875Z" fill="#144A8F"/>
<path d="M22.9267 39.7648C23.4226 40.2605 24.286 41.63 23.9293 41.9853C23.5726 42.3405 22.443 42.0204 21.9512 41.5247C21.4594 41.029 21.2959 40.3605 21.6526 40.0053C22.3836 40.3064 22.4309 39.2692 22.9267 39.7648" fill="#2494D1"/>
<path d="M20.2135 46.9907H16.0898C16.0158 46.9908 15.9427 46.9757 15.8748 46.9464C15.807 46.9172 15.7458 46.8743 15.6952 46.8205C15.6446 46.7664 15.6057 46.7026 15.5808 46.6329C15.556 46.5632 15.5457 46.4891 15.5506 46.4153L15.9668 40.1471C15.9706 40.0944 15.982 40.0425 16.0006 39.9931L17.6395 35.6266C17.6946 35.4993 17.7966 35.398 17.9243 35.3438C18.052 35.2896 18.1957 35.2866 18.3256 35.3354C18.4555 35.3841 18.5616 35.481 18.6221 35.6058C18.6825 35.7307 18.6926 35.874 18.6502 36.0061L17.0396 40.2943L16.6667 45.9129H19.6852L19.7622 42.4283C19.7641 42.3569 19.7802 42.2867 19.8095 42.2216L20.7553 40.1106C20.7818 40.0425 20.8219 39.9804 20.8731 39.9282C20.9243 39.8759 20.9856 39.8347 21.0532 39.8068C21.1209 39.779 21.1935 39.7652 21.2666 39.7662C21.3398 39.7672 21.412 39.7831 21.4788 39.8128C21.5456 39.8426 21.6057 39.8856 21.6555 39.9392C21.7052 39.9929 21.7435 40.0561 21.768 40.1249C21.7926 40.1938 21.8029 40.267 21.7984 40.34C21.7939 40.413 21.7745 40.4843 21.7416 40.5496L20.8458 42.5606L20.7593 46.4639C20.7558 46.6058 20.6965 46.7406 20.5944 46.8391C20.4923 46.9377 20.3554 46.9921 20.2135 46.9907Z" fill="#144A8F"/>
<path d="M23.3342 43.8667H20.5468V45.5361H23.3342V43.8667Z" fill="#EB2126"/>
<path d="M23.3361 46.0763H20.5487C20.4054 46.0763 20.2679 46.0194 20.1665 45.918C20.0652 45.8167 20.0082 45.6793 20.0082 45.536V43.8667C20.0082 43.7234 20.0652 43.586 20.1665 43.4847C20.2679 43.3833 20.4054 43.3264 20.5487 43.3264H23.3361C23.4795 43.3264 23.6169 43.3833 23.7183 43.4847C23.8196 43.586 23.8766 43.7234 23.8766 43.8667V45.5374C23.8762 45.6804 23.8191 45.8175 23.7178 45.9185C23.6165 46.0195 23.4792 46.0763 23.3361 46.0763ZM21.0878 44.9958H22.7957V44.4042H21.0878V44.9958Z" fill="#144A8F"/>
<path d="M27.3072 47.508H23.1835C23.1082 47.5083 23.0337 47.4929 22.9648 47.4628C22.8958 47.4326 22.8339 47.3884 22.783 47.333C22.7322 47.2776 22.6934 47.2121 22.6693 47.1408C22.6452 47.0696 22.6363 46.9941 22.643 46.9191L23.1146 41.83L22.1688 39.6839C22.118 39.5538 22.1196 39.409 22.1733 39.2801C22.2269 39.1511 22.3285 39.0479 22.4566 38.9922C22.5847 38.9364 22.7295 38.9325 22.8605 38.9811C22.9915 39.0298 23.0985 39.1272 23.1592 39.253L24.1523 41.5261C24.1899 41.6109 24.2044 41.7041 24.1941 41.7963L23.7658 46.4356H26.8329L27.7233 40.628C27.7312 40.5554 27.7536 40.4852 27.7894 40.4216C27.8251 40.358 27.8733 40.3022 27.9312 40.2578C27.9891 40.2133 28.0553 40.181 28.126 40.1628C28.1967 40.1446 28.2704 40.1409 28.3425 40.152C28.4147 40.163 28.4838 40.1886 28.5458 40.2271C28.6078 40.2656 28.6614 40.3162 28.7033 40.376C28.7452 40.4357 28.7745 40.5033 28.7896 40.5747C28.8046 40.6461 28.805 40.7198 28.7908 40.7914L28.1598 45.0026C28.1859 45.0012 28.212 45.0012 28.2381 45.0026H28.9259C28.9601 44.8925 29.0286 44.7962 29.1215 44.7279C29.2144 44.6595 29.3267 44.6226 29.442 44.6226C29.5573 44.6226 29.6697 44.6595 29.7625 44.7279C29.8554 44.7962 29.9239 44.8925 29.9581 45.0026H30.6202C30.5202 37.0975 28.2354 34.9662 28.2111 34.9459C28.1043 34.8516 28.0392 34.7189 28.0298 34.5767C28.0205 34.4345 28.0676 34.2944 28.1611 34.1869C28.2538 34.0806 28.3844 34.0147 28.525 34.0033C28.6657 33.992 28.8051 34.036 28.9137 34.1261C29.0272 34.2233 31.7025 36.5883 31.7025 45.5415C31.7025 45.6848 31.6455 45.8222 31.5442 45.9235C31.4428 46.0248 31.3054 46.0818 31.162 46.0818H28.2327C28.1514 46.0818 28.0711 46.0638 27.9976 46.0291L27.8409 47.0555C27.8201 47.182 27.755 47.2969 27.6572 47.3798C27.5594 47.4627 27.4354 47.5081 27.3072 47.508V47.508ZM21.8013 45.8143C21.6579 45.8143 21.5205 45.7574 21.4191 45.6561C21.3177 45.5548 21.2608 45.4174 21.2608 45.2741V45.1566C21.2608 45.0133 21.3177 44.8759 21.4191 44.7746C21.5205 44.6733 21.6579 44.6163 21.8013 44.6163C21.9446 44.6163 22.0821 44.6733 22.1834 44.7746C22.2848 44.8759 22.3417 45.0133 22.3417 45.1566V45.2768C22.341 45.4196 22.2838 45.5563 22.1825 45.6571C22.0812 45.7578 21.9441 45.8143 21.8013 45.8143V45.8143Z" fill="#144A8F"/>
<path d="M18.2532 36.071L16.5062 40.185L16.2103 44.2368H20.2637L21.0528 43.7925L23.3376 43.8721L23.3727 44.9526H27.6194L27.9247 43.8721H31.1324C31.1324 43.8721 30.2338 35.9724 28.7003 34.9162C22.8782 38.8708 18.2519 36.075 18.2519 36.075" fill="white"/>
<path d="M28.7783 40.6833L29.0148 43.6939H27.8893L28.7783 40.6833Z" fill="#2494D1"/>
<path d="M17.6507 37.2054C17.6507 37.2054 21.1745 39.3097 25.3995 37.2054C28.7774 35.5266 18.2533 36.0709 18.2533 36.0709L17.6507 37.2054Z" fill="#2494D1"/>
<path d="M31.158 45.5374H27.7139L27.9234 43.8667H31.1323C31.1323 43.8667 31.1661 44.9931 31.1607 45.5374" fill="#EB2126"/>
<path d="M31.1577 46.0763H27.7137C27.6369 46.0769 27.5609 46.061 27.4907 46.0299C27.4205 45.9988 27.3578 45.9531 27.3066 45.8959C27.2555 45.8386 27.2171 45.7711 27.1941 45.6979C27.1711 45.6247 27.164 45.5474 27.1732 45.4712L27.3867 43.8059C27.4032 43.6746 27.4674 43.554 27.567 43.4669C27.6666 43.3797 27.7948 43.3322 27.9272 43.3332H31.1321C31.2724 43.3331 31.4073 43.3876 31.5082 43.4852C31.609 43.5827 31.668 43.7157 31.6725 43.8559C31.6725 43.8559 31.7063 44.9972 31.7009 45.5482C31.6977 45.6898 31.639 45.8246 31.5374 45.9233C31.4358 46.0221 31.2995 46.077 31.1577 46.0763V46.0763ZM28.3203 44.9958H30.6173C30.6173 44.7946 30.6092 44.5906 30.6051 44.4042H28.4001L28.3203 44.9958Z" fill="#144A8F"/>
<path d="M29.9841 35.3254C29.9841 35.3254 32.3688 32.1744 36.1102 33.0523C39.8515 33.9302 40.8284 31.7125 40.8284 31.7125C40.8284 31.7125 38.9692 38.5142 34.2078 36.6382C34.2078 36.6382 34.9387 37.2513 35.6129 37.8415C34.1848 38.8667 32.889 39.4758 30.3259 37.9334" fill="#2494D1"/>
<path d="M29.6611 35.863C29.6611 35.863 32.0783 32.3257 35.1413 33.0416C38.2044 33.7574 40.05 33.001 40.05 33.001C40.05 33.001 37.9179 37.3662 34.5103 35.3484C33.9172 34.9243 33.1227 35.0189 32.7349 35.5591C32.3471 36.0994 32.5133 36.8827 33.1065 37.3068C32.2093 37.6701 31.0149 37.2069 30.3745 36.7801" fill="white"/>
<path d="M19.2418 36.5274C19.2418 36.5274 19.6161 35.5644 18.2541 36.0709C16.8922 36.5773 16.0126 44.2542 16.0126 44.2542H16.6233C16.9584 44.2542 17.6313 44.1908 17.6083 43.8572C17.6083 43.8572 17.6502 41.5881 17.8083 40.3226C18.1244 39.1597 19.2418 36.5274 19.2418 36.5274Z" fill="#2494D1"/>
<path d="M35.6244 18.3846C35.6244 25.7171 29.778 37.2068 22.5669 37.2068C15.3558 37.2068 9.51349 25.7171 9.51349 18.3846C9.51349 11.0521 15.3599 8.11993 22.571 8.11993C29.782 8.11993 35.6285 11.0575 35.6285 18.3846" fill="white"/>
<path d="M22.5676 37.7457C15.062 37.7457 8.97369 26.0305 8.97369 18.3846C8.97369 11.5154 13.9297 7.57971 22.5716 7.57971C31.2136 7.57971 36.1682 11.5208 36.1682 18.3846C36.1642 26.0305 30.0732 37.7457 22.5676 37.7457ZM22.5676 8.65345C18.8033 8.65345 10.0492 9.59888 10.0492 18.3846C10.0492 25.4376 15.7781 36.6679 22.5676 36.6679C29.3571 36.6679 35.086 25.4376 35.086 18.3846C35.086 9.60159 26.3305 8.65345 22.5676 8.65345V8.65345Z" fill="#144A8F"/>
<path d="M11.3814 17.1623C11.3814 17.1623 10.0978 17.3676 9.46682 17.1056C8.6183 16.753 9.99647 15.6942 9.99647 15.6942L11.3814 17.1623Z" fill="#2494D1"/>
<path d="M25.7072 15.7941C25.7072 17.4284 24.6263 17.974 22.5995 18.7439C20.3026 18.7439 15.6695 17.4284 15.6695 15.7941C15.6695 14.1599 20.7282 12.8336 23.0251 12.8336C25.3221 12.8336 25.7031 14.1585 25.7031 15.7941" fill="#2494D1"/>
<path d="M24.5387 30.5104C24.5387 30.5104 23.8253 27.5391 26.0601 26.541C25.6372 27.6836 24.7657 30.1633 25.3115 31.0385C25.8574 31.9137 24.5387 30.5104 24.5387 30.5104" fill="#2494D1"/>
<path d="M22.5676 37.7457C15.062 37.7457 8.97369 26.0305 8.97369 18.3846C8.97369 11.5154 13.9297 7.57971 22.5716 7.57971C31.2136 7.57971 36.1682 11.5208 36.1682 18.3846C36.1642 26.0305 30.0732 37.7457 22.5676 37.7457ZM22.5676 8.65345C18.8033 8.65345 10.0492 9.59888 10.0492 18.3846C10.0492 25.4376 15.7781 36.6679 22.5676 36.6679C29.3571 36.6679 35.086 25.4376 35.086 18.3846C35.086 9.60159 26.3305 8.65345 22.5676 8.65345V8.65345Z" fill="#144A8F"/>
<path d="M18.3884 20.9508C18.3884 20.9508 19.118 24.0572 23.9956 24.5232C24.3226 24.5542 24.5158 24.1531 24.3402 23.8762C24.1105 23.5129 23.3782 22.924 23.3673 22.4419C24.4483 22.5675 26.2048 23.0915 27.1289 22.5918C27.1923 22.557 27.2448 22.5053 27.2804 22.4424C27.3161 22.3795 27.3334 22.3079 27.3306 22.2356C27.3278 22.1634 27.3049 22.0934 27.2645 22.0334C27.2241 21.9735 27.1678 21.926 27.1019 21.8962C26.5034 21.6261 26.5331 20.6185 26.2561 20.1026" fill="#2494D1"/>
<path d="M18.5326 19.9635C18.5326 19.9635 18.9528 23.3873 25.0276 22.9457C24.6668 22.4783 24.2831 21.9773 24.2669 21.2965C25.4721 21.4316 26.9948 21.4681 27.7623 20.5699C27.0462 20.4443 26.2436 19.8946 25.9112 19.272" fill="white"/>
<path d="M23.9714 23.5251C18.4898 23.5251 18.0142 20.1796 17.9952 20.0297C17.987 19.8928 18.0311 19.7578 18.1188 19.6523C18.2064 19.5467 18.3309 19.4784 18.467 19.4612C18.6032 19.444 18.7407 19.4793 18.8519 19.5597C18.963 19.6402 19.0393 19.76 19.0654 19.8946C19.0829 20.0148 19.5018 22.4473 23.9727 22.4473H24.0349C23.8429 22.0981 23.7368 21.7083 23.7255 21.3101C23.7245 21.234 23.7397 21.1585 23.77 21.0887C23.8002 21.0189 23.8449 20.9562 23.9011 20.9049C23.9583 20.8534 24.0259 20.8147 24.0993 20.7914C24.1727 20.7681 24.2502 20.7607 24.3267 20.7698C25.2995 20.8833 26.0481 20.8576 26.5885 20.6915C26.1096 20.4135 25.7114 20.0155 25.4333 19.5367C25.3826 19.4133 25.3794 19.2755 25.4243 19.1498C25.4692 19.0242 25.559 18.9196 25.6765 18.8562C25.7939 18.7928 25.9307 18.7751 26.0604 18.8065C26.1901 18.8379 26.3037 18.9161 26.3791 19.0262C26.6277 19.4908 27.2871 19.95 27.8478 20.0486C27.9411 20.0655 28.0284 20.1067 28.1007 20.1679C28.1731 20.2292 28.2281 20.3085 28.2601 20.3977C28.2922 20.4869 28.3001 20.583 28.2833 20.6763C28.2664 20.7696 28.2252 20.8568 28.164 20.9292C27.3925 21.8341 26.0927 21.9678 24.9604 21.9084C25.0995 22.1623 25.2623 22.4024 25.4468 22.6256C25.506 22.7028 25.5432 22.7946 25.5545 22.8912C25.5658 22.9878 25.5508 23.0857 25.5111 23.1745C25.4714 23.2633 25.4084 23.3397 25.3289 23.3957C25.2493 23.4517 25.1561 23.4852 25.059 23.4927C24.6798 23.5152 24.3173 23.526 23.9714 23.5251Z" fill="#144A8F"/>
<path d="M26.6003 15.1931C26.6003 16.2601 24.7952 18.2226 22.5671 18.2226C20.3391 18.2226 18.5326 16.2601 18.5326 15.1931C18.5326 14.1261 20.1472 0.540283 22.3766 0.540283C24.606 0.540283 26.6003 14.1275 26.6003 15.1931" fill="white"/>
<path d="M22.5676 18.7628C20.0869 18.7628 17.994 16.5707 17.994 15.1931C17.994 15.0378 19.3573 0 22.3771 0C25.4334 0 27.1413 15.0418 27.1413 15.1931C27.1413 16.5707 25.0524 18.7628 22.5676 18.7628ZM22.3771 1.07914C20.9922 1.07914 19.0736 13.0699 19.0736 15.1931C19.0736 15.9157 20.5855 17.6836 22.5676 17.6836C24.5498 17.6836 26.0617 15.9157 26.0617 15.1931C26.0617 14.7123 25.5645 11.0683 24.797 7.58371C23.4027 1.26148 22.3866 1.07914 22.3771 1.07914Z" fill="#144A8F"/>
<path d="M24.9911 34.3057C25.0478 34.592 24.5776 34.2908 24.0912 34.3867C23.6048 34.4826 23.2805 34.9405 23.2292 34.6568C23.1778 34.3732 23.4643 33.7749 23.9507 33.6776C24.4371 33.5804 24.9343 34.0207 24.9911 34.3084" fill="#144A8F"/>
<path d="M20.1878 34.3057C20.131 34.592 20.6012 34.2908 21.0876 34.3867C21.574 34.4826 21.8983 34.9405 21.9497 34.6568C22.001 34.3732 21.7146 33.7749 21.2282 33.6776C20.7417 33.5804 20.2445 34.0207 20.1878 34.3084" fill="#144A8F"/>
<path d="M15.0533 10.786C15.0533 10.786 11.8646 9.20848 8.91635 9.39757C7.86921 12.427 9.06903 15.4564 11.3484 16.6369" fill="white"/>
<path d="M11.342 17.1771C11.2555 17.1768 11.1703 17.1559 11.0933 17.1164C8.47618 15.7563 7.32095 12.3622 8.40592 9.22066C8.44078 9.12025 8.5045 9.03236 8.5891 8.96797C8.6737 8.90359 8.77542 8.86558 8.88152 8.8587C11.9459 8.6561 15.1576 10.235 15.2927 10.3025C15.4128 10.3705 15.5024 10.482 15.5429 10.6139C15.5835 10.7458 15.572 10.8883 15.5108 11.012C15.4496 11.1357 15.3433 11.2313 15.2138 11.2792C15.0843 11.3271 14.9414 11.3237 14.8144 11.2695C14.786 11.256 11.977 9.89192 9.31659 9.91893C8.59778 12.4581 9.53953 15.0931 11.5906 16.1588C11.6972 16.2149 11.7821 16.305 11.8316 16.4149C11.8812 16.5247 11.8926 16.6479 11.864 16.765C11.8354 16.882 11.7685 16.9862 11.6739 17.0609C11.5793 17.1356 11.4625 17.1765 11.342 17.1771V17.1771Z" fill="#144A8F"/>
<path d="M9.95296 11.4195C9.88135 11.8706 9.97323 13.7588 11.6541 15.081C11.6674 15.0953 11.6854 15.1043 11.7048 15.1065C11.7242 15.1087 11.7438 15.1039 11.76 15.0931C11.7762 15.0822 11.7881 15.0659 11.7934 15.0471C11.7988 15.0284 11.7973 15.0083 11.7892 14.9905C11.6832 14.6981 11.6138 14.3937 11.5824 14.0843C11.5811 14.0661 11.5849 14.0479 11.5934 14.0317C11.602 14.0156 11.6149 14.0022 11.6306 13.9931C11.6464 13.9839 11.6645 13.9794 11.6827 13.98C11.7009 13.9806 11.7186 13.9863 11.7338 13.9965C11.8878 14.1005 12.077 14.1734 12.4431 14.0964C12.4705 14.0905 12.496 14.0783 12.5177 14.0607C12.5395 14.0431 12.5567 14.0206 12.5682 13.9951C12.5796 13.9696 12.5849 13.9418 12.5836 13.9139C12.5823 13.8859 12.5744 13.8587 12.5607 13.8344C12.4782 13.7118 12.4208 13.5741 12.3918 13.4292C12.3882 13.4046 12.3901 13.3796 12.3973 13.3558C12.4045 13.332 12.4168 13.3101 12.4335 13.2917C12.4501 13.2732 12.4707 13.2587 12.4936 13.2491C12.5165 13.2395 12.5413 13.235 12.5661 13.2361C13.2065 13.259 13.7065 13.3387 14.1064 13.0524" fill="#2494D1"/>
<path d="M13.8756 12.6472C12.7699 12.13 11.6018 11.7582 10.4005 11.541Z" fill="white"/>
<path d="M13.8757 13.1861C13.7929 13.1856 13.7112 13.1667 13.6366 13.1307C12.5776 12.6372 11.4596 12.2818 10.31 12.0732C10.1736 12.0442 10.0538 11.9635 9.97545 11.8482C9.89714 11.7328 9.86647 11.5917 9.88985 11.4543C9.91323 11.3168 9.98885 11.1937 10.1009 11.1108C10.213 11.0278 10.3528 10.9913 10.4911 11.0089C11.7444 11.2337 12.9627 11.622 14.1149 12.1637C14.223 12.2183 14.3097 12.3077 14.3609 12.4174C14.4121 12.5272 14.425 12.651 14.3974 12.7689C14.3698 12.8868 14.3034 12.9921 14.2088 13.0677C14.1142 13.1434 13.9969 13.1851 13.8757 13.1861V13.1861Z" fill="#144A8F"/>
<path d="M30.0798 10.786C30.0798 10.786 33.2699 9.20848 36.2181 9.39757C37.2652 12.427 36.0654 15.4564 33.786 16.6369" fill="white"/>
<path d="M33.793 17.1772C33.6723 17.1768 33.5553 17.1361 33.4604 17.0615C33.3656 16.9869 33.2985 16.8828 33.2697 16.7657C33.241 16.6485 33.2523 16.5252 33.3018 16.4152C33.3513 16.3052 33.4362 16.215 33.543 16.1588C35.5913 15.0932 36.5371 12.4581 35.8183 9.92165C33.1417 9.87844 30.3489 11.2561 30.3219 11.2696C30.1948 11.3237 30.0519 11.3271 29.9224 11.2792C29.7929 11.2314 29.6867 11.1357 29.6255 11.012C29.5643 10.8883 29.5528 10.7458 29.5934 10.6139C29.6339 10.482 29.7234 10.3706 29.8436 10.3025C29.9787 10.2363 33.1985 8.66288 36.2561 8.85872C36.3622 8.8656 36.4639 8.90361 36.5485 8.96799C36.6331 9.03238 36.6968 9.12027 36.7317 9.22068C37.8126 12.3622 36.6614 15.7563 34.0429 17.1164C33.9657 17.1565 33.88 17.1773 33.793 17.1772Z" fill="#144A8F"/>
<path d="M35.1857 11.4195C35.2573 11.8706 35.1654 13.7588 33.4846 15.081C33.4712 15.0953 33.4532 15.1043 33.4338 15.1065C33.4144 15.1087 33.3948 15.1039 33.3786 15.0931C33.3624 15.0822 33.3505 15.0659 33.3452 15.0471C33.3399 15.0284 33.3414 15.0083 33.3494 14.9905C33.4547 14.6979 33.5242 14.3936 33.5562 14.0843C33.5575 14.0661 33.5537 14.0479 33.5452 14.0317C33.5367 14.0156 33.5238 14.0022 33.508 13.993C33.4922 13.9839 33.4742 13.9794 33.4559 13.98C33.4377 13.9806 33.42 13.9863 33.4048 13.9965C33.2508 14.1005 33.0617 14.1734 32.6955 14.0964C32.6682 14.0905 32.6426 14.0783 32.6209 14.0607C32.5992 14.0431 32.5819 14.0206 32.5704 13.9951C32.559 13.9696 32.5537 13.9418 32.555 13.9139C32.5563 13.8859 32.5642 13.8587 32.5779 13.8344C32.6599 13.7115 32.7173 13.5739 32.7468 13.4292C32.7504 13.4046 32.7486 13.3796 32.7414 13.3558C32.7341 13.332 32.7218 13.3101 32.7051 13.2917C32.6885 13.2732 32.668 13.2587 32.645 13.2491C32.6221 13.2395 32.5974 13.235 32.5725 13.2361C31.9321 13.259 31.4322 13.3387 31.0322 13.0524" fill="#2494D1"/>
<path d="M31.2579 12.6472C32.3641 12.1299 33.5327 11.758 34.7344 11.541Z" fill="white"/>
<path d="M31.2592 13.1861C31.1379 13.1854 31.0204 13.1439 30.9256 13.0684C30.8308 12.9928 30.7641 12.8876 30.7363 12.7695C30.7086 12.6515 30.7213 12.5276 30.7725 12.4177C30.8238 12.3079 30.9105 12.2184 31.0187 12.1637C32.1717 11.6217 33.391 11.2335 34.6452 11.0089C34.7835 10.9913 34.9233 11.0278 35.0354 11.1108C35.1474 11.1937 35.223 11.3168 35.2464 11.4543C35.2698 11.5917 35.2391 11.7328 35.1608 11.8482C35.0825 11.9635 34.9626 12.0442 34.8262 12.0732C33.6762 12.2819 32.5578 12.6373 31.4983 13.1307C31.4237 13.1668 31.342 13.1857 31.2592 13.1861V13.1861Z" fill="#144A8F"/>
<path d="M33.2496 29.5245C31.8755 32.4959 29.1705 34.1679 27.2072 33.2617C25.244 32.3554 24.7671 29.2098 26.1398 26.2385C27.5126 23.2671 30.219 21.5937 32.1822 22.5013C34.1454 23.4089 34.6237 26.5532 33.2496 29.5245Z" fill="white"/>
<path d="M28.3582 34.0491C27.883 34.0512 27.413 33.9494 26.9814 33.7506C25.8613 33.2333 25.1182 32.1163 24.8885 30.605C24.6709 29.176 24.9425 27.5445 25.6505 26.0129C27.1476 22.7714 30.1809 20.9832 32.4062 22.0124C34.6316 23.0415 35.2328 26.514 33.7371 29.7501C33.0278 31.2817 31.9604 32.5445 30.7308 33.3049C29.935 33.7992 29.1243 34.0491 28.3582 34.0491ZM31.047 22.7984C29.4972 22.7984 27.6461 24.2679 26.6301 26.4654C26.0099 27.8079 25.7694 29.2206 25.9545 30.4429C26.1275 31.5842 26.6531 32.4121 27.4327 32.7714C28.2123 33.1307 29.1892 32.9956 30.1647 32.3878C31.2159 31.7368 32.1374 30.6401 32.7575 29.2976C33.983 26.6477 33.6155 23.7601 31.955 22.9916C31.67 22.8619 31.3601 22.796 31.047 22.7984Z" fill="#144A8F"/>
<path d="M11.885 29.5245C13.2578 32.4959 15.9628 34.1679 17.926 33.2617C19.8892 32.3554 20.3675 29.2098 18.9934 26.2384C17.6193 23.2671 14.9184 21.595 12.9511 22.5026C10.9838 23.4103 10.5109 26.5545 11.885 29.5259" fill="white"/>
<path d="M16.775 34.049C16.0089 34.049 15.1982 33.7992 14.401 33.3049C13.1715 32.5445 12.1041 31.2789 11.3947 29.75C9.89901 26.5085 10.4949 23.0429 12.7256 22.0123C14.9564 20.9818 17.987 22.7768 19.4813 26.0129C20.1893 27.5445 20.4596 29.176 20.242 30.605C20.0123 32.1163 19.2692 33.2333 18.1505 33.7506C17.7192 33.9491 17.2498 34.051 16.775 34.049V34.049ZM14.0876 22.7984C13.774 22.7956 13.4636 22.8615 13.1782 22.9915C11.5177 23.76 11.1515 26.6477 12.3743 29.2976C12.9945 30.6401 13.916 31.7368 14.9685 32.3878C15.9508 33.001 16.9209 33.136 17.7005 32.7714C18.4801 32.4067 19.0044 31.5842 19.1787 30.4429C19.3638 29.2206 19.1246 27.8078 18.5031 26.4653C17.4857 24.2679 15.6373 22.7984 14.0876 22.7984V22.7984Z" fill="#144A8F"/>
<path d="M11.885 29.5245C13.2578 32.4959 15.9628 34.1679 17.926 33.2617C19.8892 32.3554 20.3675 29.2098 18.9934 26.2384C17.6193 23.2671 14.9184 21.595 12.9511 22.5026C10.9838 23.4103 10.5109 26.5545 11.885 29.5259" fill="white"/>
<path d="M16.775 34.049C16.0089 34.049 15.1982 33.7992 14.401 33.3049C13.1715 32.5445 12.1041 31.2789 11.3947 29.75C9.89901 26.5085 10.4949 23.0429 12.7256 22.0123C14.9564 20.9818 17.987 22.7768 19.4813 26.0129C20.1893 27.5445 20.4596 29.176 20.242 30.605C20.0123 32.1163 19.2692 33.2333 18.1505 33.7506C17.7192 33.9491 17.2498 34.051 16.775 34.049V34.049ZM14.0876 22.7984C13.774 22.7956 13.4636 22.8615 13.1782 22.9915C11.5177 23.76 11.1515 26.6477 12.3743 29.2976C12.9945 30.6401 13.916 31.7368 14.9685 32.3878C15.9508 33.001 16.9209 33.136 17.7005 32.7714C18.4801 32.4067 19.0044 31.5842 19.1787 30.4429C19.3638 29.2206 19.1246 27.8078 18.5031 26.4653C17.4857 24.2679 15.6373 22.7984 14.0876 22.7984V22.7984Z" fill="#144A8F"/>
<path d="M19.1853 27.1933C19.1023 27.3824 18.9771 27.5499 18.8192 27.6831C18.6614 27.8162 18.4751 27.9114 18.2747 27.9613C18.0743 28.0113 17.8651 28.0146 17.6632 27.9711C17.4613 27.9276 17.272 27.8384 17.11 27.7104C16.948 27.5823 16.8175 27.4189 16.7285 27.2325C16.6395 27.0462 16.5945 26.842 16.5968 26.6355C16.5992 26.4291 16.6488 26.2259 16.742 26.0416C16.8352 25.8574 16.9693 25.6969 17.1342 25.5726C17.0802 25.5726 17.0288 25.5564 16.9734 25.5564C16.472 25.5478 15.9808 25.6987 15.5707 25.9873C15.1605 26.2759 14.8527 26.6872 14.6915 27.1619C14.5304 27.6366 14.5242 28.1503 14.6739 28.6287C14.8237 29.1072 15.1215 29.5258 15.5246 29.8241C15.9277 30.1224 16.4151 30.285 16.9166 30.2885C17.4181 30.292 17.9078 30.1362 18.315 29.8436C18.7222 29.551 19.0259 29.1366 19.1823 28.6603C19.3387 28.1839 19.3398 27.6703 19.1853 27.1933V27.1933Z" fill="#144A8F"/>
<path d="M19.7472 33.0563C19.4099 33.4747 19.2417 34.0043 19.2757 34.5405C19.3098 35.0768 19.5435 35.5809 19.931 35.9534C20.4985 36.4936 21.7402 36.8137 22.3766 36.8691C22.3766 36.8691 17.7367 36.5639 16.1748 34.2759C16.8504 33.579 18.6069 32.6309 19.1311 31.9623C19.6554 31.2938 20.7674 29.9945 21.5078 30.6455" fill="#2494D1"/>
<path d="M20.7702 30.4726C20.7702 30.4726 21.6565 25.4267 17.8071 23.9829C18.6367 25.8508 20.354 29.9135 19.5312 31.437C18.7083 32.9605 20.7702 30.4726 20.7702 30.4726" fill="#2494D1"/>
<path d="M22.5646 37.7457C19.9771 37.7457 17.3748 36.3613 15.0373 33.7438C14.9967 33.6971 14.9639 33.6442 14.94 33.5871C13.551 32.9199 12.2377 31.5612 11.3946 29.7514C9.8989 26.5099 10.4961 23.0429 12.7255 22.0124C13.8442 21.4951 15.1778 21.6531 16.4776 22.4581C17.7085 23.2185 18.7746 24.484 19.4839 26.0129C20.1784 27.5161 20.4216 29.0707 20.2595 30.4078C20.9015 29.811 21.7499 29.4862 22.6264 29.5016C23.503 29.517 24.3395 29.8713 24.9601 30.4902L26.8815 32.3999C26.9723 32.5028 27.0206 32.6364 27.0166 32.7736C27.0125 32.9108 26.9564 33.0412 26.8595 33.1385C26.7627 33.2358 26.6325 33.2927 26.4953 33.2975C26.3581 33.3023 26.2242 33.2547 26.1208 33.1644L24.1981 31.2533C23.7653 30.822 23.1791 30.5798 22.5679 30.5798C21.9568 30.5798 21.3706 30.822 20.9378 31.2533L19.0583 33.1239C19.0413 33.1403 19.0232 33.1556 19.0043 33.1698C18.7547 33.4095 18.467 33.6062 18.1531 33.7519C17.7394 33.9408 17.2904 34.0397 16.8357 34.0423C18.2936 35.3929 20.269 36.6679 22.5646 36.6679C22.7079 36.6679 22.8454 36.7248 22.9467 36.8261C23.0481 36.9274 23.105 37.0649 23.105 37.2081C23.105 37.3514 23.0481 37.4888 22.9467 37.5902C22.8454 37.6915 22.7079 37.7484 22.5646 37.7484V37.7457ZM12.3742 29.2976C13.6213 31.9988 16.0074 33.5534 17.7004 32.7714C19.361 32.0042 19.7271 29.1166 18.5111 26.4653C17.8909 25.1242 16.9695 24.0261 15.9169 23.3751C14.9346 22.7673 13.9645 22.6323 13.1849 22.9916C11.5243 23.7587 11.1582 26.6477 12.381 29.2976H12.3742Z" fill="#144A8F"/>
<path d="M32.9701 39.2354C32.0027 39.2209 31.0507 38.9901 30.1841 38.5601C30.0626 38.494 29.9711 38.3838 29.9284 38.2523C29.8857 38.1207 29.8951 37.9778 29.9547 37.853C30.0143 37.7282 30.1195 37.631 30.2486 37.5813C30.3777 37.5317 30.521 37.5335 30.6489 37.5863C32.1 38.2792 33.5133 38.3359 34.7023 37.7646C34.2416 37.3702 33.8673 37.0542 33.8659 37.0542C33.7701 36.9715 33.7063 36.8577 33.6858 36.7328C33.6653 36.6079 33.6893 36.4797 33.7536 36.3707C33.818 36.2617 33.9186 36.1787 34.0379 36.1363C34.1572 36.0938 34.2876 36.0946 34.4064 36.1385C35.4184 36.5436 36.321 36.5274 37.1641 36.106C38.2302 35.5739 39.003 34.4772 39.5164 33.4953C38.7058 33.8127 37.5586 33.9491 35.9805 33.5804C32.6283 32.793 30.1044 35.9183 30.08 35.9494C29.9886 36.0531 29.8609 36.1179 29.7231 36.1304C29.5854 36.1428 29.4481 36.102 29.3395 36.0164C29.231 35.9307 29.1594 35.8067 29.1396 35.6698C29.1197 35.533 29.1531 35.3938 29.2329 35.2808C29.3518 35.1296 32.1973 31.5842 36.2278 32.5296C39.4448 33.2833 40.2961 31.5639 40.3312 31.491C40.3883 31.3683 40.4894 31.2714 40.6145 31.2197C40.7396 31.1679 40.8796 31.165 41.0068 31.2114C41.133 31.258 41.2373 31.35 41.2993 31.4694C41.3612 31.5888 41.3764 31.727 41.3418 31.857C41.2986 32.0164 40.2474 35.7738 37.6478 37.069C37.1435 37.325 36.5912 37.4727 36.0264 37.5026C36.0729 37.5596 36.1073 37.6256 36.1274 37.6964C36.1475 37.7672 36.1529 37.8414 36.1433 37.9144C36.1337 37.9874 36.1092 38.0576 36.0715 38.1208C36.0337 38.184 35.9835 38.2388 35.9237 38.2819C35.0651 38.9043 34.0308 39.2382 32.9701 39.2354V39.2354Z" fill="#144A8F"/>
<path d="M20.6299 44.6229H16.2103V46.4517H20.6299V44.6229Z" fill="#EB2126"/>
<path d="M27.476 45.4429H23.0577V47.2716H27.476V45.4429Z" fill="#EB2126"/>
<path d="M25.1941 47.5093C25.0507 47.5093 24.9133 47.4524 24.8119 47.3511C24.7106 47.2498 24.6536 47.1124 24.6536 46.9691V46.2235C24.6536 46.0803 24.7106 45.9428 24.8119 45.8415C24.9133 45.7402 25.0507 45.6833 25.1941 45.6833C25.3374 45.6833 25.4749 45.7402 25.5763 45.8415C25.6776 45.9428 25.7346 46.0803 25.7346 46.2235V46.9691C25.7346 47.1124 25.6776 47.2498 25.5763 47.3511C25.4749 47.4524 25.3374 47.5093 25.1941 47.5093V47.5093Z" fill="#144A8F"/>
<path d="M16.2872 44.4245C16.2872 44.4245 16.8979 44.4245 17.3681 44.3975C17.5167 44.3908 17.6234 44.5906 17.5667 44.7743C17.3492 45.4848 17.537 46.0588 17.3721 46.2803C17.1749 46.5409 16.0737 46.1371 16.0737 46.1371L16.2872 44.4245Z" fill="#A62126"/>
<path d="M22.9942 45.3199C22.9942 45.3199 23.5995 45.2402 24.063 45.1578C24.2089 45.1322 24.3332 45.3172 24.3062 45.5063C24.1805 46.2383 24.4413 46.784 24.3062 47.0244C24.1427 47.3094 22.9996 47.046 22.9996 47.046L22.9942 45.3199Z" fill="#A62126"/>
<path d="M20.5502 14.511C20.5502 14.511 22.812 16.4127 24.3591 15.9967C25.2941 15.7441 24.3064 17.7525 20.6812 17.2487C16.9088 16.722 18.864 12.8768 18.864 12.8768L20.5502 14.511Z" fill="#EB2126"/>
<path d="M21.0456 10.5712C21.305 11.1844 23.2763 12.1109 24.6477 12.0326C24.7384 12.0262 24.8285 12.0504 24.9038 12.1013C24.979 12.1523 25.0349 12.227 25.0625 12.3135C25.3909 13.3751 25.4017 14.5974 25.126 15.0891C24.8558 15.5591 18.8378 14.4516 18.8121 11.9151C18.7865 9.37865 19.8025 9.32867 19.8025 9.32867L21.0456 10.5712Z" fill="#EB2126"/>
<path d="M21.0852 6.33171C21.2892 6.91653 22.8308 7.84575 23.8685 7.93894C23.9906 7.95046 24.1066 7.9972 24.2026 8.07345C24.2985 8.1497 24.3702 8.25219 24.409 8.36844C24.6792 9.1626 24.7589 10.0202 24.8873 10.7874C24.9683 11.2682 19.2719 10.212 19.2503 7.68097C19.2287 5.14992 20.061 5.09454 20.061 5.09454L21.0852 6.33171Z" fill="#EB2126"/>
<path d="M24.4712 15.5983C22.7485 15.5983 21.2028 14.8757 20.6367 14.5772C19.5868 14.0208 18.4316 13.1334 18.3141 12.3095C18.3016 12.171 18.3431 12.033 18.4299 11.9243C18.5167 11.8156 18.6421 11.7445 18.78 11.7259C18.9179 11.7073 19.0576 11.7425 19.1702 11.8243C19.2827 11.9061 19.3594 12.0282 19.3842 12.165C19.4206 12.3771 20.0341 13.0659 21.2852 13.6966C21.9689 14.041 24.351 15.0891 26.3061 14.1113C26.3699 14.0746 26.4404 14.0514 26.5135 14.043C26.5866 14.0346 26.6606 14.0412 26.731 14.0624C26.8014 14.0836 26.8668 14.119 26.9231 14.1663C26.9793 14.2136 27.0254 14.2719 27.0583 14.3376C27.0913 14.4033 27.1105 14.4751 27.1148 14.5485C27.119 14.6219 27.1083 14.6953 27.0831 14.7644C27.058 14.8335 27.019 14.8967 26.9686 14.9502C26.9181 15.0038 26.8573 15.0464 26.7898 15.0756C26.0685 15.4287 25.2743 15.6077 24.4712 15.5983V15.5983ZM24.1564 11.5464C23.0128 11.5229 21.8919 11.2231 20.8893 10.6726C19.9787 10.1904 18.9721 9.41651 18.8734 8.68988C18.8594 8.55071 18.9 8.41155 18.9865 8.30165C19.0731 8.19176 19.1989 8.1197 19.3375 8.10063C19.4761 8.08156 19.6167 8.11697 19.7297 8.19941C19.8428 8.28185 19.9194 8.40489 19.9435 8.54266C19.9935 8.72364 20.5826 9.36654 21.7649 9.90543C22.458 10.2215 24.2294 10.8765 25.7035 10.1364C25.8302 10.0816 25.9731 10.0774 26.1028 10.1245C26.2325 10.1717 26.3393 10.2667 26.4012 10.3901C26.4631 10.5134 26.4754 10.6558 26.4356 10.7879C26.3958 10.9201 26.3069 11.032 26.1872 11.1007C25.5542 11.4053 24.8588 11.5579 24.1564 11.5464V11.5464Z" fill="#144A8F"/>
<path d="M23.8723 5.56728C23.8991 5.67785 23.8821 5.79447 23.825 5.89285C23.7678 5.99123 23.6749 6.06377 23.5656 6.09537C23.1459 6.24207 22.7062 6.3236 22.2617 6.33713C20.7282 6.3736 20.1026 4.51245 20.1026 4.51245C20.1026 4.51245 20.7012 0.940068 22.0469 0.976535C22.5036 0.98869 23.5264 4.12887 23.8723 5.56863" fill="#EB2126"/>
<path d="M22.5673 18.7628C20.0866 18.7628 17.9937 16.5707 17.9937 15.1931C17.9937 15.1012 18.5044 9.43541 19.5908 5.05131C19.5961 5.00211 19.6084 4.95391 19.6272 4.90814C20.3136 2.18935 21.2243 0 22.3768 0C25.4331 0 27.141 15.0418 27.141 15.1931C27.141 16.5707 25.0521 18.7628 22.5673 18.7628ZM20.4231 6.29793C19.6624 9.80953 19.0719 14.0181 19.0719 15.1931C19.0719 15.9157 20.5839 17.6836 22.566 17.6836C24.5481 17.6836 26.0601 15.9157 26.0601 15.1931C26.0601 14.7123 25.5628 11.0683 24.7954 7.58371C24.7792 7.50673 24.7616 7.43109 24.7454 7.35681C23.6915 7.62693 22.4147 7.43785 21.2 6.79495C20.9281 6.65033 20.6683 6.48412 20.4231 6.29793V6.29793ZM20.7001 5.08237C20.8554 5.29307 21.3905 5.75768 22.2485 6.09128C22.7511 6.28847 23.6564 6.54779 24.5008 6.31008C23.2618 1.23311 22.3849 1.08049 22.3768 1.08049C21.8499 1.07914 21.2459 2.81469 20.7001 5.08102V5.08237Z" fill="#144A8F"/>
<path d="M30.3689 27.1744C30.2874 27.3648 30.1633 27.5339 30.0061 27.6687C29.8489 27.8034 29.6628 27.9003 29.4621 27.9517C29.2615 28.0031 29.0517 28.0078 28.849 27.9652C28.6463 27.9227 28.4561 27.8342 28.2931 27.7065C28.1301 27.5788 27.9986 27.4153 27.9088 27.2287C27.8191 27.0421 27.7734 26.8374 27.7754 26.6304C27.7774 26.4234 27.827 26.2196 27.9204 26.0347C28.0137 25.8499 28.1483 25.689 28.3138 25.5645C28.2624 25.5645 28.2138 25.5496 28.1611 25.5496C27.7006 25.5496 27.2504 25.6861 26.8676 25.9419C26.4847 26.1977 26.1863 26.5612 26.0102 26.9865C25.834 27.4118 25.788 27.8798 25.8779 28.3312C25.9678 28.7827 26.1897 29.1973 26.5154 29.5227C26.8411 29.8481 27.2561 30.0697 27.7077 30.1593C28.1594 30.2489 28.6276 30.2027 29.0529 30.0263C29.4783 29.85 29.8418 29.5515 30.0974 29.1686C30.3531 28.7858 30.4894 28.3357 30.4891 27.8754C30.486 27.6369 30.4454 27.4003 30.3689 27.1744V27.1744Z" fill="#144A8F"/>
<path d="M22.5885 39.0787L22.6358 38.9626C23.11 38.8721 23.8045 39.1868 23.9951 39.6298L24.6017 41.3964C24.6835 41.6354 24.6943 41.8929 24.6328 42.1379L23.9315 44.9512L23.6681 41.7449L22.5885 39.0787Z" fill="#2494D1"/>
<path d="M18.3165 46.9123C18.1731 46.9123 18.0357 46.8554 17.9343 46.7541C17.8329 46.6527 17.776 46.5153 17.776 46.372V45.7089C17.776 45.5656 17.8329 45.4282 17.9343 45.3269C18.0357 45.2256 18.1731 45.1686 18.3165 45.1686C18.4598 45.1686 18.5973 45.2256 18.6986 45.3269C18.8 45.4282 18.8569 45.5656 18.8569 45.7089V46.372C18.8569 46.5153 18.8 46.6527 18.6986 46.7541C18.5973 46.8554 18.4598 46.9123 18.3165 46.9123ZM20.2621 44.777H16.2087C16.0653 44.777 15.9279 44.72 15.8265 44.6187C15.7252 44.5174 15.6682 44.38 15.6682 44.2367C15.6682 44.0934 15.7252 43.956 15.8265 43.8547C15.9279 43.7534 16.0653 43.6965 16.2087 43.6965H20.2621C20.4055 43.6965 20.5429 43.7534 20.6443 43.8547C20.7456 43.956 20.8026 44.0934 20.8026 44.2367C20.8026 44.38 20.7456 44.5174 20.6443 44.6187C20.5429 44.72 20.4055 44.777 20.2621 44.777Z" fill="#144A8F"/>
<path d="M27.2142 45.4875H23.3715C23.2282 45.4875 23.0907 45.4306 22.9894 45.3292C22.888 45.2279 22.8311 45.0905 22.8311 44.9472C22.8311 44.8039 22.888 44.6665 22.9894 44.5652C23.0907 44.4639 23.2282 44.407 23.3715 44.407H27.2142C27.3575 44.407 27.495 44.4639 27.5964 44.5652C27.6977 44.6665 27.7546 44.8039 27.7546 44.9472C27.7546 45.0905 27.6977 45.2279 27.5964 45.3292C27.495 45.4306 27.3575 45.4875 27.2142 45.4875Z" fill="#144A8F"/>
<path d="M22.9267 39.7648C23.4226 40.2605 24.286 41.63 23.9293 41.9853C23.5726 42.3405 22.443 42.0204 21.9512 41.5247C21.4594 41.029 21.2959 40.3605 21.6526 40.0053C22.3836 40.3064 22.4309 39.2692 22.9267 39.7648" fill="#2494D1"/>
<path d="M20.2135 46.9907H16.0898C16.0158 46.9908 15.9427 46.9757 15.8748 46.9464C15.807 46.9172 15.7458 46.8743 15.6952 46.8205C15.6446 46.7664 15.6057 46.7026 15.5808 46.6329C15.556 46.5632 15.5457 46.4891 15.5506 46.4153L15.9668 40.1471C15.9706 40.0944 15.982 40.0425 16.0006 39.9931L17.6395 35.6266C17.6946 35.4993 17.7966 35.398 17.9243 35.3438C18.052 35.2896 18.1957 35.2866 18.3256 35.3354C18.4555 35.3841 18.5616 35.481 18.6221 35.6058C18.6825 35.7307 18.6926 35.874 18.6502 36.0061L17.0396 40.2943L16.6667 45.9129H19.6852L19.7622 42.4283C19.7641 42.3569 19.7802 42.2867 19.8095 42.2216L20.7553 40.1106C20.7818 40.0425 20.8219 39.9804 20.8731 39.9282C20.9243 39.8759 20.9856 39.8347 21.0532 39.8068C21.1209 39.779 21.1935 39.7652 21.2666 39.7662C21.3398 39.7672 21.412 39.7831 21.4788 39.8128C21.5456 39.8426 21.6057 39.8856 21.6555 39.9392C21.7052 39.9929 21.7435 40.0561 21.768 40.1249C21.7926 40.1938 21.8029 40.267 21.7984 40.34C21.7939 40.413 21.7745 40.4843 21.7416 40.5496L20.8458 42.5606L20.7593 46.4639C20.7558 46.6058 20.6965 46.7406 20.5944 46.8391C20.4923 46.9377 20.3554 46.9921 20.2135 46.9907Z" fill="#144A8F"/>
<path d="M23.3342 43.8667H20.5468V45.5361H23.3342V43.8667Z" fill="#EB2126"/>
<path d="M23.3361 46.0764H20.5487C20.4054 46.0764 20.2679 46.0195 20.1665 45.9182C20.0652 45.8168 20.0082 45.6794 20.0082 45.5361V43.8668C20.0082 43.7235 20.0652 43.5861 20.1665 43.4848C20.2679 43.3835 20.4054 43.3265 20.5487 43.3265H23.3361C23.4795 43.3265 23.6169 43.3835 23.7183 43.4848C23.8196 43.5861 23.8766 43.7235 23.8766 43.8668V45.5375C23.8762 45.6805 23.8191 45.8176 23.7178 45.9186C23.6165 46.0197 23.4792 46.0764 23.3361 46.0764ZM21.0878 44.9959H22.7957V44.4043H21.0878V44.9959Z" fill="#144A8F"/>
<path d="M27.3069 47.508H23.1832C23.108 47.5083 23.0335 47.4929 22.9645 47.4628C22.8956 47.4326 22.8337 47.3884 22.7828 47.333C22.7319 47.2776 22.6932 47.2121 22.6691 47.1408C22.645 47.0696 22.636 46.9941 22.6428 46.9191L23.1143 41.83L22.1685 39.6839C22.1177 39.5538 22.1194 39.409 22.173 39.2801C22.2267 39.1511 22.3282 39.0479 22.4564 38.9922C22.5845 38.9364 22.7292 38.9325 22.8602 38.9811C22.9912 39.0298 23.0983 39.1272 23.1589 39.253L24.152 41.5261C24.1897 41.6109 24.2042 41.7041 24.1939 41.7963L23.7656 46.4356H26.8327L27.7231 40.628C27.7309 40.5554 27.7534 40.4852 27.7891 40.4216C27.8248 40.358 27.8731 40.3022 27.931 40.2578C27.9888 40.2133 28.0551 40.181 28.1258 40.1628C28.1965 40.1446 28.2701 40.1409 28.3423 40.152C28.4144 40.163 28.4836 40.1886 28.5456 40.2271C28.6076 40.2656 28.6612 40.3162 28.703 40.376C28.7449 40.4357 28.7743 40.5033 28.7893 40.5747C28.8043 40.6461 28.8047 40.7198 28.7905 40.7914L28.1595 45.0026C28.1856 45.0012 28.2118 45.0012 28.2379 45.0026H28.9256C28.9598 44.8925 29.0284 44.7962 29.1212 44.7279C29.2141 44.6595 29.3264 44.6226 29.4418 44.6226C29.5571 44.6226 29.6694 44.6595 29.7623 44.7279C29.8551 44.7962 29.9237 44.8925 29.9579 45.0026H30.62C30.52 37.0975 28.2352 34.9662 28.2109 34.9459C28.1041 34.8516 28.0389 34.7189 28.0296 34.5767C28.0202 34.4345 28.0674 34.2944 28.1609 34.1869C28.2536 34.0806 28.3842 34.0147 28.5248 34.0033C28.6654 33.992 28.8049 34.036 28.9135 34.1261C29.027 34.2233 31.7022 36.5883 31.7022 45.5415C31.7022 45.6848 31.6453 45.8222 31.5439 45.9235C31.4426 46.0248 31.3051 46.0818 31.1618 46.0818H28.2325C28.1512 46.0818 28.0709 46.0638 27.9974 46.0291L27.8407 47.0555C27.8198 47.182 27.7547 47.2969 27.6569 47.3798C27.5592 47.4627 27.4351 47.5081 27.3069 47.508V47.508ZM21.801 45.8143C21.6577 45.8143 21.5202 45.7574 21.4189 45.6561C21.3175 45.5548 21.2606 45.4174 21.2606 45.2741V45.1566C21.2606 45.0133 21.3175 44.8759 21.4189 44.7746C21.5202 44.6733 21.6577 44.6163 21.801 44.6163C21.9444 44.6163 22.0818 44.6733 22.1832 44.7746C22.2845 44.8759 22.3415 45.0133 22.3415 45.1566V45.2768C22.3408 45.4196 22.2835 45.5563 22.1822 45.6571C22.081 45.7578 21.9439 45.8143 21.801 45.8143V45.8143Z" fill="#144A8F"/>
</svg>
