<svg width="760" height="160" viewBox="0 0 760 160" fill="none" xmlns="http://www.w3.org/2000/svg">
<rect width="760" height="160" fill="#0D133D"/>
<g filter="url(#filter0_ii_266_34631)">
<path fill-rule="evenodd" clip-rule="evenodd" d="M184.92 21.0001C196.78 20.9842 208.378 24.4836 218.251 31.0561C228.123 37.6287 235.826 46.9795 240.386 57.9276C244.947 68.8756 246.161 80.9297 243.874 92.5672C241.588 104.205 235.904 114.904 227.54 123.312C219.176 131.721 208.508 137.462 196.883 139.811C185.258 142.16 173.198 141.011 162.225 136.509C151.253 132.008 141.861 124.355 135.235 114.518C128.61 104.682 125.048 93.1018 125 81.2419C124.969 73.3491 126.494 65.5275 129.49 58.2253C132.486 50.9231 136.894 44.2837 142.46 38.6876C148.026 33.0915 154.642 28.6486 161.928 25.6135C169.214 22.5784 177.027 21.0106 184.92 21.0001Z" fill="#8BD4F3" fill-opacity="0.4"/>
</g>
<path fill-rule="evenodd" clip-rule="evenodd" d="M177.862 29.6998C178.804 30.4215 179.51 31.4063 179.893 32.5297C180.275 33.6531 180.316 34.8647 180.009 36.0111C179.703 37.1576 179.064 38.1875 178.172 38.9707C177.28 39.7538 176.177 40.2549 175 40.4107C173.824 40.5665 172.628 40.3699 171.563 39.8459C170.498 39.3218 169.613 38.4939 169.019 37.4666C168.425 36.4394 168.148 35.259 168.225 34.0748C168.302 32.8906 168.728 31.7558 169.45 30.8137V30.8137C169.924 30.1865 170.517 29.6593 171.195 29.2623C171.874 28.8653 172.624 28.6064 173.403 28.5006C174.182 28.3947 174.974 28.444 175.733 28.6456C176.493 28.8472 177.205 29.1971 177.829 29.6751L177.862 29.6998Z" fill="white" fill-opacity="0.7"/>
<path fill-rule="evenodd" clip-rule="evenodd" d="M158.338 38.7711C158.976 39.2595 159.381 39.997 159.464 40.8215C159.548 41.646 159.303 42.4899 158.784 43.1676V43.1676C158.486 43.4673 158.136 43.7078 157.755 43.8754C157.374 44.043 156.968 44.1344 156.561 44.1445C156.154 44.1545 155.754 44.0829 155.383 43.9339C155.013 43.7848 154.679 43.5612 154.402 43.2757C153.932 42.8072 153.639 42.1829 153.57 41.5022C153.501 40.8214 153.66 40.1233 154.021 39.5187C154.534 38.8489 155.274 38.3952 156.081 38.2554C156.889 38.1156 157.699 38.3008 158.338 38.7711Z" fill="white" fill-opacity="0.7"/>
<path d="M228.917 55.43L198.777 46.4998L185.382 58.7788L215.522 67.709L228.917 55.43Z" fill="white"/>
<path d="M142.963 53.1974L173.102 46.4998L185.381 58.7788L155.242 67.709L142.963 53.1974Z" fill="white"/>
<path fill-rule="evenodd" clip-rule="evenodd" d="M170.446 54.575L170.364 54.5225C168.168 54.4771 165.492 55.1766 162.45 57.4352C163.406 58.2899 169.306 63.0457 176.503 59.1661C176.313 58.9379 176.166 58.6764 176.071 58.3949C175.994 58.0559 176.393 57.5545 176.775 57.1654C175.069 55.548 172.83 54.609 170.479 54.5249L170.446 54.575ZM173.939 88.2906C181.199 90.5145 185.326 83.8031 185.377 83.7194L185.378 83.7186C185.408 83.6714 185.455 83.6379 185.51 83.6254C185.564 83.6128 185.622 83.6223 185.669 83.6518C185.708 83.6763 185.739 83.7128 185.755 83.7558C185.772 83.7988 185.775 83.846 185.762 83.8905C185.432 85.2711 184.788 86.557 183.879 87.6484C186.783 86.2541 189.136 83.9431 189.734 81.1808C189.538 81.1211 189.017 80.5195 188.986 80.4645C190.064 81.0901 190.549 81.0948 191.832 81.2715L191.961 81.2906V81.4195C191.96 81.7428 192.083 82.054 192.306 82.2887C192.528 82.5234 192.833 82.6635 193.156 82.6801C194.112 82.294 197.095 81.8685 198.06 81.7308C198.073 81.7288 198.087 81.727 198.1 81.7251C197.759 81.5051 197.404 81.3096 197.036 81.1402L196.745 81.0017L197.031 80.8561C197.479 80.6606 197.936 80.4885 198.401 80.3404C197.562 79.9536 196.444 80.1613 196.441 80.1613L196.131 80.2162C196.489 79.5 197.258 79.0774 197.913 78.6429C196.835 78.5522 195.223 79.3735 194.881 79.5549C194.831 79.8175 194.771 80.1804 194.596 80.3595C194.618 79.7961 194.663 78.9724 194.716 78.471C194.162 79.1204 193.01 80.3452 193.005 80.3476C193.021 80.0236 193.158 79.7173 193.387 79.4881C193.672 77.4277 192.269 75.5082 191.88 75.0212C191.741 75.3053 191.588 75.5965 191.442 75.8759C191.438 75.8837 191.434 75.8916 191.43 75.8994C191.096 76.5441 190.797 77.12 190.783 77.337L191.638 79.0082C191.658 79.045 191.662 79.0879 191.65 79.1277C191.638 79.1675 191.61 79.2009 191.574 79.2207C191.552 79.2318 191.528 79.2376 191.503 79.2376C191.479 79.2376 191.455 79.2318 191.433 79.2207L190.379 78.7432C190.319 79.2875 190.257 79.8319 190.197 80.3762C190.197 80.5195 189.958 80.5123 189.899 80.4311L189.182 78.9843L188.226 80.3953C188.157 80.4956 187.932 80.412 187.937 80.3046C187.937 79.7531 187.937 79.204 187.954 78.6525L186.842 78.7766C186.821 78.7776 186.8 78.7743 186.78 78.767C186.76 78.7598 186.741 78.7486 186.725 78.7342C186.71 78.7198 186.697 78.7024 186.688 78.683C186.679 78.6637 186.674 78.6428 186.673 78.6214C186.672 78.5995 186.675 78.5775 186.683 78.5569C186.691 78.5364 186.703 78.5177 186.718 78.5021C186.718 78.5021 188.118 77.2295 188.515 76.0287C188.912 74.8278 188.754 71.9151 188.754 71.9055C189.175 72.6218 189.012 75.5273 188.814 76.1289C188.518 77.0218 187.715 77.9386 187.258 78.4113L188.271 78.2991C188.271 78.7933 188.271 79.2899 188.255 79.7841L189.23 78.3516C189.469 78.8291 189.708 79.3066 189.946 79.8008L190.119 78.2753L191.165 78.7313L190.491 77.4158C190.494 77.3937 190.488 77.3716 190.475 77.3537C190.455 77.0744 190.795 76.4226 191.172 75.6992C191.55 74.9758 192.001 74.1091 192.09 73.6102C192.24 72.7722 191.509 70.4802 191.313 69.8881C189.44 70.3587 187.494 70.4729 185.578 70.2248C183.642 69.9948 181.756 69.4522 179.994 68.618C179.672 69.1671 178.407 71.5307 178.799 74.2428V74.3216L178.744 74.3765C178.744 74.3765 175.485 77.6712 176.797 80.2091C176.78 79.6501 176.815 79.0907 176.9 78.5379C176.922 78.3949 176.966 78.2564 177.031 78.1272C177.124 77.9649 177.249 77.9052 177.406 77.9911C177.514 78.0654 177.597 78.1701 177.645 78.292C178.192 79.3711 178.317 81.6702 178.319 81.6774C178.336 81.8349 178.08 82.0713 178.001 81.6965C178.001 81.6965 177.879 79.4547 177.361 78.4352C177.339 78.3917 177.315 78.3495 177.289 78.3087C177.251 78.4015 177.222 78.4984 177.206 78.5976C177.11 79.2359 177.084 79.8826 177.127 80.5266C177.143 80.6842 177.091 80.7654 176.969 80.7654C176.847 80.7654 176.699 80.6054 176.491 80.3476C176.491 80.347 176.49 80.3465 176.49 80.346C175.964 79.6937 174.899 78.3734 173.839 78.7408C174.29 79.1658 175.444 80.3094 175.409 80.8895V81.1784L175.17 81.0351C175.17 81.0351 173.927 80.2377 172.689 80.4574C173.194 80.7964 174.226 81.4529 174.654 81.4601C174.878 81.558 174.835 81.749 174.673 81.7776C174.189 81.8158 173.714 81.9294 173.265 82.1143C173.841 82.1907 175.894 82.5655 176.233 82.9714C176.233 82.9714 177.399 84.3919 178.245 83.6136C178.298 83.5491 178.706 83.0239 178.67 82.7422L178.685 82.6538C179.251 81.4744 181.39 79.8701 181.98 80.7439C181.634 80.7097 181.285 80.7513 180.957 80.8656C180.892 81.8176 180.592 82.7387 180.084 83.5465C179.575 84.3544 178.875 85.0238 178.044 85.4949C177.207 85.9675 176.267 86.2304 175.306 86.2613C174.317 86.2946 173.336 86.0778 172.453 85.631C171.019 84.9028 169.755 83.53 169.041 81.4147C169.454 84.5017 170.857 86.5382 172.749 87.7248C172.883 87.8084 173.944 88.2787 173.944 88.2787L173.939 88.2906ZM183.344 88.2262C182.586 88.9903 181.708 89.6257 180.744 90.1075C179.632 90.6606 178.431 91.0153 177.196 91.1556C175.963 91.3077 174.712 91.2373 173.504 90.9479C172.198 90.6411 170.976 90.0489 169.926 89.2137C168.876 88.3786 168.024 87.3213 167.432 86.118C165.738 82.6491 166.03 79.044 166.907 77.0099C167.122 76.4461 167.503 75.997 167.958 75.5997C168.379 75.2774 168.742 75.3347 169.158 75.5997C169.657 75.9197 170.001 76.647 170.238 78.1225C170.346 78.8077 171.081 80.713 172.254 82.3197C172.914 83.2222 173.743 84.1461 174.673 84.5997C175.138 84.8395 175.745 84.9535 176.269 84.9597C176.792 84.966 177.523 84.9459 177.889 84.5997C178.701 84.2273 179.645 83.4395 180.558 82.3197C180.694 81.921 180.586 81.4275 180.634 81.0089C179.662 81.5126 179.103 82.5416 179 82.7446C179 83.1791 178.498 83.8094 178.496 83.8118C177.461 84.8598 176.13 83.456 175.984 83.1194C175.344 82.7756 170.458 82.4455 174.078 81.7197C173.464 81.4118 172.816 80.906 172.254 80.5099C172.237 80.4988 172.223 80.4844 172.211 80.4676C172.199 80.4508 172.215 80.4435 172.211 80.4235C172.207 80.4436 172.207 80.4036 172.211 80.4235C172.215 80.4035 172.243 80.3929 172.254 80.3758C172.274 80.3442 172.602 80.2895 172.638 80.2797C173.718 80.1597 174.616 80.49 175.158 80.7597C174.821 80.0841 173.519 78.8445 173.516 78.8397C173.526 78.8568 173.5 78.8278 173.516 78.8397C173.506 78.8227 173.48 78.788 173.478 78.7685C173.476 78.7489 173.473 78.7387 173.478 78.7197C173.466 78.7352 173.483 78.7008 173.478 78.7197C173.492 78.7002 173.576 78.61 173.598 78.5997C174.798 78.3087 175.672 79.0453 176.358 79.7997C175.866 77.4338 178.131 74.6904 178.518 74.2797C178.145 71.5366 179.484 69.1238 179.838 68.5198C179.246 68.2241 178.564 67.8249 178.02 67.4482C176.806 66.6469 175.792 65.5777 175.057 64.323C174.237 65.0473 173.295 65.6218 172.276 66.0205C170.469 66.7534 168.008 67.2619 164.663 67.2213H164.424C164.453 67.1497 164.481 67.0781 164.508 67.0065C164.508 66.9921 166.29 62.4918 168.708 60.7991C166.251 60.3244 163.966 59.1979 162.094 57.5378L161.958 57.4089L162.106 57.2967C165.074 55.0501 167.712 54.2575 169.918 54.193C166.682 51.6766 166.078 46.8158 166.075 46.7919C166.07 46.7255 166.061 46.6593 166.049 46.5938L166.247 46.6152C174.637 47.4652 177.327 51.6146 177.805 52.4788C180.26 50.9331 183.132 50.1826 186.03 50.3301C190.271 50.5354 193.6 52.5361 194.537 53.2953C196.835 50.3301 201.734 49.2032 206.021 49.3751C205.672 52.3189 203.87 54.3386 201.407 55.5634C205.01 55.4226 206.695 56.5948 206.699 56.5996L206.838 56.6927L206.738 56.8264C204.733 59.4526 202.578 60.4816 200.958 60.8398C203.524 62.117 204.678 64.0198 204.678 64.0198C204.558 64.1058 204.704 64.0675 204.678 64.0198L204.599 64.2203C200.958 65.7937 198.353 64.7328 197.641 64.389C197.428 65.0529 197.05 65.752 196.654 66.326C195.834 67.4906 194.737 68.4326 193.461 69.0668C192.869 69.3671 192.25 69.6117 191.612 69.7974C191.82 70.4229 192.568 72.7602 192.398 73.6603C192.317 74.0098 192.195 74.3487 192.035 74.6702C192.166 74.8206 193.876 76.9767 193.793 79.2376C194.189 78.7983 194.678 78.2719 194.881 77.9997C195.005 77.8708 195.064 77.8565 195.078 77.9997C195.078 77.9997 195.046 78.7157 194.958 79.3197C195.634 78.9831 197.39 78.1578 198.41 78.5183C198.41 78.5183 198.618 78.5426 198.41 78.6716C198.41 78.6716 197.266 79.4924 196.745 79.9197C197.273 79.8863 198.287 79.8916 198.918 80.3404C199.102 80.4693 198.798 80.5197 198.798 80.5197C198.798 80.5197 197.997 80.9144 197.478 81.1197C197.856 81.3131 198.45 81.6082 198.558 81.8397C198.558 81.8397 198.716 81.9209 198.453 81.9639C198.453 81.9639 194.429 82.4724 193.342 82.9308C193.149 82.9587 192.952 82.948 192.763 82.8993C192.574 82.8507 192.397 82.765 192.241 82.6473C192.085 82.5296 191.955 82.3822 191.857 82.2136C191.758 82.0451 191.743 81.9131 191.718 81.7197C191.718 81.7197 191.838 81.5997 191.718 81.5997C191.424 81.5568 190.616 81.3885 190.047 81.25C189.359 84.3179 186.637 86.8367 183.356 88.2214L183.344 88.2262ZM179.65 83.6208C179.189 84.2775 178.587 84.8238 177.889 85.2204C177.085 85.6753 176.181 85.9248 175.257 85.9469C174.334 85.969 173.419 85.7629 172.594 85.3469C170.876 84.4707 169.409 82.6109 168.914 79.5669C168.878 79.3472 168.61 79.2422 168.601 79.5931C168.637 83.8452 170.25 86.5334 172.582 87.9946C172.963 88.2736 173.377 88.5053 173.815 88.6845C179.55 90.4393 183.421 86.8581 184.974 84.9697C184.514 86.1319 183.811 87.1826 182.912 88.0519C182.216 88.725 181.421 89.2885 180.556 89.7231C179.487 90.2582 178.333 90.604 177.146 90.7449C175.964 90.8879 174.767 90.8192 173.609 90.542C172.362 90.2507 171.195 89.6866 170.192 88.8902C169.189 88.0938 168.375 87.085 167.81 85.9366C166.178 82.5942 166.45 79.13 167.291 77.1818C167.478 76.6813 167.783 76.2333 168.18 75.8759C168.284 75.7746 168.419 75.7102 168.563 75.6926C168.707 75.6749 168.853 75.7049 168.978 75.778C169.382 76.0358 169.741 76.7712 169.953 78.1225C170.068 78.8387 170.809 80.8131 172.023 82.4748C172.718 83.4298 173.569 84.2869 174.556 84.7715C175.076 85.0407 175.652 85.1848 176.239 85.1923C176.825 85.1997 177.405 85.0704 177.932 84.8145C178.565 84.5113 179.145 84.1083 179.65 83.6208ZM184.018 73.8012C184.271 74.8803 184.526 75.9578 184.783 77.0338L186.216 77.9315C186.322 78.0031 186.216 78.2156 186.159 78.2227L184.964 78.4209C185.038 78.779 185.144 79.6146 184.666 80.1351C184.474 80.3428 184.403 80.0897 184.384 80.0539L183.965 79.309C183.854 79.5403 183.697 79.7469 183.504 79.9163C183.311 80.0857 183.086 80.2145 182.842 80.295C182.603 80.3786 182.632 80.1446 182.632 80.1446C182.632 79.8605 182.632 79.5788 182.615 79.2947C182.231 79.55 181.769 79.6624 181.311 79.6122C180.957 79.5716 181.225 79.3353 181.225 79.3353C181.225 79.3353 182.398 78.2991 182.372 77.8909C182.218 77.559 182.028 77.2458 181.803 76.9574C180.967 75.7207 179.576 73.6603 179.7 71.9628C179.985 73.6842 181.373 75.7827 182.066 76.7807C182.073 76.7919 182.081 76.803 182.088 76.8141C182.43 77.322 182.678 77.6895 182.689 77.8694C182.716 78.2609 182.106 78.9246 181.734 79.3019C182.079 79.2545 182.402 79.1039 182.661 78.8697L182.924 78.6119C182.924 79.0464 182.94 79.4809 182.95 79.9154C183.588 79.6051 183.882 78.6572 183.939 78.6477C184.104 78.9414 184.417 79.4427 184.57 79.7364C184.871 79.1729 184.623 78.3445 184.623 78.3421L184.572 78.1702L185.691 77.984L184.544 77.2677C184.522 77.2343 184.498 77.2009 184.474 77.1699L183.686 73.8274V73.7582L184.145 71.6525C184.322 72.2422 184.052 73.0849 184.004 73.8012H184.018ZM197.638 64.1535C197.639 64.1539 197.64 64.1542 197.641 64.1546C198.21 64.4456 200.907 65.6339 204.276 64.0198C203.975 63.5423 202.843 62.0071 200.532 60.971C199.685 61.0992 198.82 61.048 197.994 60.8206C198.057 61.9437 197.937 63.0696 197.641 64.1546C197.64 64.1574 197.639 64.1602 197.638 64.163V64.1535ZM197.973 60.4816C198.611 60.6988 202.491 61.7541 206.362 56.7786C205.885 56.5065 204.155 55.7019 201 55.9072V55.7878C199.806 56.4084 198.538 56.8768 197.227 57.1821C197.533 57.9634 197.751 58.7761 197.877 59.6054C197.923 59.8966 197.956 60.1903 197.98 60.4816H197.973ZM197.101 56.8861C204.73 55.0525 205.505 50.7312 205.681 49.7237C198.274 49.485 195.311 52.7629 194.749 53.4935C195.765 54.4425 196.566 55.5965 197.101 56.8789V56.8861ZM169.203 60.8755C171.392 61.1811 173.961 60.9161 176.713 59.4191C176.897 59.6436 177.079 59.8417 177.191 59.9635C176.869 60.2548 176.071 61.0522 176.305 61.6347C176.309 61.664 176.309 61.6938 176.305 61.723C176.305 62.031 176.066 62.678 175.452 63.4468C174.838 64.2155 173.779 65.0726 172.133 65.7435C170.429 66.4383 168.09 66.9372 164.909 66.9158C165.311 65.9608 167.026 62.1408 169.193 60.885L169.203 60.8755ZM177.002 56.9457C177.002 56.945 177.001 56.9442 177 56.9435C175.227 55.2613 172.899 54.2863 170.455 54.2026C167.425 52.1326 166.575 47.9283 166.419 46.9662C175.43 47.9427 177.581 52.7582 177.588 52.7701L177.664 52.9348L177.805 52.8369C180.236 51.2639 183.102 50.4962 185.994 50.6429C190.377 50.8554 193.748 53.0064 194.434 53.6367C196.205 55.2029 197.213 57.4208 197.559 59.6412C197.935 62.0668 197.514 64.5044 196.379 66.1351C195.587 67.2505 194.532 68.1527 193.306 68.7613C191.079 69.8953 188.312 70.1937 185.593 69.881C182.873 69.5682 180.209 68.6085 178.185 67.1951C176.986 66.4027 175.991 65.3395 175.28 64.0914C175.429 63.9397 175.571 63.7803 175.705 63.6139C176.372 62.8189 176.611 62.074 176.611 61.7159C176.613 61.6451 176.601 61.5747 176.577 61.5082C176.374 61.0116 177.495 60.0996 177.497 60.0972L177.633 59.9874L177.511 59.8632C177.511 59.8632 176.489 58.8103 176.372 58.3257C176.274 57.8936 177.605 56.8311 177.609 56.8288L177.7 56.7548L177.657 56.6449C177.657 56.6449 177.282 55.7258 177.368 55.4011C177.454 55.0764 178.735 54.6705 178.737 54.6705C177.915 54.2933 177.086 55.2244 177.065 55.3223C176.976 55.6661 177.222 56.3823 177.325 56.6545C177.249 56.7186 177.133 56.818 177 56.9435C176.999 56.9442 176.998 56.945 176.998 56.9457H177.002Z" fill="url(#paint0_linear_266_34631)"/>
<path d="M170.455 54.2026C172.899 54.2863 175.227 55.2613 177 56.9435C177.133 56.818 177.249 56.7186 177.325 56.6545C177.222 56.3823 176.976 55.6661 177.065 55.3223C177.086 55.2244 177.915 54.2933 178.737 54.6705C178.735 54.6705 177.454 55.0764 177.368 55.4011C177.282 55.7258 177.657 56.6449 177.657 56.6449L177.7 56.7548L177.609 56.8288C177.605 56.8311 176.274 57.8936 176.372 58.3257C176.489 58.8103 177.511 59.8632 177.511 59.8632L177.633 59.9874L177.497 60.0972C177.495 60.0996 176.374 61.0116 176.577 61.5082C176.601 61.5747 176.613 61.6451 176.611 61.7159C176.611 62.074 176.372 62.8189 175.705 63.6139C175.571 63.7803 175.429 63.9397 175.28 64.0914C175.991 65.3395 176.986 66.4027 178.185 67.1951C180.209 68.6085 182.873 69.5682 185.593 69.881C188.312 70.1937 191.079 69.8953 193.306 68.7613C194.532 68.1527 195.587 67.2505 196.379 66.1351C197.514 64.5044 197.935 62.0668 197.559 59.6412C197.213 57.4208 196.205 55.2029 194.434 53.6367C193.748 53.0064 190.377 50.8554 185.994 50.6429C183.102 50.4962 180.236 51.2639 177.805 52.8369L177.664 52.9348L177.588 52.7701C177.581 52.7582 175.43 47.9427 166.419 46.9662C166.575 47.9283 167.425 52.1326 170.455 54.2026Z" fill="url(#paint1_linear_266_34631)"/>
<path d="M170.446 54.575L170.364 54.5225C168.168 54.4771 165.492 55.1766 162.45 57.4352C163.406 58.2899 169.306 63.0457 176.503 59.1661C176.313 58.9379 176.166 58.6764 176.071 58.3949C175.994 58.0559 176.393 57.5545 176.775 57.1654C175.069 55.548 172.83 54.609 170.479 54.5249L170.446 54.575Z" fill="url(#paint2_linear_266_34631)"/>
<path d="M169.203 60.8755C171.392 61.1811 173.961 60.9161 176.713 59.4191C176.897 59.6436 177.079 59.8417 177.191 59.9635C176.869 60.2548 176.071 61.0522 176.305 61.6347C176.309 61.664 176.309 61.6938 176.305 61.723C176.305 62.031 176.066 62.678 175.452 63.4468C174.838 64.2155 173.779 65.0726 172.133 65.7435C170.429 66.4383 168.09 66.9372 164.909 66.9158C165.311 65.9608 167.026 62.1408 169.193 60.885L169.203 60.8755Z" fill="url(#paint3_linear_266_34631)"/>
<path d="M197.101 56.8861C204.73 55.0525 205.505 50.7312 205.681 49.7237C198.274 49.485 195.311 52.7629 194.749 53.4935C195.765 54.4425 196.566 55.5965 197.101 56.8789V56.8861Z" fill="url(#paint4_linear_266_34631)"/>
<path d="M197.973 60.4816C198.611 60.6988 202.491 61.7541 206.362 56.7786C205.885 56.5065 204.155 55.7019 201 55.9072V55.7878C199.806 56.4084 198.538 56.8768 197.227 57.1821C197.533 57.9634 197.751 58.7761 197.877 59.6054C197.923 59.8966 197.956 60.1903 197.98 60.4816H197.973Z" fill="url(#paint5_linear_266_34631)"/>
<path d="M197.641 64.1546C198.21 64.4456 200.907 65.6339 204.276 64.0198C203.975 63.5423 202.843 62.0071 200.532 60.971C199.685 61.0992 198.82 61.048 197.994 60.8206C198.057 61.9437 197.937 63.0696 197.641 64.1546Z" fill="url(#paint6_linear_266_34631)"/>
<path fill-rule="evenodd" clip-rule="evenodd" d="M173.939 88.2906C181.199 90.5145 185.326 83.8031 185.377 83.7194L185.378 83.7186C185.408 83.6714 185.455 83.6379 185.51 83.6254C185.564 83.6128 185.622 83.6223 185.669 83.6518C185.708 83.6763 185.739 83.7128 185.755 83.7558C185.772 83.7988 185.775 83.846 185.762 83.8905C185.432 85.2711 184.788 86.557 183.879 87.6484C186.783 86.2541 189.136 83.9431 189.734 81.1808C189.538 81.1211 189.017 80.5195 188.986 80.4645C190.064 81.0901 190.549 81.0948 191.832 81.2715L191.961 81.2906V81.4195C191.96 81.7428 192.083 82.054 192.306 82.2887C192.528 82.5234 192.833 82.6635 193.156 82.6801C194.112 82.294 197.095 81.8685 198.06 81.7308L198.1 81.7251C197.759 81.5051 197.404 81.3096 197.036 81.1402L196.745 81.0017L197.031 80.8561C197.479 80.6606 197.936 80.4885 198.401 80.3404C197.562 79.9536 196.444 80.1613 196.441 80.1613L196.131 80.2162C196.489 79.5 197.258 79.0774 197.913 78.6429C196.835 78.5522 195.223 79.3735 194.881 79.5549C194.831 79.8175 194.771 80.1804 194.596 80.3595C194.618 79.7961 194.663 78.9724 194.716 78.471C194.162 79.1204 193.01 80.3452 193.005 80.3476C193.021 80.0236 193.158 79.7173 193.387 79.4881C193.672 77.4277 192.269 75.5082 191.88 75.0212C191.741 75.3053 191.588 75.5965 191.442 75.8759L191.43 75.8994C191.096 76.5441 190.797 77.12 190.783 77.337L191.638 79.0082C191.658 79.045 191.662 79.0879 191.65 79.1277C191.638 79.1675 191.61 79.2009 191.574 79.2207C191.552 79.2318 191.528 79.2376 191.503 79.2376C191.479 79.2376 191.455 79.2318 191.433 79.2207L190.379 78.7432C190.319 79.2875 190.257 79.8319 190.197 80.3762C190.197 80.5195 189.958 80.5123 189.899 80.4311L189.182 78.9843L188.226 80.3953C188.157 80.4956 187.932 80.412 187.937 80.3046C187.937 79.7531 187.937 79.204 187.954 78.6525L186.842 78.7766C186.821 78.7776 186.8 78.7743 186.78 78.767C186.76 78.7598 186.741 78.7486 186.725 78.7342C186.71 78.7198 186.697 78.7024 186.688 78.683C186.679 78.6637 186.674 78.6428 186.673 78.6214C186.672 78.5995 186.675 78.5775 186.683 78.5569C186.691 78.5364 186.703 78.5177 186.718 78.5021C186.718 78.5021 188.118 77.2295 188.515 76.0287C188.912 74.8278 188.754 71.9151 188.754 71.9055C189.175 72.6218 189.012 75.5273 188.814 76.1289C188.518 77.0218 187.715 77.9386 187.258 78.4113L188.271 78.2991C188.271 78.7933 188.271 79.2899 188.255 79.7841L189.23 78.3516C189.469 78.8291 189.708 79.3066 189.946 79.8008L190.119 78.2753L191.165 78.7313L190.491 77.4158C190.494 77.3937 190.488 77.3716 190.475 77.3537C190.455 77.0744 190.795 76.4226 191.172 75.6992C191.55 74.9758 192.001 74.1091 192.09 73.6102C192.24 72.7722 191.509 70.4802 191.313 69.8881C189.44 70.3587 187.494 70.4729 185.578 70.2248C183.642 69.9948 181.756 69.4522 179.994 68.618C179.672 69.1671 178.407 71.5307 178.799 74.2428V74.3216L178.744 74.3765C178.744 74.3765 175.485 77.6712 176.797 80.2091C176.78 79.6501 176.815 79.0907 176.9 78.5379C176.922 78.3949 176.966 78.2564 177.031 78.1272C177.124 77.9649 177.249 77.9052 177.406 77.9911C177.514 78.0654 177.597 78.1701 177.645 78.292C178.192 79.3711 178.317 81.6702 178.319 81.6774C178.336 81.8349 178.08 82.0713 178.001 81.6965C178.001 81.6965 177.879 79.4547 177.361 78.4352C177.339 78.3917 177.315 78.3495 177.289 78.3087C177.251 78.4015 177.222 78.4984 177.206 78.5976C177.11 79.2359 177.084 79.8826 177.127 80.5266C177.143 80.6842 177.091 80.7654 176.969 80.7654C176.847 80.7654 176.699 80.6054 176.491 80.3476L176.49 80.346C175.964 79.6937 174.899 78.3734 173.839 78.7408C174.29 79.1658 175.444 80.3094 175.409 80.8895V81.1784L175.17 81.0351C175.17 81.0351 173.927 80.2377 172.689 80.4574C173.194 80.7964 174.226 81.4529 174.654 81.4601C174.878 81.558 174.835 81.749 174.673 81.7776C174.189 81.8158 173.714 81.9294 173.265 82.1143C173.841 82.1907 175.894 82.5655 176.233 82.9714C176.233 82.9714 177.399 84.3919 178.245 83.6136C178.298 83.5491 178.706 83.0239 178.67 82.7422L178.685 82.6538C179.251 81.4744 181.39 79.8701 181.98 80.7439C181.634 80.7097 181.285 80.7513 180.957 80.8656C180.892 81.8176 180.592 82.7387 180.084 83.5465C179.575 84.3544 178.875 85.0238 178.044 85.4949C177.207 85.9675 176.267 86.2304 175.306 86.2613C174.317 86.2946 173.336 86.0778 172.453 85.631C171.019 84.9028 169.755 83.53 169.041 81.4147C169.454 84.5017 170.857 86.5382 172.749 87.7248C172.883 87.8084 173.944 88.2787 173.944 88.2787L173.939 88.2906ZM184.783 77.0338C184.526 75.9578 184.271 74.8803 184.018 73.8012H184.004C184.052 73.0849 184.322 72.2422 184.145 71.6525L183.686 73.7582V73.8274L184.474 77.1699C184.498 77.2009 184.522 77.2343 184.544 77.2677L185.691 77.984L184.572 78.1702L184.623 78.3421C184.623 78.3445 184.871 79.1729 184.57 79.7364C184.417 79.4427 184.104 78.9414 183.939 78.6477C183.882 78.6572 183.588 79.6051 182.95 79.9154C182.94 79.4809 182.924 79.0464 182.924 78.6119L182.661 78.8697C182.402 79.1039 182.079 79.2545 181.734 79.3019C182.106 78.9246 182.716 78.2609 182.689 77.8694C182.678 77.6895 182.43 77.322 182.088 76.8141L182.066 76.7807C181.373 75.7827 179.985 73.6842 179.7 71.9628C179.576 73.6603 180.967 75.7207 181.803 76.9574C182.028 77.2458 182.218 77.559 182.372 77.8909C182.398 78.2991 181.225 79.3353 181.225 79.3353C181.225 79.3353 180.957 79.5716 181.311 79.6122C181.769 79.6624 182.231 79.55 182.615 79.2947C182.632 79.5788 182.632 79.8605 182.632 80.1446C182.632 80.1446 182.603 80.3786 182.842 80.295C183.086 80.2145 183.311 80.0857 183.504 79.9163C183.697 79.7469 183.854 79.5403 183.965 79.309L184.384 80.0539C184.403 80.0897 184.474 80.3428 184.666 80.1351C185.144 79.6146 185.038 78.779 184.964 78.4209L186.159 78.2227C186.216 78.2156 186.322 78.0031 186.216 77.9315L184.783 77.0338Z" fill="url(#paint7_linear_266_34631)"/>
<path d="M179.65 83.6208C179.189 84.2775 178.587 84.8238 177.889 85.2204C177.085 85.6753 176.181 85.9248 175.257 85.9469C174.334 85.969 173.419 85.7629 172.594 85.3469C170.876 84.4707 169.409 82.6109 168.914 79.5669C168.878 79.3472 168.61 79.2422 168.601 79.5931C168.637 83.8452 170.25 86.5334 172.582 87.9946C172.963 88.2736 173.377 88.5053 173.815 88.6845C179.55 90.4393 183.421 86.8581 184.974 84.9697C184.514 86.1319 183.811 87.1826 182.912 88.0519C182.216 88.725 181.421 89.2885 180.556 89.7231C179.487 90.2582 178.333 90.604 177.146 90.7449C175.964 90.8879 174.767 90.8192 173.609 90.542C172.362 90.2507 171.195 89.6866 170.192 88.8902C169.189 88.0938 168.375 87.085 167.81 85.9366C166.178 82.5942 166.45 79.13 167.291 77.1818C167.478 76.6813 167.783 76.2333 168.18 75.8759C168.284 75.7746 168.419 75.7102 168.563 75.6926C168.707 75.6749 168.853 75.7049 168.978 75.778C169.382 76.0358 169.741 76.7712 169.953 78.1225C170.068 78.8387 170.809 80.8131 172.023 82.4748C172.718 83.4298 173.569 84.2869 174.556 84.7715C175.076 85.0407 175.652 85.1848 176.239 85.1923C176.825 85.1997 177.405 85.0704 177.932 84.8145C178.565 84.5113 179.145 84.1083 179.65 83.6208Z" fill="url(#paint8_linear_266_34631)"/>
<path fill-rule="evenodd" clip-rule="evenodd" d="M169.917 78.2274C169.701 76.869 169.341 76.1298 168.936 75.8706C168.81 75.7973 168.664 75.7672 168.519 75.785C168.375 75.8028 168.24 75.8674 168.136 75.969C167.736 76.324 167.428 76.7713 167.239 77.2722C166.394 79.2306 166.118 82.7106 167.76 86.073C169.61 89.7474 173.371 91.353 177.136 90.9066C179.312 90.6622 181.348 89.7113 182.932 88.1994C183.833 87.3264 184.537 86.2719 184.999 85.1058C183.441 86.9994 179.568 90.5994 173.796 88.8378C173.356 88.6584 172.94 88.4263 172.557 88.1466C170.212 86.6778 168.592 83.9754 168.556 79.701L168.873 79.6746C169.37 82.7346 170.839 84.5994 172.569 85.485C173.408 85.9105 174.341 86.1177 175.281 86.0874C176.195 86.0611 177.088 85.8141 177.885 85.3674C178.588 84.9694 179.193 84.4201 179.656 83.7594C179.15 84.2515 178.566 84.657 177.928 84.9594C177.399 85.2175 176.817 85.3483 176.228 85.3412C175.639 85.3341 175.06 85.1894 174.537 84.9186C173.548 84.4386 172.694 83.5674 171.996 82.6098C170.776 80.9298 170.032 78.9618 169.917 78.2346V78.2274Z" fill="#777ABA"/>
<path fill-rule="evenodd" clip-rule="evenodd" d="M177.114 55.9795C177.114 55.9795 169.809 48.1939 166.674 47.0539C166.674 47.0539 169.386 47.4283 170.86 47.8315C169.398 47.3638 167.89 47.0509 166.362 46.8979C166.521 47.8579 167.37 52.0915 170.416 54.1723C172.871 54.2565 175.211 55.2376 176.992 56.9299C177.095 56.8263 177.204 56.7286 177.318 56.6371C177.237 56.4222 177.169 56.2026 177.114 55.9795V55.9795Z" fill="#777ABA"/>
<path fill-rule="evenodd" clip-rule="evenodd" d="M176.294 57.7195C176.294 57.7195 164.951 56.9035 162.614 57.3907C163.09 56.9931 163.587 56.6221 164.104 56.2795C163.509 56.6276 162.933 57.009 162.381 57.4219C163.341 58.2811 169.264 63.0619 176.495 59.1619C176.303 58.9321 176.156 58.6684 176.061 58.3843C176.049 58.1367 176.135 57.8945 176.301 57.7099L176.294 57.7195Z" fill="#777ABA"/>
<path fill-rule="evenodd" clip-rule="evenodd" d="M173.039 60.77C173.039 60.77 168.013 66.2252 165.097 66.3788C164.989 66.6188 164.905 66.8108 164.857 66.9476C168.052 66.962 170.401 66.4676 172.11 65.7668C173.757 65.0948 174.805 64.2332 175.446 63.458C176.087 62.6828 176.289 62.0396 176.291 61.7276C176.296 61.6982 176.296 61.6682 176.291 61.6388C176.051 61.0628 176.857 60.2612 177.179 59.9588C177.066 59.8364 176.886 59.6372 176.699 59.4116C175.555 60.0425 174.323 60.4972 173.044 60.7604L173.039 60.77Z" fill="#777ABA"/>
<path fill-rule="evenodd" clip-rule="evenodd" d="M205.951 49.6796C205.951 49.6796 201.151 49.562 196.351 55.2908C196.674 55.7938 196.953 56.3237 197.186 56.8748C204.851 55.0316 205.763 50.6828 205.941 49.6748L205.951 49.6796Z" fill="#777ABA"/>
<path fill-rule="evenodd" clip-rule="evenodd" d="M205.76 56.4403C205.76 56.4403 201.219 58.5355 197.497 57.7195C197.793 58.6154 197.979 59.5437 198.051 60.4843C198.695 60.7027 202.592 61.7635 206.48 56.7619C206.249 56.6352 206.008 56.5261 205.76 56.4355V56.4403Z" fill="#777ABA"/>
<path fill-rule="evenodd" clip-rule="evenodd" d="M204.385 64.0773C204.385 64.0773 201.404 62.0733 198.087 61.4373C198.092 62.3786 197.967 63.3161 197.718 64.2237C198.282 64.5117 200.994 65.7141 204.385 64.0893V64.0773Z" fill="#777ABA"/>
<path fill-rule="evenodd" clip-rule="evenodd" d="M189.514 69.9907C177.709 69.0595 176.574 61.9963 176.54 61.7659C176.54 62.2243 176.17 63.0115 175.609 63.6859C175.482 63.8395 175.34 63.9955 175.182 64.1659C175.895 65.4211 176.895 66.4901 178.1 67.2859C180.334 68.7775 182.894 69.7086 185.564 70.0003C186.876 70.1611 188.203 70.1611 189.514 70.0003V69.9907Z" fill="#777ABA"/>
<path fill-rule="evenodd" clip-rule="evenodd" d="M178.758 72.3836C178.686 73.0278 178.696 73.6785 178.787 74.3204V74.3996L178.732 74.4548C178.732 74.4548 175.792 77.4284 176.598 79.91C176.332 78.1628 178.038 75.806 179.195 74.5196C179 73.8428 178.955 71.5412 178.986 71.1812C178.876 71.5739 178.801 71.9754 178.76 72.3812L178.758 72.3836Z" fill="#777ABA"/>
<path fill-rule="evenodd" clip-rule="evenodd" d="M179.958 72.9188C180.464 74.4284 181.535 76.0388 182.118 76.874C182.473 77.402 182.73 77.7836 182.742 77.9684C182.768 78.362 182.159 79.0292 181.782 79.4084C181.782 79.4084 183.095 78.7652 182.982 77.7044C182.982 77.7044 180.292 73.3484 180.433 72.5948C180.433 72.5948 180.844 71.3204 181.1 71.114C181.1 71.114 179.816 71.8148 179.975 72.9236L179.958 72.9188Z" fill="#777ABA"/>
<path fill-rule="evenodd" clip-rule="evenodd" d="M188.792 71.9609C189.214 72.6809 189.051 75.5993 188.85 76.2041C188.552 77.1041 187.746 78.0257 187.287 78.5009C188.199 78.1169 189.171 76.1777 189.171 76.1777C189.366 74.9177 189.558 73.0577 188.792 71.9609Z" fill="#777ABA"/>
<path fill-rule="evenodd" clip-rule="evenodd" d="M185.027 58.537C184.496 56.7652 183.103 56.4792 181.892 57.9169C181.236 58.7547 180.796 59.7273 180.605 60.7568C180.369 61.7815 180.384 62.8444 180.65 63.8625C181.181 65.6342 182.574 65.9203 183.785 64.4801C184.44 63.6401 184.881 62.666 185.072 61.6351C185.308 60.6112 185.293 59.5492 185.027 58.532V58.537ZM183.243 58.9724C183.567 59.0458 183.811 59.3647 183.944 59.8228C184.21 60.7619 183.979 62.2147 183.336 62.9968C182.694 63.7789 182.009 63.5031 181.744 62.5741C181.478 61.6452 181.693 60.1848 182.341 59.4027C182.606 59.0685 182.922 58.8964 183.243 58.9724Z" fill="#552F82"/>
<path fill-rule="evenodd" clip-rule="evenodd" d="M184.808 58.6891C184.33 57.0186 183.075 56.7489 181.986 58.1045C181.396 58.8944 180.999 59.8114 180.827 60.7821C180.615 61.7483 180.629 62.7504 180.868 63.7103C181.346 65.3808 182.6 65.6505 183.689 64.2926C184.279 63.5006 184.676 62.5822 184.848 61.6102C185.06 60.6448 185.047 59.6435 184.808 58.6844V58.6891ZM183.202 59.0996C183.494 59.1688 183.713 59.4695 183.833 59.9015C184.072 60.7869 183.864 62.1567 183.286 62.8941C182.708 63.6315 182.091 63.3714 181.852 62.4956C181.613 61.6197 181.807 60.2427 182.39 59.5053C182.629 59.1903 182.913 59.028 183.202 59.0996Z" fill="white"/>
<path fill-rule="evenodd" clip-rule="evenodd" d="M183.318 62.9372C184 62.066 184.249 60.434 183.964 59.39C183.702 58.43 183.064 58.1684 182.447 58.9532C181.763 59.8244 181.513 61.4564 181.801 62.5004C182.063 63.4604 182.699 63.7196 183.318 62.9372Z" fill="#552F82"/>
<path fill-rule="evenodd" clip-rule="evenodd" d="M193.329 58.9259C193.878 57.4512 195.033 57.3095 195.935 58.6058C196.42 59.3558 196.722 60.2065 196.815 61.0908C196.948 61.9712 196.869 62.8699 196.586 63.715C196.052 65.1871 194.881 65.3288 193.98 64.0351C193.496 63.2841 193.195 62.4338 193.099 61.5501C192.969 60.6697 193.048 59.7716 193.329 58.9259ZM194.764 59.4114C194.497 59.4508 194.273 59.7053 194.137 60.0832C193.857 60.8704 193.958 62.1038 194.438 62.8044C194.919 63.5051 195.505 63.3292 195.772 62.542C196.039 61.7548 195.951 60.524 195.471 59.8208C195.406 59.6908 195.304 59.5821 195.178 59.5076C195.051 59.4331 194.906 59.3961 194.759 59.4009L194.764 59.4114Z" fill="#552F82"/>
<path fill-rule="evenodd" clip-rule="evenodd" d="M193.508 59.1595C194.003 57.8107 195.042 57.6811 195.853 58.8667C196.29 59.5527 196.561 60.3308 196.645 61.1395C196.765 61.9447 196.694 62.7666 196.439 63.5395C195.959 64.8859 194.905 65.0155 194.094 63.8323C193.659 63.1454 193.388 62.3678 193.302 61.5595C193.185 60.7543 193.256 59.933 193.508 59.1595ZM194.8 59.6035C194.56 59.6395 194.358 59.8723 194.236 60.2179C193.984 60.9379 194.075 62.0659 194.507 62.7067C194.939 63.3475 195.467 63.1867 195.707 62.4667C195.947 61.7467 195.868 60.6211 195.436 59.9779C195.377 59.8591 195.285 59.7596 195.172 59.6915C195.058 59.6234 194.927 59.5895 194.795 59.5939L194.8 59.6035Z" fill="white"/>
<path fill-rule="evenodd" clip-rule="evenodd" d="M194.555 62.8147C194.044 62.0515 193.936 60.6883 194.233 59.8459C194.504 59.0755 195.047 58.9003 195.508 59.5891C196.021 60.3523 196.129 61.7155 195.832 62.5579C195.558 63.3283 195.018 63.5035 194.555 62.8147Z" fill="#552F82"/>
<path fill-rule="evenodd" clip-rule="evenodd" d="M185.293 66.5996C186.133 67.4372 192.426 67.3604 192.762 66.6164C191.262 70.826 185.701 69.0644 185.293 66.5996Z" fill="#552F82"/>
<path fill-rule="evenodd" clip-rule="evenodd" d="M191.478 68.0396C191.42 68.3492 188.956 69.7004 186.944 68.1236C186.944 68.1236 188.291 67.2836 191.478 68.0396Z" fill="#C3A3CD"/>
<path fill-rule="evenodd" clip-rule="evenodd" d="M191.053 64.9963C190.878 65.2202 190.734 65.4674 190.626 65.7307C190.602 65.9131 190.976 65.3275 191.48 65.2915C191.578 65.2799 191.672 65.2462 191.754 65.1931C191.795 65.1603 191.823 65.1151 191.836 65.0644C191.849 65.0137 191.844 64.9603 191.824 64.9123C191.791 64.8615 191.746 64.8194 191.694 64.7897C191.641 64.76 191.582 64.7436 191.521 64.7419C191.428 64.749 191.337 64.7753 191.255 64.8191C191.172 64.8628 191.099 64.9232 191.041 64.9963H191.053Z" fill="#552F82"/>
<path fill-rule="evenodd" clip-rule="evenodd" d="M189.078 65.7474C188.976 65.4478 188.83 65.1648 188.646 64.9074C188.59 64.828 188.519 64.7607 188.436 64.7096C188.354 64.6584 188.262 64.6245 188.166 64.6098C188.094 64.6077 188.023 64.624 187.959 64.6572C187.895 64.6904 187.841 64.7393 187.801 64.7994C187.772 64.8498 187.763 64.909 187.774 64.9659C187.786 65.0228 187.817 65.0737 187.864 65.109C187.953 65.1724 188.055 65.2135 188.164 65.229C188.725 65.2866 189.104 65.949 189.09 65.7474H189.078Z" fill="#552F82"/>
<path fill-rule="evenodd" clip-rule="evenodd" d="M183.482 57.734C183.902 57.8084 184.137 58.5068 184.005 59.294C183.873 60.0812 183.424 60.6596 183.004 60.5852C182.584 60.5108 182.358 59.81 182.478 59.0228C182.598 58.2356 183.059 57.6596 183.482 57.734Z" fill="white"/>
<path fill-rule="evenodd" clip-rule="evenodd" d="M194.706 58.5568C194.358 58.588 194.125 59.1424 194.188 59.7952C194.25 60.448 194.581 60.9448 194.929 60.9136C195.277 60.8824 195.508 60.3256 195.448 59.6752C195.388 59.0248 195.054 58.5232 194.706 58.5568Z" fill="white"/>
<path fill-rule="evenodd" clip-rule="evenodd" d="M170.406 54.5466L170.324 54.4938C168.118 54.4482 165.43 55.1514 162.375 57.4218C163.335 58.281 169.261 63.0618 176.49 59.1618C176.298 58.9324 176.151 58.6696 176.055 58.3866C175.978 58.0458 176.379 57.5418 176.763 57.1506C175.049 55.5247 172.8 54.5808 170.439 54.4962L170.406 54.5466ZM173.914 88.4394C181.242 90.6858 185.391 83.8626 185.403 83.8434C185.433 83.7959 185.481 83.7622 185.536 83.7496C185.591 83.7371 185.648 83.7466 185.696 83.7762C185.735 83.8009 185.766 83.8375 185.783 83.8807C185.799 83.924 185.802 83.9715 185.79 84.0162C185.458 85.404 184.811 86.6967 183.898 87.7938C186.814 86.3922 189.178 84.069 189.778 81.2922C189.582 81.2322 189.058 80.6274 189.027 80.5722C190.11 81.201 190.597 81.2058 191.886 81.3834L192.015 81.4026V81.5322C192.014 81.8571 192.138 82.17 192.362 82.4059C192.585 82.6419 192.891 82.7828 193.215 82.7994C194.19 82.4058 197.257 81.9714 198.181 81.8394C197.839 81.6182 197.482 81.4217 197.113 81.2514L196.82 81.1122L197.108 80.9658C197.557 80.7693 198.016 80.5963 198.483 80.4474C197.641 80.0586 196.518 80.2674 196.515 80.2674L196.203 80.3226C196.563 79.6026 197.336 79.1778 197.994 78.741C196.911 78.6498 195.291 79.4754 194.948 79.6578C194.898 79.9218 194.838 80.2866 194.662 80.4666C194.684 79.9002 194.73 79.0722 194.782 78.5682C194.226 79.221 193.069 80.4522 193.064 80.4546C193.081 80.129 193.217 79.8211 193.448 79.5906C193.734 77.5194 192.325 75.5898 191.934 75.1002C191.794 75.3858 191.641 75.6786 191.494 75.9594C191.154 76.617 190.846 77.2074 190.832 77.4282L191.691 79.1082C191.711 79.1452 191.715 79.1884 191.703 79.2284C191.691 79.2684 191.663 79.302 191.626 79.3218C191.605 79.333 191.58 79.3388 191.556 79.3388C191.531 79.3388 191.507 79.333 191.485 79.3218L190.426 78.8418C190.366 79.389 190.304 79.9362 190.244 80.4834C190.244 80.6274 190.004 80.6202 189.944 80.5386L189.224 79.0842L188.264 80.5026C188.194 80.6034 187.969 80.5194 187.974 80.4114C187.974 79.857 187.974 79.305 187.99 78.7506L186.874 78.8754C186.853 78.8764 186.832 78.8731 186.811 78.8658C186.791 78.8585 186.773 78.8472 186.757 78.8328C186.741 78.8183 186.728 78.8008 186.719 78.7813C186.71 78.7619 186.705 78.7409 186.704 78.7194C186.703 78.6973 186.706 78.6753 186.714 78.6546C186.722 78.6339 186.734 78.6151 186.75 78.5994C186.75 78.5994 188.156 77.3202 188.554 76.113C188.953 74.9058 188.794 71.9778 188.794 71.9682C189.217 72.6882 189.054 75.609 188.854 76.2138C188.557 77.1114 187.75 78.033 187.292 78.5082L188.31 78.3954C188.31 78.8922 188.31 79.3914 188.293 79.8882L189.272 78.4482C189.512 78.9282 189.752 79.4082 189.992 79.905L190.165 78.3714L191.216 78.8298L190.539 77.5074C190.542 77.4852 190.536 77.463 190.522 77.445C190.503 77.1642 190.844 76.509 191.223 75.7818C191.602 75.0546 192.056 74.1834 192.145 73.6818C192.296 72.8394 191.562 70.5354 191.365 69.9402C189.483 70.4132 187.529 70.528 185.605 70.2786C183.66 70.0475 181.766 69.502 179.996 68.6634C179.672 69.2154 178.402 71.5914 178.796 74.3178V74.397L178.741 74.4522C178.741 74.4522 175.467 77.7642 176.785 80.3154C176.768 79.7534 176.803 79.1911 176.888 78.6354C176.91 78.4917 176.955 78.3524 177.02 78.2226C177.114 78.0594 177.238 77.9994 177.397 78.0858C177.505 78.1604 177.589 78.2657 177.637 78.3882C178.186 79.473 178.311 81.7842 178.314 81.7914C178.33 81.9498 178.074 82.1874 177.994 81.8106C177.994 81.8106 177.872 79.557 177.351 78.5322C177.33 78.4885 177.306 78.4461 177.279 78.405C177.24 78.4983 177.212 78.5958 177.195 78.6954C177.099 79.3371 177.073 79.9872 177.116 80.6346C177.133 80.793 177.08 80.8746 176.958 80.8746C176.835 80.8746 176.686 80.7138 176.478 80.4546C175.95 79.7994 174.879 78.4698 173.814 78.8394C174.267 79.2666 175.426 80.4162 175.39 80.9994V81.2898L175.15 81.1458C175.15 81.1458 173.902 80.3442 172.659 80.565C173.166 80.9058 174.202 81.5658 174.632 81.573C174.858 81.6714 174.814 81.8634 174.651 81.8922C174.165 81.9306 173.688 82.0448 173.238 82.2306C173.816 82.3074 175.878 82.6842 176.218 83.0922C176.218 83.0922 177.39 84.5202 178.239 83.7378C178.292 83.673 178.702 83.145 178.666 82.8618L178.681 82.773C179.25 81.5874 181.398 79.9746 181.99 80.853C181.643 80.8187 181.293 80.8604 180.963 80.9754C180.898 81.9324 180.597 82.8583 180.086 83.6704C179.576 84.4825 178.872 85.1554 178.038 85.629C177.196 86.1041 176.253 86.3684 175.287 86.3994C174.294 86.4329 173.308 86.2149 172.422 85.7658C170.982 85.0338 169.712 83.6538 168.994 81.5274C169.41 84.6306 170.818 86.6778 172.719 87.8706C172.854 87.9546 173.919 88.4274 173.919 88.4274L173.914 88.4394ZM183.361 88.3746C182.599 89.1427 181.717 89.7815 180.75 90.2658C179.632 90.8219 178.426 91.1784 177.186 91.3194C175.947 91.4723 174.691 91.4016 173.478 91.1106C172.166 90.8023 170.938 90.2069 169.884 89.3674C168.829 88.5279 167.974 87.4651 167.379 86.2554C165.678 82.7682 165.97 79.1442 166.851 77.0994C167.068 76.5327 167.419 76.0275 167.876 75.6282C168.298 75.3042 168.745 75.2418 169.162 75.5082C169.664 75.8298 170.096 76.665 170.334 78.1482C170.442 78.837 171.157 80.7234 172.335 82.3386C172.998 83.2458 173.802 84.0618 174.735 84.5178C175.203 84.7589 175.72 84.8876 176.245 84.8939C176.771 84.9001 177.291 84.7837 177.764 84.5538C178.58 84.1794 179.444 83.481 180.361 82.3554C180.498 81.9546 180.591 81.5402 180.639 81.1194C179.662 81.6258 179.101 82.6602 178.998 82.8642C178.998 83.301 178.494 83.9346 178.491 83.937C177.452 84.9906 176.115 83.5794 175.969 83.241C175.326 82.8954 170.36 82.4106 173.996 81.681C173.379 81.3714 172.786 81.016 172.222 80.6178C172.205 80.6066 172.19 80.5922 172.179 80.5753C172.167 80.5584 172.159 80.5393 172.155 80.5193C172.151 80.4992 172.15 80.4785 172.154 80.4584C172.158 80.4382 172.166 80.419 172.177 80.4018C172.196 80.37 172.227 80.3468 172.263 80.337C173.343 79.9746 174.481 80.4138 175.026 80.685C174.687 80.0058 173.463 78.9162 173.461 78.9114C173.445 78.8994 173.432 78.8844 173.422 78.8672C173.412 78.85 173.406 78.831 173.403 78.8114C173.401 78.7917 173.402 78.7717 173.408 78.7526C173.413 78.7335 173.422 78.7157 173.434 78.7002C173.449 78.6806 173.468 78.6649 173.49 78.6546C174.55 78.057 175.566 78.8946 176.254 79.653C175.76 77.2746 178.102 74.6754 178.491 74.2626C178.117 71.505 179.372 69.1098 179.727 68.5026C179.133 68.2054 178.56 67.8661 178.014 67.4874C176.794 66.6819 175.776 65.6071 175.038 64.3458C174.214 65.0739 173.268 65.6515 172.244 66.0522C170.43 66.789 167.958 67.3002 164.598 67.2594H164.358C164.386 67.1874 164.415 67.1154 164.442 67.0434C164.442 67.029 166.232 62.505 168.661 60.8034C166.193 60.3262 163.898 59.1938 162.018 57.525L161.881 57.3954L162.03 57.2826C165.01 55.0242 167.66 54.2274 169.875 54.1626C166.626 51.633 166.018 46.7466 166.016 46.7226C166.011 46.6558 166.002 46.5893 165.99 46.5234L166.189 46.545C174.615 47.3994 177.318 51.5706 177.798 52.4394C180.263 50.8856 183.148 50.1312 186.058 50.2794C190.318 50.4858 193.662 52.497 194.602 53.2602C196.911 50.2794 201.831 49.1466 206.137 49.3194C205.786 52.2786 203.977 54.309 201.502 55.5402C205.122 55.3986 206.814 56.577 206.818 56.5818L206.958 56.6754L206.857 56.8098C204.843 59.4498 202.803 60.513 201.176 60.873C203.754 62.157 204.762 64.0194 204.776 64.0242C204.802 64.0722 204.829 64.1202 204.858 64.1682L204.709 64.2426C201.217 65.9946 198.366 64.8282 197.65 64.4826C197.437 65.15 197.126 65.7824 196.729 66.3594C195.906 67.5301 194.804 68.477 193.522 69.1146C192.927 69.4165 192.305 69.6624 191.665 69.849C191.874 70.4778 192.625 72.8274 192.454 73.7322C192.373 74.0836 192.25 74.4243 192.09 74.7474C192.222 74.8986 193.89 76.8906 193.806 79.1634C194.204 78.7218 194.665 78.2034 194.869 77.9298C194.994 77.8002 195.14 77.8938 195.154 78.0378C195.154 78.0378 195.109 78.6306 195.02 79.2378C195.699 78.8994 197.437 78.1242 198.462 78.4866C198.462 78.4866 198.702 78.6402 198.493 78.7698C198.493 78.7698 197.434 79.4466 196.911 79.8762C197.442 79.8426 198.334 79.8762 198.968 80.3274C199.153 80.457 198.922 80.6082 198.922 80.6082C198.922 80.6082 198.085 80.8818 197.564 81.0882C197.943 81.2826 198.55 81.6234 198.658 81.8562C198.658 81.8562 198.8 82.0362 198.536 82.0794C198.536 82.0794 194.494 82.5906 193.402 83.0514C193.208 83.0795 193.011 83.0687 192.821 83.0198C192.631 82.9709 192.453 82.8848 192.297 82.7664C192.14 82.6481 192.009 82.4999 191.911 82.3305C191.812 82.1611 191.748 81.9738 191.722 81.7794C191.72 81.7403 191.72 81.701 191.722 81.6618C191.427 81.6186 190.664 81.501 190.093 81.3618C189.402 84.4458 186.668 86.9778 183.373 88.3698L183.361 88.3746ZM179.65 83.745C179.187 84.4052 178.583 84.9544 177.882 85.353C177.074 85.8103 176.166 86.0612 175.238 86.0834C174.311 86.1056 173.392 85.8984 172.563 85.4802C170.838 84.5994 169.364 82.7298 168.867 79.6698C168.831 79.449 168.562 79.3434 168.553 79.6962C168.589 83.9706 170.209 86.673 172.551 88.1418C172.934 88.4223 173.35 88.6552 173.79 88.8354C179.55 90.5994 183.438 86.9994 184.998 85.101C184.535 86.2693 183.829 87.3256 182.926 88.1994C182.227 88.8761 181.429 89.4426 180.56 89.8794C179.486 90.4174 178.328 90.7649 177.135 90.9066C175.949 91.0503 174.746 90.9812 173.583 90.7026C172.33 90.4098 171.158 89.8427 170.151 89.0421C169.144 88.2415 168.326 87.2275 167.758 86.073C166.119 82.713 166.393 79.2306 167.238 77.2722C167.425 76.7691 167.731 76.3187 168.13 75.9594C168.235 75.8577 168.37 75.7929 168.515 75.7752C168.659 75.7574 168.806 75.7875 168.932 75.861C169.338 76.1202 169.698 76.8594 169.911 78.2178C170.026 78.9378 170.77 80.9226 171.99 82.593C172.688 83.553 173.542 84.4146 174.534 84.9018C175.057 85.1725 175.635 85.3173 176.224 85.3248C176.813 85.3323 177.395 85.2023 177.925 84.945C178.561 84.6403 179.143 84.2351 179.65 83.745ZM184.038 73.8738C184.292 74.9586 184.548 76.0418 184.806 77.1234L186.246 78.0258C186.351 78.0978 186.246 78.3114 186.188 78.3186L184.988 78.5178C185.062 78.8778 185.168 79.7178 184.688 80.241C184.496 80.4498 184.424 80.1954 184.405 80.1594L183.985 79.4106C183.873 79.6431 183.716 79.8508 183.522 80.0211C183.328 80.1914 183.102 80.3209 182.857 80.4018C182.617 80.4858 182.646 80.2506 182.646 80.2506C182.646 79.965 182.646 79.6818 182.629 79.3962C182.243 79.6529 181.779 79.7659 181.318 79.7154C180.963 79.6746 181.232 79.437 181.232 79.437C181.232 79.437 182.41 78.3954 182.384 77.985C182.23 77.6514 182.039 77.3365 181.813 77.0466C180.973 75.8034 179.576 73.7322 179.701 72.0258C179.986 73.7562 181.381 75.8658 182.077 76.869C182.432 77.397 182.691 77.7786 182.703 77.9634C182.73 78.357 182.118 79.0242 181.743 79.4034C182.09 79.3558 182.415 79.2044 182.674 78.969L182.938 78.7098C182.938 79.1466 182.955 79.5834 182.965 80.0202C183.606 79.7082 183.901 78.7554 183.958 78.7458C184.124 79.041 184.438 79.545 184.592 79.8402C184.894 79.2738 184.645 78.441 184.645 78.4386L184.594 78.2658L185.718 78.0786L184.566 77.3586C184.544 77.325 184.52 77.2914 184.496 77.2602L183.704 73.9002V73.8306L184.165 71.7138C184.342 72.3066 184.071 73.1538 184.023 73.8738H184.038ZM197.718 64.1754C198.284 64.4658 200.996 65.6658 204.385 64.041C204.082 63.561 202.945 62.0178 200.624 60.9762C199.773 61.1052 198.905 61.0536 198.075 60.825C198.138 61.957 198.017 63.0916 197.718 64.185V64.1754ZM198.054 60.4842C198.694 60.7026 202.592 61.7634 206.48 56.7618C206 56.4882 204.09 55.6477 200.922 55.8541L201.094 55.7658C199.895 56.3897 198.622 56.8605 197.305 57.1674C197.612 57.9528 197.831 58.7698 197.958 59.6034C198.003 59.8962 198.037 60.1914 198.061 60.4842H198.054ZM197.178 56.8698C204.841 55.0266 205.618 50.6826 205.796 49.6698C198.356 49.4298 195.38 52.725 194.816 53.4594C195.836 54.4134 196.641 55.5735 197.178 56.8626V56.8698ZM169.158 60.8802C171.356 61.1874 173.936 60.921 176.701 59.4162C176.886 59.6418 177.068 59.841 177.181 59.9634C176.857 60.2562 176.055 61.0578 176.29 61.6434C176.295 61.6728 176.295 61.7028 176.29 61.7322C176.29 62.0418 176.05 62.6922 175.434 63.465C174.817 64.2378 173.754 65.0994 172.1 65.7738C170.389 66.4722 168.039 66.9738 164.845 66.9522C165.248 65.9922 166.971 62.1522 169.148 60.8898L169.158 60.8802ZM176.991 56.9298C175.21 55.2375 172.871 54.2564 170.415 54.1722C167.372 52.0914 166.518 47.865 166.362 46.8978C175.412 47.8794 177.572 52.7202 177.579 52.7322L177.656 52.8978L177.798 52.7994C180.239 51.2182 183.117 50.4464 186.022 50.5938C190.424 50.8074 193.81 52.9698 194.499 53.6034C196.278 55.1778 197.29 57.4074 197.638 59.6394C198.015 62.0778 197.593 64.5282 196.453 66.1674C195.658 67.2887 194.597 68.1957 193.366 68.8074C191.13 69.9474 188.35 70.2474 185.619 69.933C182.888 69.6186 180.212 68.6538 178.179 67.233C176.975 66.4365 175.975 65.3677 175.261 64.113C175.411 63.9605 175.554 63.8003 175.688 63.633C176.358 62.8338 176.598 62.085 176.598 61.725C176.6 61.6539 176.588 61.5831 176.564 61.5162C176.36 61.017 177.486 60.1002 177.488 60.0978L177.625 59.9874L177.502 59.8626C177.502 59.8626 176.475 58.8042 176.358 58.317C176.259 57.8826 177.596 56.8146 177.601 56.8122L177.692 56.7378L177.649 56.6274C177.649 56.6274 177.272 55.7034 177.358 55.377C177.445 55.0506 178.731 54.6426 178.734 54.6426C177.908 54.2634 177.075 55.1994 177.054 55.2978C176.965 55.6434 177.212 56.3634 177.315 56.637C177.238 56.7018 177.121 56.8026 176.986 56.9298H176.991Z" fill="#552F82"/>
<rect x="159.499" y="78.8999" width="55.5" height="17.25" fill="#4A7196"/>
<path d="M186.498 78.8716L202.126 95.6158L215.521 88.9181V111.244L185.382 123.523L156.358 112.36V88.9181L168.637 95.6158L186.498 78.8716Z" fill="white"/>
<path d="M138.498 77.7555L167.521 92.2671L186.498 78.8717L155.242 67.709L138.498 77.7555Z" fill="white"/>
<path d="M234.498 77.7555L203.242 92.2671L186.498 78.8717L215.521 67.709L234.498 77.7555Z" fill="white"/>
<path d="M181.28 100.87C181.313 100.782 181.358 100.72 181.417 100.684C181.476 100.649 181.56 100.631 181.671 100.631C181.791 100.631 181.876 100.66 181.925 100.719C181.974 100.777 181.998 100.898 181.998 101.08C181.998 101.399 182.001 101.697 182.008 101.973C182.014 102.247 182.018 102.366 182.018 102.33C182.018 102.483 181.992 102.587 181.939 102.642C181.887 102.694 181.795 102.72 181.661 102.72C181.446 102.72 181.306 102.567 181.241 102.261C181.218 102.17 181.201 102.1 181.187 102.052C181.126 101.807 180.978 101.609 180.743 101.456C180.509 101.3 180.234 101.221 179.918 101.221C179.342 101.221 178.88 101.433 178.531 101.856C178.183 102.276 178.009 102.841 178.009 103.551C178.009 104.26 178.185 104.827 178.536 105.25C178.891 105.67 179.358 105.88 179.937 105.88C180.126 105.88 180.318 105.854 180.514 105.802C180.709 105.746 180.901 105.665 181.09 105.557C181.178 105.512 181.298 105.435 181.451 105.328C181.604 105.217 181.713 105.162 181.778 105.162C181.879 105.162 181.964 105.196 182.032 105.264C182.104 105.33 182.14 105.411 182.14 105.509C182.14 105.606 182.101 105.701 182.022 105.792C181.948 105.88 181.806 105.989 181.598 106.119C181.324 106.298 181.049 106.43 180.772 106.514C180.496 106.599 180.204 106.641 179.898 106.641C179.094 106.641 178.43 106.358 177.906 105.792C177.382 105.222 177.12 104.495 177.12 103.609C177.12 102.733 177.385 102.006 177.916 101.427C178.447 100.847 179.114 100.557 179.918 100.557C180.133 100.557 180.351 100.583 180.572 100.635C180.797 100.688 181.033 100.766 181.28 100.87ZM187.584 104.532C187.584 104.288 187.608 104.13 187.657 104.058C187.706 103.987 187.799 103.951 187.936 103.951C188.053 103.951 188.141 103.982 188.199 104.044C188.258 104.102 188.287 104.195 188.287 104.322V104.532V106.138C188.287 106.252 188.256 106.342 188.194 106.407C188.132 106.469 188.046 106.5 187.936 106.5H183.604H183.375C183.258 106.5 183.17 106.47 183.111 106.412C183.053 106.353 183.023 106.265 183.023 106.148C183.023 106.018 183.058 105.93 183.126 105.885C183.198 105.836 183.357 105.811 183.604 105.811H184.215V101.412H183.604C183.364 101.412 183.206 101.387 183.131 101.339C183.059 101.287 183.023 101.194 183.023 101.06C183.023 100.94 183.053 100.852 183.111 100.797C183.173 100.738 183.268 100.709 183.395 100.709H183.604H185.807H186.036C186.153 100.709 186.243 100.738 186.305 100.797C186.367 100.855 186.397 100.943 186.397 101.06C186.397 101.194 186.36 101.287 186.285 101.339C186.214 101.387 186.054 101.412 185.807 101.412H184.986V105.811H187.584V104.532ZM193.233 105.811C193.484 105.811 193.644 105.836 193.712 105.885C193.784 105.93 193.819 106.018 193.819 106.148C193.819 106.282 193.784 106.374 193.712 106.427C193.644 106.475 193.484 106.5 193.233 106.5H190.27H190.04C189.923 106.5 189.833 106.47 189.771 106.412C189.71 106.353 189.679 106.265 189.679 106.148C189.679 106.018 189.715 105.93 189.786 105.885C189.858 105.836 190.019 105.811 190.27 105.811H191.373V101.412H190.27C190.025 101.412 189.866 101.387 189.791 101.339C189.716 101.287 189.679 101.194 189.679 101.06C189.679 100.94 189.71 100.852 189.771 100.797C189.833 100.738 189.926 100.709 190.05 100.709H190.27H193.233H193.463C193.58 100.709 193.668 100.738 193.727 100.797C193.788 100.855 193.819 100.943 193.819 101.06C193.819 101.194 193.782 101.287 193.707 101.339C193.635 101.387 193.478 101.412 193.233 101.412H192.13V105.811H193.233Z" fill="#0D133D"/>
<g filter="url(#filter1_ii_266_34631)">
<path fill-rule="evenodd" clip-rule="evenodd" d="M184.92 21.0001C196.78 20.9842 208.378 24.4836 218.251 31.0561C228.123 37.6287 235.826 46.9795 240.386 57.9276C244.947 68.8756 246.161 80.9297 243.874 92.5672C241.588 104.205 235.904 114.904 227.54 123.312C219.176 131.721 208.508 137.462 196.883 139.811C185.258 142.16 173.198 141.011 162.225 136.509C151.253 132.008 141.861 124.355 135.235 114.518C128.61 104.682 125.048 93.1018 125 81.2419C124.969 73.3491 126.494 65.5275 129.49 58.2253C132.486 50.9231 136.894 44.2837 142.46 38.6876C148.026 33.0915 154.642 28.6486 161.928 25.6135C169.214 22.5784 177.027 21.0106 184.92 21.0001Z" fill="#8BD4F3" fill-opacity="0.15"/>
</g>
<g filter="url(#filter2_ii_266_34631)">
<path fill-rule="evenodd" clip-rule="evenodd" d="M379.92 21.0001C391.78 20.9842 403.378 24.4836 413.251 31.0561C423.123 37.6287 430.826 46.9795 435.386 57.9276C439.947 68.8756 441.161 80.9297 438.874 92.5672C436.588 104.205 430.904 114.904 422.54 123.312C414.176 131.721 403.508 137.462 391.883 139.811C380.258 142.16 368.198 141.011 357.225 136.509C346.253 132.008 336.861 124.355 330.235 114.518C323.61 104.682 320.048 93.1018 320 81.2419C319.969 73.3491 321.494 65.5275 324.49 58.2253C327.486 50.9231 331.894 44.2837 337.46 38.6876C343.026 33.0915 349.642 28.6486 356.928 25.6135C364.214 22.5784 372.027 21.0106 379.92 21.0001Z" fill="#8BD4F3" fill-opacity="0.4"/>
</g>
<path fill-rule="evenodd" clip-rule="evenodd" d="M372.862 29.6998C373.804 30.4215 374.51 31.4063 374.893 32.5297C375.275 33.6531 375.316 34.8647 375.009 36.0111C374.703 37.1576 374.064 38.1875 373.172 38.9707C372.28 39.7538 371.177 40.2549 370 40.4107C368.824 40.5665 367.628 40.3699 366.563 39.8459C365.498 39.3218 364.613 38.4939 364.019 37.4666C363.425 36.4394 363.148 35.259 363.225 34.0748C363.302 32.8906 363.728 31.7558 364.45 30.8137V30.8137C364.924 30.1865 365.517 29.6593 366.195 29.2623C366.874 28.8653 367.624 28.6064 368.403 28.5006C369.182 28.3947 369.974 28.444 370.733 28.6456C371.493 28.8472 372.205 29.1971 372.829 29.6751L372.862 29.6998Z" fill="white" fill-opacity="0.7"/>
<path fill-rule="evenodd" clip-rule="evenodd" d="M353.338 38.7711C353.976 39.2595 354.381 39.997 354.464 40.8215C354.548 41.646 354.303 42.4899 353.784 43.1676V43.1676C353.486 43.4673 353.136 43.7078 352.755 43.8754C352.374 44.043 351.968 44.1344 351.561 44.1445C351.154 44.1545 350.754 44.0829 350.383 43.9339C350.013 43.7848 349.679 43.5612 349.402 43.2757C348.932 42.8072 348.639 42.1829 348.57 41.5022C348.501 40.8214 348.66 40.1233 349.021 39.5187C349.534 38.8489 350.274 38.3952 351.081 38.2554C351.889 38.1156 352.699 38.3008 353.338 38.7711Z" fill="white" fill-opacity="0.7"/>
<path d="M336.466 51.6977L366.605 45L378.884 57.2791L348.745 66.2093L336.466 51.6977Z" fill="white"/>
<path d="M332 76.256L361.023 90.7676L380 77.3722L348.744 66.2095L332 76.256Z" fill="white"/>
<path d="M427.999 76.256L396.743 90.7676L379.999 77.3722L409.022 66.2095L427.999 76.256Z" fill="white"/>
<path d="M422.419 53.9302L392.279 45L378.884 57.2791L409.024 66.2093L422.419 53.9302Z" fill="white"/>
<path d="M380.001 77.3723L395.629 94.1165L409.024 87.4188V109.744L378.885 122.023L349.861 110.861V87.4188L362.14 94.1165L380.001 77.3723Z" fill="white"/>
<path d="M369.787 99.082C369.787 98.7305 369.818 98.5091 369.88 98.418C369.945 98.3268 370.082 98.2812 370.29 98.2812C370.492 98.2812 370.625 98.3203 370.69 98.3984C370.756 98.4733 370.788 98.654 370.788 98.9404C370.788 99.2204 370.757 99.3945 370.695 99.4629C370.637 99.528 370.502 99.5605 370.29 99.5605C370.082 99.5605 369.945 99.5296 369.88 99.4678C369.818 99.4059 369.787 99.2773 369.787 99.082ZM370.69 104.312H372.258C372.385 104.312 372.478 104.339 372.536 104.395C372.598 104.447 372.629 104.531 372.629 104.648C372.629 104.782 372.6 104.875 372.541 104.927C372.486 104.976 372.381 105 372.229 105H368.439C368.309 105 368.212 104.971 368.146 104.912C368.081 104.854 368.049 104.766 368.049 104.648C368.049 104.535 368.083 104.45 368.151 104.395C368.22 104.339 368.322 104.312 368.459 104.312H369.948V101.182H368.996C368.863 101.182 368.76 101.152 368.688 101.094C368.62 101.032 368.586 100.944 368.586 100.83C368.586 100.716 368.618 100.632 368.684 100.576C368.749 100.518 368.846 100.488 368.977 100.488H370.407C370.495 100.488 370.563 100.506 370.612 100.542C370.664 100.578 370.69 100.627 370.69 100.688V104.312ZM374.426 104.312V101.182H374.333C374.112 101.182 373.959 101.156 373.874 101.104C373.793 101.051 373.752 100.96 373.752 100.83C373.752 100.71 373.786 100.623 373.854 100.571C373.923 100.516 374.034 100.488 374.187 100.488H374.416H374.885C374.973 100.488 375.041 100.506 375.09 100.542C375.139 100.578 375.163 100.627 375.163 100.688V101.021C375.401 100.799 375.635 100.636 375.866 100.532C376.101 100.425 376.343 100.371 376.594 100.371C377.085 100.371 377.471 100.524 377.751 100.83C378.034 101.136 378.176 101.559 378.176 102.1V104.312H378.405C378.568 104.312 378.685 104.339 378.757 104.395C378.828 104.447 378.864 104.531 378.864 104.648C378.864 104.775 378.825 104.867 378.747 104.922C378.672 104.974 378.537 105 378.342 105H377.263C377.054 105 376.921 104.976 376.862 104.927C376.804 104.878 376.774 104.785 376.774 104.648C376.774 104.521 376.809 104.434 376.877 104.385C376.945 104.336 377.074 104.312 377.263 104.312H377.434V102.28C377.434 101.899 377.347 101.61 377.175 101.411C377.002 101.209 376.752 101.108 376.423 101.108C376.091 101.108 375.798 101.221 375.544 101.445C375.29 101.67 375.163 101.948 375.163 102.28V104.312H375.334C375.529 104.312 375.661 104.336 375.729 104.385C375.798 104.434 375.832 104.521 375.832 104.648C375.832 104.785 375.803 104.878 375.744 104.927C375.686 104.976 375.542 105 375.314 105H374.426H374.162C374.029 105 373.928 104.972 373.859 104.917C373.794 104.858 373.762 104.769 373.762 104.648C373.762 104.518 373.799 104.43 373.874 104.385C373.952 104.336 374.102 104.312 374.323 104.312H374.426ZM381.799 99.082C381.799 98.7305 381.83 98.5091 381.892 98.418C381.957 98.3268 382.093 98.2812 382.302 98.2812C382.504 98.2812 382.637 98.3203 382.702 98.3984C382.767 98.4733 382.8 98.654 382.8 98.9404C382.8 99.2204 382.769 99.3945 382.707 99.4629C382.648 99.528 382.513 99.5605 382.302 99.5605C382.093 99.5605 381.957 99.5296 381.892 99.4678C381.83 99.4059 381.799 99.2773 381.799 99.082ZM382.702 104.312H384.27C384.396 104.312 384.489 104.339 384.548 104.395C384.61 104.447 384.641 104.531 384.641 104.648C384.641 104.782 384.611 104.875 384.553 104.927C384.497 104.976 384.393 105 384.24 105H380.451C380.321 105 380.223 104.971 380.158 104.912C380.093 104.854 380.061 104.766 380.061 104.648C380.061 104.535 380.095 104.45 380.163 104.395C380.231 104.339 380.334 104.312 380.471 104.312H381.96V101.182H381.008C380.874 101.182 380.772 101.152 380.7 101.094C380.632 101.032 380.598 100.944 380.598 100.83C380.598 100.716 380.63 100.632 380.695 100.576C380.76 100.518 380.858 100.488 380.988 100.488H382.419C382.507 100.488 382.575 100.506 382.624 100.542C382.676 100.578 382.702 100.627 382.702 100.688V104.312ZM389.587 100.762C389.746 100.762 389.862 100.789 389.934 100.845C390.008 100.9 390.046 100.988 390.046 101.108C390.046 101.222 390.012 101.309 389.943 101.367C389.875 101.423 389.772 101.45 389.636 101.45H387.658V103.081C387.658 103.615 387.727 103.966 387.863 104.136C388.003 104.305 388.241 104.39 388.576 104.39C388.872 104.39 389.227 104.303 389.641 104.131C390.054 103.958 390.31 103.872 390.407 103.872C390.498 103.872 390.575 103.905 390.637 103.97C390.702 104.035 390.734 104.115 390.734 104.209C390.734 104.316 390.694 104.411 390.612 104.492C390.534 104.57 390.399 104.647 390.207 104.722C389.888 104.849 389.6 104.941 389.343 105C389.089 105.059 388.85 105.088 388.625 105.088C388.244 105.088 387.923 105.028 387.663 104.907C387.406 104.784 387.214 104.601 387.087 104.36C387.022 104.246 386.975 104.111 386.945 103.955C386.919 103.799 386.906 103.558 386.906 103.232V103.081V101.45H386.076C385.939 101.45 385.84 101.424 385.778 101.372C385.716 101.317 385.686 101.229 385.686 101.108C385.686 100.975 385.728 100.884 385.812 100.835C385.897 100.786 386.078 100.762 386.354 100.762H386.906V99.7607V99.502C386.906 99.362 386.936 99.2594 386.994 99.1943C387.056 99.126 387.15 99.0918 387.277 99.0918C387.421 99.0918 387.52 99.1325 387.575 99.2139C387.631 99.2952 387.658 99.4808 387.658 99.7705V100.762H389.587Z" fill="#0D133D"/>
<g filter="url(#filter3_ii_266_34631)">
<path fill-rule="evenodd" clip-rule="evenodd" d="M379.92 21.0001C391.78 20.9842 403.378 24.4836 413.251 31.0561C423.123 37.6287 430.826 46.9795 435.386 57.9276C439.947 68.8756 441.161 80.9297 438.874 92.5672C436.588 104.205 430.904 114.904 422.54 123.312C414.176 131.721 403.508 137.462 391.883 139.811C380.258 142.16 368.198 141.011 357.225 136.509C346.253 132.008 336.861 124.355 330.235 114.518C323.61 104.682 320.048 93.1018 320 81.2419C319.969 73.3491 321.494 65.5275 324.49 58.2253C327.486 50.9231 331.894 44.2837 337.46 38.6876C343.026 33.0915 349.642 28.6486 356.928 25.6135C364.214 22.5784 372.027 21.0106 379.92 21.0001Z" fill="#8BD4F3" fill-opacity="0.15"/>
</g>
<g filter="url(#filter4_ii_266_34631)">
<path fill-rule="evenodd" clip-rule="evenodd" d="M573.92 21.0001C585.78 20.9842 597.378 24.4836 607.251 31.0561C617.123 37.6287 624.826 46.9795 629.386 57.9276C633.947 68.8756 635.161 80.9297 632.874 92.5672C630.588 104.205 624.904 114.904 616.54 123.312C608.176 131.721 597.508 137.462 585.883 139.811C574.258 142.16 562.198 141.011 551.225 136.509C540.253 132.008 530.861 124.355 524.235 114.518C517.61 104.682 514.048 93.1018 514 81.2419C513.969 73.3491 515.494 65.5275 518.49 58.2253C521.486 50.9231 525.894 44.2837 531.46 38.6876C537.026 33.0915 543.642 28.6486 550.928 25.6135C558.214 22.5784 566.027 21.0106 573.92 21.0001Z" fill="#8BD4F3" fill-opacity="0.4"/>
</g>
<path fill-rule="evenodd" clip-rule="evenodd" d="M566.862 29.6998C567.804 30.4215 568.51 31.4063 568.893 32.5297C569.275 33.6531 569.316 34.8647 569.009 36.0111C568.703 37.1576 568.064 38.1875 567.172 38.9707C566.28 39.7538 565.177 40.2549 564 40.4107C562.824 40.5665 561.628 40.3699 560.563 39.8459C559.498 39.3218 558.613 38.4939 558.019 37.4666C557.425 36.4394 557.148 35.259 557.225 34.0748C557.302 32.8906 557.728 31.7558 558.45 30.8137V30.8137C558.924 30.1865 559.517 29.6593 560.195 29.2623C560.874 28.8653 561.624 28.6064 562.403 28.5006C563.182 28.3947 563.974 28.444 564.733 28.6456C565.493 28.8472 566.205 29.1971 566.829 29.6751L566.862 29.6998Z" fill="white" fill-opacity="0.7"/>
<path fill-rule="evenodd" clip-rule="evenodd" d="M547.338 38.7711C547.976 39.2595 548.381 39.997 548.464 40.8215C548.548 41.646 548.303 42.4899 547.784 43.1676V43.1676C547.486 43.4673 547.136 43.7078 546.755 43.8754C546.374 44.043 545.968 44.1344 545.561 44.1445C545.154 44.1545 544.754 44.0829 544.383 43.9339C544.013 43.7848 543.679 43.5612 543.402 43.2757C542.932 42.8072 542.639 42.1829 542.57 41.5022C542.501 40.8214 542.66 40.1233 543.021 39.5187C543.534 38.8489 544.274 38.3952 545.081 38.2554C545.889 38.1156 546.699 38.3008 547.338 38.7711Z" fill="white" fill-opacity="0.7"/>
<path d="M530.467 51.6977L560.606 45L572.885 57.2791L542.746 66.2093L530.467 51.6977Z" fill="white"/>
<path d="M526 76.256L555.023 90.7676L574 77.3722L542.744 66.2095L526 76.256Z" fill="white"/>
<path d="M622 76.256L590.744 90.7676L574 77.3722L603.023 66.2095L622 76.256Z" fill="white"/>
<path d="M616.419 53.9302L586.279 45L572.884 57.2791L603.024 66.2093L616.419 53.9302Z" fill="white"/>
<path d="M574.001 77.3726L589.629 94.1167L603.024 87.4191V109.745L572.885 122.024L543.861 110.861V87.4191L556.14 94.1167L574.001 77.3726Z" fill="white"/>
<path d="M563.1 99.9119L563.051 100.927C563.048 100.97 563.044 101.01 563.041 101.05C563.041 101.085 563.041 101.123 563.041 101.162C563.041 101.279 563.01 101.365 562.948 101.421C562.89 101.473 562.797 101.499 562.67 101.499C562.549 101.499 562.462 101.468 562.406 101.406C562.354 101.341 562.328 101.235 562.328 101.089V100.898L562.392 99.5505C562.395 99.4333 562.426 99.3471 562.484 99.2917C562.546 99.2364 562.641 99.2087 562.768 99.2087H565.561C565.753 99.2087 565.897 99.2462 565.995 99.321C566.093 99.3927 566.142 99.4985 566.142 99.6384C566.142 99.71 566.125 99.7865 566.093 99.8679C566.063 99.946 566.02 100.031 565.961 100.122L563.08 104.311H565.341L565.399 103.169C565.399 103.165 565.399 103.159 565.399 103.149C565.416 102.775 565.539 102.588 565.77 102.588C565.891 102.588 565.979 102.622 566.034 102.69C566.09 102.755 566.117 102.861 566.117 103.008C566.117 103.008 566.116 103.029 566.112 103.071C566.109 103.11 566.107 103.149 566.107 103.188L566.039 104.668C566.036 104.788 566.005 104.874 565.946 104.927C565.888 104.975 565.795 105 565.668 105H562.602C562.462 105 562.348 104.959 562.26 104.878C562.172 104.796 562.128 104.691 562.128 104.56C562.128 104.482 562.147 104.396 562.187 104.302C562.226 104.207 562.286 104.1 562.367 103.979L565.17 99.9119H563.1ZM568.983 106.25H570.155C570.279 106.25 570.372 106.279 570.434 106.338C570.495 106.396 570.526 106.484 570.526 106.601C570.526 106.728 570.495 106.818 570.434 106.87C570.375 106.922 570.269 106.948 570.116 106.948H567.963C567.833 106.948 567.733 106.919 567.665 106.86C567.6 106.802 567.567 106.715 567.567 106.601C567.567 106.471 567.608 106.38 567.689 106.328C567.774 106.276 567.929 106.25 568.153 106.25H568.246V101.181H568.153C567.929 101.181 567.774 101.155 567.689 101.103C567.608 101.051 567.567 100.96 567.567 100.83C567.567 100.716 567.6 100.631 567.665 100.576C567.733 100.517 567.833 100.488 567.963 100.488H568.705C568.803 100.488 568.873 100.504 568.915 100.537C568.961 100.569 568.983 100.62 568.983 100.688V101.162C569.205 100.934 569.449 100.763 569.716 100.649C569.986 100.535 570.276 100.478 570.585 100.478C571.239 100.478 571.786 100.7 572.226 101.142C572.665 101.585 572.885 102.14 572.885 102.807C572.885 103.449 572.676 103.976 572.26 104.389C571.843 104.803 571.311 105.01 570.663 105.01C570.318 105.01 570.001 104.949 569.711 104.829C569.421 104.705 569.179 104.529 568.983 104.302V106.25ZM570.497 104.292C570.95 104.292 571.321 104.15 571.61 103.867C571.9 103.58 572.045 103.211 572.045 102.759C572.045 102.316 571.898 101.951 571.605 101.665C571.316 101.375 570.946 101.23 570.497 101.23C570.048 101.23 569.68 101.373 569.394 101.66C569.107 101.946 568.964 102.313 568.964 102.759C568.964 103.208 569.105 103.576 569.389 103.862C569.675 104.149 570.045 104.292 570.497 104.292ZM575.36 103.13V104.57C575.36 104.7 575.333 104.804 575.277 104.883C575.225 104.961 575.157 105 575.072 105H574.169C574.042 105 573.946 104.97 573.881 104.912C573.816 104.853 573.783 104.765 573.783 104.648C573.783 104.518 573.821 104.43 573.895 104.385C573.974 104.336 574.138 104.311 574.389 104.311H574.623V99.3113H574.423C574.143 99.3113 573.962 99.2869 573.881 99.238C573.799 99.186 573.759 99.0932 573.759 98.9597C573.759 98.8425 573.791 98.7546 573.856 98.696C573.925 98.6375 574.022 98.6082 574.149 98.6082H575.082C575.17 98.6082 575.238 98.6261 575.287 98.6619C575.336 98.6977 575.36 98.7465 575.36 98.8083V102.309L576.771 101.128C576.664 101.082 576.584 101.032 576.532 100.976C576.483 100.921 576.459 100.856 576.459 100.781C576.459 100.683 576.495 100.61 576.566 100.561C576.638 100.512 576.742 100.488 576.879 100.488H578.202C578.326 100.488 578.42 100.516 578.485 100.571C578.55 100.626 578.583 100.709 578.583 100.82C578.583 101.015 578.425 101.129 578.109 101.162C578.048 101.168 577.999 101.175 577.963 101.181C577.829 101.198 577.683 101.25 577.523 101.338C577.364 101.422 577.203 101.536 577.04 101.679L576.332 102.3L578.183 104.311H578.603C578.742 104.311 578.842 104.337 578.9 104.389C578.962 104.441 578.993 104.528 578.993 104.648C578.993 104.762 578.959 104.85 578.891 104.912C578.826 104.97 578.729 105 578.603 105H577.279C577.136 105 577.032 104.975 576.967 104.927C576.902 104.878 576.869 104.8 576.869 104.692C576.869 104.604 576.9 104.529 576.962 104.468C577.027 104.402 577.123 104.35 577.25 104.311L575.8 102.729L575.36 103.13ZM582.118 101.211C581.692 101.211 581.343 101.343 581.073 101.606C580.803 101.87 580.668 102.212 580.668 102.632C580.668 103.045 580.803 103.385 581.073 103.652C581.343 103.916 581.692 104.048 582.118 104.048C582.541 104.048 582.888 103.916 583.158 103.652C583.432 103.385 583.568 103.045 583.568 102.632C583.568 102.218 583.432 101.878 583.158 101.611C582.888 101.344 582.541 101.211 582.118 101.211ZM584.237 104.741C584.237 105.197 584.215 105.519 584.169 105.708C584.123 105.9 584.045 106.067 583.935 106.211C583.752 106.452 583.497 106.634 583.168 106.758C582.839 106.885 582.452 106.948 582.006 106.948C581.635 106.948 581.363 106.912 581.19 106.841C581.021 106.769 580.937 106.655 580.937 106.499C580.937 106.398 580.977 106.308 581.059 106.23C581.143 106.155 581.242 106.118 581.356 106.118C581.444 106.118 581.579 106.129 581.762 106.152C581.944 106.178 582.082 106.191 582.177 106.191C582.659 106.191 583 106.08 583.202 105.859C583.404 105.638 583.505 105.259 583.505 104.721V104.131C583.306 104.362 583.087 104.531 582.846 104.638C582.605 104.746 582.328 104.8 582.016 104.8C581.407 104.8 580.902 104.598 580.502 104.194C580.105 103.787 579.906 103.273 579.906 102.651C579.906 102.026 580.111 101.509 580.521 101.098C580.932 100.685 581.439 100.478 582.045 100.478C582.296 100.478 582.54 100.525 582.777 100.62C583.018 100.711 583.261 100.851 583.505 101.04V100.688C583.505 100.62 583.526 100.569 583.568 100.537C583.614 100.504 583.684 100.488 583.778 100.488H584.516C584.646 100.488 584.743 100.517 584.809 100.576C584.874 100.631 584.906 100.716 584.906 100.83C584.906 100.96 584.866 101.051 584.784 101.103C584.703 101.155 584.55 101.181 584.325 101.181H584.237V104.741Z" fill="#0D133D"/>
<g filter="url(#filter5_ii_266_34631)">
<path fill-rule="evenodd" clip-rule="evenodd" d="M573.92 21.0001C585.78 20.9842 597.378 24.4836 607.251 31.0561C617.123 37.6287 624.826 46.9795 629.386 57.9276C633.947 68.8756 635.161 80.9297 632.874 92.5672C630.588 104.205 624.904 114.904 616.54 123.312C608.176 131.721 597.508 137.462 585.883 139.811C574.258 142.16 562.198 141.011 551.225 136.509C540.253 132.008 530.861 124.355 524.235 114.518C517.61 104.682 514.048 93.1018 514 81.2419C513.969 73.3491 515.494 65.5275 518.49 58.2253C521.486 50.9231 525.894 44.2837 531.46 38.6876C537.026 33.0915 543.642 28.6486 550.928 25.6135C558.214 22.5784 566.027 21.0106 573.92 21.0001Z" fill="#8BD4F3" fill-opacity="0.15"/>
</g>
<path d="M292.709 81.9584H283.959V90.7084H281.042V81.9584H272.292V79.0417H281.042V70.2917H283.959V79.0417H292.709V81.9584Z" fill="white"/>
<path d="M486.709 80.9584H477.959V89.7084H475.042V80.9584H466.292V78.0417H475.042V69.2917H477.959V78.0417H486.709V80.9584Z" fill="white"/>
<defs>
<filter id="filter0_ii_266_34631" x="121" y="19" width="128" height="124" filterUnits="userSpaceOnUse" color-interpolation-filters="sRGB">
<feFlood flood-opacity="0" result="BackgroundImageFix"/>
<feBlend mode="normal" in="SourceGraphic" in2="BackgroundImageFix" result="shape"/>
<feColorMatrix in="SourceAlpha" type="matrix" values="0 0 0 0 0 0 0 0 0 0 0 0 0 0 0 0 0 0 127 0" result="hardAlpha"/>
<feOffset dx="4" dy="2"/>
<feGaussianBlur stdDeviation="2"/>
<feComposite in2="hardAlpha" operator="arithmetic" k2="-1" k3="1"/>
<feColorMatrix type="matrix" values="0 0 0 0 0.596078 0 0 0 0 0.74902 0 0 0 0 0.917647 0 0 0 0.3 0"/>
<feBlend mode="normal" in2="shape" result="effect1_innerShadow_266_34631"/>
<feColorMatrix in="SourceAlpha" type="matrix" values="0 0 0 0 0 0 0 0 0 0 0 0 0 0 0 0 0 0 127 0" result="hardAlpha"/>
<feOffset dx="-4" dy="-2"/>
<feGaussianBlur stdDeviation="2"/>
<feComposite in2="hardAlpha" operator="arithmetic" k2="-1" k3="1"/>
<feColorMatrix type="matrix" values="0 0 0 0 0.584314 0 0 0 0 0.713726 0 0 0 0 0.968627 0 0 0 0.3 0"/>
<feBlend mode="normal" in2="effect1_innerShadow_266_34631" result="effect2_innerShadow_266_34631"/>
</filter>
<filter id="filter1_ii_266_34631" x="121" y="19" width="128" height="124" filterUnits="userSpaceOnUse" color-interpolation-filters="sRGB">
<feFlood flood-opacity="0" result="BackgroundImageFix"/>
<feBlend mode="normal" in="SourceGraphic" in2="BackgroundImageFix" result="shape"/>
<feColorMatrix in="SourceAlpha" type="matrix" values="0 0 0 0 0 0 0 0 0 0 0 0 0 0 0 0 0 0 127 0" result="hardAlpha"/>
<feOffset dx="4" dy="2"/>
<feGaussianBlur stdDeviation="2"/>
<feComposite in2="hardAlpha" operator="arithmetic" k2="-1" k3="1"/>
<feColorMatrix type="matrix" values="0 0 0 0 0.596078 0 0 0 0 0.74902 0 0 0 0 0.917647 0 0 0 0.3 0"/>
<feBlend mode="normal" in2="shape" result="effect1_innerShadow_266_34631"/>
<feColorMatrix in="SourceAlpha" type="matrix" values="0 0 0 0 0 0 0 0 0 0 0 0 0 0 0 0 0 0 127 0" result="hardAlpha"/>
<feOffset dx="-4" dy="-2"/>
<feGaussianBlur stdDeviation="2"/>
<feComposite in2="hardAlpha" operator="arithmetic" k2="-1" k3="1"/>
<feColorMatrix type="matrix" values="0 0 0 0 0.584314 0 0 0 0 0.713726 0 0 0 0 0.968627 0 0 0 0.3 0"/>
<feBlend mode="normal" in2="effect1_innerShadow_266_34631" result="effect2_innerShadow_266_34631"/>
</filter>
<filter id="filter2_ii_266_34631" x="316" y="19" width="128" height="124" filterUnits="userSpaceOnUse" color-interpolation-filters="sRGB">
<feFlood flood-opacity="0" result="BackgroundImageFix"/>
<feBlend mode="normal" in="SourceGraphic" in2="BackgroundImageFix" result="shape"/>
<feColorMatrix in="SourceAlpha" type="matrix" values="0 0 0 0 0 0 0 0 0 0 0 0 0 0 0 0 0 0 127 0" result="hardAlpha"/>
<feOffset dx="4" dy="2"/>
<feGaussianBlur stdDeviation="2"/>
<feComposite in2="hardAlpha" operator="arithmetic" k2="-1" k3="1"/>
<feColorMatrix type="matrix" values="0 0 0 0 0.596078 0 0 0 0 0.74902 0 0 0 0 0.917647 0 0 0 0.3 0"/>
<feBlend mode="normal" in2="shape" result="effect1_innerShadow_266_34631"/>
<feColorMatrix in="SourceAlpha" type="matrix" values="0 0 0 0 0 0 0 0 0 0 0 0 0 0 0 0 0 0 127 0" result="hardAlpha"/>
<feOffset dx="-4" dy="-2"/>
<feGaussianBlur stdDeviation="2"/>
<feComposite in2="hardAlpha" operator="arithmetic" k2="-1" k3="1"/>
<feColorMatrix type="matrix" values="0 0 0 0 0.584314 0 0 0 0 0.713726 0 0 0 0 0.968627 0 0 0 0.3 0"/>
<feBlend mode="normal" in2="effect1_innerShadow_266_34631" result="effect2_innerShadow_266_34631"/>
</filter>
<filter id="filter3_ii_266_34631" x="316" y="19" width="128" height="124" filterUnits="userSpaceOnUse" color-interpolation-filters="sRGB">
<feFlood flood-opacity="0" result="BackgroundImageFix"/>
<feBlend mode="normal" in="SourceGraphic" in2="BackgroundImageFix" result="shape"/>
<feColorMatrix in="SourceAlpha" type="matrix" values="0 0 0 0 0 0 0 0 0 0 0 0 0 0 0 0 0 0 127 0" result="hardAlpha"/>
<feOffset dx="4" dy="2"/>
<feGaussianBlur stdDeviation="2"/>
<feComposite in2="hardAlpha" operator="arithmetic" k2="-1" k3="1"/>
<feColorMatrix type="matrix" values="0 0 0 0 0.596078 0 0 0 0 0.74902 0 0 0 0 0.917647 0 0 0 0.3 0"/>
<feBlend mode="normal" in2="shape" result="effect1_innerShadow_266_34631"/>
<feColorMatrix in="SourceAlpha" type="matrix" values="0 0 0 0 0 0 0 0 0 0 0 0 0 0 0 0 0 0 127 0" result="hardAlpha"/>
<feOffset dx="-4" dy="-2"/>
<feGaussianBlur stdDeviation="2"/>
<feComposite in2="hardAlpha" operator="arithmetic" k2="-1" k3="1"/>
<feColorMatrix type="matrix" values="0 0 0 0 0.584314 0 0 0 0 0.713726 0 0 0 0 0.968627 0 0 0 0.3 0"/>
<feBlend mode="normal" in2="effect1_innerShadow_266_34631" result="effect2_innerShadow_266_34631"/>
</filter>
<filter id="filter4_ii_266_34631" x="510" y="19" width="128" height="124" filterUnits="userSpaceOnUse" color-interpolation-filters="sRGB">
<feFlood flood-opacity="0" result="BackgroundImageFix"/>
<feBlend mode="normal" in="SourceGraphic" in2="BackgroundImageFix" result="shape"/>
<feColorMatrix in="SourceAlpha" type="matrix" values="0 0 0 0 0 0 0 0 0 0 0 0 0 0 0 0 0 0 127 0" result="hardAlpha"/>
<feOffset dx="4" dy="2"/>
<feGaussianBlur stdDeviation="2"/>
<feComposite in2="hardAlpha" operator="arithmetic" k2="-1" k3="1"/>
<feColorMatrix type="matrix" values="0 0 0 0 0.596078 0 0 0 0 0.74902 0 0 0 0 0.917647 0 0 0 0.3 0"/>
<feBlend mode="normal" in2="shape" result="effect1_innerShadow_266_34631"/>
<feColorMatrix in="SourceAlpha" type="matrix" values="0 0 0 0 0 0 0 0 0 0 0 0 0 0 0 0 0 0 127 0" result="hardAlpha"/>
<feOffset dx="-4" dy="-2"/>
<feGaussianBlur stdDeviation="2"/>
<feComposite in2="hardAlpha" operator="arithmetic" k2="-1" k3="1"/>
<feColorMatrix type="matrix" values="0 0 0 0 0.584314 0 0 0 0 0.713726 0 0 0 0 0.968627 0 0 0 0.3 0"/>
<feBlend mode="normal" in2="effect1_innerShadow_266_34631" result="effect2_innerShadow_266_34631"/>
</filter>
<filter id="filter5_ii_266_34631" x="510" y="19" width="128" height="124" filterUnits="userSpaceOnUse" color-interpolation-filters="sRGB">
<feFlood flood-opacity="0" result="BackgroundImageFix"/>
<feBlend mode="normal" in="SourceGraphic" in2="BackgroundImageFix" result="shape"/>
<feColorMatrix in="SourceAlpha" type="matrix" values="0 0 0 0 0 0 0 0 0 0 0 0 0 0 0 0 0 0 127 0" result="hardAlpha"/>
<feOffset dx="4" dy="2"/>
<feGaussianBlur stdDeviation="2"/>
<feComposite in2="hardAlpha" operator="arithmetic" k2="-1" k3="1"/>
<feColorMatrix type="matrix" values="0 0 0 0 0.596078 0 0 0 0 0.74902 0 0 0 0 0.917647 0 0 0 0.3 0"/>
<feBlend mode="normal" in2="shape" result="effect1_innerShadow_266_34631"/>
<feColorMatrix in="SourceAlpha" type="matrix" values="0 0 0 0 0 0 0 0 0 0 0 0 0 0 0 0 0 0 127 0" result="hardAlpha"/>
<feOffset dx="-4" dy="-2"/>
<feGaussianBlur stdDeviation="2"/>
<feComposite in2="hardAlpha" operator="arithmetic" k2="-1" k3="1"/>
<feColorMatrix type="matrix" values="0 0 0 0 0.584314 0 0 0 0 0.713726 0 0 0 0 0.968627 0 0 0 0.3 0"/>
<feBlend mode="normal" in2="effect1_innerShadow_266_34631" result="effect2_innerShadow_266_34631"/>
</filter>
<linearGradient id="paint0_linear_266_34631" x1="184.396" y1="91.0324" x2="184.396" y2="46.3538" gradientUnits="userSpaceOnUse">
<stop stop-color="#7BD5F5"/>
<stop offset="1" stop-color="#DCCFE5"/>
</linearGradient>
<linearGradient id="paint1_linear_266_34631" x1="184.396" y1="91.0324" x2="184.396" y2="46.3538" gradientUnits="userSpaceOnUse">
<stop stop-color="#7BD5F5"/>
<stop offset="1" stop-color="#DCCFE5"/>
</linearGradient>
<linearGradient id="paint2_linear_266_34631" x1="184.396" y1="91.0324" x2="184.396" y2="46.3538" gradientUnits="userSpaceOnUse">
<stop stop-color="#7BD5F5"/>
<stop offset="1" stop-color="#DCCFE5"/>
</linearGradient>
<linearGradient id="paint3_linear_266_34631" x1="184.396" y1="91.0324" x2="184.396" y2="46.3538" gradientUnits="userSpaceOnUse">
<stop stop-color="#7BD5F5"/>
<stop offset="1" stop-color="#DCCFE5"/>
</linearGradient>
<linearGradient id="paint4_linear_266_34631" x1="184.396" y1="91.0324" x2="184.396" y2="46.3538" gradientUnits="userSpaceOnUse">
<stop stop-color="#7BD5F5"/>
<stop offset="1" stop-color="#DCCFE5"/>
</linearGradient>
<linearGradient id="paint5_linear_266_34631" x1="184.396" y1="91.0324" x2="184.396" y2="46.3538" gradientUnits="userSpaceOnUse">
<stop stop-color="#7BD5F5"/>
<stop offset="1" stop-color="#DCCFE5"/>
</linearGradient>
<linearGradient id="paint6_linear_266_34631" x1="184.396" y1="91.0324" x2="184.396" y2="46.3538" gradientUnits="userSpaceOnUse">
<stop stop-color="#7BD5F5"/>
<stop offset="1" stop-color="#DCCFE5"/>
</linearGradient>
<linearGradient id="paint7_linear_266_34631" x1="184.396" y1="91.0324" x2="184.396" y2="46.3538" gradientUnits="userSpaceOnUse">
<stop stop-color="#7BD5F5"/>
<stop offset="1" stop-color="#DCCFE5"/>
</linearGradient>
<linearGradient id="paint8_linear_266_34631" x1="184.396" y1="91.0324" x2="184.396" y2="46.3538" gradientUnits="userSpaceOnUse">
<stop stop-color="#7BD5F5"/>
<stop offset="1" stop-color="#DCCFE5"/>
</linearGradient>
</defs>
</svg>
