<svg width="150" height="64" viewBox="0 0 150 64" fill="none" xmlns="http://www.w3.org/2000/svg">
<g clip-path="url(#clip0_2_38671)">
<path fill-rule="evenodd" clip-rule="evenodd" d="M12.715 12.7667L12.6066 12.6967C9.67868 12.6362 6.11033 13.5689 2.05452 16.5802C3.32893 17.7199 11.1952 24.0609 20.7915 18.8881C20.5376 18.5838 20.342 18.2352 20.2149 17.8599C20.1129 17.4079 20.645 16.7394 21.1548 16.2205C18.8793 14.064 15.8939 12.812 12.7596 12.6998L12.715 12.7667ZM17.3729 57.7209C27.0529 60.686 32.5552 51.7375 32.6238 51.6259L32.6245 51.6249C32.6645 51.5619 32.7277 51.5172 32.8005 51.5005C32.8732 51.4838 32.9497 51.4965 33.0132 51.5358C33.0653 51.5685 33.1056 51.6171 33.128 51.6744C33.1504 51.7317 33.1537 51.7947 33.1374 51.8541C32.6971 53.6948 31.838 55.4094 30.6268 56.8646C34.4978 55.0055 37.6361 51.9241 38.4326 48.2411C38.1713 48.1615 37.4768 47.3593 37.4354 47.2861C38.8723 48.1201 39.519 48.1265 41.2299 48.362L41.402 48.3875V48.5594C41.4006 48.9904 41.5653 49.4053 41.8619 49.7183C42.1584 50.0312 42.5642 50.2181 42.995 50.2402C44.2705 49.7254 48.2471 49.158 49.5338 48.9744C49.5521 48.9718 49.5697 48.9693 49.5869 48.9669C49.1335 48.6735 48.6597 48.4129 48.1691 48.187L47.7804 48.0023L48.1627 47.8081C48.7589 47.5475 49.3683 47.318 49.9883 47.1206C48.87 46.6049 47.379 46.8818 47.3758 46.8818L46.9616 46.955C47.4395 46 48.4654 45.4366 49.3384 44.8573C47.9015 44.7363 45.7509 45.8313 45.2953 46.0733C45.2284 46.4234 45.1487 46.9073 44.9162 47.146C44.9448 46.3948 45.0054 45.2965 45.0755 44.6281C44.3363 45.4939 42.8006 47.1269 42.7943 47.1301C42.8161 46.6982 42.9978 46.2898 43.304 45.9841C43.6832 43.237 41.813 40.6776 41.2936 40.0282C41.1089 40.407 40.9049 40.7954 40.7106 41.1678C40.7052 41.1783 40.6997 41.1888 40.6943 41.1992C40.2484 42.0588 39.8501 42.8267 39.8313 43.116L40.9719 45.3443C40.9978 45.3933 41.0034 45.4506 40.9873 45.5037C40.9712 45.5567 40.9347 45.6013 40.8858 45.6276C40.8567 45.6424 40.8245 45.6501 40.7918 45.6501C40.7592 45.6501 40.727 45.6424 40.6979 45.6276L39.2928 44.9909C39.2132 45.7167 39.1303 46.4425 39.0507 47.1683C39.0507 47.3593 38.7321 47.3498 38.6524 47.2415L37.6966 45.3125L36.4222 47.1938C36.3298 47.3275 36.0303 47.2161 36.0367 47.0728C36.0367 46.3375 36.0367 45.6053 36.059 44.87L34.5775 45.0355C34.549 45.0368 34.5206 45.0325 34.4938 45.0227C34.4671 45.013 34.4425 44.9981 34.4214 44.9789C34.4004 44.9597 34.3834 44.9365 34.3714 44.9108C34.3593 44.885 34.3525 44.857 34.3513 44.8286C34.3497 44.7993 34.3543 44.77 34.3647 44.7426C34.3751 44.7152 34.3912 44.6903 34.4118 44.6694C34.4118 44.6694 36.2788 42.9728 36.8077 41.3716C37.3366 39.7704 37.1263 35.8868 37.1263 35.8741C37.6871 36.829 37.4704 40.7031 37.206 41.5053C36.8109 42.6958 35.7404 43.9182 35.1319 44.5485L36.4827 44.3989C36.4827 45.0578 36.4827 45.7199 36.4604 46.3789L37.7603 44.4689C38.0789 45.1055 38.3975 45.7422 38.7161 46.4011L38.9455 44.367L40.341 44.975L39.4426 43.2211C39.4458 43.1916 39.4378 43.1621 39.4203 43.1383C39.3948 42.7658 39.8472 41.8968 40.3506 40.9323C40.854 39.9677 41.4561 38.8122 41.574 38.1469C41.7747 37.0296 40.7998 33.9736 40.5386 33.1842C38.0405 33.8116 35.4465 33.9639 32.8921 33.633C30.3104 33.3265 27.7958 32.6029 25.4463 31.4907C25.0162 32.2228 23.3308 35.3743 23.8533 38.9905V39.0955L23.78 39.1687C23.78 39.1687 19.4343 43.5617 21.1834 46.9455C21.1612 46.2001 21.207 45.4542 21.3204 44.7172C21.3497 44.5266 21.4088 44.3418 21.4957 44.1697C21.6199 43.9532 21.7856 43.8736 21.9959 43.9882C22.1397 44.0872 22.2507 44.2269 22.3145 44.3893C23.0441 45.8282 23.2097 48.8936 23.2129 48.9032C23.2352 49.1133 22.8943 49.4284 22.7892 48.9287C22.7892 48.9287 22.6267 45.9396 21.9353 44.5803C21.9066 44.5224 21.8747 44.466 21.8398 44.4116C21.7882 44.5354 21.7508 44.6646 21.7282 44.7968C21.6008 45.6479 21.5656 46.5102 21.6231 47.3689C21.6454 47.5789 21.5753 47.6872 21.4128 47.6872C21.2503 47.6872 21.0528 47.4739 20.7756 47.1301C20.7751 47.1294 20.7745 47.1287 20.774 47.1281C20.0725 46.2583 18.6526 44.4979 17.2391 44.9878C17.8413 45.5544 19.3801 47.0792 19.3323 47.8527V48.2379L19.0137 48.0469C19.0137 48.0469 17.357 46.9837 15.7066 47.2765C16.3789 47.7286 17.7553 48.604 18.3256 48.6135C18.6251 48.744 18.5677 48.9987 18.3511 49.0369C17.7059 49.0878 17.0727 49.2392 16.4745 49.4857C17.2423 49.5876 19.9791 50.0874 20.4315 50.6285C20.4315 50.6285 21.9863 52.5226 23.1142 51.4848C23.1843 51.3989 23.7291 50.6986 23.6813 50.3229L23.7004 50.2052C24.4555 48.6326 27.307 46.4935 28.0939 47.6585C27.633 47.613 27.1676 47.6684 26.7303 47.8209C26.6437 49.0902 26.2436 50.3183 25.5659 51.3954C24.8882 52.4725 23.9539 53.3651 22.8465 53.9932C21.7299 54.6234 20.4771 54.974 19.1953 55.0151C17.8767 55.0595 16.5682 54.7704 15.3912 54.1747C13.4796 53.2038 11.7942 51.3734 10.8416 48.553C11.3928 52.669 13.263 55.3843 15.7863 56.9664C15.9647 57.0778 17.3793 57.7049 17.3793 57.7049L17.3729 57.7209ZM29.9132 57.6349C28.9018 58.6537 27.731 59.501 26.4468 60.1433C24.9631 60.8809 23.362 61.3538 21.7155 61.5408C20.0713 61.7436 18.4041 61.6498 16.7931 61.2638C15.0512 60.8549 13.4218 60.0652 12.0219 58.9517C10.6221 57.8382 9.48667 56.4285 8.69738 54.8241C6.43849 50.1988 6.82719 45.392 7.99646 42.6799C8.28358 41.9282 8.79197 41.3293 9.39819 40.7997C9.95893 40.3699 10.4438 40.4463 10.9982 40.7997C11.6641 41.2262 12.1228 42.196 12.4382 44.1633C12.5816 45.0769 13.5625 47.6173 15.1268 49.7597C16.0061 50.963 17.1117 52.1949 18.3511 52.7997C18.9714 53.1194 19.7813 53.2714 20.4793 53.2797C21.1773 53.288 22.152 53.2613 22.6394 52.7997C23.7227 52.3031 24.9811 51.2526 26.1982 49.7597C26.3799 49.228 26.2362 48.57 26.3002 48.0119C25.0035 48.6835 24.2579 50.0555 24.1209 50.3261C24.1209 50.9055 23.4519 51.7459 23.4487 51.749C22.0691 53.1465 20.2945 51.2747 20.1002 50.8259C19.2463 50.3675 12.7314 49.9274 17.5582 48.9597C16.7392 48.549 15.8753 47.8747 15.1268 47.3466C15.104 47.3317 15.0843 47.3126 15.0689 47.2901C15.0535 47.2677 15.0745 47.258 15.0689 47.2314C15.0633 47.2048 15.0639 47.2581 15.0689 47.2314C15.0739 47.2047 15.1119 47.1906 15.1268 47.1678C15.1527 47.1256 15.5904 47.0527 15.6382 47.0397C17.0782 46.8797 18.275 47.32 18.9982 47.6797C18.549 46.7788 16.8122 45.1261 16.809 45.1197C16.7881 45.1038 16.8222 45.1425 16.809 45.1197C16.7959 45.0969 16.7615 45.0507 16.7582 45.0246C16.7549 44.9985 16.7511 44.985 16.7582 44.9597C16.7418 44.9803 16.7653 44.9344 16.7582 44.9597C16.7771 44.9337 16.8891 44.8134 16.9182 44.7997C18.5182 44.4116 19.6838 45.3938 20.5982 46.3997C19.9419 43.2451 22.9621 39.5872 23.4782 39.0397C22.9812 35.3821 24.7667 32.1651 25.2382 31.3597C24.4488 30.9654 23.54 30.4332 22.8147 29.9309C21.1958 28.8625 19.8441 27.4369 18.864 25.764C17.7701 26.7297 16.5148 27.4958 15.1555 28.0273C12.7468 29.0046 9.46522 29.6826 5.00478 29.6285H4.68617C4.72441 29.533 4.76264 29.4375 4.79769 29.342C4.79769 29.3229 7.17446 23.3224 10.3987 21.0655C7.12196 20.4325 4.07592 18.9306 1.5798 16.7171L1.39819 16.5452L1.59573 16.3956C5.55277 13.4002 9.07015 12.3433 12.0109 12.2574C7.69697 8.90219 6.89091 2.42104 6.88772 2.38921C6.88054 2.3006 6.86884 2.21242 6.85267 2.125L7.11711 2.15365C18.3033 3.28689 21.8907 8.81942 22.5279 9.97177C25.8007 7.91079 29.6307 6.91019 33.4942 7.10682C39.1494 7.38058 43.5876 10.0482 44.8365 11.0604C47.9015 7.10682 54.4328 5.60432 60.1486 5.83351C59.6834 9.75849 57.2811 12.4515 53.9963 14.0846C58.8009 13.8967 61.047 15.4597 61.0534 15.4661L61.2382 15.5902L61.1044 15.7685C58.4313 19.2701 55.5583 20.6422 53.3982 21.1197C56.82 22.8227 58.3582 25.3597 58.3582 25.3597C58.1982 25.4744 58.3932 25.4234 58.3582 25.3597L58.2529 25.6271C53.3982 27.725 49.9245 26.3105 48.975 25.8521C48.6916 26.7373 48.1871 27.6694 47.6593 28.4347C46.5666 29.9874 45.1036 31.2434 43.4028 32.0891C42.6128 32.4895 41.7873 32.8156 40.9368 33.0632C41.214 33.8972 42.2112 37.0137 41.985 38.2138C41.8763 38.6798 41.7138 39.1317 41.5007 39.5603C41.676 39.7608 43.9561 42.6356 43.8446 45.6501C44.3735 45.0644 45.0245 44.3626 45.2953 43.9997C45.461 43.8278 45.5391 43.8087 45.5582 43.9997C45.5582 43.9997 45.5161 44.9543 45.3982 45.7597C46.2998 45.3108 48.6406 44.2104 50.0011 44.6911C50.0011 44.6911 50.2782 44.7236 50.0011 44.8955C50.0011 44.8955 48.475 45.9899 47.7804 46.5597C48.4845 46.5151 49.8371 46.5221 50.6782 47.1206C50.9235 47.2925 50.5182 47.3597 50.5182 47.3597C50.5182 47.3597 49.4496 47.8859 48.7582 48.1597C49.2616 48.4175 50.0548 48.8109 50.1982 49.1197C50.1982 49.1197 50.4089 49.2279 50.0584 49.2852C50.0584 49.2852 44.6931 49.9632 43.2435 50.5744C42.986 50.6116 42.7236 50.5974 42.4716 50.5325C42.2196 50.4676 41.983 50.3534 41.7756 50.1964C41.5681 50.0395 41.3939 49.8429 41.263 49.6182C41.1322 49.3935 41.1122 49.2174 41.0782 48.9597C41.0782 48.9597 41.2382 48.7997 41.0782 48.7997C40.6863 48.7424 39.6082 48.518 38.85 48.3334C37.9324 52.4239 34.3035 55.7822 29.9291 57.6285L29.9132 57.6349ZM24.9876 51.4944C24.3723 52.37 23.5703 53.0984 22.6394 53.6272C21.5674 54.2337 20.3621 54.5665 19.1305 54.5959C17.8989 54.6254 16.679 54.3505 15.5792 53.7959C13.2885 52.6276 11.3322 50.1479 10.6727 46.0892C10.6249 45.7963 10.2681 45.6563 10.2554 46.1242C10.3031 51.7936 12.4537 55.378 15.5633 57.3261C16.072 57.6981 16.624 58.0071 17.2073 58.2461C24.8537 60.5858 30.0151 55.8109 32.086 53.2929C31.4723 54.8425 30.535 56.2435 29.3365 57.4025C28.4084 58.3001 27.3492 59.0514 26.1951 59.6308C24.7699 60.3444 23.2316 60.8053 21.6486 60.9933C20.0732 61.1839 18.4764 61.0922 16.9333 60.7227C15.27 60.3343 13.7138 59.5821 12.3767 58.5203C11.0395 57.4584 9.95483 56.1134 9.20078 54.5822C7.02472 50.1256 7.38793 45.5066 8.50941 42.9091C8.75836 42.2418 9.16496 41.6444 9.69461 41.1678C9.83332 41.0329 10.0125 40.947 10.2047 40.9235C10.3969 40.8999 10.5915 40.9399 10.7587 41.0373C11.2972 41.3811 11.7751 42.3616 12.0586 44.1633C12.2116 45.1183 13.1992 47.7508 14.8177 49.9664C15.7449 51.2397 16.8791 52.3825 18.1949 53.0287C18.8891 53.3877 19.6575 53.5798 20.4391 53.5897C21.2206 53.5997 21.9937 53.4272 22.6968 53.086C23.541 52.6818 24.3145 52.1444 24.9876 51.4944ZM30.8116 38.4016C31.1493 39.8404 31.4892 41.2771 31.8311 42.7117L33.7428 43.9086C33.8829 44.0041 33.7428 44.2874 33.6663 44.297L32.0733 44.5612C32.172 45.0387 32.3122 46.1528 31.675 46.8468C31.4201 47.1237 31.3246 46.7863 31.2991 46.7386L30.7415 45.7454C30.5931 46.0538 30.3841 46.3292 30.1268 46.5551C29.8695 46.7809 29.5693 46.9527 29.2441 47.0601C28.9255 47.1715 28.9637 46.8595 28.9637 46.8595C28.9637 46.4807 28.9637 46.1051 28.9414 45.7263C28.4291 46.0667 27.8134 46.2166 27.2018 46.1497C26.7303 46.0955 27.0871 45.7804 27.0871 45.7804C27.0871 45.7804 28.6515 44.3989 28.6164 43.8545C28.4122 43.412 28.1578 42.9944 27.8582 42.6099C26.7431 40.9609 24.8888 38.2138 25.0545 35.9505C25.4336 38.2456 27.2847 41.0437 28.2086 42.3743C28.2187 42.3892 28.2287 42.4041 28.2386 42.4188C28.6947 43.0961 29.0246 43.586 29.0402 43.8259C29.0752 44.3479 28.2628 45.2329 27.7658 45.7358C28.2265 45.6727 28.6574 45.4718 29.0019 45.1597L29.3524 44.8159C29.3524 45.3952 29.3747 45.9746 29.3875 46.5539C30.2381 46.1401 30.63 44.8764 30.7065 44.8636C30.9263 45.2552 31.3437 45.9236 31.5476 46.3152C31.949 45.5639 31.6177 44.4593 31.6177 44.4562L31.5508 44.227L33.0418 43.9787L31.5125 43.0237C31.4839 42.9791 31.452 42.9346 31.4201 42.8932L30.3688 38.4366V38.3443L30.9805 35.5366C31.2162 36.3229 30.8562 37.4466 30.7925 38.4016H30.8116ZM48.972 25.538C48.973 25.5385 48.974 25.539 48.975 25.5395C49.7336 25.9274 53.3302 27.5119 57.8228 25.3597C57.4213 24.7231 55.9111 22.6762 52.8303 21.2947C51.7008 21.4657 50.548 21.3973 49.4467 21.0941C49.5298 22.5917 49.3705 24.0928 48.975 25.5395C48.974 25.5433 48.973 25.547 48.972 25.5507V25.538ZM49.418 20.6421C50.2687 20.9318 55.4428 22.3388 60.6042 15.7048C59.967 15.3419 57.6603 14.2692 53.4547 14.5429V14.3838C51.8622 15.2112 50.1721 15.8358 48.424 16.2428C48.8314 17.2845 49.122 18.3682 49.2906 19.4738C49.3511 19.8622 49.3957 20.2537 49.4276 20.6421H49.418ZM48.2551 15.8481C58.4281 13.4033 59.4604 7.64161 59.6962 6.29827C49.8195 5.97994 45.8688 10.3506 45.1201 11.3247C46.4738 12.59 47.5425 14.1287 48.2551 15.8385V15.8481ZM11.0582 21.1673C13.9766 21.5748 17.4016 21.2215 21.0719 19.2255C21.3172 19.5248 21.5594 19.789 21.7091 19.9513C21.279 20.3397 20.2149 21.4029 20.5271 22.1796C20.5335 22.2186 20.5335 22.2584 20.5271 22.2974C20.5271 22.708 20.2085 23.5707 19.3897 24.5957C18.5709 25.6207 17.1595 26.7635 14.9643 27.658C12.6927 28.5844 9.57354 29.2497 5.33294 29.221C5.86819 27.9477 8.15576 22.8545 11.0455 21.1801L11.0582 21.1673ZM21.4574 15.9277C21.4564 15.9267 21.4553 15.9257 21.4543 15.9247C19.0903 13.6818 15.9859 12.3817 12.7277 12.2701C8.68783 9.51019 7.5536 3.90445 7.34651 2.62159C19.361 3.92355 22.2284 10.3442 22.238 10.3601L22.34 10.5798L22.5279 10.4493C25.7693 8.35194 29.5897 7.32833 33.4465 7.52383C39.2896 7.80714 43.7851 10.6753 44.6995 11.5157C47.0604 13.6039 48.4049 16.5611 48.8668 19.5216C49.367 22.7558 48.8063 26.0059 47.2929 28.1801C46.2374 29.6673 44.8298 30.8703 43.1957 31.6817C40.2263 33.1937 36.5369 33.5917 32.9112 33.1746C29.2855 32.7576 25.7331 31.478 23.0345 29.5935C21.4359 28.537 20.1087 27.1193 19.1603 25.4552C19.3602 25.2529 19.5495 25.0404 19.7274 24.8186C20.6163 23.7585 20.9349 22.7653 20.9349 22.2879C20.9377 22.1935 20.9226 22.0996 20.8903 22.0109C20.6195 21.3488 22.1138 20.1328 22.1169 20.1296L22.2985 19.9832L22.1361 19.8176C22.1361 19.8176 20.7724 18.4138 20.6163 17.7676C20.4857 17.1914 22.2603 15.7749 22.2667 15.7717L22.3877 15.673L22.3304 15.5266C22.3304 15.5266 21.8302 14.301 21.9449 13.8681C22.0596 13.4352 23.7673 12.894 23.7705 12.894C22.6745 12.3911 21.5689 13.6325 21.5403 13.763C21.4224 14.2214 21.7505 15.1764 21.8875 15.5393C21.7862 15.6247 21.6313 15.7574 21.4543 15.9247C21.4532 15.9257 21.4521 15.9267 21.4511 15.9277H21.4574Z" fill="url(#paint0_linear_2_38671)"/>
<path d="M12.7277 12.2701C15.9859 12.3817 19.0903 13.6818 21.4543 15.9247C21.6313 15.7574 21.7862 15.6247 21.8875 15.5393C21.7505 15.1764 21.4224 14.2214 21.5403 13.763C21.5689 13.6325 22.6745 12.3911 23.7705 12.894C23.7673 12.894 22.0596 13.4352 21.9449 13.8681C21.8302 14.301 22.3304 15.5266 22.3304 15.5266L22.3877 15.673L22.2667 15.7717C22.2603 15.7749 20.4857 17.1914 20.6163 17.7676C20.7724 18.4138 22.1361 19.8176 22.1361 19.8176L22.2985 19.9832L22.1169 20.1296C22.1138 20.1328 20.6195 21.3488 20.8903 22.0109C20.9226 22.0996 20.9377 22.1935 20.9349 22.2879C20.9349 22.7653 20.6163 23.7585 19.7274 24.8186C19.5495 25.0404 19.3602 25.2529 19.1603 25.4552C20.1087 27.1193 21.4359 28.537 23.0345 29.5935C25.7331 31.478 29.2855 32.7576 32.9112 33.1746C36.5369 33.5917 40.2263 33.1937 43.1957 31.6817C44.8298 30.8703 46.2374 29.6673 47.2929 28.1801C48.8063 26.0059 49.367 22.7558 48.8668 19.5216C48.4049 16.5611 47.0604 13.6039 44.6995 11.5157C43.7851 10.6753 39.2896 7.80714 33.4465 7.52383C29.5897 7.32833 25.7693 8.35194 22.5279 10.4493L22.34 10.5798L22.238 10.3601C22.2284 10.3442 19.361 3.92355 7.34651 2.62159C7.5536 3.90445 8.68783 9.51019 12.7277 12.2701Z" fill="url(#paint1_linear_2_38671)"/>
<path d="M12.715 12.7667L12.6066 12.6967C9.67868 12.6362 6.11033 13.5689 2.05452 16.5802C3.32893 17.7199 11.1952 24.0609 20.7915 18.8881C20.5376 18.5838 20.342 18.2352 20.2149 17.8599C20.1129 17.4079 20.645 16.7394 21.1548 16.2205C18.8793 14.064 15.8939 12.812 12.7596 12.6998L12.715 12.7667Z" fill="url(#paint2_linear_2_38671)"/>
<path d="M11.0582 21.1673C13.9766 21.5748 17.4016 21.2215 21.0719 19.2255C21.3172 19.5248 21.5594 19.789 21.7091 19.9513C21.279 20.3397 20.2149 21.4029 20.5271 22.1796C20.5335 22.2186 20.5335 22.2584 20.5271 22.2974C20.5271 22.708 20.2085 23.5707 19.3897 24.5957C18.5709 25.6207 17.1595 26.7635 14.9643 27.658C12.6927 28.5844 9.57354 29.2497 5.33294 29.221C5.86819 27.9477 8.15576 22.8545 11.0455 21.1801L11.0582 21.1673Z" fill="url(#paint3_linear_2_38671)"/>
<path d="M48.2551 15.8481C58.4281 13.4033 59.4604 7.64161 59.6962 6.29827C49.8195 5.97994 45.8688 10.3506 45.1201 11.3247C46.4738 12.59 47.5425 14.1287 48.2551 15.8385V15.8481Z" fill="url(#paint4_linear_2_38671)"/>
<path d="M49.418 20.6421C50.2687 20.9318 55.4428 22.3388 60.6042 15.7048C59.967 15.3419 57.6603 14.2692 53.4547 14.5429V14.3838C51.8622 15.2112 50.1721 15.8358 48.424 16.2428C48.8314 17.2845 49.122 18.3682 49.2906 19.4738C49.3511 19.8622 49.3957 20.2537 49.4276 20.6421H49.418Z" fill="url(#paint5_linear_2_38671)"/>
<path d="M48.975 25.5395C49.7336 25.9274 53.3302 27.5119 57.8228 25.3597C57.4213 24.7231 55.9111 22.6762 52.8303 21.2947C51.7008 21.4657 50.548 21.3973 49.4467 21.0941C49.5298 22.5917 49.3705 24.0928 48.975 25.5395Z" fill="url(#paint6_linear_2_38671)"/>
<path fill-rule="evenodd" clip-rule="evenodd" d="M17.3729 57.7209C27.0529 60.686 32.5552 51.7375 32.6238 51.6259L32.6245 51.6249C32.6645 51.5619 32.7277 51.5172 32.8005 51.5005C32.8732 51.4838 32.9497 51.4965 33.0132 51.5358C33.0653 51.5685 33.1056 51.6171 33.128 51.6744C33.1504 51.7317 33.1537 51.7947 33.1374 51.8541C32.6971 53.6948 31.838 55.4094 30.6268 56.8646C34.4978 55.0055 37.6361 51.9241 38.4326 48.2411C38.1713 48.1615 37.4768 47.3593 37.4354 47.2861C38.8723 48.1201 39.519 48.1265 41.2299 48.362L41.402 48.3875V48.5594C41.4006 48.9904 41.5653 49.4053 41.8619 49.7183C42.1584 50.0312 42.5642 50.2181 42.995 50.2402C44.2705 49.7254 48.2471 49.158 49.5338 48.9744L49.5869 48.9669C49.1335 48.6735 48.6597 48.4129 48.1691 48.187L47.7804 48.0023L48.1627 47.8081C48.7589 47.5475 49.3683 47.318 49.9883 47.1206C48.87 46.6049 47.379 46.8818 47.3758 46.8818L46.9616 46.955C47.4395 46 48.4654 45.4366 49.3384 44.8573C47.9015 44.7363 45.7509 45.8313 45.2953 46.0733C45.2284 46.4234 45.1487 46.9073 44.9162 47.146C44.9448 46.3948 45.0054 45.2965 45.0755 44.6281C44.3363 45.4939 42.8006 47.1269 42.7943 47.1301C42.8161 46.6982 42.9978 46.2898 43.304 45.9841C43.6832 43.237 41.813 40.6776 41.2936 40.0282C41.1089 40.407 40.9049 40.7954 40.7106 41.1678L40.6943 41.1992C40.2484 42.0588 39.8501 42.8267 39.8313 43.116L40.9719 45.3443C40.9978 45.3933 41.0034 45.4506 40.9873 45.5037C40.9712 45.5567 40.9347 45.6013 40.8858 45.6276C40.8567 45.6424 40.8245 45.6501 40.7918 45.6501C40.7592 45.6501 40.727 45.6424 40.6979 45.6276L39.2928 44.9909C39.2132 45.7167 39.1303 46.4425 39.0507 47.1683C39.0507 47.3593 38.7321 47.3498 38.6524 47.2415L37.6966 45.3125L36.4222 47.1938C36.3298 47.3275 36.0303 47.2161 36.0367 47.0728C36.0367 46.3375 36.0367 45.6053 36.059 44.87L34.5775 45.0355C34.549 45.0368 34.5206 45.0325 34.4938 45.0227C34.4671 45.013 34.4425 44.9981 34.4214 44.9789C34.4004 44.9597 34.3834 44.9365 34.3714 44.9108C34.3593 44.885 34.3525 44.857 34.3513 44.8286C34.3497 44.7993 34.3543 44.77 34.3647 44.7426C34.3751 44.7152 34.3912 44.6903 34.4118 44.6694C34.4118 44.6694 36.2788 42.9728 36.8077 41.3716C37.3366 39.7704 37.1263 35.8868 37.1263 35.8741C37.6871 36.829 37.4704 40.7031 37.206 41.5053C36.8109 42.6958 35.7404 43.9182 35.1319 44.5485L36.4827 44.3989C36.4827 45.0578 36.4827 45.7199 36.4604 46.3789L37.7603 44.4689C38.0789 45.1055 38.3975 45.7422 38.7161 46.4011L38.9455 44.367L40.341 44.975L39.4426 43.2211C39.4458 43.1916 39.4378 43.1621 39.4203 43.1383C39.3948 42.7658 39.8472 41.8968 40.3506 40.9323C40.854 39.9677 41.4561 38.8122 41.574 38.1469C41.7747 37.0296 40.7998 33.9736 40.5386 33.1842C38.0405 33.8116 35.4465 33.9639 32.8921 33.633C30.3104 33.3265 27.7958 32.6029 25.4463 31.4907C25.0162 32.2228 23.3308 35.3743 23.8533 38.9905V39.0955L23.78 39.1687C23.78 39.1687 19.4343 43.5617 21.1834 46.9455C21.1612 46.2001 21.207 45.4542 21.3204 44.7172C21.3497 44.5266 21.4088 44.3418 21.4957 44.1697C21.6199 43.9532 21.7856 43.8736 21.9959 43.9882C22.1397 44.0872 22.2507 44.2269 22.3145 44.3893C23.0441 45.8282 23.2097 48.8936 23.2129 48.9032C23.2352 49.1133 22.8943 49.4284 22.7892 48.9287C22.7892 48.9287 22.6267 45.9396 21.9353 44.5803C21.9066 44.5224 21.8747 44.466 21.8398 44.4116C21.7882 44.5354 21.7508 44.6646 21.7282 44.7968C21.6008 45.6479 21.5656 46.5102 21.6231 47.3689C21.6454 47.5789 21.5753 47.6872 21.4128 47.6872C21.2503 47.6872 21.0528 47.4739 20.7756 47.1301L20.774 47.1281C20.0725 46.2583 18.6526 44.4979 17.2391 44.9878C17.8413 45.5544 19.3801 47.0792 19.3323 47.8527V48.2379L19.0137 48.0469C19.0137 48.0469 17.357 46.9837 15.7066 47.2765C16.3789 47.7286 17.7553 48.604 18.3256 48.6135C18.6251 48.744 18.5677 48.9987 18.3511 49.0369C17.7059 49.0878 17.0727 49.2392 16.4745 49.4857C17.2423 49.5876 19.9791 50.0874 20.4315 50.6285C20.4315 50.6285 21.9863 52.5226 23.1142 51.4848C23.1843 51.3989 23.7291 50.6986 23.6813 50.3229L23.7004 50.2052C24.4555 48.6326 27.307 46.4935 28.0939 47.6585C27.633 47.613 27.1676 47.6684 26.7303 47.8209C26.6437 49.0902 26.2436 50.3183 25.5659 51.3954C24.8882 52.4725 23.9539 53.3651 22.8465 53.9932C21.7299 54.6234 20.4771 54.974 19.1953 55.0151C17.8767 55.0595 16.5682 54.7704 15.3912 54.1747C13.4796 53.2038 11.7942 51.3734 10.8416 48.553C11.3928 52.669 13.263 55.3843 15.7863 56.9664C15.9647 57.0778 17.3793 57.7049 17.3793 57.7049L17.3729 57.7209ZM31.8311 42.7117C31.4892 41.2771 31.1493 39.8404 30.8116 38.4016H30.7925C30.8562 37.4466 31.2162 36.3229 30.9805 35.5366L30.3688 38.3443V38.4366L31.4201 42.8932C31.452 42.9346 31.4839 42.9791 31.5125 43.0237L33.0418 43.9787L31.5508 44.227L31.6177 44.4562C31.6177 44.4593 31.949 45.5639 31.5476 46.3152C31.3437 45.9236 30.9263 45.2552 30.7065 44.8636C30.63 44.8764 30.2381 46.1401 29.3875 46.5539C29.3747 45.9746 29.3524 45.3952 29.3524 44.8159L29.0019 45.1597C28.6574 45.4718 28.2265 45.6727 27.7658 45.7358C28.2628 45.2329 29.0752 44.3479 29.0402 43.8259C29.0246 43.586 28.6947 43.0961 28.2386 42.4188L28.2086 42.3743C27.2847 41.0437 25.4336 38.2456 25.0545 35.9505C24.8888 38.2138 26.7431 40.9609 27.8582 42.6099C28.1578 42.9944 28.4122 43.412 28.6164 43.8545C28.6515 44.3989 27.0871 45.7804 27.0871 45.7804C27.0871 45.7804 26.7303 46.0955 27.2018 46.1497C27.8134 46.2166 28.4291 46.0667 28.9414 45.7263C28.9637 46.1051 28.9637 46.4807 28.9637 46.8595C28.9637 46.8595 28.9255 47.1715 29.2441 47.0601C29.5693 46.9527 29.8695 46.7809 30.1268 46.5551C30.3841 46.3292 30.5931 46.0538 30.7415 45.7454L31.2991 46.7386C31.3246 46.7863 31.4201 47.1237 31.675 46.8468C32.3122 46.1528 32.172 45.0387 32.0733 44.5612L33.6663 44.297C33.7428 44.2874 33.8829 44.0041 33.7428 43.9086L31.8311 42.7117Z" fill="url(#paint7_linear_2_38671)"/>
<path d="M24.9876 51.4944C24.3723 52.37 23.5703 53.0984 22.6394 53.6272C21.5674 54.2337 20.3621 54.5665 19.1305 54.5959C17.8989 54.6254 16.679 54.3505 15.5792 53.7959C13.2885 52.6276 11.3322 50.1479 10.6727 46.0892C10.6249 45.7963 10.2681 45.6563 10.2554 46.1242C10.3031 51.7936 12.4537 55.378 15.5633 57.3261C16.072 57.6981 16.624 58.0071 17.2073 58.2461C24.8537 60.5858 30.0151 55.8109 32.086 53.2929C31.4723 54.8425 30.535 56.2435 29.3365 57.4025C28.4084 58.3001 27.3492 59.0514 26.1951 59.6308C24.7699 60.3444 23.2316 60.8053 21.6486 60.9933C20.0732 61.1839 18.4764 61.0922 16.9333 60.7227C15.27 60.3343 13.7138 59.5821 12.3767 58.5203C11.0395 57.4584 9.95483 56.1134 9.20078 54.5822C7.02472 50.1256 7.38793 45.5066 8.50941 42.9091C8.75836 42.2418 9.16496 41.6444 9.69461 41.1678C9.83332 41.0329 10.0125 40.947 10.2047 40.9235C10.3969 40.8999 10.5915 40.9399 10.7587 41.0373C11.2972 41.3811 11.7751 42.3616 12.0586 44.1633C12.2116 45.1183 13.1992 47.7508 14.8177 49.9664C15.7449 51.2397 16.8791 52.3825 18.1949 53.0287C18.8891 53.3877 19.6575 53.5798 20.4391 53.5897C21.2206 53.5997 21.9937 53.4272 22.6968 53.086C23.541 52.6818 24.3145 52.1444 24.9876 51.4944Z" fill="url(#paint8_linear_2_38671)"/>
<path fill-rule="evenodd" clip-rule="evenodd" d="M12.011 44.3041C11.723 42.4929 11.243 41.5074 10.7022 41.1618C10.5347 41.064 10.3398 41.024 10.1473 41.0477C9.95481 41.0714 9.77542 41.1575 9.63661 41.2929C9.10246 41.7663 8.69169 42.3627 8.43981 43.0305C7.31341 45.6417 6.94541 50.2817 9.13421 54.7649C11.6014 59.6641 16.6158 61.8049 21.6366 61.2097C24.538 60.8839 27.2526 59.616 29.3646 57.6001C30.5652 56.4362 31.5044 55.0302 32.1198 53.4753C30.043 56.0001 24.8782 60.8001 17.1822 58.4513C16.5965 58.2122 16.042 57.9027 15.531 57.5297C12.4046 55.5713 10.2446 51.9681 10.1966 46.2689L10.619 46.2337C11.2814 50.3137 13.2398 52.8001 15.547 53.9809C16.6657 54.5483 17.9093 54.8246 19.163 54.7841C20.3809 54.7491 21.5722 54.4198 22.635 53.8241C23.5715 53.2935 24.3782 52.5612 24.9966 51.6801C24.3217 52.3364 23.5432 52.8769 22.6926 53.2801C21.9869 53.6244 21.2105 53.7987 20.4254 53.7893C19.6402 53.7798 18.8682 53.5868 18.171 53.2257C16.8526 52.5857 15.7134 51.4241 14.7822 50.1473C13.1566 47.9073 12.1646 45.2833 12.011 44.3137V44.3041Z" fill="#777ABA"/>
<path fill-rule="evenodd" clip-rule="evenodd" d="M21.6072 14.64C21.6072 14.64 11.8664 4.25925 7.68724 2.73925C7.68724 2.73925 11.3032 3.23845 13.268 3.77605C11.3182 3.15239 9.30823 2.73517 7.27124 2.53125C7.48244 3.81125 8.61524 9.45605 12.676 12.2305C15.95 12.3427 19.0693 13.6508 21.444 15.9072C21.5817 15.7691 21.727 15.6387 21.8792 15.5169C21.7713 15.2302 21.6805 14.9374 21.6072 14.64Z" fill="#777ABA"/>
<path fill-rule="evenodd" clip-rule="evenodd" d="M20.513 16.96C20.513 16.96 5.38985 15.872 2.27305 16.5216C2.90759 15.9915 3.57101 15.4968 4.26025 15.04C3.4663 15.5041 2.69921 16.0126 1.96265 16.5632C3.24265 17.7088 11.1402 24.0832 20.7818 18.8832C20.5258 18.5768 20.3293 18.2252 20.2026 17.8464C20.187 17.5163 20.302 17.1933 20.5226 16.9472L20.513 16.96Z" fill="#777ABA"/>
<path fill-rule="evenodd" clip-rule="evenodd" d="M16.1742 21.027C16.1742 21.027 9.47338 28.3006 5.58538 28.5054C5.44138 28.8254 5.32938 29.0814 5.26538 29.2638C9.52458 29.283 12.6574 28.6238 14.9358 27.6894C17.131 26.7934 18.5294 25.6446 19.3838 24.611C20.2382 23.5774 20.507 22.7198 20.5102 22.3038C20.5166 22.2646 20.5166 22.2246 20.5102 22.1854C20.1902 21.4174 21.2654 20.3486 21.6942 19.9454C21.5438 19.7822 21.3038 19.5166 21.0542 19.2158C19.5293 20.057 17.8863 20.6632 16.1806 21.0142L16.1742 21.027Z" fill="#777ABA"/>
<path fill-rule="evenodd" clip-rule="evenodd" d="M60.0556 6.2398C60.0556 6.2398 53.6556 6.083 47.2556 13.7214C47.6869 14.392 48.0595 15.0987 48.3692 15.8334C58.59 13.3758 59.806 7.5774 60.0428 6.2334L60.0556 6.2398Z" fill="#777ABA"/>
<path fill-rule="evenodd" clip-rule="evenodd" d="M59.8025 15.2544C59.8025 15.2544 53.7481 18.048 48.7849 16.96C49.1793 18.1545 49.4275 19.3923 49.5241 20.6464C50.3817 20.9376 55.5785 22.352 60.7625 15.6832C60.4539 15.5143 60.133 15.3688 59.8025 15.248V15.2544Z" fill="#777ABA"/>
<path fill-rule="evenodd" clip-rule="evenodd" d="M57.9694 25.437C57.9694 25.437 53.995 22.765 49.5726 21.917C49.5786 23.1721 49.4128 24.4221 49.0798 25.6322C49.8318 26.0162 53.4478 27.6194 57.9694 25.453V25.437Z" fill="#777ABA"/>
<path fill-rule="evenodd" clip-rule="evenodd" d="M38.1414 33.3219C22.4006 32.0803 20.887 22.6627 20.8422 22.3555C20.8422 22.9667 20.3494 24.0163 19.6006 24.9155C19.431 25.1203 19.2422 25.3283 19.031 25.5555C19.9826 27.2291 21.3158 28.6544 22.9222 29.7155C25.9004 31.7043 29.3142 32.9458 32.8742 33.3347C34.6234 33.5491 36.3922 33.5491 38.1414 33.3347V33.3219Z" fill="#777ABA"/>
<path fill-rule="evenodd" clip-rule="evenodd" d="M23.7989 36.5124C23.7028 37.3714 23.7157 38.239 23.8373 39.0948V39.2004L23.7637 39.274C23.7637 39.274 19.8437 43.2388 20.9189 46.5476C20.5637 44.218 22.8389 41.0756 24.3813 39.3604C24.1221 38.458 24.0613 35.3892 24.1029 34.9092C23.9565 35.4328 23.8559 35.9682 23.8021 36.5092L23.7989 36.5124Z" fill="#777ABA"/>
<path fill-rule="evenodd" clip-rule="evenodd" d="M25.3982 37.2257C26.0734 39.2385 27.5006 41.3857 28.2782 42.4993C28.7518 43.2033 29.0942 43.7121 29.1102 43.9585C29.1454 44.4833 28.3326 45.3729 27.8302 45.8785C27.8302 45.8785 29.5806 45.0209 29.4302 43.6065C29.4302 43.6065 25.843 37.7985 26.0318 36.7937C26.0318 36.7937 26.579 35.0945 26.9214 34.8193C26.9214 34.8193 25.2094 35.7537 25.4206 37.2321L25.3982 37.2257Z" fill="#777ABA"/>
<path fill-rule="evenodd" clip-rule="evenodd" d="M37.178 35.9492C37.7412 36.9092 37.5236 40.8004 37.2548 41.6068C36.858 42.8068 35.7828 44.0356 35.1716 44.6692C36.3876 44.1572 37.6836 41.5716 37.6836 41.5716C37.9428 39.8916 38.1988 37.4116 37.178 35.9492Z" fill="#777ABA"/>
<path fill-rule="evenodd" clip-rule="evenodd" d="M32.1571 18.05C31.4493 15.6876 29.5911 15.3063 27.9772 17.2232C27.1029 18.3403 26.515 19.6371 26.2606 21.0097C25.9459 22.376 25.9665 23.7932 26.3208 25.1506C27.0286 27.513 28.8868 27.8943 30.5007 25.9741C31.3745 24.8542 31.9623 23.5553 32.2173 22.1808C32.5319 20.8156 32.5113 19.3996 32.1571 18.0433V18.05ZM29.7787 18.6305C30.2105 18.7283 30.5361 19.1536 30.7131 19.7644C31.067 21.0165 30.7591 22.9536 29.9026 23.9964C29.0461 25.0392 28.1329 24.6714 27.779 23.4328C27.4251 22.1943 27.7117 20.247 28.5753 19.2042C28.9293 18.7587 29.3504 18.5292 29.7787 18.6305Z" fill="#552F82"/>
<path fill-rule="evenodd" clip-rule="evenodd" d="M31.8655 18.2532C31.2284 16.0258 29.5561 15.6662 28.1036 17.4736C27.3167 18.5269 26.7876 19.7496 26.5586 21.0438C26.2754 22.332 26.294 23.6681 26.6128 24.948C27.2499 27.1754 28.9222 27.535 30.3747 25.7244C31.1612 24.6685 31.6902 23.4439 31.9197 22.1479C32.2028 20.8608 32.1843 19.5256 31.8655 18.2468V18.2532ZM29.7249 18.8005C30.1135 18.8928 30.4066 19.2937 30.5659 19.8696C30.8844 21.0501 30.6073 22.8766 29.8364 23.8598C29.0655 24.843 28.2437 24.4962 27.9252 23.3284C27.6066 22.1606 27.8646 20.3246 28.6419 19.3414C28.9604 18.9214 29.3395 18.705 29.7249 18.8005Z" fill="white"/>
<path fill-rule="evenodd" clip-rule="evenodd" d="M29.8784 23.9169C30.7872 22.7553 31.12 20.5793 30.7392 19.1873C30.3904 17.9074 29.5392 17.5586 28.7168 18.605C27.8048 19.7665 27.472 21.9425 27.856 23.3345C28.2048 24.6145 29.0528 24.9601 29.8784 23.9169Z" fill="#552F82"/>
<path fill-rule="evenodd" clip-rule="evenodd" d="M43.2269 18.5686C43.9597 16.6022 45.4999 16.4133 46.7022 18.1417C47.3495 19.1417 47.7513 20.276 47.876 21.4551C48.0529 22.6289 47.9481 23.8271 47.5701 24.954C46.8587 26.9168 45.2971 27.1058 44.0948 25.3808C43.4506 24.3794 43.049 23.2458 42.921 22.0674C42.7475 20.8935 42.8522 19.6961 43.2269 18.5686ZM45.1406 19.2158C44.7849 19.2683 44.4861 19.6077 44.3047 20.1115C43.9312 21.1612 44.0664 22.8057 44.7066 23.7399C45.3469 24.6741 46.1295 24.4396 46.4852 23.39C46.8409 22.3403 46.7235 20.6994 46.0832 19.7617C45.9965 19.5884 45.8607 19.4434 45.6922 19.3441C45.5238 19.2448 45.3298 19.1954 45.1335 19.2018L45.1406 19.2158Z" fill="#552F82"/>
<path fill-rule="evenodd" clip-rule="evenodd" d="M43.4654 18.8804C44.1246 17.082 45.5102 16.9092 46.5918 18.49C47.1741 19.4045 47.5356 20.442 47.6478 21.5204C47.8069 22.5939 47.7126 23.6898 47.3726 24.7204C46.7326 26.5156 45.3278 26.6884 44.2462 25.1108C43.6666 24.1949 43.3053 23.1581 43.1902 22.0804C43.0341 21.0067 43.1283 19.9116 43.4654 18.8804ZM45.187 19.4724C44.867 19.5204 44.5982 19.8308 44.435 20.2916C44.099 21.2516 44.2206 22.7556 44.7966 23.61C45.3726 24.4644 46.0766 24.25 46.3966 23.29C46.7166 22.33 46.611 20.8292 46.035 19.9716C45.9569 19.8131 45.8347 19.6805 45.6832 19.5897C45.5317 19.4989 45.3571 19.4537 45.1806 19.4596L45.187 19.4724Z" fill="white"/>
<path fill-rule="evenodd" clip-rule="evenodd" d="M44.8619 23.754C44.1803 22.7364 44.0363 20.9188 44.4331 19.7956C44.7947 18.7684 45.5179 18.5348 46.1323 19.4532C46.8171 20.4708 46.9611 22.2884 46.5643 23.4116C46.1995 24.4388 45.4795 24.6724 44.8619 23.754Z" fill="#552F82"/>
<path fill-rule="evenodd" clip-rule="evenodd" d="M32.5134 28.7998C33.6334 29.9166 42.0238 29.8142 42.4718 28.8222C40.4718 34.435 33.0574 32.0862 32.5134 28.7998Z" fill="#552F82"/>
<path fill-rule="evenodd" clip-rule="evenodd" d="M40.7594 30.7195C40.6826 31.1323 37.3962 32.9339 34.7146 30.8315C34.7146 30.8315 36.5098 29.7115 40.7594 30.7195Z" fill="#C3A3CD"/>
<path fill-rule="evenodd" clip-rule="evenodd" d="M40.1919 26.6624C39.9577 26.9609 39.766 27.2905 39.6223 27.6416C39.5903 27.8848 40.0895 27.104 40.7615 27.056C40.8915 27.0405 41.0162 26.9956 41.1263 26.9248C41.1804 26.881 41.2187 26.8208 41.2355 26.7532C41.2522 26.6856 41.2465 26.6144 41.2191 26.5504C41.1754 26.4826 41.1159 26.4265 41.0456 26.3869C40.9754 26.3473 40.8965 26.3255 40.8159 26.3232C40.6916 26.3327 40.5706 26.3677 40.4605 26.4261C40.3504 26.4844 40.2535 26.5649 40.1759 26.6624H40.1919Z" fill="#552F82"/>
<path fill-rule="evenodd" clip-rule="evenodd" d="M37.5588 27.6635C37.4226 27.264 37.2285 26.8867 36.9828 26.5435C36.9084 26.4377 36.8133 26.3479 36.7033 26.2798C36.5933 26.2116 36.4707 26.1663 36.3428 26.1467C36.2469 26.1439 36.1519 26.1657 36.0668 26.21C35.9816 26.2542 35.9092 26.3194 35.8564 26.3995C35.818 26.4667 35.8052 26.5456 35.8205 26.6215C35.8358 26.6974 35.8781 26.7652 35.9396 26.8123C36.0582 26.8968 36.1954 26.9517 36.3396 26.9723C37.0884 27.0491 37.594 27.9323 37.5748 27.6635H37.5588Z" fill="#552F82"/>
<path fill-rule="evenodd" clip-rule="evenodd" d="M30.0969 16.9793C30.6569 17.0785 30.9705 18.0097 30.7945 19.0593C30.6185 20.1089 30.0201 20.8801 29.4601 20.7809C28.9001 20.6817 28.5993 19.7473 28.7593 18.6977C28.9193 17.6481 29.5337 16.8801 30.0969 16.9793Z" fill="white"/>
<path fill-rule="evenodd" clip-rule="evenodd" d="M45.0638 18.0763C44.5998 18.1179 44.2894 18.8571 44.3726 19.7275C44.4558 20.5979 44.8974 21.2603 45.3614 21.2187C45.8254 21.1771 46.1326 20.4347 46.0526 19.5675C45.9726 18.7003 45.5278 18.0315 45.0638 18.0763Z" fill="white"/>
<path fill-rule="evenodd" clip-rule="evenodd" d="M12.663 12.7298L12.5542 12.6594C9.61343 12.5986 6.02943 13.5362 1.95583 16.5634C3.23583 17.709 11.1366 24.0834 20.775 18.8834C20.5199 18.5775 20.3236 18.2271 20.1958 17.8498C20.0934 17.3954 20.6278 16.7234 21.1398 16.2018C18.8544 14.034 15.8559 12.7754 12.7078 12.6626L12.663 12.7298ZM17.3414 57.9202C27.111 60.9154 32.6438 51.8178 32.6598 51.7922C32.7 51.7289 32.7635 51.684 32.8366 51.6672C32.9097 51.6504 32.9865 51.6632 33.0502 51.7026C33.1026 51.7355 33.1431 51.7843 33.1656 51.842C33.188 51.8996 33.1914 51.963 33.175 52.0226C32.7328 53.873 31.8699 55.5966 30.6534 57.0594C34.5414 55.1906 37.6934 52.093 38.4934 48.3906C38.231 48.3106 37.5334 47.5042 37.4918 47.4306C38.935 48.269 39.5846 48.2754 41.303 48.5122L41.4758 48.5378V48.7106C41.4744 49.1439 41.6398 49.561 41.9377 49.8756C42.2356 50.1902 42.6432 50.378 43.0758 50.4002C44.375 49.8754 48.4646 49.2962 49.6966 49.1202C49.2412 48.8253 48.7654 48.5633 48.2726 48.3362L47.8822 48.1506L48.2662 47.9554C48.8651 47.6934 49.4771 47.4627 50.0998 47.2642C48.9766 46.7458 47.479 47.0242 47.4758 47.0242L47.0598 47.0978C47.5398 46.1378 48.5702 45.5714 49.447 44.989C48.0038 44.8674 45.8438 45.9682 45.3862 46.2114C45.319 46.5634 45.239 47.0498 45.0054 47.2898C45.0342 46.5346 45.095 45.4306 45.1654 44.7586C44.423 45.629 42.8806 47.2706 42.8742 47.2738C42.8962 46.8396 43.0787 46.4291 43.3862 46.1218C43.767 43.3602 41.8886 40.7874 41.367 40.1346C41.1814 40.5154 40.9766 40.9058 40.7814 41.2802C40.327 42.157 39.9174 42.9442 39.8982 43.2386L41.0438 45.4786C41.0699 45.5279 41.0755 45.5855 41.0593 45.6388C41.0431 45.6922 41.0065 45.737 40.9574 45.7634C40.9282 45.7783 40.8958 45.7861 40.863 45.7861C40.8302 45.7861 40.7979 45.7783 40.7686 45.7634L39.3574 45.1234C39.2774 45.853 39.1942 46.5826 39.1142 47.3122C39.1142 47.5042 38.7942 47.4946 38.7142 47.3858L37.7542 45.4466L36.4742 47.3378C36.3814 47.4722 36.0806 47.3602 36.087 47.2162C36.087 46.477 36.087 45.741 36.1094 45.0018L34.6214 45.1682C34.5928 45.1695 34.5643 45.1651 34.5374 45.1554C34.5105 45.1456 34.4858 45.1307 34.4647 45.1113C34.4436 45.092 34.4265 45.0687 34.4144 45.0428C34.4023 45.0169 34.3955 44.9888 34.3942 44.9602C34.3926 44.9308 34.3972 44.9013 34.4077 44.8738C34.4182 44.8462 34.4343 44.8212 34.455 44.8002C34.455 44.8002 36.3302 43.0946 36.8614 41.485C37.3926 39.8754 37.1814 35.9714 37.1814 35.9586C37.7446 36.9186 37.527 40.813 37.2614 41.6194C36.8646 42.8162 35.7894 44.045 35.1782 44.6786L36.535 44.5282C36.535 45.1906 36.535 45.8562 36.5126 46.5186L37.8182 44.5986C38.1382 45.2386 38.4582 45.8786 38.7782 46.541L39.0086 44.4962L40.4102 45.1074L39.5078 43.3442C39.5111 43.3147 39.5031 43.285 39.4854 43.261C39.4598 42.8866 39.9142 42.013 40.4198 41.0434C40.9254 40.0738 41.5302 38.9122 41.6486 38.2434C41.8502 37.1202 40.871 34.0482 40.6086 33.2546C38.0996 33.8853 35.4943 34.0384 32.9286 33.7058C30.3357 33.3976 27.81 32.6703 25.4502 31.5522C25.0182 32.2882 23.3254 35.4562 23.8502 39.0914V39.197L23.7766 39.2706C23.7766 39.2706 19.4118 43.6866 21.1686 47.0882C21.1463 46.3389 21.1923 45.5891 21.3062 44.8482C21.3356 44.6566 21.395 44.4709 21.4822 44.2978C21.607 44.0802 21.7734 44.0002 21.9846 44.1154C22.1291 44.2149 22.2405 44.3553 22.3046 44.5186C23.0374 45.965 23.2038 49.0466 23.207 49.0562C23.2294 49.2674 22.887 49.5842 22.7814 49.0818C22.7814 49.0818 22.6182 46.077 21.9238 44.7106C21.895 44.6524 21.8629 44.5958 21.8278 44.541C21.7761 44.6655 21.7385 44.7954 21.7158 44.9282C21.5879 45.7838 21.5525 46.6507 21.6102 47.5138C21.6326 47.725 21.5622 47.8338 21.399 47.8338C21.2358 47.8338 21.0374 47.6194 20.759 47.2738C20.055 46.4002 18.6278 44.6274 17.207 45.1202C17.8118 45.6898 19.3574 47.2226 19.3094 48.0002V48.3874L18.9894 48.1954C18.9894 48.1954 17.3254 47.1266 15.6678 47.421C16.343 47.8754 17.7254 48.7554 18.2982 48.765C18.599 48.8962 18.5414 49.1522 18.3238 49.1906C17.6759 49.2418 17.0399 49.394 16.439 49.6418C17.2102 49.7442 19.959 50.2466 20.4134 50.7906C20.4134 50.7906 21.975 52.6946 23.1078 51.6514C23.1782 51.565 23.7254 50.861 23.6774 50.4834L23.6966 50.365C24.455 48.7842 27.319 46.6338 28.1094 47.805C27.6465 47.7592 27.1791 47.8149 26.7398 47.9682C26.6528 49.2442 26.251 50.4788 25.5703 51.5615C24.8896 52.6443 23.9512 53.5415 22.839 54.173C21.7175 54.8065 20.4592 55.1589 19.1718 55.2002C17.8474 55.2448 16.5332 54.9543 15.351 54.3554C13.431 53.3794 11.7382 51.5394 10.7814 48.7042C11.335 52.8418 13.2134 55.5714 15.7478 57.1618C15.927 57.2738 17.3478 57.9042 17.3478 57.9042L17.3414 57.9202ZM29.9366 57.8338C28.9209 58.858 27.7449 59.7097 26.455 60.3554C24.9649 61.0968 23.3567 61.5722 21.703 61.7602C20.0517 61.9641 18.3771 61.8698 16.759 61.4818C15.0095 61.0707 13.3729 60.2769 11.9669 59.1575C10.561 58.0382 9.42058 56.6211 8.62783 55.0082C6.35903 50.3586 6.74943 45.5266 7.92383 42.8002C8.21221 42.0446 8.68135 41.371 9.29023 40.8386C9.85343 40.4066 10.4486 40.3234 11.0054 40.6786C11.6742 41.1074 12.2502 42.221 12.567 44.1986C12.711 45.117 13.6646 47.6322 15.2358 49.7858C16.119 50.9954 17.191 52.0834 18.4358 52.6914C19.0589 53.0128 19.7483 53.1845 20.4494 53.1929C21.1504 53.2012 21.8437 53.0459 22.4742 52.7394C23.5622 52.2402 24.7142 51.309 25.9366 49.8082C26.1191 49.2738 26.2435 48.7213 26.3078 48.1602C25.0054 48.8354 24.2566 50.2146 24.119 50.4866C24.119 51.069 23.447 51.9138 23.4438 51.917C22.0582 53.3218 20.2758 51.4402 20.0806 50.989C19.223 50.5282 12.6022 49.8818 17.4502 48.909C16.6277 48.4962 15.8372 48.0224 15.0854 47.4914C15.0625 47.4765 15.0428 47.4572 15.0273 47.4347C15.0118 47.4122 15.001 47.3868 14.9953 47.36C14.9897 47.3333 14.9894 47.3057 14.9944 47.2788C14.9994 47.2519 15.0097 47.2263 15.0246 47.2034C15.0506 47.161 15.0918 47.1301 15.1398 47.117C16.5798 46.6338 18.0966 47.2194 18.823 47.581C18.3718 46.6754 16.7398 45.2226 16.7366 45.2162C16.7156 45.2002 16.6979 45.1802 16.6847 45.1573C16.6715 45.1344 16.663 45.1091 16.6598 45.0828C16.6565 45.0566 16.6585 45.03 16.6656 45.0045C16.6728 44.9791 16.685 44.9553 16.7014 44.9346C16.7205 44.9085 16.7458 44.8876 16.775 44.8738C18.1894 44.077 19.543 45.1938 20.4614 46.205C19.8022 43.0338 22.9254 39.5682 23.4438 39.0178C22.9446 35.341 24.6182 32.1474 25.0918 31.3378C24.299 30.9415 23.5355 30.4892 22.807 29.9842C21.181 28.9102 19.8235 27.4771 18.839 25.7954C17.7403 26.7662 16.4795 27.5363 15.1142 28.0706C12.695 29.053 9.39903 29.7346 4.91903 29.6802H4.59903C4.63743 29.5842 4.67583 29.4882 4.71103 29.3922C4.71103 29.373 7.09823 23.341 10.3366 21.0722C7.0455 20.4359 3.9861 18.9261 1.47903 16.701L1.29663 16.5282L1.49503 16.3778C5.46943 13.3666 9.00223 12.3042 11.9558 12.2178C7.62303 8.84503 6.81343 2.32983 6.81023 2.29783C6.80302 2.20875 6.79127 2.1201 6.77503 2.03223L7.04063 2.06103C18.2758 3.20023 21.879 8.76183 22.519 9.92023C25.8061 7.84842 29.6529 6.84257 33.5334 7.04023C39.2134 7.31543 43.671 9.99703 44.9254 11.0146C48.0038 7.04023 54.5638 5.52983 60.3046 5.76023C59.8374 9.70583 57.4246 12.413 54.1254 14.0546C58.951 13.8658 61.207 15.437 61.2134 15.4434L61.399 15.5682L61.2646 15.7474C58.5798 19.2674 55.8598 20.685 53.6902 21.165C57.127 22.877 58.471 25.3602 58.4902 25.3666C58.5254 25.4306 58.5606 25.4946 58.599 25.5586L58.4006 25.6578C53.7446 27.9938 49.943 26.4386 48.9894 25.9778C48.7047 26.8677 48.2907 27.7108 47.7606 28.4802C46.6631 30.0411 45.1937 31.3037 43.4854 32.1538C42.692 32.5563 41.8628 32.8841 41.0086 33.133C41.287 33.9714 42.2886 37.1042 42.0614 38.3106C41.9522 38.7791 41.789 39.2334 41.575 39.6642C41.751 39.8658 43.975 42.5218 43.863 45.5522C44.3942 44.9634 45.0086 44.2722 45.2806 43.9074C45.447 43.7346 45.6422 43.8594 45.6614 44.0514C45.6614 44.0514 45.6006 44.8418 45.4822 45.6514C46.3878 45.2002 48.7046 44.1666 50.071 44.6498C50.071 44.6498 50.391 44.8546 50.1126 45.0274C50.1126 45.0274 48.7014 45.9298 48.0038 46.5026C48.711 46.4578 49.9014 46.5026 50.7462 47.1042C50.9926 47.277 50.6854 47.4786 50.6854 47.4786C50.6854 47.4786 49.5686 47.8434 48.8742 48.1186C49.3798 48.3778 50.1894 48.8322 50.3334 49.1426C50.3334 49.1426 50.5222 49.3826 50.1702 49.4402C50.1702 49.4402 44.7814 50.1218 43.3254 50.7362C43.0668 50.7736 42.8032 50.7593 42.5502 50.6941C42.2971 50.6288 42.0594 50.514 41.8511 50.3563C41.6427 50.1985 41.4677 50.0009 41.3363 49.775C41.2049 49.5491 41.1196 49.2993 41.0854 49.0402C41.0821 48.988 41.0821 48.9356 41.0854 48.8834C40.6918 48.8258 39.6742 48.669 38.9126 48.4834C37.991 52.5954 34.3462 55.9714 29.9526 57.8274L29.9366 57.8338ZM24.9894 51.661C24.3715 52.5413 23.566 53.2735 22.631 53.805C21.5543 54.4148 20.3437 54.7493 19.1067 54.7789C17.8697 54.8085 16.6445 54.5322 15.5398 53.9746C13.239 52.8002 11.2742 50.3074 10.6118 46.2274C10.5638 45.933 10.2054 45.7922 10.1926 46.2626C10.2406 51.9618 12.4006 55.565 15.5238 57.5234C16.0348 57.8974 16.5892 58.2079 17.175 58.4482C24.855 60.8002 30.039 56.0002 32.119 53.469C31.5027 55.0268 30.5612 56.4351 29.3574 57.6002C28.4253 58.5025 27.3614 59.2578 26.2022 59.8402C24.7708 60.5575 23.2257 61.0209 21.6358 61.2098C20.0535 61.4014 18.4498 61.3093 16.8998 60.9378C15.2293 60.5474 13.6662 59.7913 12.3232 58.7238C10.9802 57.6564 9.89079 56.3043 9.13343 54.765C6.94783 50.285 7.31263 45.6418 8.43903 43.0306C8.68908 42.3598 9.09746 41.7593 9.62943 41.2802C9.76875 41.1445 9.9487 41.0582 10.1417 41.0345C10.3348 41.0109 10.5302 41.0511 10.6982 41.149C11.239 41.4946 11.719 42.4802 12.0038 44.2914C12.1574 45.2514 13.1494 47.8978 14.775 50.125C15.7062 51.405 16.8454 52.5538 18.167 53.2034C18.8642 53.5643 19.636 53.7574 20.421 53.7674C21.206 53.7774 21.9825 53.604 22.6886 53.261C23.5365 52.8547 24.3134 52.3144 24.9894 51.661ZM30.839 38.4994C31.1782 39.9458 31.5196 41.3901 31.863 42.8322L33.783 44.0354C33.9238 44.1314 33.783 44.4162 33.7062 44.4258L32.1062 44.6914C32.2054 45.1714 32.3462 46.2914 31.7062 46.989C31.4502 47.2674 31.3542 46.9282 31.3286 46.8802L30.7686 45.8818C30.6196 46.1919 30.4096 46.4687 30.1512 46.6958C29.8928 46.9228 29.5913 47.0955 29.2646 47.2034C28.9446 47.3154 28.983 47.0018 28.983 47.0018C28.983 46.621 28.983 46.2434 28.9606 45.8626C28.4461 46.2048 27.8277 46.3555 27.2134 46.2882C26.7398 46.2338 27.0982 45.917 27.0982 45.917C27.0982 45.917 28.6694 44.5282 28.6342 43.981C28.4291 43.5362 28.1735 43.1164 27.8726 42.7298C26.7526 41.0722 24.8902 38.3106 25.0566 36.0354C25.4374 38.3426 27.2966 41.1554 28.2246 42.493C28.6982 43.197 29.0438 43.7058 29.0598 43.9522C29.095 44.477 28.279 45.3666 27.7798 45.8722C28.2426 45.8087 28.6754 45.6068 29.0214 45.293L29.3734 44.9474C29.3734 45.5298 29.3958 46.1122 29.4086 46.6946C30.263 46.2786 30.6566 45.0082 30.7334 44.9954C30.9542 45.389 31.3734 46.061 31.5782 46.4546C31.9814 45.6994 31.6486 44.589 31.6486 44.5858L31.5814 44.3554L33.079 44.1058L31.543 43.1458C31.5142 43.101 31.4822 43.0562 31.4502 43.0146L30.3942 38.5346V38.4418L31.0086 35.6194C31.2454 36.4098 30.8838 37.5394 30.8198 38.4994H30.839ZM49.079 25.5682C49.8342 25.9554 53.4502 27.5554 57.9686 25.389C57.5654 24.749 56.0486 22.6914 52.9542 21.3026C51.8198 21.4745 50.662 21.4058 49.5558 21.101C49.6395 22.6103 49.4785 24.1232 49.079 25.581V25.5682ZM49.527 20.6466C50.3814 20.9378 55.5782 22.3522 60.7622 15.6834C60.1222 15.3186 57.5757 14.1979 53.3517 14.4731L53.5814 14.3554C51.9819 15.1872 50.2844 15.815 48.5286 16.2242C48.9378 17.2714 49.2298 18.3607 49.399 19.4722C49.4598 19.8626 49.5046 20.2562 49.5366 20.6466H49.527ZM48.359 15.8274C58.5766 13.3698 59.6134 7.57783 59.8502 6.22743C49.9302 5.90743 45.9622 10.301 45.2102 11.2802C46.5699 12.5522 47.6433 14.099 48.359 15.8178V15.8274ZM10.999 21.1746C13.9302 21.5842 17.3702 21.229 21.0566 19.2226C21.303 19.5234 21.5462 19.789 21.6966 19.9522C21.2646 20.3426 20.1958 21.4114 20.5094 22.1922C20.5158 22.2314 20.5158 22.2714 20.5094 22.3106C20.5094 22.7234 20.1894 23.5906 19.367 24.621C18.5446 25.6514 17.127 26.8002 14.9222 27.6994C12.6406 28.6306 9.50783 29.2994 5.24863 29.2706C5.78623 27.9906 8.08383 22.8706 10.9862 21.1874L10.999 21.1746ZM21.4438 15.9074C19.0691 13.6509 15.9498 12.3429 12.6758 12.2306C8.61823 9.45623 7.47903 3.82103 7.27103 2.53143C19.3382 3.84023 22.2182 10.2946 22.2278 10.3106L22.3302 10.5314L22.519 10.4002C25.7746 8.29188 29.6117 7.2629 33.4854 7.45943C39.3542 7.74423 43.8694 10.6274 44.7878 11.4722C47.159 13.5714 48.5094 16.5442 48.9734 19.5202C49.4758 22.7714 48.9126 26.0386 47.3926 28.2242C46.3325 29.7193 44.9187 30.9286 43.2774 31.7442C40.295 33.2642 36.5894 33.6642 32.9478 33.245C29.3062 32.8258 25.7382 31.5394 23.0278 29.645C21.4222 28.583 20.0892 27.1579 19.1366 25.485C19.3374 25.2816 19.5275 25.068 19.7062 24.845C20.599 23.7794 20.919 22.781 20.919 22.301C20.9219 22.2062 20.9067 22.1118 20.8742 22.0226C20.6022 21.357 22.103 20.1346 22.1062 20.1314L22.2886 19.9842L22.1254 19.8178C22.1254 19.8178 20.7558 18.4066 20.599 17.757C20.4678 17.1778 22.2502 15.7538 22.2566 15.7506L22.3782 15.6514L22.3206 15.5042C22.3206 15.5042 21.8182 14.2722 21.9334 13.837C22.0486 13.4018 23.7638 12.8578 23.767 12.8578C22.6662 12.3522 21.5558 13.6002 21.527 13.7314C21.4086 14.1922 21.7382 15.1522 21.8758 15.517C21.7734 15.6034 21.6166 15.7378 21.4374 15.9074H21.4438Z" fill="#552F82"/>
<path fill-rule="evenodd" clip-rule="evenodd" d="M53.7446 36.6494C54.2152 36.6488 54.6754 36.7876 55.0671 37.0484C55.4589 37.3092 55.7645 37.6803 55.9455 38.1147C56.1265 38.5491 56.1746 39.0274 56.0839 39.4892C55.9932 39.951 55.7676 40.3755 55.4357 40.7092C55.1039 41.0428 54.6806 41.2707 54.2193 41.3639C53.758 41.4571 53.2794 41.4115 52.844 41.2328C52.4087 41.0542 52.036 40.7505 51.7731 40.3602C51.5102 39.9699 51.3689 39.5104 51.367 39.0398C51.3657 38.7266 51.4262 38.4163 51.5451 38.1265C51.664 37.8368 51.8389 37.5733 52.0598 37.3513C52.2806 37.1292 52.5431 36.9529 52.8322 36.8325C53.1213 36.712 53.4314 36.6498 53.7446 36.6494Z" fill="#8BD4F3"/>
<path fill-rule="evenodd" clip-rule="evenodd" d="M53.1882 37.4395C53.2819 37.4395 53.3734 37.4672 53.4513 37.5193C53.5292 37.5713 53.5899 37.6453 53.6258 37.7318C53.6616 37.8184 53.671 37.9136 53.6527 38.0054C53.6344 38.0973 53.5893 38.1817 53.5231 38.2479C53.4569 38.3142 53.3725 38.3593 53.2806 38.3775C53.1887 38.3958 53.0935 38.3864 53.007 38.3506C52.9204 38.3148 52.8465 38.254 52.7944 38.1762C52.7424 38.0983 52.7146 38.0067 52.7146 37.913C52.7142 37.851 52.726 37.7895 52.7495 37.7321C52.7729 37.6746 52.8075 37.6224 52.8513 37.5784C52.895 37.5343 52.947 37.4994 53.0043 37.4756C53.0615 37.4517 53.123 37.4395 53.185 37.4395H53.1882Z" fill="white"/>
<path fill-rule="evenodd" clip-rule="evenodd" d="M52.7311 38.8926C52.7778 38.8926 52.8226 38.9111 52.8556 38.9441C52.8886 38.9771 52.9071 39.0219 52.9071 39.0686C52.904 39.0915 52.8964 39.1135 52.8847 39.1335C52.873 39.1535 52.8575 39.1709 52.8391 39.1849C52.8207 39.1989 52.7997 39.2091 52.7773 39.2149C52.7549 39.2208 52.7316 39.2221 52.7087 39.219C52.6705 39.2143 52.6349 39.1969 52.6077 39.1697C52.5804 39.1424 52.5631 39.1068 52.5583 39.0686C52.5583 39.0225 52.5764 38.9782 52.6088 38.9452C52.6411 38.9123 52.685 38.8934 52.7311 38.8926Z" fill="white"/>
<path fill-rule="evenodd" clip-rule="evenodd" d="M54.7211 44.2529C54.9901 44.2529 55.253 44.3327 55.4767 44.4821C55.7003 44.6316 55.8746 44.844 55.9776 45.0925C56.0805 45.341 56.1074 45.6144 56.055 45.8782C56.0025 46.1421 55.873 46.3844 55.6828 46.5746C55.4926 46.7648 55.2502 46.8943 54.9864 46.9468C54.7226 46.9993 54.4491 46.9723 54.2006 46.8694C53.9521 46.7665 53.7397 46.5921 53.5903 46.3685C53.4408 46.1448 53.3611 45.8819 53.3611 45.6129C53.3611 45.2522 53.5044 44.9063 53.7594 44.6513C54.0145 44.3962 54.3604 44.2529 54.7211 44.2529Z" fill="#8BD4F3"/>
<path fill-rule="evenodd" clip-rule="evenodd" d="M54.519 44.5733C54.5885 44.5739 54.6562 44.5951 54.7137 44.6341C54.7712 44.6732 54.8158 44.7284 54.8419 44.7928C54.8681 44.8571 54.8746 44.9278 54.8607 44.9959C54.8467 45.0639 54.8129 45.1264 54.7636 45.1753C54.7142 45.2242 54.6515 45.2574 54.5833 45.2707C54.5151 45.284 54.4445 45.2769 54.3804 45.2501C54.3163 45.2234 54.2615 45.1783 54.2229 45.1205C54.1844 45.0627 54.1638 44.9947 54.1638 44.9253C54.1638 44.8788 54.173 44.8327 54.1909 44.7898C54.2088 44.7469 54.235 44.7079 54.268 44.6752C54.3011 44.6425 54.3403 44.6166 54.3833 44.5991C54.4264 44.5816 54.4725 44.5728 54.519 44.5733Z" fill="white"/>
<path fill-rule="evenodd" clip-rule="evenodd" d="M54.1798 45.6484C54.2146 45.6484 54.248 45.6623 54.2726 45.6869C54.2972 45.7115 54.311 45.7448 54.311 45.7796C54.311 45.8144 54.2972 45.8478 54.2726 45.8724C54.248 45.897 54.2146 45.9108 54.1798 45.9108C54.145 45.9108 54.1116 45.897 54.087 45.8724C54.0624 45.8478 54.0486 45.8144 54.0486 45.7796C54.0501 45.7453 54.0645 45.7129 54.0887 45.6886C54.113 45.6643 54.1455 45.65 54.1798 45.6484Z" fill="white"/>
<path fill-rule="evenodd" clip-rule="evenodd" d="M15.3005 29.7598C15.7714 29.7598 16.2317 29.8994 16.6232 30.161C17.0147 30.4226 17.3199 30.7944 17.5 31.2295C17.6802 31.6645 17.7274 32.1432 17.6355 32.605C17.5437 33.0669 17.3169 33.4911 16.984 33.824C16.651 34.157 16.2268 34.3838 15.7649 34.4756C15.3031 34.5675 14.8244 34.5203 14.3894 34.3401C13.9544 34.1599 13.5825 33.8548 13.3209 33.4633C13.0593 33.0717 12.9197 32.6114 12.9197 32.1406C12.9197 31.5091 13.1705 30.9036 13.617 30.4571C14.0635 30.0106 14.669 29.7598 15.3005 29.7598V29.7598Z" fill="#8BD4F3"/>
<path fill-rule="evenodd" clip-rule="evenodd" d="M14.741 30.5596C14.8344 30.5596 14.9257 30.5872 15.0034 30.639C15.0812 30.6907 15.1419 30.7643 15.1779 30.8505C15.2139 30.9367 15.2237 31.0315 15.2059 31.1232C15.1881 31.2149 15.1437 31.2993 15.0781 31.3658C15.0125 31.4323 14.9287 31.4779 14.8372 31.4969C14.7458 31.5159 14.6508 31.5074 14.5641 31.4725C14.4775 31.4377 14.4031 31.378 14.3503 31.3009C14.2975 31.2239 14.2686 31.133 14.2674 31.0396C14.2665 30.9768 14.2782 30.9146 14.3016 30.8564C14.325 30.7982 14.3597 30.7452 14.4038 30.7005C14.4479 30.6559 14.5004 30.6204 14.5582 30.5962C14.6161 30.572 14.6782 30.5596 14.741 30.5596Z" fill="white"/>
<path fill-rule="evenodd" clip-rule="evenodd" d="M14.2852 32C14.32 32 14.354 32.0103 14.3829 32.0297C14.4119 32.049 14.4344 32.0765 14.4478 32.1086C14.4611 32.1408 14.4646 32.1762 14.4578 32.2103C14.451 32.2445 14.4342 32.2758 14.4096 32.3004C14.385 32.3251 14.3536 32.3418 14.3195 32.3486C14.2854 32.3554 14.25 32.3519 14.2178 32.3386C14.1856 32.3253 14.1582 32.3027 14.1388 32.2738C14.1195 32.2448 14.1092 32.2108 14.1092 32.176C14.1087 32.1533 14.1128 32.1307 14.1211 32.1096C14.1294 32.0885 14.1418 32.0692 14.1575 32.0529C14.1733 32.0365 14.1921 32.0234 14.2129 32.0144C14.2337 32.0053 14.2561 32.0004 14.2788 32H14.2852Z" fill="white"/>
<path fill-rule="evenodd" clip-rule="evenodd" d="M18.4497 38.3291C18.6276 38.3291 18.8014 38.3818 18.9493 38.4806C19.0972 38.5794 19.2124 38.7199 19.2805 38.8842C19.3485 39.0485 19.3664 39.2293 19.3317 39.4037C19.297 39.5782 19.2113 39.7384 19.0856 39.8641C18.9598 39.9899 18.7996 40.0755 18.6252 40.1102C18.4507 40.1449 18.2699 40.1271 18.1056 40.0591C17.9413 39.991 17.8009 39.8757 17.7021 39.7279C17.6033 39.58 17.5505 39.4061 17.5505 39.2283C17.5505 38.9907 17.6449 38.7628 17.813 38.5947C17.981 38.4267 18.2089 38.3323 18.4465 38.3323L18.4497 38.3291Z" fill="#8BD4F3"/>
<path fill-rule="evenodd" clip-rule="evenodd" d="M18.2936 38.6875C18.3366 38.6875 18.3787 38.7003 18.4144 38.7242C18.4502 38.7481 18.4781 38.7821 18.4946 38.8219C18.5111 38.8616 18.5154 38.9054 18.507 38.9476C18.4986 38.9898 18.4778 39.0286 18.4474 39.059C18.417 39.0894 18.3782 39.1102 18.336 39.1186C18.2938 39.1269 18.25 39.1226 18.2103 39.1062C18.1705 39.0897 18.1365 39.0618 18.1126 39.026C18.0887 38.9902 18.076 38.9482 18.076 38.9051C18.0755 38.8764 18.0809 38.8479 18.0916 38.8213C18.1024 38.7948 18.1184 38.7706 18.1387 38.7503C18.159 38.73 18.1832 38.714 18.2098 38.7032C18.2364 38.6924 18.2649 38.6871 18.2936 38.6875Z" fill="white"/>
<path fill-rule="evenodd" clip-rule="evenodd" d="M18.0856 39.3594C18.1014 39.3594 18.1169 39.3641 18.1301 39.3729C18.1432 39.3816 18.1535 39.3941 18.1595 39.4088C18.1656 39.4234 18.1672 39.4395 18.1641 39.455C18.161 39.4705 18.1534 39.4848 18.1422 39.4959C18.131 39.5071 18.1167 39.5148 18.1012 39.5178C18.0857 39.5209 18.0696 39.5193 18.055 39.5133C18.0404 39.5072 18.0279 39.497 18.0191 39.4838C18.0103 39.4707 18.0056 39.4552 18.0056 39.4394C18.0056 39.4182 18.014 39.3978 18.029 39.3828C18.044 39.3678 18.0644 39.3594 18.0856 39.3594Z" fill="white"/>
<path fill-rule="evenodd" clip-rule="evenodd" d="M15.8598 35.8398C16.1294 35.8392 16.3931 35.9185 16.6176 36.0678C16.8422 36.2171 17.0174 36.4296 17.1212 36.6784C17.2249 36.9273 17.2526 37.2013 17.2006 37.4658C17.1486 37.7304 17.0193 37.9736 16.8291 38.1647C16.6389 38.3558 16.3964 38.4862 16.132 38.5394C15.8677 38.5926 15.5936 38.5663 15.3442 38.4637C15.0949 38.3611 14.8816 38.1869 14.7313 37.9631C14.581 37.7392 14.5004 37.4759 14.4998 37.2062C14.4993 37.0272 14.5342 36.8499 14.6023 36.6843C14.6704 36.5188 14.7705 36.3683 14.8968 36.2414C15.0231 36.1145 15.1731 36.0137 15.3383 35.9448C15.5036 35.8759 15.6807 35.8403 15.8598 35.8398Z" fill="#8BD4F3"/>
<path fill-rule="evenodd" clip-rule="evenodd" d="M15.6616 36.1602C15.7318 36.1602 15.8005 36.181 15.8589 36.22C15.9173 36.259 15.9629 36.3145 15.9898 36.3794C16.0166 36.4443 16.0237 36.5157 16.01 36.5847C15.9963 36.6536 15.9624 36.7168 15.9128 36.7665C15.8631 36.8162 15.7998 36.85 15.7309 36.8637C15.662 36.8774 15.5906 36.8704 15.5257 36.8435C15.4608 36.8166 15.4053 36.7711 15.3663 36.7127C15.3272 36.6543 15.3064 36.5856 15.3064 36.5154C15.3064 36.4212 15.3438 36.3308 15.4104 36.2642C15.477 36.1976 15.5674 36.1602 15.6616 36.1602Z" fill="white"/>
<path fill-rule="evenodd" clip-rule="evenodd" d="M15.3196 37.2383C15.3544 37.2383 15.3877 37.2521 15.4123 37.2767C15.4369 37.3013 15.4508 37.3347 15.4508 37.3695C15.4535 37.3865 15.4529 37.4039 15.4489 37.4207C15.4449 37.4374 15.4376 37.4533 15.4275 37.4672C15.4174 37.4812 15.4047 37.493 15.39 37.5021C15.3753 37.5111 15.359 37.5172 15.342 37.5199C15.3077 37.5246 15.273 37.5159 15.245 37.4956C15.217 37.4754 15.1978 37.4451 15.1916 37.4111C15.1884 37.3974 15.1884 37.3832 15.1916 37.3695C15.1911 37.3527 15.194 37.3359 15.2001 37.3202C15.2061 37.3046 15.2152 37.2902 15.2268 37.278C15.2384 37.2658 15.2523 37.2561 15.2676 37.2492C15.283 37.2424 15.2996 37.2387 15.3164 37.2383H15.3196Z" fill="white"/>
<path fill-rule="evenodd" clip-rule="evenodd" d="M45.7128 53.6094C45.454 53.6094 45.201 53.6861 44.9857 53.8299C44.7705 53.9738 44.6027 54.1782 44.5037 54.4173C44.4046 54.6565 44.3787 54.9196 44.4292 55.1735C44.4797 55.4274 44.6044 55.6606 44.7874 55.8436C44.9704 56.0267 45.2036 56.1513 45.4575 56.2018C45.7114 56.2523 45.9746 56.2264 46.2137 56.1274C46.4529 56.0283 46.6573 55.8605 46.8011 55.6453C46.9449 55.4301 47.0216 55.177 47.0216 54.9182C47.0216 54.5711 46.8838 54.2382 46.6383 53.9927C46.3929 53.7473 46.06 53.6094 45.7128 53.6094Z" fill="#8BD4F3"/>
<path fill-rule="evenodd" clip-rule="evenodd" d="M46.0207 54.0508C45.9694 54.0508 45.9193 54.066 45.8767 54.0945C45.834 54.1229 45.8008 54.1634 45.7812 54.2108C45.7616 54.2582 45.7565 54.3103 45.7665 54.3605C45.7765 54.4108 45.8011 54.457 45.8374 54.4933C45.8736 54.5295 45.9198 54.5542 45.9701 54.5642C46.0204 54.5742 46.0725 54.5691 46.1199 54.5495C46.1672 54.5298 46.2077 54.4966 46.2362 54.454C46.2647 54.4114 46.2799 54.3612 46.2799 54.31C46.2799 54.2412 46.2526 54.1753 46.204 54.1267C46.1553 54.0781 46.0894 54.0508 46.0207 54.0508Z" fill="white"/>
<path fill-rule="evenodd" clip-rule="evenodd" d="M46.2696 54.8418C46.2447 54.8433 46.2211 54.8539 46.2034 54.8716C46.1858 54.8893 46.1752 54.9128 46.1736 54.9378C46.1732 54.9505 46.1754 54.9632 46.18 54.9751C46.1847 54.9869 46.1918 54.9977 46.2008 55.0067C46.2098 55.0157 46.2205 55.0227 46.2324 55.0274C46.2442 55.0321 46.2569 55.0342 46.2696 55.0338C46.2818 55.0342 46.294 55.0322 46.3054 55.028C46.3168 55.0237 46.3273 55.0172 46.3362 55.0089C46.3451 55.0006 46.3523 54.9906 46.3574 54.9795C46.3624 54.9684 46.3652 54.9564 46.3657 54.9442C46.3661 54.9315 46.3639 54.9188 46.3593 54.9069C46.3546 54.8951 46.3475 54.8843 46.3385 54.8753C46.3295 54.8663 46.3188 54.8593 46.3069 54.8546C46.2951 54.8499 46.2824 54.8478 46.2696 54.8482V54.8418Z" fill="white"/>
<path fill-rule="evenodd" clip-rule="evenodd" d="M44.2289 56.0576C44.1314 56.0576 44.0361 56.0865 43.9551 56.1407C43.8741 56.1948 43.8109 56.2718 43.7736 56.3618C43.7363 56.4519 43.7265 56.551 43.7456 56.6466C43.7646 56.7421 43.8115 56.83 43.8804 56.8989C43.9493 56.9678 44.0371 57.0147 44.1327 57.0337C44.2283 57.0528 44.3274 57.043 44.4175 57.0057C44.5075 56.9684 44.5845 56.9052 44.6386 56.8242C44.6928 56.7432 44.7217 56.6479 44.7217 56.5504C44.7217 56.4197 44.6698 56.2944 44.5773 56.202C44.4849 56.1095 44.3596 56.0576 44.2289 56.0576Z" fill="#8BD4F3"/>
<path fill-rule="evenodd" clip-rule="evenodd" d="M44.3157 56.2533C44.2839 56.2486 44.2516 56.2563 44.2254 56.2747C44.1992 56.2932 44.1811 56.3211 44.1749 56.3525C44.1702 56.3847 44.1783 56.4174 44.1975 56.4437C44.2166 56.47 44.2452 56.4878 44.2773 56.4933H44.3157C44.3441 56.4886 44.37 56.474 44.3887 56.452C44.4074 56.4301 44.4176 56.4022 44.4176 56.3733C44.4176 56.3445 44.4074 56.3166 44.3887 56.2946C44.37 56.2726 44.3441 56.258 44.3157 56.2533Z" fill="white"/>
<path fill-rule="evenodd" clip-rule="evenodd" d="M44.4313 56.6172C44.4224 56.6172 44.4138 56.6198 44.4064 56.6247C44.399 56.6297 44.3933 56.6367 44.3899 56.6448C44.3865 56.653 44.3856 56.662 44.3873 56.6707C44.3891 56.6794 44.3933 56.6874 44.3996 56.6937C44.4059 56.6999 44.4138 56.7042 44.4225 56.7059C44.4312 56.7077 44.4402 56.7068 44.4484 56.7034C44.4566 56.7 44.4636 56.6942 44.4685 56.6869C44.4734 56.6795 44.4761 56.6708 44.4761 56.662C44.4761 56.6501 44.4714 56.6387 44.463 56.6303C44.4546 56.6219 44.4432 56.6172 44.4313 56.6172Z" fill="white"/>
<path fill-rule="evenodd" clip-rule="evenodd" d="M45.1782 57.7852C45.0301 57.7852 44.8854 57.8291 44.7622 57.9114C44.6391 57.9936 44.5431 58.1106 44.4864 58.2474C44.4298 58.3842 44.4149 58.5348 44.4438 58.68C44.4727 58.8253 44.544 58.9587 44.6488 59.0634C44.7535 59.1682 44.8869 59.2395 45.0322 59.2684C45.1774 59.2973 45.328 59.2824 45.4648 59.2258C45.6016 59.1691 45.7186 59.0731 45.8008 58.95C45.8831 58.8268 45.927 58.6821 45.927 58.534C45.927 58.3354 45.8481 58.1449 45.7077 58.0045C45.5673 57.864 45.3768 57.7852 45.1782 57.7852Z" fill="#8BD4F3"/>
<path fill-rule="evenodd" clip-rule="evenodd" d="M45.2875 57.9612C45.2365 57.9612 45.1877 57.9814 45.1517 58.0174C45.1157 58.0534 45.0955 58.1023 45.0955 58.1532C45.0955 58.1918 45.1069 58.2296 45.1284 58.2617C45.1498 58.2938 45.1803 58.3188 45.216 58.3335C45.2516 58.3483 45.2909 58.3522 45.3287 58.3447C45.3666 58.3371 45.4014 58.3185 45.4287 58.2912C45.456 58.2639 45.4746 58.2292 45.4821 58.1913C45.4896 58.1534 45.4858 58.1142 45.471 58.0785C45.4562 58.0428 45.4312 58.0124 45.3991 57.9909C45.367 57.9695 45.3293 57.958 45.2907 57.958L45.2875 57.9612Z" fill="white"/>
<path fill-rule="evenodd" clip-rule="evenodd" d="M45.4764 58.5597C45.4669 58.5573 45.457 58.557 45.4474 58.5587C45.4378 58.5604 45.4286 58.564 45.4205 58.5694C45.4124 58.5749 45.4054 58.5819 45.4002 58.5901C45.3949 58.5984 45.3915 58.6076 45.39 58.6173C45.3861 58.6359 45.3896 58.6553 45.3997 58.6714C45.4099 58.6875 45.4259 58.6991 45.4444 58.7037H45.4764C45.495 58.7037 45.5129 58.6962 45.5261 58.683C45.5393 58.6698 45.5468 58.6519 45.5468 58.6333C45.5472 58.624 45.5458 58.6148 45.5426 58.6061C45.5395 58.5974 45.5347 58.5894 45.5284 58.5825C45.5222 58.5757 45.5147 58.5701 45.5063 58.5662C45.4979 58.5623 45.4888 58.5601 45.4796 58.5597H45.4764Z" fill="white"/>
</g>
<path d="M72.7989 42.8L86.9989 20.2L87.0389 20.16V20.12C87.0389 20.0933 87.0256 20.08 86.9989 20.08H73.4389C73.0922 20.08 72.7856 19.9467 72.5189 19.68C72.2522 19.4133 72.1189 19.0933 72.1189 18.72C72.1189 18.3733 72.2389 18.0667 72.4789 17.8C72.7456 17.5333 73.0656 17.4 73.4389 17.4H89.4389C89.8122 17.4 90.1189 17.5333 90.3589 17.8C90.6256 18.0667 90.7589 18.3733 90.7589 18.72C90.7589 19.7067 90.5322 20.5333 90.0789 21.2L75.8789 43.8L75.8389 43.84V43.88C75.8389 43.9067 75.8522 43.92 75.8789 43.92H89.4389C89.7856 43.92 90.0922 44.0533 90.3589 44.32C90.6256 44.5867 90.7589 44.9067 90.7589 45.28C90.7589 45.6267 90.6256 45.9333 90.3589 46.2C90.1189 46.4667 89.8122 46.6 89.4389 46.6H73.4389C73.0656 46.6 72.7456 46.4667 72.4789 46.2C72.2389 45.9333 72.1189 45.6267 72.1189 45.28C72.1189 44.2933 72.3456 43.4667 72.7989 42.8Z" fill="white"/>
<path d="M106.066 35.6C103.426 35.6 101.426 36.0267 100.066 36.88C98.7328 37.7333 98.0661 38.9333 98.0661 40.48C98.0661 41.68 98.3994 42.6533 99.0661 43.4C99.7594 44.12 100.666 44.48 101.786 44.48C103.706 44.48 105.293 43.84 106.546 42.56C107.826 41.28 108.466 39.5867 108.466 37.48V35.96C108.466 35.72 108.346 35.6 108.106 35.6H106.066ZM101.146 47C99.3328 47 97.8528 46.4267 96.7061 45.28C95.5594 44.1333 94.9861 42.6133 94.9861 40.72C94.9861 38.5067 95.8661 36.7333 97.6261 35.4C99.3861 34.0667 102.199 33.4 106.066 33.4H108.106C108.346 33.4 108.466 33.2933 108.466 33.08V32.32C108.466 30.6933 108.093 29.56 107.346 28.92C106.599 28.2533 105.279 27.92 103.386 27.92C101.546 27.92 99.5594 28.2667 97.4261 28.96C97.1061 29.0667 96.8128 29.0267 96.5461 28.84C96.2794 28.6533 96.1461 28.3867 96.1461 28.04C96.1461 27.1067 96.5861 26.5067 97.4661 26.24C99.4394 25.68 101.413 25.4 103.386 25.4C106.453 25.4 108.573 25.96 109.746 27.08C110.946 28.2 111.546 30.2133 111.546 33.12V45.16C111.546 45.56 111.399 45.9067 111.106 46.2C110.839 46.4667 110.506 46.6 110.106 46.6C109.706 46.6 109.359 46.4667 109.066 46.2C108.773 45.9067 108.626 45.56 108.626 45.16L108.586 43.08C108.586 43.0533 108.573 43.04 108.546 43.04C108.493 43.04 108.466 43.0667 108.466 43.12C106.893 45.7067 104.453 47 101.146 47Z" fill="white"/>
<path d="M120.073 46.12C119.78 46.44 119.407 46.6 118.953 46.6C118.5 46.6 118.113 46.44 117.793 46.12C117.5 45.8 117.353 45.4267 117.353 45V27.32C117.353 26.8933 117.5 26.5333 117.793 26.24C118.087 25.9467 118.447 25.8 118.873 25.8C119.3 25.8 119.66 25.9467 119.953 26.24C120.247 26.5333 120.393 26.8933 120.393 27.32V30.4C120.393 30.4267 120.407 30.44 120.433 30.44C120.487 30.44 120.513 30.4133 120.513 30.36C121.313 29.0267 122.433 27.96 123.873 27.16C125.34 26.3333 126.98 25.88 128.793 25.8C129.167 25.7733 129.487 25.8933 129.753 26.16C130.02 26.4267 130.153 26.7467 130.153 27.12C130.153 27.4667 130.02 27.7733 129.753 28.04C129.513 28.3067 129.207 28.4533 128.833 28.48C126.193 28.5867 124.153 29.36 122.713 30.8C121.273 32.2133 120.553 34.2 120.553 36.76V45C120.553 45.4267 120.393 45.8 120.073 46.12Z" fill="white"/>
<path d="M135.761 29C135.414 29 135.121 28.8933 134.881 28.68C134.668 28.44 134.561 28.1467 134.561 27.8C134.561 27.4533 134.668 27.1733 134.881 26.96C135.121 26.72 135.414 26.6 135.761 26.6H139.121C139.361 26.6 139.481 26.48 139.481 26.24V24.32C139.481 21.76 140.014 19.9067 141.081 18.76C142.174 17.5867 143.908 17 146.281 17C147.161 17 147.974 17.0933 148.721 17.28C149.068 17.36 149.348 17.5467 149.561 17.84C149.774 18.1067 149.881 18.4267 149.881 18.8C149.881 19.0933 149.761 19.3333 149.521 19.52C149.281 19.68 149.028 19.72 148.761 19.64C148.121 19.48 147.468 19.4 146.801 19.4C145.254 19.4 144.174 19.7467 143.561 20.44C142.974 21.1067 142.681 22.36 142.681 24.2V26.24C142.681 26.48 142.801 26.6 143.041 26.6H148.281C148.628 26.6 148.908 26.72 149.121 26.96C149.361 27.1733 149.481 27.4533 149.481 27.8C149.481 28.1467 149.361 28.44 149.121 28.68C148.908 28.8933 148.628 29 148.281 29H143.041C142.801 29 142.681 29.12 142.681 29.36V45C142.681 45.4267 142.521 45.8 142.201 46.12C141.881 46.44 141.508 46.6 141.081 46.6C140.654 46.6 140.281 46.44 139.961 46.12C139.641 45.8 139.481 45.4267 139.481 45V29.36C139.481 29.12 139.361 29 139.121 29H135.761Z" fill="white"/>
<defs>
<linearGradient id="paint0_linear_2_38671" x1="31.315" y1="61.3765" x2="31.315" y2="1.805" gradientUnits="userSpaceOnUse">
<stop stop-color="#7BD5F5"/>
<stop offset="1" stop-color="#DCCFE5"/>
</linearGradient>
<linearGradient id="paint1_linear_2_38671" x1="31.315" y1="61.3765" x2="31.315" y2="1.805" gradientUnits="userSpaceOnUse">
<stop stop-color="#7BD5F5"/>
<stop offset="1" stop-color="#DCCFE5"/>
</linearGradient>
<linearGradient id="paint2_linear_2_38671" x1="31.315" y1="61.3765" x2="31.315" y2="1.805" gradientUnits="userSpaceOnUse">
<stop stop-color="#7BD5F5"/>
<stop offset="1" stop-color="#DCCFE5"/>
</linearGradient>
<linearGradient id="paint3_linear_2_38671" x1="31.315" y1="61.3765" x2="31.315" y2="1.805" gradientUnits="userSpaceOnUse">
<stop stop-color="#7BD5F5"/>
<stop offset="1" stop-color="#DCCFE5"/>
</linearGradient>
<linearGradient id="paint4_linear_2_38671" x1="31.315" y1="61.3765" x2="31.315" y2="1.805" gradientUnits="userSpaceOnUse">
<stop stop-color="#7BD5F5"/>
<stop offset="1" stop-color="#DCCFE5"/>
</linearGradient>
<linearGradient id="paint5_linear_2_38671" x1="31.315" y1="61.3765" x2="31.315" y2="1.805" gradientUnits="userSpaceOnUse">
<stop stop-color="#7BD5F5"/>
<stop offset="1" stop-color="#DCCFE5"/>
</linearGradient>
<linearGradient id="paint6_linear_2_38671" x1="31.315" y1="61.3765" x2="31.315" y2="1.805" gradientUnits="userSpaceOnUse">
<stop stop-color="#7BD5F5"/>
<stop offset="1" stop-color="#DCCFE5"/>
</linearGradient>
<linearGradient id="paint7_linear_2_38671" x1="31.315" y1="61.3765" x2="31.315" y2="1.805" gradientUnits="userSpaceOnUse">
<stop stop-color="#7BD5F5"/>
<stop offset="1" stop-color="#DCCFE5"/>
</linearGradient>
<linearGradient id="paint8_linear_2_38671" x1="31.315" y1="61.3765" x2="31.315" y2="1.805" gradientUnits="userSpaceOnUse">
<stop stop-color="#7BD5F5"/>
<stop offset="1" stop-color="#DCCFE5"/>
</linearGradient>
<clipPath id="clip0_2_38671">
<rect width="64" height="64" fill="white" transform="translate(0.118896)"/>
</clipPath>
</defs>
</svg>
