<svg width="32" height="32" viewBox="0 0 32 32" fill="none" xmlns="http://www.w3.org/2000/svg">
<path fill-rule="evenodd" clip-rule="evenodd" d="M6.29901 6.38334L6.24485 6.34833C4.78087 6.31808 2.99669 6.78443 0.968786 8.29012C1.60599 8.85993 5.53914 12.0305 10.3373 9.44406C10.2103 9.29191 10.1126 9.11761 10.049 8.92996C9.99799 8.70395 10.264 8.3697 10.5189 8.11027C9.38117 7.03201 7.88847 6.40601 6.32131 6.34992L6.29901 6.38334ZM8.628 28.8604C13.468 30.343 16.2192 25.8687 16.2535 25.8129L16.2538 25.8124C16.2738 25.7809 16.3054 25.7586 16.3418 25.7503C16.3782 25.7419 16.4164 25.7482 16.4481 25.7679C16.4742 25.7842 16.4943 25.8085 16.5055 25.8372C16.5167 25.8659 16.5184 25.8974 16.5102 25.927C16.2901 26.8474 15.8605 27.7047 15.2549 28.4323C17.1905 27.5028 18.7596 25.9621 19.1578 24.1205C19.0272 24.0807 18.6799 23.6797 18.6592 23.643C19.3777 24.0601 19.701 24.0632 20.5565 24.181L20.6425 24.1938V24.2797C20.6418 24.4952 20.7242 24.7027 20.8725 24.8591C21.0208 25.0156 21.2236 25.109 21.439 25.1201C22.0768 24.8627 24.0651 24.579 24.7084 24.4872C24.7176 24.4859 24.7264 24.4847 24.735 24.4834C24.5083 24.3368 24.2714 24.2064 24.0261 24.0935L23.8317 24.0012L24.0229 23.9041C24.321 23.7738 24.6257 23.659 24.9357 23.5603C24.3765 23.3024 23.631 23.4409 23.6294 23.4409L23.4223 23.4775C23.6613 23 24.1742 22.7183 24.6107 22.4286C23.8923 22.3681 22.817 22.9157 22.5892 23.0366C22.5557 23.2117 22.5159 23.4536 22.3996 23.573C22.4139 23.1974 22.4442 22.6483 22.4793 22.314C22.1097 22.747 21.3419 23.5635 21.3387 23.5651C21.3496 23.3491 21.4404 23.1449 21.5935 22.9921C21.7831 21.6185 20.848 20.3388 20.5884 20.0141C20.496 20.2035 20.394 20.3977 20.2968 20.5839C20.2941 20.5892 20.2914 20.5944 20.2887 20.5996C20.0658 21.0294 19.8666 21.4133 19.8572 21.558L20.4275 22.6721C20.4405 22.6966 20.4432 22.7253 20.4352 22.7518C20.4271 22.7784 20.4089 22.8006 20.3844 22.8138C20.3699 22.8212 20.3538 22.8251 20.3375 22.8251C20.3211 22.8251 20.305 22.8212 20.2905 22.8138L19.5879 22.4955C19.5481 22.8584 19.5067 23.2213 19.4669 23.5842C19.4669 23.6797 19.3076 23.6749 19.2677 23.6208L18.7898 22.6562L18.1526 23.5969C18.1064 23.6637 17.9567 23.608 17.9599 23.5364C17.9599 23.1687 17.9599 22.8027 17.971 22.435L17.2303 22.5178C17.216 22.5184 17.2018 22.5162 17.1884 22.5114C17.1751 22.5065 17.1628 22.4991 17.1523 22.4895C17.1417 22.4799 17.1332 22.4683 17.1272 22.4554C17.1212 22.4425 17.1178 22.4285 17.1172 22.4143C17.1164 22.3997 17.1187 22.385 17.1239 22.3713C17.1291 22.3576 17.1371 22.3451 17.1474 22.3347C17.1474 22.3347 18.0809 21.4864 18.3454 20.6858C18.6098 19.8852 18.5047 17.9434 18.5047 17.937C18.7851 18.4145 18.6767 20.3515 18.5445 20.7526C18.347 21.3479 17.8117 21.9591 17.5075 22.2742L18.1829 22.1994C18.1829 22.5289 18.1829 22.86 18.1718 23.1894L18.8217 22.2344C18.981 22.5528 19.1403 22.8711 19.2996 23.2006L19.4143 22.1835L20.112 22.4875L19.6628 21.6105C19.6644 21.5958 19.6604 21.581 19.6517 21.5691C19.6389 21.3829 19.8651 20.9484 20.1168 20.4661C20.3685 19.9839 20.6696 19.4061 20.7285 19.0735C20.8289 18.5148 20.3414 16.9868 20.2108 16.5921C18.9618 16.9058 17.6648 16.9819 16.3876 16.8165C15.0967 16.6632 13.8394 16.3015 12.6647 15.7453C12.4496 16.1114 11.6069 17.6871 11.8682 19.4952V19.5478L11.8316 19.5844C11.8316 19.5844 9.65868 21.7808 10.5332 23.4727C10.5221 23.1 10.5451 22.7271 10.6017 22.3586C10.6164 22.2633 10.6459 22.1709 10.6894 22.0848C10.7515 21.9766 10.8343 21.9368 10.9395 21.9941C11.0114 22.0436 11.0669 22.1134 11.0988 22.1947C11.4636 22.9141 11.5464 24.4468 11.548 24.4516C11.5591 24.5566 11.3887 24.7142 11.3361 24.4643C11.3361 24.4643 11.2549 22.9698 10.9092 22.2902C10.8948 22.2612 10.8789 22.233 10.8614 22.2058C10.8356 22.2677 10.8169 22.3323 10.8056 22.3984C10.742 22.8239 10.7243 23.2551 10.7531 23.6844C10.7642 23.7895 10.7292 23.8436 10.6479 23.8436C10.5667 23.8436 10.4679 23.7369 10.3293 23.5651C10.3291 23.5647 10.3288 23.5644 10.3285 23.564C9.97776 23.1292 9.26784 22.249 8.56109 22.4939C8.86217 22.7772 9.6316 23.5396 9.6077 23.9264V24.1189L9.4484 24.0234C9.4484 24.0234 8.62003 23.4918 7.79485 23.6383C8.13098 23.8643 8.81916 24.302 9.10431 24.3068C9.25406 24.372 9.22538 24.4993 9.11705 24.5184C8.79449 24.5439 8.4779 24.6196 8.17877 24.7429C8.56269 24.7938 9.93109 25.0437 10.1573 25.3143C10.1573 25.3143 10.9347 26.2613 11.4986 25.7424C11.5337 25.6994 11.8061 25.3493 11.7822 25.1615L11.7917 25.1026C12.1693 24.3163 13.595 23.2467 13.9885 23.8293C13.758 23.8065 13.5253 23.8342 13.3067 23.9104C13.2634 24.5451 13.0633 25.1592 12.7245 25.6977C12.3856 26.2363 11.9185 26.6825 11.3648 26.9966C10.8065 27.3117 10.1801 27.487 9.5392 27.5075C8.87989 27.5297 8.22564 27.3852 7.63714 27.0873C6.68134 26.6019 5.83863 25.6867 5.36232 24.2765C5.63791 26.3345 6.57301 27.6922 7.83468 28.4832C7.92389 28.5389 8.63119 28.8525 8.63119 28.8525L8.628 28.8604ZM14.8981 28.8175C14.3924 29.3269 13.807 29.7505 13.1649 30.0717C12.4231 30.4404 11.6225 30.6769 10.7993 30.7704C9.97719 30.8718 9.14356 30.8249 8.33807 30.6319C7.46714 30.4274 6.65241 30.0326 5.95249 29.4758C5.25257 28.9191 4.68486 28.2143 4.29022 27.412C3.16077 25.0994 3.35512 22.696 3.93976 21.3399C4.08332 20.9641 4.33752 20.6647 4.64062 20.3998C4.921 20.185 5.16344 20.2232 5.44062 20.3998C5.77356 20.6131 6.00292 21.098 6.16062 22.0816C6.23231 22.5385 6.72275 23.8087 7.50492 24.8798C7.9446 25.4815 8.49737 26.0974 9.11705 26.3998C9.42723 26.5597 9.8322 26.6357 10.1812 26.6398C10.5302 26.644 11.0175 26.6306 11.2613 26.3998C11.8029 26.1515 12.4321 25.6263 13.0406 24.8798C13.1315 24.614 13.0596 24.285 13.0916 24.0059C12.4433 24.3418 12.0705 25.0278 12.002 25.1631C12.002 25.4527 11.6675 25.8729 11.6659 25.8745C10.9761 26.5732 10.0888 25.6374 9.99162 25.4129C9.56469 25.1837 6.30721 24.9637 8.72062 24.4798C8.31114 24.2745 7.87916 23.9374 7.50492 23.6733C7.49352 23.6659 7.48368 23.6563 7.47599 23.6451C7.46829 23.6339 7.4788 23.629 7.47599 23.6157C7.47348 23.6291 7.47318 23.6024 7.47599 23.6157C7.47849 23.6023 7.49749 23.5953 7.50492 23.5839C7.51786 23.5628 7.73673 23.5263 7.76062 23.5198C8.48062 23.4398 9.07901 23.66 9.44063 23.8398C9.21601 23.3894 8.34763 22.563 8.34604 22.5598C8.35261 22.5712 8.33555 22.5519 8.34604 22.5598C8.33946 22.5485 8.32226 22.5254 8.32062 22.5123C8.31899 22.4993 8.31706 22.4925 8.32062 22.4798C8.31243 22.4901 8.32419 22.4672 8.32062 22.4798C8.33009 22.4668 8.38606 22.4067 8.40062 22.3998C9.20062 22.2058 9.78343 22.6969 10.2406 23.1998C9.91246 21.6225 11.4226 19.7936 11.6806 19.5198C11.4321 17.6911 12.3249 16.0825 12.5606 15.6798C12.166 15.4827 11.7115 15.2166 11.3489 14.9654C10.5394 14.4313 9.8636 13.7185 9.37353 12.882C8.82658 13.3648 8.19894 13.7479 7.51926 14.0136C6.31494 14.5023 4.67414 14.8413 2.44392 14.8142H2.28462C2.30373 14.7665 2.32285 14.7187 2.34037 14.671C2.34037 14.6614 3.52876 11.6612 5.14089 10.5327C3.50251 10.2162 1.97949 9.46529 0.731427 8.35856L0.640625 8.27261L0.739392 8.19781C2.71792 6.70008 4.4766 6.17165 5.94696 6.12868C3.79001 4.45109 3.38698 1.21052 3.38539 1.19461C3.3818 1.1503 3.37595 1.10621 3.36787 1.0625L3.50009 1.07682C9.09316 1.64345 10.8869 4.40971 11.2055 4.98588C12.8419 3.95539 14.7569 3.4551 16.6887 3.55341C19.5163 3.69029 21.7353 5.02408 22.3598 5.53022C23.8923 3.55341 27.1579 2.80216 30.0158 2.91676C29.7832 4.87924 28.5821 6.22577 26.9397 7.04228C29.342 6.94837 30.465 7.72987 30.4682 7.73305L30.5606 7.79512L30.4937 7.88425C29.1572 9.63505 27.7207 10.3211 26.6406 10.5598C28.3515 11.4114 29.1206 12.6799 29.1206 12.6799C29.0406 12.7372 29.1381 12.7117 29.1206 12.6799L29.068 12.8136C26.6406 13.8625 24.9038 13.1552 24.429 12.926C24.2873 13.3686 24.0351 13.8347 23.7712 14.2174C23.2248 14.9937 22.4933 15.6217 21.6429 16.0446C21.2479 16.2448 20.8352 16.4078 20.4099 16.5316C20.5485 16.9486 21.0471 18.5068 20.934 19.1069C20.8797 19.3399 20.7984 19.5658 20.6919 19.7801C20.7795 19.8804 21.9196 21.3178 21.8638 22.8251C22.1283 22.5322 22.4538 22.1813 22.5892 21.9998C22.672 21.9139 22.7111 21.9043 22.7206 21.9998C22.7206 21.9998 22.6996 22.4772 22.6406 22.8798C23.0914 22.6554 24.2618 22.1052 24.9421 22.3456C24.9421 22.3456 25.0807 22.3618 24.9421 22.4477C24.9421 22.4477 24.179 22.9949 23.8317 23.2798C24.1838 23.2576 24.8601 23.2611 25.2806 23.5603C25.4033 23.6462 25.2006 23.6798 25.2006 23.6798C25.2006 23.6798 24.6663 23.943 24.3206 24.0798C24.5723 24.2088 24.9689 24.4055 25.0406 24.5598C25.0406 24.5598 25.146 24.6139 24.9707 24.6426C24.9707 24.6426 22.2881 24.9816 21.5633 25.2872C21.4345 25.3058 21.3033 25.2987 21.1773 25.2662C21.0513 25.2338 20.933 25.1767 20.8293 25.0982C20.7256 25.0197 20.6385 24.9215 20.573 24.8091C20.5076 24.6967 20.4976 24.6087 20.4806 24.4798C20.4806 24.4798 20.5606 24.3998 20.4806 24.3998C20.2847 24.3712 19.7456 24.259 19.3665 24.1667C18.9077 26.2119 17.0933 27.8911 14.9061 28.8143L14.8981 28.8175ZM12.4353 25.7472C12.1277 26.185 11.7267 26.5492 11.2613 26.8136C10.7252 27.1169 10.1226 27.2832 9.50678 27.298C8.89096 27.3127 8.28104 27.1753 7.73113 26.8979C6.58575 26.3138 5.60764 25.0739 5.27789 23.0446C5.25399 22.8982 5.07558 22.8281 5.06921 23.0621C5.0931 25.8968 6.16839 27.689 7.72317 28.6631C7.97752 28.8491 8.25354 29.0035 8.54516 29.123C12.3684 30.2929 14.9491 27.9054 15.9845 26.6465C15.6777 27.4213 15.209 28.1218 14.6098 28.7013C14.1457 29.15 13.6161 29.5257 13.0391 29.8154C12.3265 30.1722 11.5573 30.4027 10.7658 30.4966C9.97814 30.5919 9.17975 30.5461 8.40816 30.3613C7.57655 30.1672 6.79842 29.7911 6.12986 29.2601C5.46129 28.7292 4.91895 28.0567 4.54192 27.2911C3.45389 25.0628 3.63549 22.7533 4.19623 21.4545C4.32071 21.1209 4.52401 20.8222 4.78883 20.5839C4.85819 20.5164 4.94777 20.4735 5.04386 20.4617C5.13996 20.4499 5.23727 20.4699 5.3209 20.5187C5.59012 20.6906 5.82907 21.1808 5.97085 22.0816C6.04732 22.5591 6.54115 23.8754 7.3504 24.9832C7.81397 25.6199 8.38108 26.1913 9.039 26.5144C9.38607 26.6938 9.77029 26.7899 10.1611 26.7949C10.5518 26.7998 10.9384 26.7136 11.2899 26.543C11.712 26.3409 12.0988 26.0722 12.4353 25.7472ZM15.3473 19.2008C15.5162 19.9202 15.6861 20.6386 15.8571 21.3559L16.8129 21.9543C16.883 22.0021 16.8129 22.1437 16.7747 22.1485L15.9782 22.2806C16.0276 22.5194 16.0976 23.0764 15.779 23.4234C15.6516 23.5619 15.6038 23.3932 15.5911 23.3693L15.3123 22.8727C15.2381 23.0269 15.1336 23.1646 15.0049 23.2775C14.8763 23.3905 14.7262 23.4764 14.5636 23.53C14.4043 23.5857 14.4234 23.4298 14.4234 23.4298C14.4234 23.2404 14.4234 23.0525 14.4122 22.8631C14.1561 23.0334 13.8482 23.1083 13.5424 23.0748C13.3067 23.0478 13.4851 22.8902 13.4851 22.8902C13.4851 22.8902 14.2673 22.1994 14.2497 21.9273C14.1476 21.706 14.0204 21.4972 13.8706 21.3049C13.3131 20.4805 12.3859 19.1069 12.4688 17.9752C12.6583 19.1228 13.5839 20.5218 14.0458 21.1872C14.0509 21.1946 14.0559 21.202 14.0608 21.2094C14.2889 21.548 14.4538 21.793 14.4616 21.9129C14.4791 22.174 14.0729 22.6164 13.8244 22.8679C14.0548 22.8363 14.2703 22.7359 14.4425 22.5798L14.6177 22.4079C14.6177 22.6976 14.6289 22.9873 14.6353 23.277C15.0606 23.0701 15.2565 22.4382 15.2948 22.4318C15.4047 22.6276 15.6134 22.9618 15.7153 23.1576C15.916 22.782 15.7504 22.2297 15.7504 22.2281L15.7169 22.1135L16.4624 21.9893L15.6978 21.5118C15.6835 21.4896 15.6675 21.4673 15.6516 21.4466L15.1259 19.2183V19.1721L15.4318 17.7683C15.5496 18.1615 15.3696 18.7233 15.3378 19.2008H15.3473ZM24.4275 12.769C24.428 12.7692 24.4285 12.7695 24.429 12.7698C24.8083 12.9637 26.6066 13.7559 28.8529 12.6799C28.6522 12.3615 27.8971 11.3381 26.3567 10.6473C25.7919 10.7328 25.2155 10.6987 24.6649 10.5471C24.7064 11.2958 24.6268 12.0464 24.429 12.7698C24.4285 12.7716 24.428 12.7735 24.4275 12.7754V12.769ZM24.6505 10.321C25.0759 10.4659 27.6629 11.1694 30.2436 7.85242C29.925 7.67097 28.7717 7.13459 26.6689 7.27147V7.19189C25.8726 7.60561 25.0276 7.91789 24.1535 8.12141C24.3572 8.64227 24.5026 9.18408 24.5868 9.73692C24.6171 9.9311 24.6394 10.1269 24.6553 10.321H24.6505ZM24.0691 7.92404C29.1556 6.70167 29.6717 3.82081 29.7896 3.14914C24.8513 2.98997 22.8759 5.17529 22.5016 5.66233C23.1784 6.29499 23.7128 7.06435 24.0691 7.91927V7.92404ZM5.47064 10.5837C6.92985 10.7874 8.64234 10.6107 10.4775 9.61277C10.6002 9.76238 10.7212 9.89449 10.7961 9.97566C10.581 10.1698 10.049 10.7015 10.2051 11.0898C10.2083 11.1093 10.2083 11.1292 10.2051 11.1487C10.2051 11.354 10.0458 11.7854 9.63638 12.2979C9.22697 12.8104 8.52127 13.3818 7.42368 13.829C6.28786 14.2922 4.7283 14.6248 2.608 14.6105C2.87562 13.9739 4.01941 11.4272 5.46427 10.59L5.47064 10.5837ZM10.6702 7.96384C10.6697 7.96333 10.6692 7.96283 10.6687 7.96233C9.48666 6.8409 7.93447 6.19085 6.30539 6.13505C4.28544 4.7551 3.71833 1.95222 3.61478 1.3108C9.62204 1.96177 11.0558 5.17211 11.0605 5.18006L11.1115 5.28989L11.2055 5.22463C12.8262 4.17597 14.7364 3.66417 16.6648 3.76192C19.5863 3.90357 21.8341 5.33764 22.2913 5.75783C23.4717 6.80194 24.144 8.28057 24.3749 9.76079C24.6251 11.3779 24.3447 13.003 23.588 14.09C23.0603 14.8337 22.3564 15.4352 21.5394 15.8408C20.0547 16.5969 18.21 16.7958 16.3971 16.5873C14.5843 16.3788 12.8081 15.739 11.4588 14.7967C10.6595 14.2685 9.99588 13.5597 9.52168 12.7276C9.62162 12.6264 9.71627 12.5202 9.80524 12.4093C10.2497 11.8793 10.409 11.3827 10.409 11.1439C10.4104 11.0968 10.4028 11.0498 10.3867 11.0055C10.2513 10.6744 10.9984 10.0664 11 10.0648L11.0908 9.99158L11.0096 9.90882C11.0096 9.90882 10.3277 9.2069 10.2497 8.8838C10.1844 8.59572 11.0717 7.88744 11.0749 7.88585L11.1354 7.8365L11.1067 7.76329C11.1067 7.76329 10.8566 7.15051 10.914 6.93405C10.9713 6.71758 11.8252 6.44701 11.8268 6.44701C11.2788 6.19553 10.726 6.81627 10.7117 6.88152C10.6527 7.11072 10.8168 7.58821 10.8853 7.76966C10.8346 7.81237 10.7572 7.87868 10.6687 7.96233C10.6681 7.96283 10.6676 7.96333 10.6671 7.96384H10.6702Z" fill="url(#paint0_linear_9354_84613)"/>
<path d="M6.30539 6.13505C7.93447 6.19085 9.48666 6.8409 10.6687 7.96233C10.7572 7.87868 10.8346 7.81237 10.8853 7.76966C10.8168 7.58821 10.6527 7.11072 10.7117 6.88152C10.726 6.81627 11.2788 6.19553 11.8268 6.44701C11.8252 6.44701 10.9713 6.71758 10.914 6.93405C10.8566 7.15051 11.1067 7.76329 11.1067 7.76329L11.1354 7.8365L11.0749 7.88585C11.0717 7.88744 10.1844 8.59572 10.2497 8.8838C10.3277 9.2069 11.0096 9.90882 11.0096 9.90882L11.0908 9.99158L11 10.0648C10.9984 10.0664 10.2513 10.6744 10.3867 11.0055C10.4028 11.0498 10.4104 11.0968 10.409 11.1439C10.409 11.3827 10.2497 11.8793 9.80524 12.4093C9.71627 12.5202 9.62162 12.6264 9.52168 12.7276C9.99588 13.5597 10.6595 14.2685 11.4588 14.7967C12.8081 15.739 14.5843 16.3788 16.3971 16.5873C18.21 16.7958 20.0547 16.5969 21.5394 15.8408C22.3564 15.4352 23.0603 14.8337 23.588 14.09C24.3447 13.003 24.6251 11.3779 24.3749 9.76079C24.144 8.28057 23.4717 6.80194 22.2913 5.75783C21.8341 5.33764 19.5863 3.90357 16.6648 3.76192C14.7364 3.66417 12.8262 4.17597 11.2055 5.22463L11.1115 5.28989L11.0605 5.18006C11.0558 5.17211 9.62204 1.96177 3.61478 1.3108C3.71833 1.95222 4.28544 4.7551 6.30539 6.13505Z" fill="url(#paint1_linear_9354_84613)"/>
<path d="M6.29901 6.38334L6.24485 6.34833C4.78087 6.31808 2.99669 6.78443 0.968786 8.29012C1.60599 8.85993 5.53914 12.0305 10.3373 9.44406C10.2103 9.29191 10.1126 9.11761 10.049 8.92996C9.99799 8.70395 10.264 8.3697 10.5189 8.11027C9.38117 7.03201 7.88847 6.40601 6.32131 6.34992L6.29901 6.38334Z" fill="url(#paint2_linear_9354_84613)"/>
<path d="M5.47064 10.5837C6.92985 10.7874 8.64234 10.6107 10.4775 9.61277C10.6002 9.76238 10.7212 9.89449 10.7961 9.97566C10.581 10.1698 10.049 10.7015 10.2051 11.0898C10.2083 11.1093 10.2083 11.1292 10.2051 11.1487C10.2051 11.354 10.0458 11.7854 9.63638 12.2979C9.22697 12.8104 8.52127 13.3818 7.42368 13.829C6.28786 14.2922 4.7283 14.6248 2.608 14.6105C2.87562 13.9739 4.01941 11.4272 5.46427 10.59L5.47064 10.5837Z" fill="url(#paint3_linear_9354_84613)"/>
<path d="M24.0691 7.92404C29.1556 6.70167 29.6717 3.82081 29.7896 3.14914C24.8513 2.98997 22.8759 5.17529 22.5016 5.66233C23.1784 6.29499 23.7128 7.06435 24.0691 7.91927V7.92404Z" fill="url(#paint4_linear_9354_84613)"/>
<path d="M24.6505 10.321C25.0759 10.4659 27.6629 11.1694 30.2436 7.85242C29.925 7.67097 28.7717 7.13459 26.6689 7.27147V7.19189C25.8726 7.60561 25.0276 7.91789 24.1535 8.12141C24.3572 8.64227 24.5026 9.18408 24.5868 9.73692C24.6171 9.9311 24.6394 10.1269 24.6553 10.321H24.6505Z" fill="url(#paint5_linear_9354_84613)"/>
<path d="M24.429 12.7698C24.8083 12.9637 26.6066 13.7559 28.8529 12.6799C28.6522 12.3615 27.8971 11.3381 26.3567 10.6473C25.7919 10.7328 25.2155 10.6987 24.6649 10.5471C24.7064 11.2958 24.6268 12.0464 24.429 12.7698Z" fill="url(#paint6_linear_9354_84613)"/>
<path fill-rule="evenodd" clip-rule="evenodd" d="M8.628 28.8604C13.468 30.343 16.2192 25.8687 16.2535 25.8129L16.2538 25.8124C16.2738 25.7809 16.3054 25.7586 16.3418 25.7503C16.3782 25.7419 16.4164 25.7482 16.4481 25.7679C16.4742 25.7842 16.4943 25.8085 16.5055 25.8372C16.5167 25.8659 16.5184 25.8974 16.5102 25.927C16.2901 26.8474 15.8605 27.7047 15.2549 28.4323C17.1905 27.5028 18.7596 25.9621 19.1578 24.1205C19.0272 24.0807 18.6799 23.6797 18.6592 23.643C19.3777 24.0601 19.701 24.0632 20.5565 24.181L20.6425 24.1938V24.2797C20.6418 24.4952 20.7242 24.7027 20.8725 24.8591C21.0208 25.0156 21.2236 25.109 21.439 25.1201C22.0768 24.8627 24.0651 24.579 24.7084 24.4872L24.735 24.4834C24.5083 24.3368 24.2714 24.2064 24.0261 24.0935L23.8317 24.0012L24.0229 23.9041C24.321 23.7738 24.6257 23.659 24.9357 23.5603C24.3765 23.3024 23.631 23.4409 23.6294 23.4409L23.4223 23.4775C23.6613 23 24.1742 22.7183 24.6107 22.4286C23.8923 22.3681 22.817 22.9157 22.5892 23.0366C22.5557 23.2117 22.5159 23.4536 22.3996 23.573C22.4139 23.1974 22.4442 22.6483 22.4793 22.314C22.1097 22.747 21.3419 23.5635 21.3387 23.5651C21.3496 23.3491 21.4404 23.1449 21.5935 22.9921C21.7831 21.6185 20.848 20.3388 20.5884 20.0141C20.496 20.2035 20.394 20.3977 20.2968 20.5839L20.2887 20.5996C20.0658 21.0294 19.8666 21.4133 19.8572 21.558L20.4275 22.6721C20.4405 22.6966 20.4432 22.7253 20.4352 22.7518C20.4271 22.7784 20.4089 22.8006 20.3844 22.8138C20.3699 22.8212 20.3538 22.8251 20.3375 22.8251C20.3211 22.8251 20.305 22.8212 20.2905 22.8138L19.5879 22.4955C19.5481 22.8584 19.5067 23.2213 19.4669 23.5842C19.4669 23.6797 19.3076 23.6749 19.2677 23.6208L18.7898 22.6562L18.1526 23.5969C18.1064 23.6637 17.9567 23.608 17.9599 23.5364C17.9599 23.1687 17.9599 22.8027 17.971 22.435L17.2303 22.5178C17.216 22.5184 17.2018 22.5162 17.1884 22.5114C17.1751 22.5065 17.1628 22.4991 17.1523 22.4895C17.1417 22.4799 17.1332 22.4683 17.1272 22.4554C17.1212 22.4425 17.1178 22.4285 17.1172 22.4143C17.1164 22.3997 17.1187 22.385 17.1239 22.3713C17.1291 22.3576 17.1371 22.3451 17.1474 22.3347C17.1474 22.3347 18.0809 21.4864 18.3454 20.6858C18.6098 19.8852 18.5047 17.9434 18.5047 17.937C18.7851 18.4145 18.6767 20.3515 18.5445 20.7526C18.347 21.3479 17.8117 21.9591 17.5075 22.2742L18.1829 22.1994C18.1829 22.5289 18.1829 22.86 18.1718 23.1894L18.8217 22.2344C18.981 22.5528 19.1403 22.8711 19.2996 23.2006L19.4143 22.1835L20.112 22.4875L19.6628 21.6105C19.6644 21.5958 19.6604 21.581 19.6517 21.5691C19.6389 21.3829 19.8651 20.9484 20.1168 20.4661C20.3685 19.9839 20.6696 19.4061 20.7285 19.0735C20.8289 18.5148 20.3414 16.9868 20.2108 16.5921C18.9618 16.9058 17.6648 16.9819 16.3876 16.8165C15.0967 16.6632 13.8394 16.3015 12.6647 15.7453C12.4496 16.1114 11.6069 17.6871 11.8682 19.4952V19.5478L11.8316 19.5844C11.8316 19.5844 9.65868 21.7808 10.5332 23.4727C10.5221 23.1 10.5451 22.7271 10.6017 22.3586C10.6164 22.2633 10.6459 22.1709 10.6894 22.0848C10.7515 21.9766 10.8343 21.9368 10.9395 21.9941C11.0114 22.0436 11.0669 22.1134 11.0988 22.1947C11.4636 22.9141 11.5464 24.4468 11.548 24.4516C11.5591 24.5566 11.3887 24.7142 11.3361 24.4643C11.3361 24.4643 11.2549 22.9698 10.9092 22.2902C10.8948 22.2612 10.8789 22.233 10.8614 22.2058C10.8356 22.2677 10.8169 22.3323 10.8056 22.3984C10.742 22.8239 10.7243 23.2551 10.7531 23.6844C10.7642 23.7895 10.7292 23.8436 10.6479 23.8436C10.5667 23.8436 10.4679 23.7369 10.3293 23.5651L10.3285 23.564C9.97776 23.1292 9.26784 22.249 8.56109 22.4939C8.86217 22.7772 9.6316 23.5396 9.6077 23.9264V24.1189L9.4484 24.0234C9.4484 24.0234 8.62003 23.4918 7.79485 23.6383C8.13098 23.8643 8.81916 24.302 9.10431 24.3068C9.25406 24.372 9.22538 24.4993 9.11705 24.5184C8.79449 24.5439 8.4779 24.6196 8.17877 24.7429C8.56269 24.7938 9.93109 25.0437 10.1573 25.3143C10.1573 25.3143 10.9347 26.2613 11.4986 25.7424C11.5337 25.6994 11.8061 25.3493 11.7822 25.1615L11.7917 25.1026C12.1693 24.3163 13.595 23.2467 13.9885 23.8293C13.758 23.8065 13.5253 23.8342 13.3067 23.9104C13.2634 24.5451 13.0633 25.1592 12.7245 25.6977C12.3856 26.2363 11.9185 26.6825 11.3648 26.9966C10.8065 27.3117 10.1801 27.487 9.5392 27.5075C8.87989 27.5297 8.22564 27.3852 7.63714 27.0873C6.68134 26.6019 5.83863 25.6867 5.36232 24.2765C5.63791 26.3345 6.57301 27.6922 7.83468 28.4832C7.92389 28.5389 8.63119 28.8525 8.63119 28.8525L8.628 28.8604ZM15.8571 21.3559C15.6861 20.6386 15.5162 19.9202 15.3473 19.2008H15.3378C15.3696 18.7233 15.5496 18.1615 15.4318 17.7683L15.1259 19.1721V19.2183L15.6516 21.4466C15.6675 21.4673 15.6835 21.4896 15.6978 21.5118L16.4624 21.9893L15.7169 22.1135L15.7504 22.2281C15.7504 22.2297 15.916 22.782 15.7153 23.1576C15.6134 22.9618 15.4047 22.6276 15.2948 22.4318C15.2565 22.4382 15.0606 23.0701 14.6353 23.277C14.6289 22.9873 14.6177 22.6976 14.6177 22.4079L14.4425 22.5798C14.2703 22.7359 14.0548 22.8363 13.8244 22.8679C14.0729 22.6164 14.4791 22.174 14.4616 21.9129C14.4538 21.793 14.2889 21.548 14.0608 21.2094L14.0458 21.1872C13.5839 20.5218 12.6583 19.1228 12.4688 17.9752C12.3859 19.1069 13.3131 20.4805 13.8706 21.3049C14.0204 21.4972 14.1476 21.706 14.2497 21.9273C14.2673 22.1994 13.4851 22.8902 13.4851 22.8902C13.4851 22.8902 13.3067 23.0478 13.5424 23.0748C13.8482 23.1083 14.1561 23.0334 14.4122 22.8631C14.4234 23.0525 14.4234 23.2404 14.4234 23.4298C14.4234 23.4298 14.4043 23.5857 14.5636 23.53C14.7262 23.4764 14.8763 23.3905 15.0049 23.2775C15.1336 23.1646 15.2381 23.0269 15.3123 22.8727L15.5911 23.3693C15.6038 23.3932 15.6516 23.5619 15.779 23.4234C16.0976 23.0764 16.0276 22.5194 15.9782 22.2806L16.7747 22.1485C16.8129 22.1437 16.883 22.0021 16.8129 21.9543L15.8571 21.3559Z" fill="url(#paint7_linear_9354_84613)"/>
<path d="M12.4353 25.7472C12.1277 26.185 11.7267 26.5492 11.2613 26.8136C10.7252 27.1169 10.1226 27.2832 9.50678 27.298C8.89096 27.3127 8.28104 27.1753 7.73113 26.8979C6.58575 26.3138 5.60764 25.0739 5.27789 23.0446C5.25399 22.8982 5.07558 22.8281 5.06921 23.0621C5.0931 25.8968 6.16839 27.689 7.72317 28.6631C7.97752 28.8491 8.25354 29.0035 8.54516 29.123C12.3684 30.2929 14.9491 27.9054 15.9845 26.6465C15.6777 27.4213 15.209 28.1218 14.6098 28.7013C14.1457 29.15 13.6161 29.5257 13.0391 29.8154C12.3265 30.1722 11.5573 30.4027 10.7658 30.4966C9.97814 30.5919 9.17975 30.5461 8.40816 30.3613C7.57655 30.1672 6.79842 29.7911 6.12986 29.2601C5.46129 28.7292 4.91895 28.0567 4.54192 27.2911C3.45389 25.0628 3.63549 22.7533 4.19623 21.4545C4.32071 21.1209 4.52401 20.8222 4.78883 20.5839C4.85819 20.5164 4.94777 20.4735 5.04386 20.4617C5.13996 20.4499 5.23727 20.4699 5.3209 20.5187C5.59012 20.6906 5.82907 21.1808 5.97085 22.0816C6.04732 22.5591 6.54115 23.8754 7.3504 24.9832C7.81397 25.6199 8.38108 26.1913 9.039 26.5144C9.38607 26.6938 9.77029 26.7899 10.1611 26.7949C10.5518 26.7998 10.9384 26.7136 11.2899 26.543C11.712 26.3409 12.0988 26.0722 12.4353 25.7472Z" fill="url(#paint8_linear_9354_84613)"/>
<path fill-rule="evenodd" clip-rule="evenodd" d="M5.94606 22.1511C5.80206 21.2455 5.56206 20.7527 5.29166 20.5799C5.2079 20.531 5.11043 20.511 5.0142 20.5229C4.91796 20.5347 4.82826 20.5778 4.75886 20.6455C4.49178 20.8822 4.2864 21.1804 4.16046 21.5143C3.59726 22.8199 3.41326 25.1399 4.50766 27.3815C5.74126 29.8311 8.24846 30.9015 10.7589 30.6039C12.2096 30.441 13.5669 29.807 14.6229 28.7991C15.2232 28.2171 15.6928 27.5141 16.0005 26.7367C14.9621 27.9991 12.3797 30.3991 8.53166 29.2247C8.23881 29.1051 7.96157 28.9504 7.70606 28.7639C6.14286 27.7847 5.06286 25.9831 5.03886 23.1335L5.25006 23.1159C5.58126 25.1559 6.56046 26.3991 7.71406 26.9895C8.27339 27.2732 8.89522 27.4113 9.52206 27.3911C10.131 27.3736 10.7266 27.2089 11.2581 26.9111C11.7263 26.6458 12.1297 26.2796 12.4389 25.8391C12.1014 26.1672 11.7122 26.4375 11.2869 26.6391C10.934 26.8112 10.5458 26.8984 10.1532 26.8937C9.76067 26.8889 9.37466 26.7924 9.02606 26.6119C8.36686 26.2919 7.79726 25.7111 7.33166 25.0727C6.51886 23.9527 6.02286 22.6407 5.94606 22.1559V22.1511Z" fill="#777ABA"/>
<path fill-rule="evenodd" clip-rule="evenodd" d="M10.7442 7.32002C10.7442 7.32002 5.87377 2.12963 3.78417 1.36963C3.78417 1.36963 5.59217 1.61923 6.57457 1.88803C5.59964 1.5762 4.59467 1.36759 3.57617 1.26562C3.68177 1.90562 4.24817 4.72803 6.27857 6.11523C7.91554 6.17135 9.47519 6.82538 10.6626 7.95362C10.7314 7.88454 10.804 7.81937 10.8802 7.75843C10.8262 7.61512 10.7808 7.46872 10.7442 7.32002Z" fill="#777ABA"/>
<path fill-rule="evenodd" clip-rule="evenodd" d="M10.1971 8.47953C10.1971 8.47953 2.63548 7.93553 1.07707 8.26033C1.39435 7.99525 1.72606 7.74794 2.07068 7.51953C1.6737 7.75156 1.29016 8.00583 0.921875 8.28113C1.56188 8.85393 5.51067 12.0411 10.3315 9.44113C10.2034 9.28792 10.1052 9.11209 10.0419 8.92273C10.0341 8.75766 10.0915 8.59615 10.2019 8.47313L10.1971 8.47953Z" fill="#777ABA"/>
<path fill-rule="evenodd" clip-rule="evenodd" d="M8.02666 10.513C8.02666 10.513 4.67627 14.1498 2.73227 14.2522C2.66027 14.4122 2.60427 14.5402 2.57227 14.6314C4.70187 14.641 6.26827 14.3114 7.40747 13.8442C8.50507 13.3962 9.20427 12.8218 9.63147 12.305C10.0587 11.7882 10.1931 11.3594 10.1947 11.1514C10.1979 11.1318 10.1979 11.1118 10.1947 11.0922C10.0347 10.7082 10.5723 10.1738 10.7867 9.97222C10.7115 9.89062 10.5915 9.75782 10.4667 9.60742C9.70424 10.028 8.88273 10.3311 8.02987 10.5066L8.02666 10.513Z" fill="#777ABA"/>
<path fill-rule="evenodd" clip-rule="evenodd" d="M29.9684 3.12039C29.9684 3.12039 26.7684 3.04199 23.5684 6.86119C23.784 7.19651 23.9703 7.54982 24.1252 7.91719C29.2356 6.68839 29.8436 3.78919 29.962 3.11719L29.9684 3.12039Z" fill="#777ABA"/>
<path fill-rule="evenodd" clip-rule="evenodd" d="M29.8408 7.6282C29.8408 7.6282 26.8136 9.025 24.332 8.481C24.5292 9.07822 24.6533 9.69713 24.7016 10.3242C25.1304 10.4698 27.7288 11.177 30.3208 7.8426C30.1665 7.75811 30.0061 7.68537 29.8408 7.625V7.6282Z" fill="#777ABA"/>
<path fill-rule="evenodd" clip-rule="evenodd" d="M28.9253 12.719C28.9253 12.719 26.9381 11.383 24.7269 10.959C24.7298 11.5865 24.6469 12.2115 24.4805 12.8166C24.8565 13.0086 26.6645 13.8102 28.9253 12.727V12.719Z" fill="#777ABA"/>
<path fill-rule="evenodd" clip-rule="evenodd" d="M19.0103 16.6609C11.1399 16.0401 10.3831 11.3313 10.3607 11.1777C10.3607 11.4833 10.1143 12.0081 9.73988 12.4577C9.65508 12.5601 9.56068 12.6641 9.45508 12.7777C9.93086 13.6145 10.5975 14.3272 11.4007 14.8577C12.8898 15.8522 14.5967 16.4729 16.3767 16.6673C17.2513 16.7745 18.1357 16.7745 19.0103 16.6673V16.6609Z" fill="#777ABA"/>
<path fill-rule="evenodd" clip-rule="evenodd" d="M11.84 18.2567C11.792 18.6862 11.7984 19.12 11.8592 19.5479V19.6007L11.8224 19.6375C11.8224 19.6375 9.86239 21.6199 10.4 23.2743C10.2224 22.1095 11.36 20.5383 12.1312 19.6807C12.0016 19.2295 11.9712 17.6951 11.992 17.4551C11.9188 17.7169 11.8685 17.9846 11.8416 18.2551L11.84 18.2567Z" fill="#777ABA"/>
<path fill-rule="evenodd" clip-rule="evenodd" d="M12.6406 18.6134C12.9782 19.6198 13.6918 20.6934 14.0806 21.2502C14.3174 21.6022 14.4886 21.8566 14.4966 21.9798C14.5142 22.2422 14.1078 22.687 13.8566 22.9398C13.8566 22.9398 14.7318 22.511 14.6566 21.8038C14.6566 21.8038 12.863 18.8998 12.9574 18.3974C12.9574 18.3974 13.231 17.5478 13.4022 17.4102C13.4022 17.4102 12.5462 17.8774 12.6518 18.6166L12.6406 18.6134Z" fill="#777ABA"/>
<path fill-rule="evenodd" clip-rule="evenodd" d="M18.5286 17.9746C18.8102 18.4546 18.7014 20.4002 18.567 20.8034C18.3686 21.4034 17.831 22.0178 17.5254 22.3346C18.1334 22.0786 18.7814 20.7858 18.7814 20.7858C18.911 19.9458 19.039 18.7058 18.5286 17.9746Z" fill="#777ABA"/>
<path fill-rule="evenodd" clip-rule="evenodd" d="M16.02 9.025C15.6661 7.84382 14.737 7.65314 13.9301 8.61159C13.4929 9.17016 13.199 9.81855 13.0718 10.5049C12.9144 11.188 12.9247 11.8966 13.1019 12.5753C13.4558 13.7565 14.3849 13.9472 15.1918 12.987C15.6287 12.4271 15.9226 11.7777 16.0501 11.0904C16.2074 10.4078 16.1971 9.69979 16.02 9.02163V9.025ZM14.8308 9.31524C15.0467 9.36417 15.2095 9.57679 15.298 9.88221C15.475 10.5082 15.321 11.4768 14.8928 11.9982C14.4645 12.5196 14.0079 12.3357 13.831 11.7164C13.654 11.0971 13.7973 10.1235 14.2291 9.6021C14.4061 9.37936 14.6167 9.26462 14.8308 9.31524Z" fill="#552F82"/>
<path fill-rule="evenodd" clip-rule="evenodd" d="M15.8723 9.12659C15.5538 8.0129 14.7176 7.83312 13.9914 8.7368C13.5979 9.26345 13.3334 9.87478 13.2189 10.5219C13.0773 11.166 13.0866 11.8341 13.246 12.474C13.5645 13.5877 14.4007 13.7675 15.1269 12.8622C15.5202 12.3343 15.7847 11.7219 15.8994 11.074C16.041 10.4304 16.0317 9.76282 15.8723 9.12341V9.12659ZM14.802 9.40024C14.9963 9.44638 15.1429 9.64684 15.2225 9.93481C15.3818 10.5251 15.2432 11.4383 14.8578 11.9299C14.4723 12.4215 14.0614 12.2481 13.9022 11.6642C13.7429 11.0803 13.8719 10.1623 14.2605 9.6707C14.4198 9.4607 14.6093 9.35251 14.802 9.40024Z" fill="white"/>
<path fill-rule="evenodd" clip-rule="evenodd" d="M14.8807 11.958C15.3351 11.3772 15.5015 10.2892 15.3111 9.59319C15.1367 8.95319 14.7111 8.77879 14.2999 9.30199C13.8439 9.88279 13.6775 10.9708 13.8695 11.6668C14.0439 12.3068 14.4679 12.4796 14.8807 11.958Z" fill="#552F82"/>
<path fill-rule="evenodd" clip-rule="evenodd" d="M21.553 9.28476C21.9194 8.30158 22.6895 8.20712 23.2907 9.07133C23.6143 9.57131 23.8152 10.1385 23.8776 10.728C23.966 11.3149 23.9136 11.914 23.7246 12.4775C23.3689 13.4589 22.5881 13.5534 21.987 12.6909C21.6649 12.1902 21.4641 11.6234 21.4001 11.0342C21.3133 10.4472 21.3657 9.84852 21.553 9.28476ZM22.5099 9.60841C22.332 9.63465 22.1826 9.80434 22.0919 10.0563C21.9052 10.5811 21.9728 11.4033 22.2929 11.8704C22.613 12.3375 23.0043 12.2203 23.1822 11.6955C23.36 11.1706 23.3013 10.3502 22.9812 9.88132C22.9378 9.79468 22.8699 9.72219 22.7857 9.67254C22.7015 9.62289 22.6045 9.5982 22.5063 9.60141L22.5099 9.60841Z" fill="#552F82"/>
<path fill-rule="evenodd" clip-rule="evenodd" d="M21.6742 9.44067C22.0038 8.54147 22.6966 8.45507 23.2374 9.24547C23.5286 9.70275 23.7093 10.2215 23.7654 10.7607C23.845 11.2974 23.7978 11.8454 23.6278 12.3607C23.3078 13.2583 22.6054 13.3447 22.0646 12.5559C21.7748 12.0979 21.5942 11.5795 21.5366 11.0407C21.4586 10.5039 21.5057 9.95628 21.6742 9.44067ZM22.535 9.73667C22.375 9.76067 22.2406 9.91587 22.159 10.1463C21.991 10.6263 22.0518 11.3783 22.3398 11.8055C22.6278 12.2327 22.9798 12.1255 23.1398 11.6455C23.2998 11.1655 23.247 10.4151 22.959 9.98627C22.92 9.90703 22.8589 9.84073 22.7831 9.79533C22.7074 9.74992 22.6201 9.72733 22.5318 9.73027L22.535 9.73667Z" fill="white"/>
<path fill-rule="evenodd" clip-rule="evenodd" d="M22.3705 11.877C22.0297 11.3682 21.9577 10.4594 22.1561 9.89778C22.3369 9.38418 22.6985 9.26738 23.0057 9.72658C23.3481 10.2354 23.4201 11.1442 23.2217 11.7058C23.0393 12.2194 22.6793 12.3362 22.3705 11.877Z" fill="#552F82"/>
<path fill-rule="evenodd" clip-rule="evenodd" d="M16.1973 14.4004C16.7573 14.9588 20.9525 14.9076 21.1765 14.4116C20.1765 17.218 16.4693 16.0436 16.1973 14.4004Z" fill="#552F82"/>
<path fill-rule="evenodd" clip-rule="evenodd" d="M20.3193 15.3607C20.2809 15.5671 18.6377 16.4679 17.2969 15.4167C17.2969 15.4167 18.1945 14.8567 20.3193 15.3607Z" fill="#C3A3CD"/>
<path fill-rule="evenodd" clip-rule="evenodd" d="M20.0375 13.3317C19.9204 13.481 19.8245 13.6457 19.7527 13.8213C19.7367 13.9429 19.9863 13.5525 20.3223 13.5285C20.3873 13.5207 20.4496 13.4983 20.5047 13.4629C20.5317 13.441 20.5509 13.4109 20.5593 13.3771C20.5676 13.3433 20.5648 13.3077 20.5511 13.2757C20.5292 13.2418 20.4995 13.2137 20.4643 13.194C20.4292 13.1742 20.3898 13.1632 20.3495 13.1621C20.2873 13.1668 20.2268 13.1843 20.1718 13.2135C20.1167 13.2427 20.0683 13.2829 20.0295 13.3317H20.0375Z" fill="#552F82"/>
<path fill-rule="evenodd" clip-rule="evenodd" d="M18.7199 13.8327C18.6518 13.633 18.5548 13.4443 18.4319 13.2727C18.3947 13.2198 18.3472 13.1749 18.2922 13.1409C18.2372 13.1068 18.1759 13.0841 18.1119 13.0743C18.064 13.0729 18.0165 13.0838 17.9739 13.106C17.9314 13.1281 17.8952 13.1607 17.8687 13.2007C17.8495 13.2344 17.8432 13.2738 17.8508 13.3117C17.8585 13.3497 17.8796 13.3836 17.9103 13.4071C17.9697 13.4494 18.0382 13.4768 18.1103 13.4871C18.4847 13.5255 18.7375 13.9671 18.7279 13.8327H18.7199Z" fill="#552F82"/>
<path fill-rule="evenodd" clip-rule="evenodd" d="M14.989 8.48869C15.269 8.53829 15.4258 9.00389 15.3378 9.52869C15.2498 10.0535 14.9506 10.4391 14.6706 10.3895C14.3906 10.3399 14.2402 9.87269 14.3202 9.34789C14.4002 8.82309 14.7074 8.43909 14.989 8.48869Z" fill="white"/>
<path fill-rule="evenodd" clip-rule="evenodd" d="M22.4715 9.03817C22.2395 9.05897 22.0843 9.42857 22.1259 9.86377C22.1675 10.299 22.3883 10.6302 22.6203 10.6094C22.8523 10.5886 23.0059 10.2174 22.9659 9.78377C22.9259 9.35017 22.7035 9.01577 22.4715 9.03817Z" fill="white"/>
<path fill-rule="evenodd" clip-rule="evenodd" d="M6.27109 6.36442L6.21669 6.32923C4.74629 6.29883 2.95429 6.76762 0.917491 8.28122C1.55749 8.85402 5.50789 12.0412 10.3271 9.44123C10.1995 9.28827 10.1014 9.11306 10.0375 8.92442C9.98629 8.69723 10.2535 8.36123 10.5095 8.10043C9.36676 7.0165 7.86751 6.38722 6.29349 6.33082L6.27109 6.36442ZM8.61029 28.9596C13.4951 30.4572 16.2615 25.9084 16.2695 25.8956C16.2896 25.864 16.3213 25.8415 16.3579 25.8331C16.3944 25.8247 16.4328 25.8311 16.4647 25.8508C16.4909 25.8673 16.5111 25.8917 16.5224 25.9205C16.5336 25.9493 16.5353 25.981 16.5271 26.0108C16.306 26.936 15.8745 27.7978 15.2663 28.5292C17.2103 27.5948 18.7863 26.046 19.1863 24.1948C19.0551 24.1548 18.7063 23.7516 18.6855 23.7148C19.4071 24.134 19.7319 24.1372 20.5911 24.2556L20.6775 24.2684V24.3548C20.6768 24.5714 20.7595 24.78 20.9084 24.9373C21.0574 25.0946 21.2612 25.1885 21.4775 25.1996C22.1271 24.9372 24.1719 24.6476 24.7879 24.5596C24.5602 24.4122 24.3223 24.2812 24.0759 24.1676L23.8807 24.0748L24.0727 23.9772C24.3721 23.8462 24.6781 23.7309 24.9895 23.6316C24.4279 23.3724 23.6791 23.5116 23.6775 23.5116L23.4695 23.5484C23.7095 23.0684 24.2247 22.7852 24.6631 22.494C23.9415 22.4332 22.8615 22.9836 22.6327 23.1052C22.5991 23.2812 22.5591 23.5244 22.4423 23.6444C22.4567 23.2668 22.4871 22.7148 22.5223 22.3788C22.1511 22.814 21.3799 23.6348 21.3767 23.6364C21.3877 23.4193 21.4789 23.2141 21.6327 23.0604C21.8231 21.6796 20.8839 20.3932 20.6231 20.0668C20.5303 20.2572 20.4279 20.4524 20.3303 20.6396C20.1031 21.078 19.8983 21.4716 19.8887 21.6188L20.4615 22.7388C20.4745 22.7635 20.4773 22.7922 20.4692 22.8189C20.4611 22.8456 20.4428 22.868 20.4183 22.8812C20.4037 22.8887 20.3875 22.8926 20.3711 22.8926C20.3547 22.8926 20.3385 22.8887 20.3239 22.8812L19.6183 22.5612C19.5783 22.926 19.5367 23.2908 19.4967 23.6556C19.4967 23.7516 19.3367 23.7468 19.2967 23.6924L18.8167 22.7228L18.1767 23.6684C18.1303 23.7356 17.9799 23.6796 17.9831 23.6076C17.9831 23.238 17.9831 22.87 17.9943 22.5004L17.2503 22.5836C17.236 22.5843 17.2217 22.5821 17.2083 22.5772C17.1948 22.5723 17.1825 22.5648 17.1719 22.5552C17.1614 22.5455 17.1528 22.5339 17.1468 22.5209C17.1407 22.5079 17.1373 22.4939 17.1367 22.4796C17.1359 22.4649 17.1382 22.4502 17.1434 22.4364C17.1487 22.4226 17.1567 22.4101 17.1671 22.3996C17.1671 22.3996 18.1047 21.5468 18.3703 20.742C18.6359 19.9372 18.5303 17.9852 18.5303 17.9788C18.8119 18.4588 18.7031 20.406 18.5703 20.8092C18.3719 21.4076 17.8343 22.022 17.5287 22.3388L18.2071 22.2636C18.2071 22.5948 18.2071 22.9276 18.1959 23.2588L18.8487 22.2988C19.0087 22.6188 19.1687 22.9388 19.3287 23.27L19.4439 22.2476L20.1447 22.5532L19.6935 21.6716C19.6951 21.6568 19.6911 21.642 19.6823 21.63C19.6695 21.4428 19.8967 21.006 20.1495 20.5212C20.4023 20.0364 20.7047 19.4556 20.7639 19.1212C20.8647 18.5596 20.3751 17.0236 20.2439 16.6268C18.9894 16.9422 17.6867 17.0187 16.4039 16.8524C15.1074 16.6983 13.8446 16.3347 12.6647 15.7756C12.4487 16.1436 11.6023 17.7276 11.8647 19.5452V19.598L11.8279 19.6348C11.8279 19.6348 9.64549 21.8428 10.5239 23.5436C10.5127 23.169 10.5357 22.7941 10.5927 22.4236C10.6074 22.3278 10.6371 22.235 10.6807 22.1484C10.7431 22.0396 10.8263 21.9996 10.9319 22.0572C11.0041 22.107 11.0598 22.1772 11.0919 22.2588C11.4583 22.982 11.5415 24.5228 11.5431 24.5276C11.5543 24.6332 11.3831 24.7916 11.3303 24.5404C11.3303 24.5404 11.2487 23.038 10.9015 22.3548C10.8871 22.3257 10.871 22.2974 10.8535 22.27C10.8276 22.3322 10.8088 22.3972 10.7975 22.4636C10.7335 22.8914 10.7158 23.3248 10.7447 23.7564C10.7559 23.862 10.7207 23.9164 10.6391 23.9164C10.5575 23.9164 10.4583 23.8092 10.3191 23.6364C9.96709 23.1996 9.25349 22.3132 8.54309 22.5596C8.84549 22.8444 9.61829 23.6108 9.59429 23.9996V24.1932L9.43429 24.0972C9.43429 24.0972 8.60229 23.5628 7.77349 23.71C8.11109 23.9372 8.80229 24.3772 9.08869 24.382C9.23909 24.4476 9.21029 24.5756 9.10149 24.5948C8.77751 24.6204 8.45953 24.6965 8.15909 24.8204C8.54469 24.8716 9.91909 25.1228 10.1463 25.3948C10.1463 25.3948 10.9271 26.3468 11.4935 25.8252C11.5287 25.782 11.8023 25.43 11.7783 25.2412L11.7879 25.182C12.1671 24.3916 13.5991 23.3164 13.9943 23.902C13.7628 23.8791 13.5291 23.907 13.3095 23.9836C13.266 24.6216 13.0651 25.2389 12.7247 25.7803C12.3844 26.3217 11.9152 26.7703 11.3591 27.086C10.7983 27.4027 10.1692 27.579 9.52549 27.5996C8.86328 27.6219 8.20616 27.4766 7.61509 27.1772C6.65509 26.6892 5.80869 25.7692 5.33029 24.3516C5.60709 26.4204 6.54629 27.7852 7.81349 28.5804C7.90309 28.6364 8.61349 28.9516 8.61349 28.9516L8.61029 28.9596ZM14.9079 28.9164C14.4 29.4285 13.812 29.8544 13.1671 30.1772C12.422 30.5479 11.6179 30.7856 10.7911 30.8796C9.9654 30.9816 9.12811 30.9344 8.31909 30.7404C7.44434 30.5349 6.62604 30.138 5.92305 29.5783C5.22006 29.0186 4.64986 28.3101 4.25349 27.5036C3.11909 25.1788 3.31429 22.7628 3.90149 21.3996C4.04568 21.0218 4.28025 20.685 4.58469 20.4188C4.86629 20.2028 5.16389 20.1612 5.44229 20.3388C5.77669 20.5532 6.06469 21.11 6.22309 22.0988C6.29509 22.558 6.77189 23.8156 7.55749 24.8924C7.99909 25.4972 8.53509 26.0412 9.15749 26.3452C9.46902 26.5059 9.81374 26.5918 10.1643 26.5959C10.5148 26.6001 10.8614 26.5225 11.1767 26.3692C11.7207 26.1196 12.2967 25.654 12.9079 24.9036C12.9991 24.6364 13.0613 24.3601 13.0935 24.0796C12.4423 24.4172 12.0679 25.1068 11.9991 25.2428C11.9991 25.534 11.6631 25.9564 11.6615 25.958C10.9687 26.6604 10.0775 25.7196 9.97989 25.494C9.55109 25.2636 6.24069 24.9404 8.66469 24.454C8.25341 24.2476 7.85817 24.0107 7.48229 23.7452C7.47083 23.7378 7.46096 23.7281 7.45323 23.7169C7.4455 23.7056 7.44006 23.6929 7.43724 23.6795C7.43442 23.6662 7.43426 23.6524 7.43677 23.6389C7.43928 23.6255 7.44442 23.6127 7.45189 23.6012C7.46488 23.58 7.48549 23.5646 7.50949 23.558C8.22949 23.3164 8.98789 23.6092 9.35109 23.79C9.12549 23.3372 8.30949 22.6108 8.30789 22.6076C8.29736 22.5996 8.28854 22.5896 8.28194 22.5782C8.27534 22.5667 8.27109 22.554 8.26945 22.5409C8.26781 22.5278 8.26881 22.5145 8.27239 22.5018C8.27597 22.489 8.28205 22.4772 8.29029 22.4668C8.2998 22.4538 8.31246 22.4433 8.32709 22.4364C9.03429 22.038 9.71109 22.5964 10.1703 23.102C9.84069 21.5164 11.4023 19.7836 11.6615 19.5084C11.4119 17.67 12.2487 16.0732 12.4855 15.6684C12.0891 15.4703 11.7073 15.2441 11.3431 14.9916C10.5301 14.4546 9.85131 13.7381 9.35909 12.8972C8.80974 13.3826 8.17935 13.7677 7.49669 14.0348C6.28709 14.526 4.63909 14.8668 2.39909 14.8396H2.23909C2.25829 14.7916 2.27749 14.7436 2.29509 14.6956C2.29509 14.686 3.48869 11.67 5.10789 10.5356C3.46232 10.2175 1.93262 9.46257 0.679091 8.35002L0.587891 8.26363L0.687091 8.18843C2.67429 6.68283 4.44069 6.15162 5.91749 6.10842C3.75109 4.42202 3.34629 1.16442 3.34469 1.14842C3.34108 1.10389 3.33521 1.05956 3.32709 1.01562L3.45989 1.03003C9.07749 1.59962 10.8791 4.38042 11.1991 4.95962C12.8426 3.92372 14.766 3.42079 16.7063 3.51962C19.5463 3.65722 21.7751 4.99802 22.4023 5.50682C23.9415 3.51962 27.2215 2.76442 30.0919 2.87962C29.8583 4.85242 28.6519 6.20602 27.0023 7.02682C29.4151 6.93243 30.5431 7.71802 30.5463 7.72122L30.6391 7.78363L30.5719 7.87322C29.2295 9.63322 27.8695 10.342 26.7847 10.582C28.5031 11.438 29.1751 12.6796 29.1847 12.6828C29.2023 12.7148 29.2199 12.7468 29.2391 12.7788L29.1399 12.8284C26.8119 13.9964 24.9111 13.2188 24.4343 12.9884C24.2919 13.4334 24.0849 13.8549 23.8199 14.2396C23.2711 15.02 22.5364 15.6513 21.6823 16.0764C21.2856 16.2777 20.871 16.4416 20.4439 16.566C20.5831 16.9852 21.0839 18.5516 20.9703 19.1548C20.9157 19.3891 20.8341 19.6162 20.7271 19.8316C20.8151 19.9324 21.9271 21.2604 21.8711 22.7756C22.1367 22.4812 22.4439 22.1356 22.5799 21.9532C22.6631 21.8668 22.7607 21.9292 22.7703 22.0252C22.7703 22.0252 22.7399 22.4204 22.6807 22.8252C23.1335 22.5996 24.2919 22.0828 24.9751 22.3244C24.9751 22.3244 25.1351 22.4268 24.9959 22.5132C24.9959 22.5132 24.2903 22.9644 23.9415 23.2508C24.2951 23.2284 24.8903 23.2508 25.3127 23.5516C25.4359 23.638 25.2823 23.7388 25.2823 23.7388C25.2823 23.7388 24.7239 23.9212 24.3767 24.0588C24.6295 24.1884 25.0343 24.4156 25.1063 24.5708C25.1063 24.5708 25.2007 24.6908 25.0247 24.7196C25.0247 24.7196 22.3303 25.0604 21.6023 25.3676C21.473 25.3863 21.3412 25.3792 21.2147 25.3465C21.0881 25.3139 20.9693 25.2565 20.8651 25.1776C20.7609 25.0988 20.6734 25 20.6077 24.887C20.542 24.7741 20.4994 24.6492 20.4823 24.5196C20.4806 24.4935 20.4806 24.4673 20.4823 24.4412C20.2855 24.4124 19.7767 24.334 19.3959 24.2412C18.9351 26.2972 17.1127 27.9852 14.9159 28.9132L14.9079 28.9164ZM12.4343 25.83C12.1253 26.2701 11.7226 26.6363 11.2551 26.902C10.7167 27.2069 10.1114 27.3742 9.49292 27.3889C8.87441 27.4037 8.26181 27.2656 7.70949 26.9868C6.55909 26.3996 5.57669 25.1532 5.24549 23.1132C5.22149 22.966 5.04229 22.8956 5.03589 23.1308C5.05989 25.9804 6.13989 27.782 7.70149 28.7612C7.95696 28.9482 8.23419 29.1035 8.52709 29.2236C12.3671 30.3996 14.9591 27.9996 15.9991 26.734C15.6909 27.5129 15.2202 28.2171 14.6183 28.7996C14.1522 29.2507 13.6203 29.6284 13.0407 29.9196C12.325 30.2783 11.5524 30.51 10.7575 30.6044C9.96635 30.7002 9.16446 30.6542 8.38949 30.4684C7.55423 30.2732 6.77269 29.8951 6.10119 29.3614C5.4297 28.8277 4.88497 28.1517 4.50629 27.382C3.41349 25.142 3.59589 22.8204 4.15909 21.5148C4.28411 21.1794 4.4883 20.8792 4.75429 20.6396C4.82395 20.5718 4.91392 20.5286 5.01044 20.5168C5.10695 20.5049 5.20469 20.525 5.28869 20.574C5.55909 20.7468 5.79909 21.2396 5.94149 22.1452C6.01829 22.6252 6.51429 23.9484 7.32709 25.062C7.79269 25.702 8.36229 26.2764 9.02309 26.6012C9.37169 26.7817 9.75759 26.8782 10.1501 26.8832C10.5426 26.8882 10.9308 26.8015 11.2839 26.63C11.7078 26.4269 12.0963 26.1567 12.4343 25.83ZM15.3591 19.2492C15.5287 19.9724 15.6994 20.6946 15.8711 21.4156L16.8311 22.0172C16.9015 22.0652 16.8311 22.2076 16.7927 22.2124L15.9927 22.3452C16.0423 22.5852 16.1127 23.1452 15.7927 23.494C15.6647 23.6332 15.6167 23.4636 15.6039 23.4396L15.3239 22.9404C15.2494 23.0954 15.1444 23.2339 15.0152 23.3474C14.886 23.4609 14.7352 23.5473 14.5719 23.6012C14.4119 23.6572 14.4311 23.5004 14.4311 23.5004C14.4311 23.31 14.4311 23.1212 14.4199 22.9308C14.1626 23.1019 13.8534 23.1772 13.5463 23.1436C13.3095 23.1164 13.4887 22.958 13.4887 22.958C13.4887 22.958 14.2743 22.2636 14.2567 21.99C14.1541 21.7676 14.0263 21.5577 13.8759 21.3644C13.3159 20.5356 12.3847 19.1548 12.4679 18.0172C12.6583 19.1708 13.5879 20.5772 14.0519 21.246C14.2887 21.598 14.4615 21.8524 14.4695 21.9756C14.4871 22.238 14.0791 22.6828 13.8295 22.9356C14.0609 22.9039 14.2773 22.8029 14.4503 22.646L14.6263 22.4732C14.6263 22.7644 14.6375 23.0556 14.6439 23.3468C15.0711 23.1388 15.2679 22.5036 15.3063 22.4972C15.4167 22.694 15.6263 23.03 15.7287 23.2268C15.9303 22.8492 15.7639 22.294 15.7639 22.2924L15.7303 22.1772L16.4791 22.0524L15.7111 21.5724C15.6967 21.55 15.6807 21.5276 15.6647 21.5068L15.1367 19.2668V19.2204L15.4439 17.8092C15.5623 18.2044 15.3815 18.7692 15.3495 19.2492H15.3591ZM24.4791 12.7836C24.8567 12.9772 26.6647 13.7772 28.9239 12.694C28.7223 12.374 27.9639 11.3452 26.4167 10.6508C25.8495 10.7368 25.2706 10.7024 24.7175 10.55C24.7593 11.3047 24.6788 12.0611 24.4791 12.79V12.7836ZM24.7031 10.3228C25.1303 10.4684 27.7287 11.1756 30.3207 7.84122C30.0007 7.65882 28.7274 7.09849 26.6154 7.23609L26.7303 7.17723C25.9305 7.59312 25.0818 7.90704 24.2039 8.11163C24.4085 8.63522 24.5545 9.17988 24.6391 9.73563C24.6695 9.93083 24.6919 10.1276 24.7079 10.3228H24.7031ZM24.1191 7.91323C29.2279 6.68442 29.7463 3.78842 29.8647 3.11322C24.9047 2.95322 22.9207 5.15002 22.5447 5.63963C23.2245 6.27561 23.7612 7.04901 24.1191 7.90843V7.91323ZM5.43909 10.5868C6.90469 10.7916 8.62469 10.614 10.4679 9.61082C10.5911 9.76122 10.7127 9.89402 10.7879 9.97563C10.5719 10.1708 10.0375 10.7052 10.1943 11.0956C10.1975 11.1152 10.1975 11.1352 10.1943 11.1548C10.1943 11.3612 10.0343 11.7948 9.62309 12.31C9.21189 12.8252 8.50309 13.3996 7.40069 13.8492C6.25989 14.3148 4.69349 14.6492 2.56389 14.6348C2.83269 13.9948 3.98149 11.4348 5.43269 10.5932L5.43909 10.5868ZM10.6615 7.95323C9.47411 6.82498 7.91446 6.17095 6.27749 6.11483C4.24869 4.72763 3.67909 1.91003 3.57509 1.26522C9.60869 1.91962 11.0487 5.14682 11.0535 5.15483L11.1047 5.26522L11.1991 5.19963C12.8269 4.14545 14.7455 3.63096 16.6823 3.72922C19.6167 3.87162 21.8743 5.31322 22.3335 5.73562C23.5191 6.78522 24.1943 8.27163 24.4263 9.75963C24.6775 11.3852 24.3959 13.0188 23.6359 14.1116C23.1058 14.8592 22.3989 15.4638 21.5783 15.8716C20.0871 16.6316 18.2343 16.8316 16.4135 16.622C14.5927 16.4124 12.8087 15.7692 11.4535 14.822C10.6507 14.291 9.98416 13.5785 9.50789 12.742C9.60827 12.6403 9.70333 12.5335 9.79269 12.422C10.2391 11.8892 10.3991 11.39 10.3991 11.15C10.4005 11.1026 10.3929 11.0554 10.3767 11.0108C10.2407 10.678 10.9911 10.0668 10.9927 10.0652L11.0839 9.99162L11.0023 9.90843C11.0023 9.90843 10.3175 9.20283 10.2391 8.87803C10.1735 8.58843 11.0647 7.87643 11.0679 7.87483L11.1287 7.82522L11.0999 7.75163C11.0999 7.75163 10.8487 7.13563 10.9063 6.91803C10.9639 6.70043 11.8215 6.42843 11.8231 6.42843C11.2727 6.17563 10.7175 6.79962 10.7031 6.86523C10.6439 7.09562 10.8087 7.57563 10.8775 7.75803C10.8263 7.80123 10.7479 7.86842 10.6583 7.95323H10.6615Z" fill="#552F82"/>
<path fill-rule="evenodd" clip-rule="evenodd" d="M26.8138 18.3262C27.0491 18.3259 27.2792 18.3953 27.4751 18.5257C27.671 18.6561 27.8238 18.8416 27.9143 19.0588C28.0048 19.276 28.0288 19.5152 27.9835 19.7461C27.9381 19.977 27.8253 20.1892 27.6594 20.356C27.4935 20.5229 27.2818 20.6368 27.0512 20.6834C26.8205 20.73 26.5812 20.7072 26.3636 20.6179C26.1459 20.5286 25.9595 20.3767 25.8281 20.1816C25.6966 19.9864 25.626 19.7567 25.625 19.5214C25.6244 19.3648 25.6546 19.2096 25.7141 19.0647C25.7735 18.9198 25.861 18.7881 25.9714 18.6771C26.0818 18.5661 26.2131 18.4779 26.3576 18.4177C26.5022 18.3575 26.6572 18.3264 26.8138 18.3262Z" fill="#8BD4F3"/>
<path fill-rule="evenodd" clip-rule="evenodd" d="M26.5356 18.7207C26.5825 18.7207 26.6283 18.7346 26.6672 18.7606C26.7061 18.7866 26.7365 18.8236 26.7544 18.8669C26.7723 18.9102 26.777 18.9578 26.7679 19.0037C26.7587 19.0496 26.7362 19.0918 26.7031 19.1249C26.67 19.1581 26.6278 19.1806 26.5818 19.1897C26.5359 19.1989 26.4883 19.1942 26.445 19.1763C26.4017 19.1583 26.3648 19.128 26.3387 19.0891C26.3127 19.0501 26.2988 19.0043 26.2988 18.9575C26.2986 18.9265 26.3046 18.8957 26.3163 18.867C26.328 18.8383 26.3453 18.8122 26.3672 18.7902C26.389 18.7681 26.415 18.7507 26.4437 18.7388C26.4723 18.7268 26.503 18.7207 26.534 18.7207H26.5356Z" fill="white"/>
<path fill-rule="evenodd" clip-rule="evenodd" d="M26.3071 19.4473C26.3304 19.4473 26.3528 19.4565 26.3693 19.473C26.3858 19.4895 26.3951 19.5119 26.3951 19.5353C26.3935 19.5467 26.3897 19.5577 26.3839 19.5677C26.378 19.5777 26.3703 19.5864 26.3611 19.5934C26.3519 19.6004 26.3414 19.6055 26.3302 19.6084C26.319 19.6113 26.3074 19.612 26.2959 19.6105C26.2768 19.6081 26.259 19.5994 26.2454 19.5858C26.2317 19.5722 26.2231 19.5544 26.2207 19.5353C26.2207 19.5122 26.2298 19.4901 26.2459 19.4736C26.2621 19.4571 26.284 19.4477 26.3071 19.4473Z" fill="white"/>
<path fill-rule="evenodd" clip-rule="evenodd" d="M27.3011 22.127C27.4356 22.127 27.5671 22.1668 27.6789 22.2416C27.7907 22.3163 27.8779 22.4225 27.9293 22.5467C27.9808 22.671 27.9943 22.8077 27.968 22.9396C27.9418 23.0715 27.877 23.1927 27.7819 23.2878C27.6868 23.3829 27.5657 23.4476 27.4338 23.4739C27.3019 23.5001 27.1651 23.4867 27.0409 23.4352C26.9166 23.3837 26.8104 23.2966 26.7357 23.1847C26.661 23.0729 26.6211 22.9414 26.6211 22.807C26.6211 22.6266 26.6927 22.4536 26.8203 22.3261C26.9478 22.1986 27.1208 22.127 27.3011 22.127Z" fill="#8BD4F3"/>
<path fill-rule="evenodd" clip-rule="evenodd" d="M27.201 22.2871C27.2358 22.2874 27.2696 22.298 27.2984 22.3176C27.3271 22.3371 27.3494 22.3647 27.3625 22.3969C27.3756 22.4291 27.3788 22.4644 27.3719 22.4984C27.3649 22.5325 27.348 22.5637 27.3233 22.5881C27.2987 22.6126 27.2673 22.6292 27.2332 22.6358C27.1991 22.6425 27.1638 22.6389 27.1317 22.6256C27.0997 22.6122 27.0723 22.5896 27.053 22.5607C27.0337 22.5318 27.0234 22.4979 27.0234 22.4631C27.0234 22.4399 27.028 22.4169 27.037 22.3954C27.0459 22.3739 27.059 22.3545 27.0756 22.3381C27.0921 22.3217 27.1117 22.3088 27.1332 22.3001C27.1547 22.2913 27.1778 22.2869 27.201 22.2871Z" fill="white"/>
<path fill-rule="evenodd" clip-rule="evenodd" d="M27.0304 22.8242C27.0478 22.8242 27.0645 22.8311 27.0768 22.8434C27.0891 22.8557 27.096 22.8724 27.096 22.8898C27.096 22.9072 27.0891 22.9239 27.0768 22.9362C27.0645 22.9485 27.0478 22.9554 27.0304 22.9554C27.013 22.9554 26.9964 22.9485 26.9841 22.9362C26.9718 22.9239 26.9648 22.9072 26.9648 22.8898C26.9656 22.8727 26.9728 22.8564 26.9849 22.8443C26.9971 22.8322 27.0133 22.825 27.0304 22.8242Z" fill="white"/>
<path fill-rule="evenodd" clip-rule="evenodd" d="M7.59079 14.8809C7.82623 14.8809 8.05638 14.9507 8.25214 15.0815C8.4479 15.2123 8.60048 15.3982 8.69058 15.6157C8.78067 15.8332 8.80425 16.0726 8.75832 16.3035C8.71238 16.5344 8.59901 16.7465 8.43253 16.913C8.26605 17.0795 8.05394 17.1929 7.82303 17.2388C7.59211 17.2847 7.35276 17.2611 7.13524 17.171C6.91773 17.0809 6.73181 16.9284 6.60101 16.7326C6.47021 16.5368 6.40039 16.3067 6.40039 16.0713C6.40039 15.7555 6.52581 15.4528 6.74905 15.2295C6.97229 15.0063 7.27508 14.8809 7.59079 14.8809V14.8809Z" fill="#8BD4F3"/>
<path fill-rule="evenodd" clip-rule="evenodd" d="M7.31104 15.2813C7.35774 15.2813 7.40339 15.2951 7.44226 15.3209C7.48113 15.3468 7.51148 15.3836 7.52949 15.4267C7.54751 15.4698 7.55238 15.5172 7.5435 15.5631C7.53462 15.6089 7.51238 15.6511 7.47958 15.6844C7.44678 15.7176 7.40489 15.7404 7.35917 15.7499C7.31345 15.7594 7.26594 15.7552 7.22262 15.7377C7.1793 15.7203 7.1421 15.6904 7.11569 15.6519C7.08929 15.6134 7.07487 15.5679 7.07424 15.5213C7.07382 15.4899 7.07963 15.4587 7.09134 15.4296C7.10305 15.4005 7.12042 15.3741 7.14246 15.3517C7.16449 15.3294 7.19074 15.3117 7.21968 15.2996C7.24862 15.2875 7.27967 15.2812 7.31104 15.2813Z" fill="white"/>
<path fill-rule="evenodd" clip-rule="evenodd" d="M7.08411 16C7.10151 16 7.11853 16.0052 7.133 16.0148C7.14747 16.0245 7.15875 16.0382 7.16541 16.0543C7.17207 16.0704 7.17381 16.0881 7.17042 16.1052C7.16702 16.1222 7.15864 16.1379 7.14633 16.1502C7.13403 16.1625 7.11835 16.1709 7.10128 16.1743C7.08421 16.1777 7.06651 16.176 7.05043 16.1693C7.03435 16.1626 7.02061 16.1514 7.01094 16.1369C7.00127 16.1224 6.99611 16.1054 6.99611 16.088C6.9959 16.0767 6.99792 16.0654 7.00207 16.0548C7.00622 16.0442 7.0124 16.0346 7.02028 16.0264C7.02815 16.0183 7.03756 16.0117 7.04796 16.0072C7.05837 16.0026 7.06956 16.0002 7.08091 16H7.08411Z" fill="white"/>
<path fill-rule="evenodd" clip-rule="evenodd" d="M9.16445 19.166C9.25337 19.166 9.3403 19.1924 9.41423 19.2418C9.48817 19.2912 9.5458 19.3614 9.57982 19.4436C9.61385 19.5257 9.62276 19.6161 9.60541 19.7033C9.58806 19.7905 9.54524 19.8706 9.48236 19.9335C9.41949 19.9964 9.33937 20.0392 9.25216 20.0566C9.16494 20.0739 9.07455 20.065 8.99239 20.031C8.91024 19.997 8.84002 19.9393 8.79062 19.8654C8.74121 19.7915 8.71484 19.7045 8.71484 19.6156C8.71484 19.4968 8.76204 19.3828 8.84606 19.2988C8.93008 19.2148 9.04403 19.1676 9.16285 19.1676L9.16445 19.166Z" fill="#8BD4F3"/>
<path fill-rule="evenodd" clip-rule="evenodd" d="M9.08537 19.3457C9.10689 19.3457 9.12793 19.3521 9.14582 19.3641C9.16371 19.376 9.17766 19.393 9.18589 19.4129C9.19413 19.4328 9.19628 19.4546 9.19208 19.4757C9.18788 19.4968 9.17752 19.5162 9.16231 19.5314C9.14709 19.5467 9.1277 19.557 9.1066 19.5612C9.08549 19.5654 9.06362 19.5633 9.04374 19.555C9.02386 19.5468 9.00687 19.5328 8.99491 19.515C8.98296 19.4971 8.97657 19.476 8.97657 19.4545C8.97636 19.4402 8.97903 19.4259 8.98442 19.4126C8.98981 19.3993 8.99781 19.3872 9.00796 19.3771C9.01811 19.367 9.03019 19.3589 9.04348 19.3536C9.05678 19.3482 9.07103 19.3455 9.08537 19.3457Z" fill="white"/>
<path fill-rule="evenodd" clip-rule="evenodd" d="M8.98141 19.6816C8.98932 19.6816 8.99705 19.684 9.00363 19.6884C9.01021 19.6928 9.01533 19.699 9.01836 19.7063C9.02139 19.7136 9.02218 19.7217 9.02064 19.7294C9.01909 19.7372 9.01528 19.7443 9.00969 19.7499C9.0041 19.7555 8.99697 19.7593 8.98921 19.7609C8.98145 19.7624 8.97341 19.7616 8.9661 19.7586C8.95879 19.7556 8.95254 19.7504 8.94815 19.7439C8.94375 19.7373 8.94141 19.7296 8.94141 19.7216C8.94141 19.711 8.94562 19.7009 8.95312 19.6934C8.96062 19.6859 8.9708 19.6816 8.98141 19.6816Z" fill="white"/>
<path fill-rule="evenodd" clip-rule="evenodd" d="M7.87141 17.9199C8.00622 17.9196 8.13809 17.9593 8.25035 18.0339C8.36262 18.1085 8.45023 18.2148 8.50211 18.3392C8.55399 18.4636 8.56781 18.6006 8.54182 18.7329C8.51583 18.8652 8.4512 18.9868 8.3561 19.0824C8.261 19.1779 8.13971 19.2431 8.00755 19.2697C7.87539 19.2963 7.73832 19.2831 7.61365 19.2319C7.48898 19.1806 7.38233 19.0934 7.30717 18.9815C7.23201 18.8696 7.19172 18.7379 7.19141 18.6031C7.1912 18.5136 7.20862 18.4249 7.24268 18.3422C7.27674 18.2594 7.32677 18.1841 7.38991 18.1207C7.45306 18.0572 7.52808 18.0069 7.61069 17.9724C7.69331 17.938 7.7819 17.9201 7.87141 17.9199Z" fill="#8BD4F3"/>
<path fill-rule="evenodd" clip-rule="evenodd" d="M7.77135 18.0801C7.80648 18.0801 7.84081 18.0905 7.87002 18.11C7.89922 18.1295 7.92199 18.1573 7.93543 18.1897C7.94887 18.2222 7.95239 18.2579 7.94554 18.2923C7.93868 18.3268 7.92177 18.3584 7.89693 18.3833C7.87209 18.4081 7.84045 18.425 7.806 18.4319C7.77155 18.4387 7.73584 18.4352 7.70339 18.4218C7.67093 18.4083 7.6432 18.3856 7.62368 18.3563C7.60417 18.3271 7.59375 18.2928 7.59375 18.2577C7.59375 18.2106 7.61246 18.1654 7.64577 18.1321C7.67907 18.0988 7.72425 18.0801 7.77135 18.0801Z" fill="white"/>
<path fill-rule="evenodd" clip-rule="evenodd" d="M7.60034 18.6191C7.61773 18.6191 7.63442 18.6261 7.64672 18.6384C7.65902 18.6507 7.66594 18.6673 7.66594 18.6847C7.6673 18.6933 7.66698 18.7019 7.66499 18.7103C7.663 18.7187 7.65937 18.7266 7.65432 18.7336C7.64927 18.7406 7.64289 18.7465 7.63555 18.751C7.62821 18.7556 7.62005 18.7586 7.61154 18.7599C7.59441 18.7623 7.57704 18.7579 7.56304 18.7478C7.54903 18.7377 7.53947 18.7225 7.53634 18.7055C7.53476 18.6987 7.53476 18.6916 7.53634 18.6847C7.53612 18.6763 7.53757 18.668 7.54059 18.6601C7.54361 18.6523 7.54815 18.6451 7.55394 18.639C7.55974 18.6329 7.56668 18.628 7.57436 18.6246C7.58205 18.6212 7.59033 18.6193 7.59874 18.6191H7.60034Z" fill="white"/>
<path fill-rule="evenodd" clip-rule="evenodd" d="M22.797 26.8047C22.6676 26.8047 22.541 26.8431 22.4334 26.915C22.3258 26.9869 22.2419 27.0891 22.1924 27.2087C22.1429 27.3282 22.1299 27.4598 22.1552 27.5868C22.1804 27.7137 22.2427 27.8303 22.3342 27.9218C22.4258 28.0133 22.5424 28.0757 22.6693 28.1009C22.7963 28.1262 22.9278 28.1132 23.0474 28.0637C23.167 28.0142 23.2692 27.9303 23.3411 27.8227C23.413 27.715 23.4514 27.5885 23.4514 27.4591C23.4514 27.2855 23.3824 27.1191 23.2597 26.9964C23.137 26.8736 22.9705 26.8047 22.797 26.8047Z" fill="#8BD4F3"/>
<path fill-rule="evenodd" clip-rule="evenodd" d="M22.9499 27.0254C22.9243 27.0254 22.8992 27.033 22.8779 27.0472C22.8566 27.0615 22.84 27.0817 22.8302 27.1054C22.8204 27.1291 22.8178 27.1551 22.8228 27.1803C22.8278 27.2054 22.8401 27.2285 22.8583 27.2466C22.8764 27.2648 22.8995 27.2771 22.9246 27.2821C22.9498 27.2871 22.9758 27.2845 22.9995 27.2747C23.0232 27.2649 23.0434 27.2483 23.0577 27.227C23.0719 27.2057 23.0795 27.1806 23.0795 27.155C23.0795 27.1206 23.0659 27.0877 23.0416 27.0633C23.0173 27.039 22.9843 27.0254 22.9499 27.0254Z" fill="white"/>
<path fill-rule="evenodd" clip-rule="evenodd" d="M23.0754 27.4199C23.0629 27.4207 23.0511 27.426 23.0423 27.4348C23.0334 27.4437 23.0281 27.4554 23.0274 27.4679C23.0271 27.4743 23.0282 27.4806 23.0306 27.4865C23.0329 27.4925 23.0364 27.4979 23.0409 27.5024C23.0454 27.5069 23.0508 27.5104 23.0567 27.5127C23.0627 27.5151 23.069 27.5161 23.0754 27.5159C23.0815 27.5161 23.0875 27.5151 23.0933 27.513C23.099 27.5109 23.1042 27.5076 23.1087 27.5035C23.1131 27.4993 23.1167 27.4943 23.1192 27.4888C23.1218 27.4832 23.1232 27.4772 23.1234 27.4711C23.1236 27.4648 23.1225 27.4584 23.1202 27.4525C23.1178 27.4466 23.1143 27.4412 23.1098 27.4367C23.1053 27.4322 23.0999 27.4287 23.094 27.4263C23.0881 27.424 23.0817 27.4229 23.0754 27.4231V27.4199Z" fill="white"/>
<path fill-rule="evenodd" clip-rule="evenodd" d="M22.055 28.0293C22.0063 28.0293 21.9586 28.0437 21.9181 28.0708C21.8776 28.0979 21.846 28.1364 21.8274 28.1814C21.8087 28.2264 21.8038 28.276 21.8133 28.3238C21.8228 28.3716 21.8463 28.4155 21.8808 28.4499C21.9152 28.4844 21.9591 28.5079 22.0069 28.5174C22.0547 28.5269 22.1043 28.522 22.1493 28.5033C22.1943 28.4847 22.2328 28.4531 22.2599 28.4126C22.2869 28.3721 22.3014 28.3244 22.3014 28.2757C22.3014 28.2103 22.2754 28.1477 22.2292 28.1015C22.183 28.0553 22.1203 28.0293 22.055 28.0293Z" fill="#8BD4F3"/>
<path fill-rule="evenodd" clip-rule="evenodd" d="M22.0984 28.1276C22.0825 28.1253 22.0664 28.1291 22.0533 28.1383C22.0401 28.1476 22.0311 28.1615 22.028 28.1772C22.0257 28.1933 22.0297 28.2097 22.0393 28.2228C22.0488 28.236 22.0632 28.2449 22.0792 28.2476H22.0984C22.1126 28.2453 22.1255 28.238 22.1349 28.227C22.1442 28.216 22.1493 28.2021 22.1493 28.1876C22.1493 28.1732 22.1442 28.1593 22.1349 28.1483C22.1255 28.1373 22.1126 28.13 22.0984 28.1276Z" fill="white"/>
<path fill-rule="evenodd" clip-rule="evenodd" d="M22.1552 28.3086C22.1508 28.3086 22.1465 28.3099 22.1428 28.3124C22.1391 28.3148 22.1362 28.3183 22.1345 28.3224C22.1328 28.3265 22.1324 28.331 22.1332 28.3354C22.1341 28.3397 22.1362 28.3437 22.1394 28.3468C22.1425 28.35 22.1465 28.3521 22.1508 28.353C22.1552 28.3538 22.1597 28.3534 22.1638 28.3517C22.1679 28.35 22.1714 28.3471 22.1738 28.3434C22.1763 28.3398 22.1776 28.3354 22.1776 28.331C22.1776 28.3251 22.1753 28.3194 22.1711 28.3152C22.1669 28.311 22.1612 28.3086 22.1552 28.3086Z" fill="white"/>
<path fill-rule="evenodd" clip-rule="evenodd" d="M22.5306 28.8945C22.4566 28.8945 22.3842 28.9165 22.3226 28.9576C22.2611 28.9988 22.2131 29.0572 22.1847 29.1257C22.1564 29.1941 22.149 29.2693 22.1634 29.342C22.1779 29.4146 22.2135 29.4813 22.2659 29.5337C22.3183 29.586 22.385 29.6217 22.4576 29.6361C22.5302 29.6506 22.6055 29.6432 22.6739 29.6148C22.7423 29.5865 22.8008 29.5385 22.8419 29.4769C22.8831 29.4154 22.905 29.343 22.905 29.2689C22.905 29.1696 22.8656 29.0744 22.7954 29.0042C22.7252 28.934 22.6299 28.8945 22.5306 28.8945Z" fill="#8BD4F3"/>
<path fill-rule="evenodd" clip-rule="evenodd" d="M22.5843 28.9821C22.5588 28.9821 22.5344 28.9922 22.5164 29.0102C22.4984 29.0282 22.4883 29.0526 22.4883 29.0781C22.4883 29.0974 22.494 29.1162 22.5047 29.1323C22.5155 29.1483 22.5307 29.1609 22.5485 29.1682C22.5664 29.1756 22.586 29.1776 22.6049 29.1738C22.6239 29.17 22.6412 29.1607 22.6549 29.1471C22.6685 29.1334 22.6778 29.116 22.6816 29.0971C22.6854 29.0782 22.6834 29.0586 22.676 29.0407C22.6687 29.0229 22.6562 29.0076 22.6401 28.9969C22.6241 28.9862 22.6052 28.9805 22.5859 28.9805L22.5843 28.9821Z" fill="white"/>
<path fill-rule="evenodd" clip-rule="evenodd" d="M22.6787 29.2823C22.674 29.2811 22.6691 29.2809 22.6643 29.2818C22.6594 29.2826 22.6549 29.2845 22.6508 29.2872C22.6467 29.2899 22.6433 29.2934 22.6406 29.2975C22.638 29.3016 22.6363 29.3062 22.6355 29.3111C22.6336 29.3204 22.6354 29.3301 22.6404 29.3382C22.6455 29.3462 22.6535 29.352 22.6627 29.3543H22.6787C22.6881 29.3543 22.697 29.3506 22.7036 29.344C22.7102 29.3374 22.7139 29.3284 22.7139 29.3191C22.7142 29.3144 22.7135 29.3098 22.7119 29.3055C22.7103 29.3011 22.7079 29.2971 22.7048 29.2937C22.7016 29.2903 22.6979 29.2875 22.6937 29.2856C22.6895 29.2836 22.685 29.2825 22.6803 29.2823H22.6787Z" fill="white"/>
<defs>
<linearGradient id="paint0_linear_9354_84613" x1="15.599" y1="30.6883" x2="15.599" y2="0.9025" gradientUnits="userSpaceOnUse">
<stop stop-color="#7BD5F5"/>
<stop offset="1" stop-color="#DCCFE5"/>
</linearGradient>
<linearGradient id="paint1_linear_9354_84613" x1="15.599" y1="30.6883" x2="15.599" y2="0.9025" gradientUnits="userSpaceOnUse">
<stop stop-color="#7BD5F5"/>
<stop offset="1" stop-color="#DCCFE5"/>
</linearGradient>
<linearGradient id="paint2_linear_9354_84613" x1="15.599" y1="30.6883" x2="15.599" y2="0.9025" gradientUnits="userSpaceOnUse">
<stop stop-color="#7BD5F5"/>
<stop offset="1" stop-color="#DCCFE5"/>
</linearGradient>
<linearGradient id="paint3_linear_9354_84613" x1="15.599" y1="30.6883" x2="15.599" y2="0.9025" gradientUnits="userSpaceOnUse">
<stop stop-color="#7BD5F5"/>
<stop offset="1" stop-color="#DCCFE5"/>
</linearGradient>
<linearGradient id="paint4_linear_9354_84613" x1="15.599" y1="30.6883" x2="15.599" y2="0.9025" gradientUnits="userSpaceOnUse">
<stop stop-color="#7BD5F5"/>
<stop offset="1" stop-color="#DCCFE5"/>
</linearGradient>
<linearGradient id="paint5_linear_9354_84613" x1="15.599" y1="30.6883" x2="15.599" y2="0.9025" gradientUnits="userSpaceOnUse">
<stop stop-color="#7BD5F5"/>
<stop offset="1" stop-color="#DCCFE5"/>
</linearGradient>
<linearGradient id="paint6_linear_9354_84613" x1="15.599" y1="30.6883" x2="15.599" y2="0.9025" gradientUnits="userSpaceOnUse">
<stop stop-color="#7BD5F5"/>
<stop offset="1" stop-color="#DCCFE5"/>
</linearGradient>
<linearGradient id="paint7_linear_9354_84613" x1="15.599" y1="30.6883" x2="15.599" y2="0.9025" gradientUnits="userSpaceOnUse">
<stop stop-color="#7BD5F5"/>
<stop offset="1" stop-color="#DCCFE5"/>
</linearGradient>
<linearGradient id="paint8_linear_9354_84613" x1="15.599" y1="30.6883" x2="15.599" y2="0.9025" gradientUnits="userSpaceOnUse">
<stop stop-color="#7BD5F5"/>
<stop offset="1" stop-color="#DCCFE5"/>
</linearGradient>
</defs>
</svg>
