<svg class="svg-icon" viewBox="0 0 24 24" fill="none" xmlns="http://www.w3.org/2000/svg">
    <path class="svg-icon-path" d=" M6.20196 14.6386C6.20196 15.7949 5.25733 16.7396 4.10098 16.7396C2.94463 16.7396 2 15.7949 2 14.6386C2
        13.4822 2.94463 12.5376 4.10098 12.5376H6.20196V14.6386Z" />
    <path class="svg-icon-path" d=" M7.26062 14.6386C7.26062 13.4822 8.20525 12.5376 9.3616 12.5376C10.518 12.5376 11.4626 13.4822 11.4626
        14.6386V19.8992C11.4626 21.0555 10.518 22.0001 9.3616 22.0001C8.20525 22.0001 7.26062 21.0555 7.26062
        19.8992V14.6386Z" />
    <path class="svg-icon-path" d=" M9.3616 6.20196C8.20525 6.20196 7.26062 5.25733 7.26062 4.10098C7.26062 2.94463 8.20525 2 9.3616 2C10.518 2
        11.4626 2.94463 11.4626 4.10098V6.20196H9.3616Z" />
    <path class="svg-icon-path" d=" M9.36157 7.2605C10.5179 7.2605 11.4626 8.20512 11.4626 9.36148C11.4626 10.5178 10.5179 11.4625 9.36157
        11.4625H4.10098C2.94463 11.4625 2 10.5178 2 9.36148C2 8.20512 2.94463 7.2605 4.10098 7.2605H9.36157Z" />
    <path class="svg-icon-path" d=" M17.7981 9.36148C17.7981 8.20512 18.7427 7.2605 19.899 7.2605C21.0554 7.2605 22 8.20512 22 9.36148C22
        10.5178 21.0554 11.4625 19.899 11.4625H17.7981V9.36148Z" />
    <path class="svg-icon-path" d=" M16.7394 9.36157C16.7394 10.5179 15.7948 11.4626 14.6384 11.4626C13.4821 11.4626 12.5374 10.5179 12.5374
        9.36157V4.10098C12.5374 2.94463 13.4821 2 14.6384 2C15.7948 2 16.7394 2.94463 16.7394 4.10098V9.36157Z" />
    <path class="svg-icon-path" d=" M14.6384 17.7981C15.7948 17.7981 16.7394 18.7427 16.7394 19.8991C16.7394 21.0554 15.7948 22.0001 14.6384
        22.0001C13.4821 22.0001 12.5374 21.0554 12.5374 19.8991V17.7981H14.6384Z" />
    <path class="svg-icon-path" d=" M14.6384 16.7396C13.4821 16.7396 12.5374 15.7949 12.5374 14.6386C12.5374 13.4822 13.4821 12.5376 14.6384
        12.5376H19.899C21.0554 12.5376 22 13.4822 22 14.6386C22 15.7949 21.0554 16.7396 19.899 16.7396H14.6384Z" />
</svg>